<svg xmlns="http://www.w3.org/2000/svg" xmlns:xlink="http://www.w3.org/1999/xlink" width="82" height="82" viewBox="0 0 82 82">
  <defs>
    <clipPath id="clip-path">
      <rect id="Rectángulo_401368" data-name="Rectángulo 401368" width="82" height="82" fill="#4d812e"/>
    </clipPath>
  </defs>
  <g id="Grupo_1100054" data-name="Grupo 1100054" transform="translate(-180 -1632.5)">
    <g id="Grupo_1099493" data-name="Grupo 1099493" transform="translate(180 1632.5)">
      <g id="Grupo_1099442" data-name="Grupo 1099442" transform="translate(0 0)" clip-path="url(#clip-path)">
        <path id="Trazado_878804" data-name="Trazado 878804" d="M873.753,478.463c-1.418.148-2.434,1.654-3.24,2.635-1.147,1.4-2.652,2.455-3.929,3.729-2.79,2.785-5.6,5.528-8.46,8.24-5.584,5.3-10.706,11.083-16.363,16.253-1.376,1.258-2.75,2.558-4.033,3.91-.71.748-2.024,3.592-3.4,3.056-2.429-.946,4.123-6.42,4.94-7.223,1.283-1.262,2.825-2.27,4.013-3.623,1.274-1.451,2.507-2.877,3.875-4.251,2.8-2.813,5.646-5.564,8.428-8.394,3-3.053,6.2-5.956,9.275-8.944,1.526-1.484,3.141-2.894,4.585-4.456a27.361,27.361,0,0,1,4.31-3.46v-2.866a35.612,35.612,0,0,0-2.627,2.577,29.544,29.544,0,0,0-3.564,3.012c-2.066,2.206-4.325,4.278-6.51,6.354-4.36,4.143-8.462,8.444-12.81,12.615a71,71,0,0,0-6.073,6.235,59.769,59.769,0,0,1-5.1,4.8c-.778.753-1.393,1.587-2.233,2.274a8.728,8.728,0,0,0-2.106,2.432,6.668,6.668,0,0,1-2.28,2.235c-.894.657-1.278,1.671-2.113,2.373-.866.728-2.546,1.226-2.675,2.567-.1,1.045,1.368,2.37,1.97,3.116.566.7,1.466,1.616,2.346.679,1-1.062-.419-1.7-1.16-2.2-.821-.554-1.578-2.052-.075-2.337,1.016-.192,1.653,1.121,2.343,1.623.772.561,2.926.627,3.078-.791.162-1.508-2.23-.928-2.983-1.455a1.182,1.182,0,0,1,.7-2.157c1.106-.091,1.719,1.111,2.718,1.283,2.065.355,4.048-3.285,5.3-4.548,1.838-1.859,3.725-3.715,5.688-5.441,1.842-1.62,3.376-3.6,5.126-5.321,4.3-4.24,8.767-8.337,13-12.642,1.062-1.08,2.311-1.958,3.356-3.038a30.865,30.865,0,0,1,2.156-2.476,11.48,11.48,0,0,0,2.571-2.151c.556-.814.96-1.838,1.968-2.163Z" transform="translate(-791.797 -453.649)" fill="#4d812e"/>
        <path id="Trazado_878805" data-name="Trazado 878805" d="M53.042,0a39.28,39.28,0,0,0-2.347,3.428,15.842,15.842,0,0,1-2.441,3.239A10.093,10.093,0,0,1,45.631,9.09c-1.139.553-2.243.714-2.852,1.984-.518,1.081.038,2.483-.677,3.446s-2.114.708-3.075,1.289c-1.248.755-1.257,1.855-1.537,3.109-.266,1.194-.807,1.206-1.948,1.017-1.755-.291-4.288.436-3.73,2.813.189.805,1.459,1.31,1.308,2.157-.2,1.124-1.618.568-2.333.5-2.817-.256-3.118,1.605-4.751,3.349-1.614,1.724-3.712,3.527-6.159,2.827-1.394-.4-5.715-2.047-6.237.447-.279,1.333,1.069,1.142,1.9.978a8.134,8.134,0,0,1,3.6.006c1.037.311,1.463,1.253.476,1.988-.927.689-1.775.019-2.746-.12-1.023-.147-1.975.533-2.948.24-.757-.229-1.689-1.521-2.45-.552-.693.882.541,2.1,1.129,2.647.917.847,1.454.495,2.416-.1,2.184-1.345,3.277,1.155.9,1.968-.9.308-1.477.912-2.3,1.257-1.111.467-1.463-.334-1.977-1.2-.44-.74-1.168-2.424-2.149-2.516-1.074-.1-1.361,1.021-.941,1.767.612,1.086,1.993,1.779,2.486,2.941.525,1.238-.32,1.653-1.14,2.317-.872.706-1.445,1.666-2.335,2.35a5.535,5.535,0,0,0-1.9,1.97c-.506,1.033-.668,1.534-1.913,1.748-.834.143-1.7.009-2.309.728C.224,51.9,2.235,54.263,0,54.039v2.037a10.285,10.285,0,0,1,2.733-.716c1.069.016,2.076,1.231,3.15.707.969-.473.753-1.606-.164-2.012s-2.609.167-2.893-1.279c-.623-3.17,4.493.343,5.125.289,2.13-.182,3.528-3.146,2.754-4.9-.512-1.16-1.08-1.873.027-2.912.577-.542,1.308-.863,1.848-1.47,1.1-1.239,2.756-3.6,4.777-2.863.746.271,1.681,1.919,2.64,1.287,1.051-.693-.156-1.548-.581-2.019-1.643-1.814.035-2.848,1.393-4.077a27.449,27.449,0,0,0,1.758-2.41A16.509,16.509,0,0,1,25.06,32c1.645-1.252,2.7-3.228,4.344-4.411,1.821-1.307,3.991.339,5.848-1.048.461-.345,1.247-1.013,1.147-1.662-.153-.994-1.324-.763-1.985-1.167-.686-.42-1.063-1.47-.268-1.986s2.169.09,2.76.639,1.177,1.861,2.239,1.136c.868-.592.227-1.563.038-2.281-.579-2.2.283-4.249,2.665-4.433,1.222-.094,1.6-.132,2.069-1.362.408-1.068.316-2.185.63-3.246.211-.713.848-1.6,1.727-1.066.7.423.4,1.516,1.129,1.95a1,1,0,0,0,1.579-.909c.012-.856-1.034-1.4-.962-2.3C48.1,8.79,49.5,7.729,50.179,7.025a14.256,14.256,0,0,0,1.789-2.22C52.263,4.344,54.871.72,55.342,0ZM6.646,49.7c.176-1.515,2.724-2.737,2.51-.521C9.483,51,6.39,51.9,6.646,49.7" transform="translate(0.043 0.044)" fill="#4d812e"/>
        <path id="Trazado_878806" data-name="Trazado 878806" d="M59.95,162.158c-.271-1.006-1.43-.762-2.047-.379-1.537.953-2.661,2.823-3.955,4.07-1.182,1.138-2.7,1.586-3.634,2.939-.353.508-.568,1.312-1.287,1.446-.85.159-1.251-.694-2-.8-1.62-.238-1.763,2.752-1.9,3.871-.161,1.272-1.06,3.171-2.113,1.3-.341-.607-.378-1.569-1.4-1.214-.762.266-.713,1.127-.569,1.743.365,1.566,1.125,3.123-.407,4.439-.694.6-1.679.595-2.382,1.167-.608.494-.812,1.245-1.324,1.817s-1.23.894-1.744,1.473c-.532.6-.814,1.359-1.288,2a36.59,36.59,0,0,1-3.895,4.1c-1.261,1.227-2.516,2.588-3.868,3.71s-3.285,1.767-4.18,3.371-1.278,2.847-3.241,1.575c-.75-.487-3.744-2.089-3.711.047.027,1.739,2.511.532,3.212,1.575.87,1.3-1.211,2.059-2.235,1.65-1.111-.443-2.35-2.486-3.579-.945a1.151,1.151,0,0,0,.542,1.9c.555.177,1.219-.274,1.769.049,1.806,1.061-1.012,1.931-1.636,2.318-.738.459-.929,1.3-1.4,1.966a7.567,7.567,0,0,1-1.631,1.554c-1.265.993-1.889,2.377-3.071,3.395-1.363,1.175-2.507,2.572-3.825,3.808-1.028.964-2,2.219-3.15,3.1v2.532c2.053-1.51,8.265-8.047,8.948-8.8,2.625-2.883,5.343-5.615,8.139-8.319a25,25,0,0,1,4.356-3.594c1.682-1,1.77-3.035,3.355-4.174.762-.548,1.673-.852,2.432-1.383a24.622,24.622,0,0,0,2.02-2.01c1.616-1.436,2.933-2.976,4.459-4.5,1.247-1.247,2.379-2.628,3.6-3.914.969-1.025,1.606-2.658,2.917-3.254,1.745-.794,2.334-.492,2.778-2.609.4-1.925,1.5-1.853,2.838-2.968A3.225,3.225,0,0,0,47,173.986c.066-.574-.154-1.256.284-1.72,1-1.058,2.639.33,3.751-.932.669-.759.8-1.63,1.622-2.294.635-.511,1.411-.8,2.041-1.334,1.363-1.152,2.414-2.638,3.794-3.786.5-.418,1.673-.947,1.453-1.762" transform="translate(0.043 -154.79)" fill="#4d812e"/>
        <path id="Trazado_878807" data-name="Trazado 878807" d="M709.719,775.6c-.008-.332-.3-.87-.291-1.138a2.589,2.589,0,0,1,.8-1.71c.877-.907,2.213-.927,3.072-1.839a15.843,15.843,0,0,0,1.058-1.747,15.156,15.156,0,0,1,1.711-1.818,16.058,16.058,0,0,1,3.375-2.8c2.664-1.519,4.022-4.639,6.083-6.848a80.08,80.08,0,0,1,7.673-7.511,31.5,31.5,0,0,0,2.9-3.154c.945-.995,1.993-1.893,2.938-2.9,2.267-2.411,4.86-4.323,7.315-6.509,2.141-1.908,3.452-5.445,6.3-6.411a5.883,5.883,0,0,0,1.637-.5c.63-.45.7-1.194,1.027-1.828.645-1.257,1.714-1.546,2.715-2.332v-3.246c-.479.341-1.411,1.823-1.831,2.106A8.591,8.591,0,0,0,753.522,728c-.846,1.24-2.091,1.631-3.216,2.566a34.025,34.025,0,0,0-3.3,3.481c-1.838,2.035-4,3.76-5.949,5.691-1.969,1.953-3.979,3.848-5.987,5.755-.909.863-1.576,1.928-2.48,2.8-.927.889-1.883,1.737-2.8,2.644-2.076,2.063-4.162,4.116-6.184,6.232a25.667,25.667,0,0,0-2.866,3.232,7.569,7.569,0,0,1-1.986,2.5,22.688,22.688,0,0,0-5.3,4.332c-.684.848-.913,1.932-1.819,2.615-.808.609-1.829.673-2.555,1.423-.85.879-.893,2.027-2.039,2.657-.8.438-1.893.646-2.048,1.676Z" transform="translate(-676.075 -693.644)" fill="#4d812e"/>
        <path id="Trazado_878808" data-name="Trazado 878808" d="M760.291,0c-.634,1.13-1.746,2.783-3.192,2.775-1.034-.006-2.544-1.061-2.432.815.041.7.5,1.246.358,1.99a3.1,3.1,0,0,1-1.119,1.678c-1.3,1.09-2.657,1.863-3.893,3.094-1.207,1.2-2.28,2.583-3.515,3.738-1.022.956-2.288,1.424-3.1,2.622a4.149,4.149,0,0,1-2.8,2.231c-1.609.452-1.59,1.38-2.349,2.667-.7,1.189-1.963,1.614-2.839,2.618s-.782,1.959-.762,3.2c.026,1.6-.716,1.375-2,1.181s-1.853.324-2.443,1.4a6.94,6.94,0,0,1-2.47,2.567c-.966.732-1.452,1.885-2.307,2.742a28.284,28.284,0,0,0-2.172,2.916c-.753.956-2.077,1.155-2.938,2.019-1.179,1.183-.488,2.1.119,3.4.312.669.99,2.273,1.957,1.243.907-.966-.88-2.323-.429-3.426.717-1.754,2.485-.53,3.715-.792,1.606-.342.305-1.351-.079-2.088-.474-.907.126-1.842,1.2-1.5.777.246,1.331,1.526,2.295.792,1.293-.984-.595-1.591-.959-2.258-.715-1.31.731-2.172,1.726-1.237.475.447,1.093,1.772,1.792.572s-1.111-2.561-.038-3.768c.941-1.058,2.26-.365,3.411-.394,3.27-.083.569-3.424,1.785-5.236.687-1.023,1.98-1.278,2.665-2.364s.751-2,2.012-2.573c1.281-.578,2.24-.534,2.994-1.865a5.346,5.346,0,0,1,2.351-2.431c1.177-.7,1.769-1.844,2.676-2.82.871-.937,1.791-1.891,2.7-2.79.942-.932,2.242-1.393,3.164-2.335.86-.88.935-2.006,1.553-3,.721-1.161,2.256-1.639,3.243-2.582.433-.414,2.318-2.036,2.36-2.8Z" transform="translate(-690.16 0.044)" fill="#4d812e"/>
        <path id="Trazado_878809" data-name="Trazado 878809" d="M50.8,718.732c-1.107-.182-2.1.868-2.683,1.63-.692.9-1.208,1.645-2.459,1.648-.826,0-1.761-.484-2.274.422-.441.779.09,1.756-.4,2.665a13.318,13.318,0,0,1-2.427,2.729c-.766.751-1.876,1.2-2.489,2.092-.526.764-.61,1.955-1.7,2.083-1.045.123-2.373-1.1-2.282.785.052,1.072.474,1.592-.377,2.51-.819.883-1.941,1.571-2.805,2.45a14.387,14.387,0,0,1-2.651,1.741c-1.108.738-1.28,1.8-1.842,2.916a12.036,12.036,0,0,1-2.124,2.775c-4.117,4.363-8.457,8.536-12.674,12.805C7.764,761.877,3.979,765.895,0,769.65v1.539H.9a29.634,29.634,0,0,1,3.121-3.146c1.127-1.134,2.217-2.3,3.34-3.441,2.2-2.232,4.483-4.387,6.652-6.651,4.143-4.323,8.818-8.264,12.621-12.9.781-.951,1.284-2.039,2.016-3.008a15.4,15.4,0,0,1,2.567-2.146c1.084-.939,2.245-1.921,3.277-2.908.849-.813,1.215-1.989,2.073-2.784a22.388,22.388,0,0,0,2.768-2.6,23.117,23.117,0,0,1,2.361-2.352,18.9,18.9,0,0,0,2.457-2.547c.574-.821.62-2.027,1.512-2.586.947-.593,2-.434,2.912-1.257.717-.649,1.241-1.4,2.01-2.008.7-.552,1.86-1.854.208-2.125" transform="translate(0.043 -689.232)" fill="#4d812e"/>
        <path id="Trazado_878810" data-name="Trazado 878810" d="M87.464,768.423A12.62,12.62,0,0,1,89.569,766c1.141-1.184,2.327-2.328,3.493-3.489q3.248-3.235,6.5-6.463c1.727-1.716,3.371-3.5,5.1-5.2,1.929-1.905,3.673-3.944,5.548-5.925,3.443-3.639,6.987-7.213,10.554-10.733,2.01-1.983,3.952-4.026,5.945-6.023a41.988,41.988,0,0,1,4.463-4.3,35.553,35.553,0,0,0,4.923-4.992c.511-.559,1.852-1.415,1.732-2.319-.143-1.083-1.433-.743-2.029-.3-.858.644-1.29,1.812-1.958,2.631a21.818,21.818,0,0,1-2.231,2.285A21.48,21.48,0,0,1,129.1,722.9a10.273,10.273,0,0,0-2.176,2.393c-1.506,1.911-3.428,3.48-5.083,5.261-1.55,1.669-3.172,3.266-4.748,4.91-1.947,2.03-4.306,3.693-6.1,5.852-1.416,1.7-2.809,3.385-4.31,5.021-3.474,3.785-7.226,7.294-10.825,10.96-1.085,1.1-10.257,9.667-10.99,11.123Z" transform="translate(-81.351 -686.467)" fill="#4d812e"/>
        <path id="Trazado_878811" data-name="Trazado 878811" d="M33.262,71.347c-1.353-.656-2.492,1.607-3.429,2.267a6.046,6.046,0,0,0-2.549,3.121c-.7,1.617-2.119,2.39-3.338,3.59-1.083,1.066-1.788,2.628-3.058,3.477-.712.476-1.569.575-2.312.987a18.774,18.774,0,0,0-2.455,1.9A9.487,9.487,0,0,0,13.3,89.936c-.837,1.618-1.992,2.257-3.332,3.435a50.055,50.055,0,0,0-3.385,3.834c-1.3,1.4-2.906,2.493-4.2,3.918-.817.9-1.35,2.4-2.387,3.125v2.14a13.578,13.578,0,0,0,1.607-1.093,7.8,7.8,0,0,0,1.518-2.014c1.047-1.594,2.631-2.656,4-3.946,1.593-1.5,2.765-3.429,4.483-4.8.653-.52,1.48-.77,2.113-1.3a5.114,5.114,0,0,0,1.206-2.245,9.6,9.6,0,0,1,3.7-3.955c1.22-.83,2.859-.957,3.9-2,1.107-1.108,1.809-2.523,2.986-3.6,1.041-.957,2.493-1.9,3.148-3.174a7.847,7.847,0,0,1,3.019-3.749c.8-.517,3.678-2.139,1.572-3.16" transform="translate(0.043 -68.268)" fill="#4d812e"/>
        <path id="Trazado_878812" data-name="Trazado 878812" d="M1161.4,1049.594a16.945,16.945,0,0,0-1.876,1.956,6.119,6.119,0,0,1-2.08,1.264,8.82,8.82,0,0,0-4.541,3.568c-.442.714-.573,1.561-.994,2.292a11.925,11.925,0,0,1-2.234,2.511c-1.384,1.331-2.75,3.061-4.525,3.884-.683.317-1.515.353-2.041.934a5.119,5.119,0,0,0-.674,1.794c-.608,1.643-1.859,2.693-3.074,3.9a60.815,60.815,0,0,1-4.521,4.107c-1.274,1.037-2.965,1.3-4.122,2.411-1.305,1.258-3,2.931-3.3,4.726a5.008,5.008,0,0,1-.5,1.863c-.35.593-1.175,1.135-1.3,1.853a.987.987,0,0,0,.934,1.248c.843.007,1.241-.97,1.558-1.575.787-1.5,1.093-3.4,2.18-4.7,2.275-2.725,5.572-4.29,8.137-6.709a40.9,40.9,0,0,0,4.594-4.725,15.54,15.54,0,0,1,3.213-3.608,35.01,35.01,0,0,0,7.541-7.888,12.112,12.112,0,0,1,3.7-3.868,16.428,16.428,0,0,0,2.226-1.326c.614-.5,1.083-1.187,1.712-1.673Z" transform="translate(-1079.447 -1006.563)" fill="#4d812e"/>
        <path id="Trazado_878813" data-name="Trazado 878813" d="M28.258,1047.24c-.852-1.2-1.979-.546-2.792.338-.923,1-.908,2.563-1.906,3.418s-2.278,1.129-3.272,2.1q-3.844,3.757-7.607,7.6c-2.188,2.237-4.222,4.769-6.6,6.789-1.225,1.042-2.341,2.187-3.48,3.32a29.753,29.753,0,0,1-2.6,2.771v2.7a47.716,47.716,0,0,0,3.38-3.458c1.349-1.35,2.7-2.641,4.08-3.95,2.756-2.614,5.275-5.509,7.952-8.206,1.339-1.35,2.641-2.733,3.992-4.07,1.064-1.053,2.229-2.616,3.537-3.355.805-.455,1.189-.255,2.017-.052.525.129,1.112.372,1.488-.188.714-1.063-1.11-2.112-.477-3.362.948-1.874,1.633.318,1.905,1.11.326.947,1.494,1.268,1.929.177.389-.977-.974-2.878-1.546-3.684" transform="translate(0.043 -1003.677)" fill="#4d812e"/>
        <path id="Trazado_878814" data-name="Trazado 878814" d="M1212.018,1239.194c.05-.8.824-1.4,1.165-2.086.317-.637.37-1.374.689-2.006a13.781,13.781,0,0,1,3.524-3.669c1.373-1.133,2.76-2.1,4.206-3.12,1.209-.854,1.781-2.206,2.825-3.216,1-.965,1.864-2.065,2.867-3.012a31.6,31.6,0,0,0,2.677-2.39c1.013-1.191,2.325-2.152,3.259-3.392a29.994,29.994,0,0,1,2.769-3.592,26.3,26.3,0,0,1,3.609-3.352c.662-.442,2.206-1.25,1.505-2.293-1.266-1.886-5.937,4.178-6.726,5.086a94.255,94.255,0,0,1-6.895,7.262c-2.314,2.157-4.241,4.717-6.5,6.934-2.085,2.046-4.665,3.516-6.751,5.57a10.758,10.758,0,0,0-2.649,3.917c-.371.873-1.764,2.34-1.751,3.36Z" transform="translate(-1160.246 -1157.237)" fill="#4d812e"/>
        <path id="Trazado_878815" data-name="Trazado 878815" d="M26.968,0H20.254a7.087,7.087,0,0,1-2.911,2.325,6.379,6.379,0,0,0-2.766,1.623c-.724.846-.963,1.955-1.889,2.643-1.079.8-2.519.867-3.67,1.566A7.649,7.649,0,0,0,6.506,11.2a21.278,21.278,0,0,1-2.4,2.514c-.8.933-1.2,2.074-2.082,2.958A20.776,20.776,0,0,1,0,18.72v2.826c.838.5,1.445,1.114,2.273,1.717.734.534,1.743.664,2.031-.414.59-2.214-3.164-1.276-2.961-3.02.1-.841,1.493-1.226,2.027-1.763A27.205,27.205,0,0,0,5.346,15.3c.7-.917,1.587-1.657,2.3-2.55a27.813,27.813,0,0,1,1.646-2.462c1.4-1.419,3.609-1.032,4.984-2.4a16.065,16.065,0,0,0,1.4-2.357,4.021,4.021,0,0,1,2.226-1.394c1.928-.751,3.124-2.541,5-3.36C23.962.31,24.53.7,25.557.809c.689.075,1.517.13,1.411-.809" transform="translate(0.043 0.044)" fill="#4d812e"/>
        <path id="Trazado_878816" data-name="Trazado 878816" d="M947.857,1345.857c.049-.589-.178-1.418-.162-1.988a4.7,4.7,0,0,1,.55-2.359,9,9,0,0,1,3.115-3.2c1.165-.641,2.342-.678,3.341-1.673a21.073,21.073,0,0,0,2.581-3.078c.674-1.026.75-2.207,1.577-3.172.776-.9,1.735-1.663,2.542-2.548,1.648-1.809,3.74-4.451,6.139-5.192,1.312-.406,1.773-.712,2.166-2.067.207-.71.846-2.623-.475-2.655-1.055-.026-1.26,1.714-1.725,2.357-.634.878-1.811,1.2-2.644,1.874a87.6,87.6,0,0,0-6.589,6.5c-1.831,1.833-2.8,4.27-4.576,6.154a13.3,13.3,0,0,1-3.052,1.99,14.649,14.649,0,0,0-2.649,2.33,7.181,7.181,0,0,0-2.162,3.251c-.264,1.194.316,2.293.345,3.477Z" transform="translate(-906.987 -1263.9)" fill="#4d812e"/>
        <path id="Trazado_878817" data-name="Trazado 878817" d="M339.043,1410.948c.25-.857,1.5-1.829,2.041-2.37.9-.9,1.582-1.927,2.529-2.786,1.01-.915,1.706-2.111,2.742-2.979a26.082,26.082,0,0,0,3.126-2.885c.8-.906,1.526-1.931,2.373-2.786.789-.8,1.866-1.2,2.575-2.076a14.227,14.227,0,0,1,2.072-2.486,21.311,21.311,0,0,0,2.429-2.418c.8-.885,2.083-1.386,2.738-2.381.489-.745.481-2.036-.745-1.987-.945.038-1.481,1.264-2.037,1.85-.746.787-1.51,1.558-2.256,2.354-.842.9-1.9,1.546-2.7,2.5a13.6,13.6,0,0,1-2.274,2.409,17.154,17.154,0,0,0-2.534,2.815c-.818.94-1.8,1.806-2.695,2.673-2.068,1.994-4.074,4.035-6.028,6.145-.406.439-3.341,3.593-4.281,4.406Z" transform="translate(-322.305 -1328.992)" fill="#4d812e"/>
        <path id="Trazado_878818" data-name="Trazado 878818" d="M25,1250.16c-.152-1.648-1.788-.366-2.353.293-.9,1.045-1.815,2.023-2.795,2.993-2.324,2.3-4.579,4.653-6.865,6.987q-3.481,3.554-7.011,7.067-1.655,1.652-3.324,3.29a29.044,29.044,0,0,1-2.65,2.83v2.5c1.442-1.216,4.8-4.975,5.371-5.536,2.355-2.327,4.639-4.716,6.961-7.073,2.27-2.3,4.575-4.572,6.828-6.894,1.045-1.076,2.119-2.124,3.191-3.173.732-.717,2.755-2.094,2.645-3.286" transform="translate(0.043 -1198.141)" fill="#4d812e"/>
        <path id="Trazado_878819" data-name="Trazado 878819" d="M20.1,221.269c-.28-.406-1.086-.483-1.479-.744a4.03,4.03,0,0,1-1.075-1.3c-.382-.6-2-2.7-2.5-.892-.344,1.24,1.641,1.865,1.613,3.081-.03,1.3-1.982,2.029-2.9,2.575a11.847,11.847,0,0,0-2.864,2.762,29.611,29.611,0,0,1-2.51,3.241,16.168,16.168,0,0,0-2.873,2.8c-.7,1-1.649,3.172-3.091,2.245C1.6,234.507,1.117,232.4,0,232.3v2.815A9.181,9.181,0,0,0,2.655,237.4c1.469.586,2.25-.673,3.029-1.718a17.749,17.749,0,0,1,2.927-3.415,11.921,11.921,0,0,0,2.962-3.11,13.589,13.589,0,0,1,2.927-3.29,19.374,19.374,0,0,1,3.621-2.782c.763-.34,2.966-.383,1.98-1.817" transform="translate(0.043 -208.655)" fill="#4d812e"/>
        <path id="Trazado_878820" data-name="Trazado 878820" d="M1472.805,0a32.007,32.007,0,0,1-5.517,5.289c-1.593,1.318-1.934,3.271-3.4,4.677-.8.768-1.862,1.134-2.692,1.859s-1.193,1.729-1.952,2.507c-.571.585-1.888,1-1.9,1.939-.015.872,1.21,1.536,1.967,1.55,1.224.023,1.429-.839,1.662-1.84a4.7,4.7,0,0,1,1.553-2.892c1.708-1.435,3.269-1.8,4.247-3.99a11.545,11.545,0,0,1,3.948-4.488,15.963,15.963,0,0,0,2.565-2.3,18.388,18.388,0,0,0,2.127-2.3Z" transform="translate(-1397.612 0.044)" fill="#4d812e"/>
        <path id="Trazado_878821" data-name="Trazado 878821" d="M210.15,1606a7.428,7.428,0,0,1,1.746-1.578,31,31,0,0,0,2.421-2.3c1.5-1.577,2.965-3.175,4.5-4.716,1.669-1.674,3.32-3.389,5.051-5,.566-.526,1.351-.983,1.654-1.724s.169-1.582-.77-1.5c-.914.076-1.394,1.2-1.917,1.8-.644.731-1.479,1.238-2.14,1.953-1.3,1.405-2.629,2.725-3.99,4.077l-5.24,5.208c-.595.591-3.445,2.668-3.559,3.785Z" transform="translate(-199.349 -1524.046)" fill="#4d812e"/>
        <path id="Trazado_878822" data-name="Trazado 878822" d="M1741.588,1384.474c-.807.14-2.56,2.167-2.994,2.6-1.064,1.058-1.78,1.963-3.359,1.906-1.663-.06-2.216-.173-3.48,1.119-1.112,1.136-1.651,2.04-.746,3.509,1.481,2.405,4.415.922,5.394-1.223a8.313,8.313,0,0,1,2.288-3.024c.86-.792,1.8-2.111,2.9-2.644Zm-9.088,7.635c.007-1.236,2.454-2.514,2.572-.765.086,1.282-2.582,2.531-2.572.765" transform="translate(-1659.632 -1327.727)" fill="#4d812e"/>
        <path id="Trazado_878823" data-name="Trazado 878823" d="M1716.167,1638.084a2.188,2.188,0,0,0,.879.528h.5a1.05,1.05,0,0,0,.537-.4c.551-.729-.121-1.2-.371-1.921-.545-1.564.6-2.869,1.791-3.728,2.8-2.01,4.844-4.916,7.549-7.008v-2.376c-1.119.6-6.324,6.221-7.1,6.829-1.575,1.225-2.637,1.5-3.459,3.422-.68,1.588-1.9,3.214-.32,4.654" transform="translate(-1645.096 -1556.656)" fill="#4d812e"/>
        <path id="Trazado_878824" data-name="Trazado 878824" d="M941.8,0c-.2.186-.614.368-.763.59a3.756,3.756,0,0,0-.313,1.225,4.676,4.676,0,0,1-1,2.006,5.221,5.221,0,0,1-2.2,1.3,9.109,9.109,0,0,0-2.248,1.577c-1.182.95-2.7,1.226-2.925,2.878a8.529,8.529,0,0,1-.558,2.515c-.243.6-.606,1.355.126,1.792,1.888,1.127,1.945-2.25,2.128-3.111.37-1.751,2.119-2.458,3.522-3.256a11.127,11.127,0,0,0,3.94-3.41,9.865,9.865,0,0,0,1.547-2.66c.188-.834-.138-.975-.553-1.44Z" transform="translate(-893.299 0.044)" fill="#4d812e"/>
        <path id="Trazado_878825" data-name="Trazado 878825" d="M1326.248,1688.005a50.166,50.166,0,0,1,3.72-3.39c1.127-.891,2.861-2.372,3.328-3.775a3.619,3.619,0,0,0-.029-1.959,3.138,3.138,0,0,1,.4-2.452c.567-1.347-.468-2.461-1.613-1.191a4.427,4.427,0,0,0-1,2.118c-.092.874.56,1.594.5,2.455-.1,1.512-1.846,2.715-2.922,3.595-1.34,1.1-2.466,2.472-3.821,3.532a3.093,3.093,0,0,1-1.848.754c-.647.042-1.5-.367-1.9.313Z" transform="translate(-1266.912 -1606.049)" fill="#4d812e"/>
        <path id="Trazado_878826" data-name="Trazado 878826" d="M1716.6,336.906a18.432,18.432,0,0,0-3.093,2.965c-.934,1.266-1.506,2.449-2.862,3.378-.576.4-1.249.651-1.789,1.093a15.96,15.96,0,0,0-1.44,1.69c-.653.7-2.509.913-2.815,1.707-.608,1.578,1.647,1.792,2.516,1.18,1.162-.818,1.918-2.273,3.022-3.2a36.408,36.408,0,0,0,3.572-2.959,32.068,32.068,0,0,1,2.891-3.331Z" transform="translate(-1634.641 -323.064)" fill="#4d812e"/>
        <path id="Trazado_878827" data-name="Trazado 878827" d="M764.174,0a10.885,10.885,0,0,1-.859,1.988,7.2,7.2,0,0,1-.873,1.843C761.51,5.045,760.29,4.886,759,5.352c-1.416.51-2.576,1.85-3.826,2.673-.535.352-1.43.758-1.425,1.523.006.831.774,1.046,1.453.861,1.392-.379,2.273-2.115,3.6-2.744a25.288,25.288,0,0,0,3.885-1.709,4.906,4.906,0,0,0,2.367-3.162,5.924,5.924,0,0,1,.38-1.8c.109-.2.717-.7.8-1Z" transform="translate(-722.83 0.044)" fill="#4d812e"/>
        <path id="Trazado_878828" data-name="Trazado 878828" d="M1232.619,0c-.8,1.133-1.961,1.959-2.741,3.118-.718,1.068-1.153,2.273-1.969,3.285s-2.178,1.8-2.782,2.93c-.537,1-.005,1.851,1.182,1.373.94-.379,1.59-1.668,2.281-2.382a8.8,8.8,0,0,0,2.22-2.931,7.206,7.206,0,0,1,1.848-2.978c.613-.578,1.989-1.525,2.188-2.415Z" transform="translate(-1174.707 0.044)" fill="#4d812e"/>
        <path id="Trazado_878829" data-name="Trazado 878829" d="M524.145,1832.356h3.172a9.672,9.672,0,0,0,1.026-.867,2.44,2.44,0,0,0,.224-1.661c-.122-.738-.54-1.407-.665-2.155a9.671,9.671,0,0,0-.152-1.636c-.43-1.207-1.736-1.056-2.233.079-.587,1.339.854,2.128,1.152,3.309.226.895-.213,2.281-1.373,1.544-.811-.515-.461-1.989-1.454-2.367s-1.665.776-1.377,1.621c.322.947,1.655,1.069,1.682,2.133" transform="translate(-500.957 -1750.4)" fill="#4d812e"/>
        <path id="Trazado_878830" data-name="Trazado 878830" d="M1817.594,1861.56c1.438.977-.261,1.44-.453,1.93h2.534a7.281,7.281,0,0,1,2.049-1.949c.491-.361,1.137-1.282,1.717-1.58v-2.3c-.712.4-2.959,2.864-3.686,2.913-1.274.085-1.892-2-3.24-1.369a1.121,1.121,0,0,0-.436,1.607c.385.579.995.4,1.515.748" transform="translate(-1741.486 -1781.534)" fill="#4d812e"/>
        <path id="Trazado_878831" data-name="Trazado 878831" d="M43.788,0C42.8,1.457,41.225,2.631,39.4,2.185c-.683-.167-1.392-.663-2.073-.178a1.1,1.1,0,0,0-.01,1.794c1.23,1,4.091.381,5.264-.381C42.992,3.153,46.131.711,46.3,0Z" transform="translate(-35.304 0.044)" fill="#4d812e"/>
        <path id="Trazado_878832" data-name="Trazado 878832" d="M201.878,0A21.154,21.154,0,0,1,199.8,1.94a12,12,0,0,1-1.976,1.869c-.462.321-1.434.627-1.565,1.273-.147.722.416,1.145,1.106,1.094,1.889-.14,3.135-2.476,4.27-3.667.338-.355,3.135-2.033,3.828-2.508Z" transform="translate(-188.155 0.044)" fill="#4d812e"/>
        <path id="Trazado_878833" data-name="Trazado 878833" d="M1890.42,856.285c-.769.128-2.031,3.479-2.136,3.831a10.936,10.936,0,0,1-.759,2.377c-.416.731-1.24,1.18-1.617,1.91-.366.708-.143,1.382.768,1.2.695-.137,1.363-1.165,1.764-1.673a10.316,10.316,0,0,0,1.288-2.053c.294-.637.386-1.426.691-2.063Z" transform="translate(-1808.464 -821.171)" fill="#4d812e"/>
        <path id="Trazado_878834" data-name="Trazado 878834" d="M6.94,142.5c-.46-.812-1.785-.606-2.534-.652a7.34,7.34,0,0,0-2.771.054c-.585.192-1.075.56-1.636.795v3.049c.925-.158,1.188-1.709,2.094-2.124,1.525-.7,2.825.736,4.2.343A.982.982,0,0,0,6.94,142.5" transform="translate(0.044 -135.89)" fill="#4d812e"/>
        <path id="Trazado_878835" data-name="Trazado 878835" d="M1839.1,1298.795c-1.481-.929-2.9,1.116-3.924,2.119-.632.62-3.362,2.514-2.894,3.51.74,1.577,2.7-1.024,3.208-1.532a15.605,15.605,0,0,1,1.988-1.779,6.749,6.749,0,0,0,1.622-1.244Z" transform="translate(-1757.143 -1245.331)" fill="#4d812e"/>
        <path id="Trazado_878836" data-name="Trazado 878836" d="M1038.4,1852.953c-.068-1.32-.237-2.407.607-3.565.369-.506,2.331-2.277.753-2.687-1.052-.273-2.108,1.529-2.543,2.263a7.212,7.212,0,0,0-.715,3.989Z" transform="translate(-994.01 -1770.996)" fill="#4d812e"/>
        <path id="Trazado_878837" data-name="Trazado 878837" d="M1888.123,1745.433c-.9.67-4.742,3.858-4.775,4.489-.086,1.625,1.78.624,2.293.105.8-.8,1.617-1.538,2.481-2.282Z" transform="translate(-1806.167 -1673.903)" fill="#4d812e"/>
        <path id="Trazado_878838" data-name="Trazado 878838" d="M1902.31,1496.494a12.383,12.383,0,0,0-2.211,2.033c-.594.594-1.91,1.86-1.958,2.786-.079,1.52,1.288.83,1.886.166.73-.811,1.283-1.992,2.282-2.527Z" transform="translate(-1820.354 -1435.159)" fill="#4d812e"/>
        <path id="Trazado_878839" data-name="Trazado 878839" d="M2.025,1118.026a2.4,2.4,0,0,0-2.025.646v2.733c.467-.547,1.08-1.231,1.425-1.311.792-.184,2.45.649,2.758-.588.268-1.075-1.465-1.372-2.159-1.48" transform="translate(0.043 -1072.159)" fill="#4d812e"/>
        <path id="Trazado_878840" data-name="Trazado 878840" d="M0,1400.149v2.984c.447-.475.984-1.148,1.17-1.289.681-.516,2.268-.877,2.575-1.753.693-1.977-2.332-.764-3.745.058" transform="translate(0.043 -1341.678)" fill="#4d812e"/>
        <path id="Trazado_878841" data-name="Trazado 878841" d="M812.3,0h-1.438c-.752,1.05.254,1.46,1.1,2.06.8.573,1.782,1.631,2.9,1.159C817.37,2.149,813.452.648,812.3,0" transform="translate(-777.351 0.044)" fill="#4d812e"/>
        <path id="Trazado_878842" data-name="Trazado 878842" d="M1.2,953.42A5.185,5.185,0,0,0,0,954.871v3.149a15.652,15.652,0,0,0,1.231-1.67c.519-.589,1.738-1.135,1.863-1.95.186-1.206-1.064-1.528-1.891-.979" transform="translate(0.043 -914.079)" fill="#4d812e"/>
        <path id="Trazado_878843" data-name="Trazado 878843" d="M1953.118,122.244c-1.98-.838-3.281,5.494,0,4.222Z" transform="translate(-1871.162 -117.12)" fill="#4d812e"/>
        <path id="Trazado_878844" data-name="Trazado 878844" d="M2.283,285.92c-.2-1.034-1.146-1-1.79-.41a2.706,2.706,0,0,0-.494.835v3.2c.924-.846,2.384-3.1,2.283-3.623" transform="translate(0.043 -273.378)" fill="#4d812e"/>
        <path id="Trazado_878845" data-name="Trazado 878845" d="M684.392,0C683.82.849,682,3.5,684,3.533c1,.018,2.356-2.541,2.605-3.533Z" transform="translate(-655.067 0.044)" fill="#4d812e"/>
        <path id="Trazado_878846" data-name="Trazado 878846" d="M1484.018,0c-.508.677-2.9,2.163-1.064,2.679.841.236,3.106-1.751,3.288-2.679Z" transform="translate(-1421.518 0.044)" fill="#4d812e"/>
        <path id="Trazado_878847" data-name="Trazado 878847" d="M0,709.362v2.617l.863-.219c.517-.128,1.121-.092,1.108-.841C1.963,710.467.78,709.685,0,709.362" transform="translate(0.043 -680.265)" fill="#4d812e"/>
        <path id="Trazado_878848" data-name="Trazado 878848" d="M1516.833,1958.446c.192-.691.556-1.665-.615-1.773a3.867,3.867,0,0,0-2.245,1.773Z" transform="translate(-1451.923 -1876.49)" fill="#4d812e"/>
        <path id="Trazado_878849" data-name="Trazado 878849" d="M864.316,1950.041c.009-.825.03-2.222-1.115-2.129-1.05.085-1.031,1.33-.841,2.129Z" transform="translate(-826.901 -1868.084)" fill="#4d812e"/>
        <path id="Trazado_878850" data-name="Trazado 878850" d="M1966.342,0H1964.9a8.3,8.3,0,0,0,1.438,2.48Z" transform="translate(-1884.386 0.044)" fill="#4d812e"/>
        <path id="Trazado_878851" data-name="Trazado 878851" d="M0,0V1.436A10.12,10.12,0,0,0,1.5,0Z" transform="translate(0.043 0.044)" fill="#4d812e"/>
        <path id="Trazado_878852" data-name="Trazado 878852" d="M1635.712,1982.309c-.079-.616-1.851-1.336-2.273,0Z" transform="translate(-1566.496 -1900.352)" fill="#4d812e"/>
        <path id="Trazado_878853" data-name="Trazado 878853" d="M1623.088,0c.091,1.183,1.465.954,1.857,0Z" transform="translate(-1556.569 0.044)" fill="#4d812e"/>
        <path id="Trazado_878854" data-name="Trazado 878854" d="M461.133,1984.146c-.27-.867-1.977-.938-2.012,0Z" transform="translate(-440.274 -1902.19)" fill="#4d812e"/>
        <path id="Trazado_878855" data-name="Trazado 878855" d="M0,100.72v.475a1.652,1.652,0,0,0,0-.475" transform="translate(0.043 -96.551)" fill="#4d812e"/>
        <path id="Trazado_878856" data-name="Trazado 878856" d="M97.4,0c.206.555.639.633,1.391.407.22-.066.435-.162.471-.407Z" transform="translate(-93.366 0.044)" fill="#4d812e"/>
        <path id="Trazado_878857" data-name="Trazado 878857" d="M1975.874,1980.141v-.848a2.764,2.764,0,0,0-1.03.848Z" transform="translate(-1893.918 -1898.185)" fill="#4d812e"/>
        <path id="Trazado_878858" data-name="Trazado 878858" d="M1995.684,1160.114c-.173.076-.156.309-.175.454-.023.183-.014.407.175.5Z" transform="translate(-1913.728 -1112.556)" fill="#4d812e"/>
        <path id="Trazado_878859" data-name="Trazado 878859" d="M692.407,539.385c.757-.176,1.537.958,1.48,1.63-.078.93-1.151,1.337-1.8,1.815a20.878,20.878,0,0,0-1.952,1.791c-.893.849-1.9,1.431-2.846,2.2-1.149.924-1.886,2.474-2.811,3.625-1.242,1.545-2.483,3.013-3.8,4.5-5.169,5.819-11.777,10.352-16.667,16.407-2.465,3.052-5.759,5.435-8.284,8.455a8.029,8.029,0,0,1-1.559,1.8c-.835.53-1.737.336-1.62-.756.1-.9,1.208-1.72,1.805-2.308.979-.964,1.963-1.923,2.935-2.893,6.328-6.311,12.284-13.01,18.893-19.047a54.816,54.816,0,0,0,4.254-4.082c.817-.92,1.644-1.827,2.437-2.769a19.132,19.132,0,0,0,1.572-2.72c.962-1.582,2.929-2.875,4.456-3.85a4.774,4.774,0,0,0,2.077-2.054c.316-.711.366-1.839,1.434-1.736" transform="translate(-625.766 -517.233)" fill="#4d812e"/>
        <path id="Trazado_878860" data-name="Trazado 878860" d="M682.8,1686.093a5.619,5.619,0,0,0-.7-2.612,1.575,1.575,0,0,1,.17-1.861c.612-.948,2.051-3.138,3.115-3.578,1.444-.6,2.511,1.53,3.229,2.455a2.494,2.494,0,0,1-1.18,3.994c-2.442.669-.415-2.167-.375-2.8a1.1,1.1,0,0,0-1.194-1.273c-.782.078-1.311,1.015-1.526,1.665-.577,1.745,1.094,3.113.481,4.8-.183.5-.722,1.3-1.4,1.109-.785-.226-.618-1.317-.618-1.9" transform="translate(-653.9 -1609.172)" fill="#4d812e"/>
        <path id="Trazado_878861" data-name="Trazado 878861" d="M518.237,700.22c.043.961-1.958,2.087-2.578,2.694-1.218,1.192-2.424,2.39-3.659,3.565-1.177,1.121-2.312,2.277-3.582,3.3-.784.629-2.742,1.241-2.128-.565.311-.914,1.951-1.716,2.6-2.5a29.435,29.435,0,0,1,2.9-2.606c1.221-1.146,2.362-2.375,3.542-3.559.508-.51,2.877-2.169,2.912-.324" transform="translate(-485.398 -670.683)" fill="#4d812e"/>
        <path id="Trazado_878862" data-name="Trazado 878862" d="M1172.12,554.008a8.079,8.079,0,0,1,2.087.4,5.242,5.242,0,0,0,1.973-.2c1.115-.218,3.367.22,3.915-1.085.293-.7-.3-2.875,1.3-2.4,1.354.4,1.107,2.47.575,3.341a3.6,3.6,0,0,1-3.344,1.727c-1.281-.011-2.506.455-3.767.383a13.167,13.167,0,0,0-2.291-.22c-.54.06-1.35.549-1.874.167-1.219-.888.385-2.229,1.423-2.117" transform="translate(-1122.287 -528.063)" fill="#4d812e"/>
        <path id="Trazado_878863" data-name="Trazado 878863" d="M1188.359,917.1c-.166-.95,1.976-2.121,2.59-2.706.994-.947,2.008-1.873,2.989-2.834.643-.629,4.416-5.533,5.058-2.9.292,1.2-1.587,2.009-2.272,2.71-.938.961-1.9,1.853-2.856,2.8-1.018,1.01-2.014,2.033-3.005,3.067-.665.694-2.482,1.65-2.5-.141" transform="translate(-1139.637 -870.659)" fill="#4d812e"/>
        <path id="Trazado_878864" data-name="Trazado 878864" d="M1505.527,346.132c-.488,1.165-.148,2.219-1.122,3.268-.783.843-2.067,1.043-2.789,1.889-.64.749-.367,1.908-1,2.626-1.064,1.213-1.784-.159-1.69-1.25a4.69,4.69,0,0,1,1.623-2.983c.786-.7,2.278-1.063,2.7-2.061.428-1.022-.664-2.132.274-3.006,1.137-1.058,2.007.461,2,1.518" transform="translate(-1437.488 -330.112)" fill="#4d812e"/>
        <path id="Trazado_878865" data-name="Trazado 878865" d="M1737.632,50.58c-.187-1.76,3.98-3.346,5.081-4.006.952-.571.926-1.392,1.4-2.273.513-.963,1.887-1.5,2.215-.065.18.784-.866,2.513-1.307,3.128-.592.827-1.219.881-2.135,1.138a6.482,6.482,0,0,0-2.745,1.758c-.45.425-2.53,2.191-2.506.321" transform="translate(-1666.416 -41.536)" fill="#4d812e"/>
        <path id="Trazado_878866" data-name="Trazado 878866" d="M1703.669,331.69a6.625,6.625,0,0,1-3.728-1.583c-.7-.952.106-1.841,1.178-1.684s1.654,1.506,2.813,1.375c1.387-.157,1-1.286.229-1.879-.592-.455-1.845-1.128-.708-1.889.951-.637,2.311.446,2.9,1.146,1.452,1.722-.573,4.594-2.684,4.515" transform="translate(-1630.022 -312.448)" fill="#4d812e"/>
        <path id="Trazado_878867" data-name="Trazado 878867" d="M1519.414,650.727c.08,1-1.237,1.486-1.867,2.046-.685.609-1.243,1.33-1.92,1.948-.75.686-3.481,3.812-4.054,1.006-.184-.9.622-1.305,1.272-1.655a7.5,7.5,0,0,0,2.106-1.554,15.591,15.591,0,0,1,2.381-2.562c.736-.493,2.189-.471,2.081.771" transform="translate(-1449.596 -623.005)" fill="#4d812e"/>
        <path id="Trazado_878868" data-name="Trazado 878868" d="M1246.625,525.091c-1.678,0-1.083-1.515-.151-2.05.67-.385,2.629-1.453,3.432-1.158a1.3,1.3,0,0,1,.342,2.309c-.474.325-1.037.2-1.565.3a18.308,18.308,0,0,1-2.057.6" transform="translate(-1194.507 -500.416)" fill="#4d812e"/>
        <path id="Trazado_878869" data-name="Trazado 878869" d="M1802.55,210.044c.377,1.15-4.413,4.149-4.652,1.889-.114-1.075,4.671-4.067,4.652-1.889" transform="translate(-1724.218 -200.655)" fill="#4d812e"/>
        <path id="Trazado_878870" data-name="Trazado 878870" d="M1371.787,442.845c-.806.018-2.559-.171-2.983-.991-.453-.874.4-1.7,1.229-1.815,1.717-.248,4.524,2.293,1.753,2.806" transform="translate(-1312.579 -421.957)" fill="#4d812e"/>
        <path id="Trazado_878871" data-name="Trazado 878871" d="M1894.6,264.544c.1,1.084-3.626,4.074-3.9,1.914-.171-1.358,3.879-3.932,3.9-1.914" transform="translate(-1813.22 -252.951)" fill="#4d812e"/>
        <path id="Trazado_878872" data-name="Trazado 878872" d="M975.326,1295.174c-.192,1.514-3.513,3.521-3.369,1.163.087-1.42,3.4-3.329,3.369-1.163" transform="translate(-932.102 -1241.147)" fill="#4d812e"/>
        <path id="Trazado_878873" data-name="Trazado 878873" d="M1668.983,481.062c-1.644-.155-3.229-2.7-.8-2.659,1.873.032,3.364,2.374.8,2.659" transform="translate(-1598.622 -458.764)" fill="#4d812e"/>
        <path id="Trazado_878874" data-name="Trazado 878874" d="M1681.762,274.464c-2.207,0-.945-2.913.545-3.142,2.149-.331,1.154,3.428-.545,3.142" transform="translate(-1611.697 -260.146)" fill="#4d812e"/>
        <path id="Trazado_878875" data-name="Trazado 878875" d="M1452.607,834.477c-1.568,0-2.147-2.6-.4-2.688,1.548-.074,2.108,2.434.4,2.688" transform="translate(-1391.66 -797.677)" fill="#4d812e"/>
        <path id="Trazado_878876" data-name="Trazado 878876" d="M1124.9,1167.779c0,1.859-2.9.909-2.559-.6s2.837-.72,2.559.6" transform="translate(-1076.307 -1118.539)" fill="#4d812e"/>
        <path id="Trazado_878877" data-name="Trazado 878877" d="M1063.518,1232.239c.293,1.519-2.615,1.313-2.4-.4.2-1.629,2.8-.81,2.4.4" transform="translate(-1017.603 -1180.471)" fill="#4d812e"/>
        <path id="Trazado_878878" data-name="Trazado 878878" d="M1489.151,101.392c.008,1.216-1.851,1.665-2.114.3-.286-1.489,2.1-1.839,2.114-.3" transform="translate(-1426.067 -96.238)" fill="#4d812e"/>
        <path id="Trazado_878879" data-name="Trazado 878879" d="M1419.693,91.132c-1.076-.02-.822-1.657.161-1.642a.827.827,0,1,1-.161,1.642" transform="translate(-1360.834 -85.781)" fill="#4d812e"/>
        <path id="Trazado_878880" data-name="Trazado 878880" d="M63.221,322.987c-.823-.046-4.1-.648-2.385-2.055.816-.671,3.965.873,3.365-1.348-.207-.768-1.336-1.374-1.766-2.088a3.085,3.085,0,0,1-.525-2.425c.556-1.682,2.9-3.14,4.187-4.226,1.495-1.26,2.394-2.987,3.807-4.321,1.207-1.139,3.323-1.3,4.036-2.814.729-1.545.739-2.7,2.039-3.967a8.116,8.116,0,0,1,2.183-1.7c.951-.448,2.1-.4,3-.94,1.278-.774,1.886-2.837,3.034-3.921,1.109-1.047,2.318-3.058,3.954-3.181.759-.057,3.318.256,3.27,1.407-.047,1.121-1.292.781-1.94.706a2.245,2.245,0,0,0-2.3.719c-1.055,1.063-2.617,2.278-3.237,3.657-.788,1.753-1.369,2.527-3.43,2.839a5.08,5.08,0,0,0-4.115,2.783c-.85,1.827-.816,4.149-3.084,4.789a5.4,5.4,0,0,0-2.291.942c-.9.779-1.364,2.018-2.119,2.926-1.314,1.58-3.438,2.47-4.574,4.167-1.374,2.054,1.215,2.676,1.993,4.171.691,1.329-1.628,4.1-3.1,3.88" transform="translate(-57.833 -278.075)" fill="#4d812e"/>
        <path id="Trazado_878881" data-name="Trazado 878881" d="M455.374,533.827a3.466,3.466,0,0,0,3.369-1.255c1.05-1.13.85-2.5,1.628-3.7.821-1.261,2.164-1.209,3.5-.919.619.135,1.479.239,1.616.976.15.811-.578,1.007-1.247,1-1.437-.009-2.114-.492-2.746,1.109a7.842,7.842,0,0,1-2.3,3.46c-1.164.994-2.785,1.87-4.365,1.369-1.6-.51-.973-2.042.552-2.042" transform="translate(-435.25 -506.121)" fill="#4d812e"/>
        <path id="Trazado_878882" data-name="Trazado 878882" d="M115.056,270.628c-1.632.14-.947-1.647-.357-2.325.866-1,1.668-2.058,2.546-3.041,1.12-1.252,3.561-6.124,5.86-4.251a1.166,1.166,0,0,1-.411,2.165c-.677.216-1.2-.122-1.816.374-.423.338-.514.96-.763,1.409a31.576,31.576,0,0,1-2.568,3.1c-.449.613-1.449,2.851-2.49,2.57" transform="translate(-109.326 -249.872)" fill="#4d812e"/>
        <path id="Trazado_878883" data-name="Trazado 878883" d="M749.286,351.615c-.788.021-4.161-.663-2.961-2.116.585-.709,1.563.058,2.209.143,1,.131,1.262-.35,1.86-1.062,1.125-1.342,2.613-.908,1.754.9a3.1,3.1,0,0,1-2.862,2.132" transform="translate(-715.47 -333.507)" fill="#4d812e"/>
        <path id="Trazado_878884" data-name="Trazado 878884" d="M423.083,150.714c-1.15.133-2.512-2.063-3.27-2.747-.611-.552-2.445-2.685-.348-2.8,1.1-.061,2.165,2.094,2.926,2.7.586.466,1.7.952,1.692,1.855a.953.953,0,0,1-1,1" transform="translate(-401.304 -139.174)" fill="#4d812e"/>
        <path id="Trazado_878885" data-name="Trazado 878885" d="M500.7,101.505c.915-.147,2.258,1.777,2.948,2.293.728.544,1.942,2.327.164,2.525-1.027.114-2.005-1.673-2.752-2.235-.771-.581-2.383-2.47-.36-2.583" transform="translate(-479.207 -97.297)" fill="#4d812e"/>
        <path id="Trazado_878886" data-name="Trazado 878886" d="M571.22,52.493a4.51,4.51,0,0,1,2.609,1.746c.611.979.087,1.969-1.092,1.528-.847-.317-4.222-3.273-1.517-3.273" transform="translate(-546.793 -50.299)" fill="#4d812e"/>
        <path id="Trazado_878887" data-name="Trazado 878887" d="M842.2,231.85c-2.066,0-.029-3.249,1.228-3.136,1.786.16.06,3.136-1.228,3.136" transform="translate(-806.812 -219.3)" fill="#4d812e"/>
        <path id="Trazado_878888" data-name="Trazado 878888" d="M682.413,440.224c-1.753.1-2.687-2.242-.641-2.4,1.58-.123,2.782,2.4.641,2.4" transform="translate(-652.69 -419.844)" fill="#4d812e"/>
        <path id="Trazado_878889" data-name="Trazado 878889" d="M489.831,566.44c-.348-1.152,2.754-3.163,2.874-1.214.078,1.267-2.878,3.188-2.874,1.214" transform="translate(-469.7 -541.251)" fill="#4d812e"/>
        <path id="Trazado_878890" data-name="Trazado 878890" d="M1069.854,25.754c.279,1.163-1.984,2.041-2.023.44-.027-1.124,2.015-1.888,2.023-.44" transform="translate(-1024.053 -23.893)" fill="#4d812e"/>
        <path id="Trazado_878891" data-name="Trazado 878891" d="M1554.632,968.35c-.116-1.119,2.545-2.77,3.3-3.508,1.4-1.372,3.129-2.1,4.564-3.4a20.735,20.735,0,0,0,3.272-4.331c.37-.553,2.674-3.414,2.987-1.4.115.736-.831,1.408-1.234,1.877a6.729,6.729,0,0,0-1.167,2.308,8.681,8.681,0,0,1-3.52,4.083c-.8.427-1.732.493-2.527.985a13.089,13.089,0,0,0-2.217,2c-.344.343-3.474,3.563-3.456,1.385" transform="translate(-1490.914 -915.848)" fill="#4d812e"/>
        <path id="Trazado_878892" data-name="Trazado 878892" d="M1608.257,1613.565c.224,1.283-3.462,7.659-4.764,5.216-.592-1.11,1.319-2.1,1.853-2.83,1.167-1.606.515-2.7.616-4.445.083-1.46,1.262-2.3.3-3.725-.451-.667-1.527-2.56.325-2.43,1.273.089,2.3,2.8,2.071,3.79a15.1,15.1,0,0,0-.654,1.926,15.85,15.85,0,0,0,.254,2.5" transform="translate(-1537.669 -1539.552)" fill="#4d812e"/>
        <path id="Trazado_878893" data-name="Trazado 878893" d="M1343.685,1780.883c-.078-1.452,3-3.386,3.98-4.263.443-.4,3.727-3.763,3.661-1.273-.035,1.3-2.922,2.888-3.785,3.728-.341.332-3.885,4.3-3.856,1.808" transform="translate(-1288.608 -1701.719)" fill="#4d812e"/>
        <path id="Trazado_878894" data-name="Trazado 878894" d="M1578.888,1227.541c.113,1.125-2.851,3.247-3.639,3.905-.457.382-3.653,3.48-3.242.972.213-1.3,2.719-2.481,3.612-3.364.262-.26,3.233-3.644,3.268-1.514" transform="translate(-1507.546 -1176.551)" fill="#4d812e"/>
        <path id="Trazado_878895" data-name="Trazado 878895" d="M1343.5,1481.724c-1.957,0,.4-2.189.808-2.547,1.03-.907,2.175-3,3.5-3.457,1.906-.665.663,1.52.038,2.161-.647.662-1.314,1.305-1.97,1.958-.494.491-1.552,2-2.376,1.885" transform="translate(-1287.694 -1415.117)" fill="#4d812e"/>
        <path id="Trazado_878896" data-name="Trazado 878896" d="M1763.694,1655.3c.2.823-2.24,2.163-2.744,2.767-.535.642-1.815,2.017-2.208.422-.292-1.185,1.254-2.4,2.073-2.954.58-.394,2.892-1.983,2.879-.235" transform="translate(-1686.632 -1586.691)" fill="#4d812e"/>
        <path id="Trazado_878897" data-name="Trazado 878897" d="M1285.227,1640.086c-1.135,0-.762-1.63.149-1.728,1.314-.142,1.026,1.73-.149,1.728" transform="translate(-1231.869 -1571.206)" fill="#4d812e"/>
        <path id="Trazado_878898" data-name="Trazado 878898" d="M64.51,225.523c-.005,1.517-2.6,1.572-2.413.028.149-1.244,2.418-1.441,2.413-.028" transform="translate(-59.502 -215.299)" fill="#4d812e"/>
      </g>
    </g>
  </g>
</svg>
