<svg xmlns="http://www.w3.org/2000/svg" xmlns:xlink="http://www.w3.org/1999/xlink" width="449.65" height="453.96" viewBox="0 0 449.65 453.96">
  <defs>
    <clipPath id="clip-path">
      <rect id="Rectángulo_402307" data-name="Rectángulo 402307" width="449.65" height="453.96" fill="none"/>
    </clipPath>
    <clipPath id="clip-path-3">
      <rect id="Rectángulo_402284" data-name="Rectángulo 402284" width="240.452" height="240.451" fill="none"/>
    </clipPath>
    <clipPath id="clip-path-4">
      <rect id="Rectángulo_402286" data-name="Rectángulo 402286" width="178.707" height="262.154" fill="none"/>
    </clipPath>
    <clipPath id="clip-path-5">
      <path id="Trazado_880647" data-name="Trazado 880647" d="M407.208,206.319,386.6,192.106l23.664.946a341.025,341.025,0,0,0,6.74-71.071q-14.01,9.36-26.844,19.636l3.524,14.137-12.465-6.8C297.016,220.119,251.99,316.944,238.3,384.134c0,0,18.7-4.536,44-18,30.69,1.167,58.609-6.7,81.279-23.231L350.44,338.56l23.449-4.105c20.621-18.934,35.785-46.182,43.117-81.4-10.08,2.377-21.172,6.753-32.7,12.424a260.394,260.394,0,0,0,22.9-59.161" transform="translate(-238.305 -121.98)" fill="none"/>
    </clipPath>
    <linearGradient id="linear-gradient" x1="-0.629" y1="1.104" x2="-0.625" y2="1.104" gradientUnits="objectBoundingBox">
      <stop offset="0" stop-color="#fff"/>
      <stop offset="1" stop-color="#769e5e"/>
    </linearGradient>
    <clipPath id="clip-path-7">
      <path id="Trazado_880680" data-name="Trazado 880680" d="M10.28,206.319l20.607-14.213-23.665.946A341.028,341.028,0,0,1,.483,121.98q14.01,9.36,26.844,19.636L23.8,155.752l12.465-6.8c84.205,71.164,129.231,167.99,142.916,235.179,0,0-18.7-4.536-44-18-30.69,1.167-58.609-6.7-81.279-23.231l13.146-4.338L43.6,334.455C22.978,315.521,7.814,288.273.483,253.056c10.08,2.377,21.172,6.753,32.7,12.424a260.445,260.445,0,0,1-22.9-59.161" transform="translate(-0.477 -121.98)" fill="none"/>
    </clipPath>
    <linearGradient id="linear-gradient-2" x1="0.213" y1="1.108" x2="0.217" y2="1.108" xlink:href="#linear-gradient"/>
    <clipPath id="clip-path-8">
      <rect id="Rectángulo_402289" data-name="Rectángulo 402289" width="398.358" height="196.73" fill="none"/>
    </clipPath>
    <clipPath id="clip-path-9">
      <path id="Trazado_880683" data-name="Trazado 880683" d="M77.191,208.8a140.419,140.419,0,1,0,272.042,0Z" transform="translate(-72.793 -208.802)" fill="none"/>
    </clipPath>
    <clipPath id="clip-path-10">
      <rect id="Rectángulo_402290" data-name="Rectángulo 402290" width="248.206" height="175.416" fill="none"/>
    </clipPath>
    <clipPath id="clip-path-11">
      <rect id="Rectángulo_402291" data-name="Rectángulo 402291" width="28.111" height="24.877" fill="none"/>
    </clipPath>
    <clipPath id="clip-path-12">
      <rect id="Rectángulo_402292" data-name="Rectángulo 402292" width="28.11" height="24.877" fill="none"/>
    </clipPath>
    <clipPath id="clip-path-13">
      <rect id="Rectángulo_402293" data-name="Rectángulo 402293" width="23.115" height="9.972" fill="none"/>
    </clipPath>
    <clipPath id="clip-path-14">
      <rect id="Rectángulo_402294" data-name="Rectángulo 402294" width="151.227" height="14.844" fill="none"/>
    </clipPath>
    <clipPath id="clip-path-15">
      <rect id="Rectángulo_402295" data-name="Rectángulo 402295" width="6.615" height="13.308" fill="none"/>
    </clipPath>
    <clipPath id="clip-path-16">
      <rect id="Rectángulo_402296" data-name="Rectángulo 402296" width="3.376" height="10.286" fill="none"/>
    </clipPath>
    <clipPath id="clip-path-17">
      <rect id="Rectángulo_402297" data-name="Rectángulo 402297" width="14.973" height="19.499" fill="none"/>
    </clipPath>
    <clipPath id="clip-path-18">
      <rect id="Rectángulo_402298" data-name="Rectángulo 402298" width="4.762" height="12.261" fill="none"/>
    </clipPath>
    <clipPath id="clip-path-19">
      <rect id="Rectángulo_402300" data-name="Rectángulo 402300" width="1.379" height="1.106" fill="none"/>
    </clipPath>
    <clipPath id="clip-path-20">
      <rect id="Rectángulo_402301" data-name="Rectángulo 402301" width="10.404" height="21.781" fill="none"/>
    </clipPath>
    <clipPath id="clip-path-21">
      <rect id="Rectángulo_402302" data-name="Rectángulo 402302" width="7.977" height="49.369" fill="none"/>
    </clipPath>
    <clipPath id="clip-path-22">
      <rect id="Rectángulo_402303" data-name="Rectángulo 402303" width="28.749" height="64.899" fill="none"/>
    </clipPath>
    <clipPath id="clip-path-23">
      <rect id="Rectángulo_402304" data-name="Rectángulo 402304" width="13.023" height="58.007" fill="none"/>
    </clipPath>
    <clipPath id="clip-path-24">
      <rect id="Rectángulo_402305" data-name="Rectángulo 402305" width="9.383" height="52.915" fill="none"/>
    </clipPath>
  </defs>
  <g id="Grupo_1100054" data-name="Grupo 1100054" transform="translate(-180 -393.913)">
    <g id="Grupo_1100044" data-name="Grupo 1100044" transform="translate(180 393.913)">
      <g id="Grupo_1100043" data-name="Grupo 1100043" clip-path="url(#clip-path)">
        <g id="Grupo_1100042" data-name="Grupo 1100042">
          <g id="Grupo_1100041" data-name="Grupo 1100041" clip-path="url(#clip-path)">
            <g id="Grupo_1099980" data-name="Grupo 1099980" transform="translate(99.964 14.176)" opacity="0.53">
              <g id="Grupo_1099979" data-name="Grupo 1099979">
                <g id="Grupo_1099978" data-name="Grupo 1099978" clip-path="url(#clip-path-3)">
                  <path id="Trazado_880611" data-name="Trazado 880611" d="M331.671,133.161A120.226,120.226,0,1,1,211.445,12.935,120.226,120.226,0,0,1,331.671,133.161" transform="translate(-91.22 -12.936)" fill="#0f6646"/>
                </g>
              </g>
            </g>
            <path id="Trazado_880612" data-name="Trazado 880612" d="M316.174,132.07A105.976,105.976,0,1,1,210.2,26.094,105.975,105.975,0,0,1,316.174,132.07" transform="translate(9.991 2.502)" fill="#0f6646"/>
            <path id="Trazado_880613" data-name="Trazado 880613" d="M227.676,114.138h139.37l-20.254-5.765s-2.607-11.2-9.424-11.2-11.431,6.919-11.431,6.919.2-23.227-17.246-23.227S287.435,103.6,287.435,103.6,283.223,92.229,273.8,92.229s-13.035,14.5-13.035,14.5Z" transform="translate(21.826 7.752)" fill="#fff"/>
            <path id="Trazado_880614" data-name="Trazado 880614" d="M88.329,86.323h69.685l-10.127-2.882s-1.3-5.6-4.712-5.6S137.46,81.3,137.46,81.3s.1-11.613-8.623-11.613-10.628,11.366-10.628,11.366-2.106-5.683-6.818-5.683-6.517,7.248-6.517,7.248Z" transform="translate(8.468 6.68)" fill="#fff"/>
            <path id="Trazado_880615" data-name="Trazado 880615" d="M277.664,209.532l-2.9-2.587,1.452,1.294-1.452-1.293c.039-.044,3.953-4.457,9.819-12.549a313.716,313.716,0,0,0,22.1-35.459c14.928-27.847,33.46-72.4,36.973-126.507l3.881.252a297.911,297.911,0,0,1-4.98,38.094,311.928,311.928,0,0,1-8.838,34.337,330.731,330.731,0,0,1-23.667,55.774,317.455,317.455,0,0,1-22.383,35.883C281.705,204.98,277.826,209.35,277.664,209.532Z" transform="translate(26.479 3.121)" fill="#9dba8c"/>
            <path id="Trazado_880616" data-name="Trazado 880616" d="M337.744,56.428c2.92-5.408,11.138-16.685,26.9-11.17A2.014,2.014,0,0,1,365.67,48.2c-6.489,10.959-20.263,11.508-26.274,11.178a2,2,0,0,1-1.651-2.95" transform="translate(32.355 4.197)" fill="#9dba8c"/>
            <path id="Trazado_880617" data-name="Trazado 880617" d="M337.744,56.428c2.92-5.408,11.138-16.685,26.9-11.17A2.014,2.014,0,0,1,365.67,48.2c-6.489,10.959-20.263,11.508-26.274,11.178a2,2,0,0,1-1.651-2.95" transform="translate(32.355 4.197)" fill="#abc49d"/>
            <path id="Trazado_880618" data-name="Trazado 880618" d="M339.582,56.171s8.753-7.2,13.278-7.7-13.278,7.7-13.278,7.7" transform="translate(32.554 4.645)" fill="#b1c8a3"/>
            <path id="Trazado_880619" data-name="Trazado 880619" d="M339.936,56.837C338.368,50.894,333.03,38,316.412,39.658a2.015,2.015,0,0,0-1.687,2.619c3.733,12.176,16.991,15.947,22.913,17.039a2,2,0,0,0,2.3-2.479" transform="translate(30.162 3.788)" fill="#9dba8c"/>
            <path id="Trazado_880620" data-name="Trazado 880620" d="M339.936,56.837C338.368,50.894,333.03,38,316.412,39.658a2.015,2.015,0,0,0-1.687,2.619c3.733,12.176,16.991,15.947,22.913,17.039a2,2,0,0,0,2.3-2.479" transform="translate(30.162 3.788)" fill="#abc49d"/>
            <path id="Trazado_880621" data-name="Trazado 880621" d="M336.911,55.993s-6.815-9.058-11.1-10.6,11.1,10.6,11.1,10.6" transform="translate(31.162 4.339)" fill="#b1c8a3"/>
            <path id="Trazado_880622" data-name="Trazado 880622" d="M329.123,89.819c3.655-4.941,13.383-14.944,28.211-7.26a2.016,2.016,0,0,1,.6,3.059c-7.971,9.932-21.684,8.531-27.591,7.354a2,2,0,0,1-1.217-3.153" transform="translate(31.514 7.645)" fill="#9dba8c"/>
            <path id="Trazado_880623" data-name="Trazado 880623" d="M329.123,89.819c3.655-4.941,13.383-14.944,28.211-7.26a2.016,2.016,0,0,1,.6,3.059c-7.971,9.932-21.684,8.531-27.591,7.354a2,2,0,0,1-1.217-3.153" transform="translate(31.514 7.645)" fill="#abc49d"/>
            <path id="Trazado_880624" data-name="Trazado 880624" d="M330.9,89.876s9.682-5.9,14.231-5.743S330.9,89.876,330.9,89.876" transform="translate(31.722 8.065)" fill="#b1c8a3"/>
            <path id="Trazado_880625" data-name="Trazado 880625" d="M331.094,90.717c-.713-6.1-4.177-19.621-20.863-20.329a2.016,2.016,0,0,0-2.039,2.356c1.975,12.581,14.568,18.186,20.278,20.1a2,2,0,0,0,2.625-2.13" transform="translate(29.542 6.748)" fill="#9dba8c"/>
            <path id="Trazado_880626" data-name="Trazado 880626" d="M331.094,90.717c-.713-6.1-4.177-19.621-20.863-20.329a2.016,2.016,0,0,0-2.039,2.356c1.975,12.581,14.568,18.186,20.278,20.1a2,2,0,0,0,2.625-2.13" transform="translate(29.542 6.748)" fill="#abc49d"/>
            <path id="Trazado_880627" data-name="Trazado 880627" d="M328.192,89.486s-5.467-9.93-9.49-12.061,9.49,12.061,9.49,12.061" transform="translate(30.481 7.401)" fill="#b1c8a3"/>
            <path id="Trazado_880628" data-name="Trazado 880628" d="M316.818,125.392c4.066-4.609,14.617-13.74,28.73-4.81a2.014,2.014,0,0,1,.332,3.1c-8.794,9.212-22.336,6.638-28.12,4.959a2,2,0,0,1-.942-3.246" transform="translate(30.324 11.198)" fill="#9dba8c"/>
            <path id="Trazado_880629" data-name="Trazado 880629" d="M316.818,125.392c4.066-4.609,14.617-13.74,28.73-4.81a2.014,2.014,0,0,1,.332,3.1c-8.794,9.212-22.336,6.638-28.12,4.959a2,2,0,0,1-.942-3.246" transform="translate(30.324 11.198)" fill="#abc49d"/>
            <path id="Trazado_880630" data-name="Trazado 880630" d="M318.546,125.627s10.152-5.042,14.672-4.5-14.672,4.5-14.672,4.5" transform="translate(30.538 11.608)" fill="#b1c8a3"/>
            <path id="Trazado_880631" data-name="Trazado 880631" d="M318.635,126.571c-.186-6.143-2.477-19.908-19.041-22.046a2.014,2.014,0,0,0-2.233,2.171c.887,12.7,12.953,19.371,18.476,21.77a2,2,0,0,0,2.8-1.9" transform="translate(28.506 10.019)" fill="#9dba8c"/>
            <path id="Trazado_880632" data-name="Trazado 880632" d="M318.635,126.571c-.186-6.143-2.477-19.908-19.041-22.046a2.014,2.014,0,0,0-2.233,2.171c.887,12.7,12.953,19.371,18.476,21.77a2,2,0,0,0,2.8-1.9" transform="translate(28.506 10.019)" fill="#abc49d"/>
            <path id="Trazado_880633" data-name="Trazado 880633" d="M315.835,125.109s-4.594-10.363-8.419-12.83,8.419,12.83,8.419,12.83" transform="translate(29.4 10.738)" fill="#b1c8a3"/>
            <path id="Trazado_880634" data-name="Trazado 880634" d="M299.353,159.828c4.615-4.059,16.234-11.786,29.107-1.146a2.015,2.015,0,0,1-.06,3.114c-9.887,8.028-23,3.767-28.521,1.371a2,2,0,0,1-.526-3.339" transform="translate(28.632 14.696)" fill="#9dba8c"/>
            <path id="Trazado_880635" data-name="Trazado 880635" d="M299.353,159.828c4.615-4.059,16.234-11.786,29.107-1.146a2.015,2.015,0,0,1-.06,3.114c-9.887,8.028-23,3.767-28.521,1.371a2,2,0,0,1-.526-3.339" transform="translate(28.632 14.696)" fill="#abc49d"/>
            <path id="Trazado_880636" data-name="Trazado 880636" d="M300.977,160.312s10.707-3.72,15.122-2.613-15.122,2.613-15.122,2.613" transform="translate(28.853 15.098)" fill="#b1c8a3"/>
            <path id="Trazado_880637" data-name="Trazado 880637" d="M300.923,161.386c.591-6.118.055-20.061-16.107-24.272a2.016,2.016,0,0,0-2.49,1.873c-.722,12.714,10.406,20.85,15.582,23.928a2,2,0,0,0,3.015-1.529" transform="translate(27.062 13.138)" fill="#9dba8c"/>
            <path id="Trazado_880638" data-name="Trazado 880638" d="M300.923,161.386c.591-6.118.055-20.061-16.107-24.272a2.016,2.016,0,0,0-2.49,1.873c-.722,12.714,10.406,20.85,15.582,23.928a2,2,0,0,0,3.015-1.529" transform="translate(27.062 13.138)" fill="#abc49d"/>
            <path id="Trazado_880639" data-name="Trazado 880639" d="M298.3,159.6s-3.25-10.86-6.733-13.79S298.3,159.6,298.3,159.6" transform="translate(27.882 13.945)" fill="#b1c8a3"/>
            <path id="Trazado_880640" data-name="Trazado 880640" d="M341.5,36.3c3.644-4.949,10.336-17.193-1.377-29.1a2.016,2.016,0,0,0-3.1.33c-7.142,10.544-1.762,23.236,1.1,28.533a2,2,0,0,0,3.373.235" transform="translate(31.969 0.634)" fill="#9dba8c"/>
            <path id="Trazado_880641" data-name="Trazado 880641" d="M341.5,36.3c3.644-4.949,10.336-17.193-1.377-29.1a2.016,2.016,0,0,0-3.1.33c-7.142,10.544-1.762,23.236,1.1,28.533a2,2,0,0,0,3.373.235" transform="translate(31.969 0.634)" fill="#abc49d"/>
            <path id="Trazado_880642" data-name="Trazado 880642" d="M339.845,33.485s2.78-10.989,1.294-15.292-1.294,15.292-1.294,15.292" transform="translate(32.579 1.685)" fill="#b1c8a3"/>
            <path id="Trazado_880643" data-name="Trazado 880643" d="M349.394,327.094l23.449-4.1c20.621-18.934,35.786-46.183,43.117-81.4-63.391,14.944-166.734,108.767-166.734,108.767,43.214,9.819,82.967,3.2,113.315-18.926Z" transform="translate(23.892 23.16)" fill="#4d812e"/>
            <path id="Trazado_880644" data-name="Trazado 880644" d="M417.007,121.98Q403,131.34,390.162,141.615l3.524,14.137-12.465-6.8C297.015,220.119,251.99,316.944,238.306,384.133c0,0,57.475-13.926,107.234-65.522L327.3,302.75l25.343,8.165c22.713-25.688,43.087-59.749,54.565-104.6L386.6,192.106l23.664.946a341.022,341.022,0,0,0,6.74-71.071" transform="translate(22.845 11.694)" fill="#abc49d"/>
            <path id="Trazado_880645" data-name="Trazado 880645" d="M345.54,318.612,327.3,302.751l25.343,8.165c22.713-25.688,43.087-59.749,54.565-104.6L386.6,192.105l23.664.947a341.03,341.03,0,0,0,6.74-71.071s-89.7,178.921-178.7,262.153c0,0,57.475-13.927,107.234-65.522" transform="translate(22.845 11.694)" fill="#7ba264"/>
            <path id="Trazado_880646" data-name="Trazado 880646" d="M238.683,384.512l-.757-.756c.064-.064,6.486-6.507,17.109-18.424,9.8-11,25.291-29.042,43.4-52.541,31.979-41.5,78.425-108.334,118.09-191.041l.965.463a1056.745,1056.745,0,0,1-60.366,108.6c-18.017,28.4-37.482,56.208-57.855,82.645-18.126,23.523-33.631,41.586-43.445,52.6C245.184,377.991,238.747,384.448,238.683,384.512Z" transform="translate(22.845 11.694)" fill="#fefefe"/>
            <path id="Línea_584" data-name="Línea 584" d="M8.958,47.269-.525.105.525-.105l9.483,47.164Z" transform="translate(374.006 188.747)" fill="#fefefe"/>
            <path id="Línea_585" data-name="Línea 585" d="M50.541.535H0V-.535H50.541Z" transform="translate(358.218 274.15)" fill="#fefefe"/>
            <path id="Línea_586" data-name="Línea 586" d="M7.292,54.84-.53.076.53-.076,8.351,54.689Z" transform="translate(305.758 280.451)" fill="#fefefe"/>
            <g id="Grupo_1099985" data-name="Grupo 1099985" transform="translate(261.15 133.674)" style="mix-blend-mode: multiply;isolation: isolate">
              <g id="Grupo_1099984" data-name="Grupo 1099984">
                <g id="Grupo_1099983" data-name="Grupo 1099983" clip-path="url(#clip-path-4)">
                  <g id="Grupo_1099982" data-name="Grupo 1099982" transform="translate(0 0)">
                    <g id="Grupo_1099981" data-name="Grupo 1099981" clip-path="url(#clip-path-5)">
                      <rect id="Rectángulo_402285" data-name="Rectángulo 402285" width="310.6" height="312.941" transform="matrix(0.721, -0.693, 0.693, 0.721, -130.974, 125.871)" fill="url(#linear-gradient)"/>
                    </g>
                  </g>
                </g>
              </g>
            </g>
            <path id="Trazado_880648" data-name="Trazado 880648" d="M130.262,209.532c-.162-.182-4.041-4.553-10-12.764a317.462,317.462,0,0,1-22.383-35.883,330.737,330.737,0,0,1-23.668-55.774,311.944,311.944,0,0,1-8.838-34.337,297.912,297.912,0,0,1-4.981-38.093l3.881-.252c3.517,54.159,22.079,98.748,37.032,126.617a313.51,313.51,0,0,0,22.1,35.438c5.844,8.055,9.717,12.417,9.755,12.46Z" transform="translate(5.976 3.121)" fill="#9dba8c"/>
            <path id="Trazado_880649" data-name="Trazado 880649" d="M66.6,56.428c-2.92-5.408-11.138-16.685-26.9-11.17A2.014,2.014,0,0,0,38.675,48.2C45.164,59.159,58.938,59.708,64.95,59.378a2,2,0,0,0,1.651-2.95" transform="translate(3.68 4.197)" fill="#9dba8c"/>
            <path id="Trazado_880650" data-name="Trazado 880650" d="M66.6,56.428c-2.92-5.408-11.138-16.685-26.9-11.17A2.014,2.014,0,0,0,38.675,48.2C45.164,59.159,58.938,59.708,64.95,59.378a2,2,0,0,0,1.651-2.95" transform="translate(3.68 4.197)" fill="#abc49d"/>
            <path id="Trazado_880651" data-name="Trazado 880651" d="M63.5,56.171s-8.753-7.2-13.278-7.7,13.278,7.7,13.278,7.7" transform="translate(4.744 4.645)" fill="#b1c8a3"/>
            <path id="Trazado_880652" data-name="Trazado 880652" d="M64.139,56.837C65.707,50.894,71.045,38,87.664,39.658a2.015,2.015,0,0,1,1.687,2.619C85.618,54.453,72.359,58.224,66.437,59.315a2,2,0,0,1-2.3-2.479" transform="translate(6.142 3.788)" fill="#9dba8c"/>
            <path id="Trazado_880653" data-name="Trazado 880653" d="M64.139,56.837C65.707,50.894,71.045,38,87.664,39.658a2.015,2.015,0,0,1,1.687,2.619C85.618,54.453,72.359,58.224,66.437,59.315a2,2,0,0,1-2.3-2.479" transform="translate(6.142 3.788)" fill="#abc49d"/>
            <path id="Trazado_880654" data-name="Trazado 880654" d="M65.982,55.993s6.815-9.058,11.1-10.6-11.1,10.6-11.1,10.6" transform="translate(6.325 4.339)" fill="#b1c8a3"/>
            <path id="Trazado_880655" data-name="Trazado 880655" d="M75.328,89.819c-3.655-4.941-13.383-14.944-28.211-7.26a2.016,2.016,0,0,0-.6,3.059c7.97,9.932,21.684,8.531,27.591,7.354a2,2,0,0,0,1.218-3.153" transform="translate(4.416 7.645)" fill="#9dba8c"/>
            <path id="Trazado_880656" data-name="Trazado 880656" d="M75.328,89.819c-3.655-4.941-13.383-14.944-28.211-7.26a2.016,2.016,0,0,0-.6,3.059c7.97,9.932,21.684,8.531,27.591,7.354a2,2,0,0,0,1.218-3.153" transform="translate(4.416 7.645)" fill="#abc49d"/>
            <path id="Trazado_880657" data-name="Trazado 880657" d="M72.259,89.876s-9.682-5.9-14.231-5.743,14.231,5.743,14.231,5.743" transform="translate(5.495 8.065)" fill="#b1c8a3"/>
            <path id="Trazado_880658" data-name="Trazado 880658" d="M72.769,90.717c.713-6.1,4.177-19.621,20.863-20.329a2.016,2.016,0,0,1,2.039,2.356C93.7,85.324,81.1,90.929,75.394,92.847a2,2,0,0,1-2.625-2.13" transform="translate(6.975 6.748)" fill="#9dba8c"/>
            <path id="Trazado_880659" data-name="Trazado 880659" d="M72.769,90.717c.713-6.1,4.177-19.621,20.863-20.329a2.016,2.016,0,0,1,2.039,2.356C93.7,85.324,81.1,90.929,75.394,92.847a2,2,0,0,1-2.625-2.13" transform="translate(6.975 6.748)" fill="#abc49d"/>
            <path id="Trazado_880660" data-name="Trazado 880660" d="M74.56,89.486s5.467-9.93,9.49-12.061-9.49,12.061-9.49,12.061" transform="translate(7.148 7.401)" fill="#b1c8a3"/>
            <path id="Trazado_880661" data-name="Trazado 880661" d="M87.675,125.392c-4.066-4.609-14.617-13.74-28.73-4.81a2.014,2.014,0,0,0-.332,3.1c8.794,9.212,22.337,6.638,28.12,4.959a2,2,0,0,0,.942-3.246" transform="translate(5.564 11.198)" fill="#9dba8c"/>
            <path id="Trazado_880662" data-name="Trazado 880662" d="M87.675,125.392c-4.066-4.609-14.617-13.74-28.73-4.81a2.014,2.014,0,0,0-.332,3.1c8.794,9.212,22.337,6.638,28.12,4.959a2,2,0,0,0,.942-3.246" transform="translate(5.564 11.198)" fill="#abc49d"/>
            <path id="Trazado_880663" data-name="Trazado 880663" d="M84.654,125.627s-10.152-5.042-14.673-4.5,14.673,4.5,14.673,4.5" transform="translate(6.643 11.608)" fill="#b1c8a3"/>
            <path id="Trazado_880664" data-name="Trazado 880664" d="M85.082,126.571c.186-6.143,2.477-19.908,19.041-22.046a2.014,2.014,0,0,1,2.233,2.171c-.887,12.7-12.953,19.371-18.476,21.77a2,2,0,0,1-2.8-1.9" transform="translate(8.156 10.019)" fill="#9dba8c"/>
            <path id="Trazado_880665" data-name="Trazado 880665" d="M85.082,126.571c.186-6.143,2.477-19.908,19.041-22.046a2.014,2.014,0,0,1,2.233,2.171c-.887,12.7-12.953,19.371-18.476,21.77a2,2,0,0,1-2.8-1.9" transform="translate(8.156 10.019)" fill="#abc49d"/>
            <path id="Trazado_880666" data-name="Trazado 880666" d="M86.822,125.109s4.594-10.363,8.42-12.83-8.42,12.83-8.42,12.83" transform="translate(8.323 10.738)" fill="#b1c8a3"/>
            <path id="Trazado_880667" data-name="Trazado 880667" d="M105.171,159.828c-4.615-4.059-16.234-11.786-29.107-1.146a2.015,2.015,0,0,0,.06,3.114c9.887,8.028,23,3.767,28.521,1.371a2,2,0,0,0,.526-3.339" transform="translate(7.224 14.696)" fill="#9dba8c"/>
            <path id="Trazado_880668" data-name="Trazado 880668" d="M105.171,159.828c-4.615-4.059-16.234-11.786-29.107-1.146a2.015,2.015,0,0,0,.06,3.114c9.887,8.028,23,3.767,28.521,1.371a2,2,0,0,0,.526-3.339" transform="translate(7.224 14.696)" fill="#abc49d"/>
            <path id="Trazado_880669" data-name="Trazado 880669" d="M102.259,160.312s-10.708-3.72-15.123-2.613,15.123,2.613,15.123,2.613" transform="translate(8.291 15.098)" fill="#b1c8a3"/>
            <path id="Trazado_880670" data-name="Trazado 880670" d="M102.575,161.386c-.591-6.118-.055-20.061,16.107-24.272a2.016,2.016,0,0,1,2.49,1.873c.722,12.714-10.406,20.85-15.582,23.928a2,2,0,0,1-3.015-1.529" transform="translate(9.82 13.138)" fill="#9dba8c"/>
            <path id="Trazado_880671" data-name="Trazado 880671" d="M102.575,161.386c-.591-6.118-.055-20.061,16.107-24.272a2.016,2.016,0,0,1,2.49,1.873c.722,12.714-10.406,20.85-15.582,23.928a2,2,0,0,1-3.015-1.529" transform="translate(9.82 13.138)" fill="#abc49d"/>
            <path id="Trazado_880672" data-name="Trazado 880672" d="M104.2,159.6s3.25-10.86,6.733-13.79S104.2,159.6,104.2,159.6" transform="translate(9.99 13.945)" fill="#b1c8a3"/>
            <path id="Trazado_880673" data-name="Trazado 880673" d="M61.518,36.3C57.873,31.348,51.18,19.1,62.894,7.2a2.016,2.016,0,0,1,3.1.33c7.142,10.544,1.762,23.236-1.1,28.533a2,2,0,0,1-3.372.235" transform="translate(5.396 0.634)" fill="#9dba8c"/>
            <path id="Trazado_880674" data-name="Trazado 880674" d="M61.518,36.3C57.873,31.348,51.18,19.1,62.894,7.2a2.016,2.016,0,0,1,3.1.33c7.142,10.544,1.762,23.236-1.1,28.533a2,2,0,0,1-3.372.235" transform="translate(5.396 0.634)" fill="#abc49d"/>
            <path id="Trazado_880675" data-name="Trazado 880675" d="M62.162,33.485S59.382,22.5,60.868,18.193s1.294,15.292,1.294,15.292" transform="translate(5.793 1.685)" fill="#b1c8a3"/>
            <path id="Trazado_880676" data-name="Trazado 880676" d="M67.048,327.094,43.6,322.99C22.978,304.055,7.813,276.807.482,241.591c63.391,14.944,166.734,108.767,166.734,108.767C124,360.177,84.249,353.556,53.9,331.432Z" transform="translate(0.046 23.16)" fill="#4d812e"/>
            <path id="Trazado_880677" data-name="Trazado 880677" d="M.483,121.98q14.008,9.36,26.844,19.635L23.8,155.751l12.467-6.8C120.473,220.119,165.5,316.944,179.183,384.133c0,0-57.475-13.926-107.234-65.522L90.187,302.75l-25.343,8.165c-22.713-25.688-43.086-59.749-54.564-104.6l20.606-14.212-23.664.946A341.028,341.028,0,0,1,.483,121.98" transform="translate(0.046 11.694)" fill="#abc49d"/>
            <path id="Trazado_880678" data-name="Trazado 880678" d="M71.949,318.612l18.237-15.862-25.343,8.165c-22.713-25.688-43.086-59.749-54.564-104.6l20.606-14.213-23.664.947A341.035,341.035,0,0,1,.483,121.981s89.7,178.921,178.7,262.153c0,0-57.475-13.927-107.234-65.522" transform="translate(0.046 11.694)" fill="#7ba264"/>
            <path id="Trazado_880679" data-name="Trazado 880679" d="M178.805,384.512c-.064-.064-6.5-6.521-17.138-18.455-9.815-11.011-25.319-29.073-43.445-52.6-20.372-26.438-39.838-54.244-57.855-82.645A1056.745,1056.745,0,0,1,0,122.212l.965-.463c39.665,82.707,86.111,149.539,118.09,191.041,18.107,23.5,33.594,41.542,43.4,52.541,10.622,11.917,17.045,18.36,17.109,18.424Z" transform="translate(0.046 11.694)" fill="#fefefe"/>
            <path id="Línea_587" data-name="Línea 587" d="M.525,47.269l-1.049-.211L8.958-.105l1.049.211Z" transform="translate(56.891 188.747)" fill="#fefefe"/>
            <path id="Línea_588" data-name="Línea 588" d="M50.541.535H0V-.535H50.541Z" transform="translate(31.621 274.15)" fill="#fefefe"/>
            <path id="Línea_589" data-name="Línea 589" d="M.53,54.84-.53,54.689,7.292-.076,8.351.076Z" transform="translate(126.8 280.451)" fill="#fefefe"/>
            <g id="Grupo_1099990" data-name="Grupo 1099990" transform="translate(0.523 133.674)" style="mix-blend-mode: multiply;isolation: isolate">
              <g id="Grupo_1099989" data-name="Grupo 1099989">
                <g id="Grupo_1099988" data-name="Grupo 1099988" clip-path="url(#clip-path-4)">
                  <g id="Grupo_1099987" data-name="Grupo 1099987" transform="translate(0 0)">
                    <g id="Grupo_1099986" data-name="Grupo 1099986" clip-path="url(#clip-path-7)">
                      <rect id="Rectángulo_402287" data-name="Rectángulo 402287" width="312.941" height="310.6" transform="matrix(0.693, -0.721, 0.721, 0.693, -131.109, 136.283)" fill="url(#linear-gradient-2)"/>
                    </g>
                  </g>
                </g>
              </g>
            </g>
            <path id="Trazado_880681" data-name="Trazado 880681" d="M77.191,208.8a140.419,140.419,0,1,0,272.042,0Z" transform="translate(6.978 20.017)" fill="#abc49d"/>
            <g id="Grupo_1099995" data-name="Grupo 1099995" transform="translate(51.292 226.801)" opacity="0.66">
              <g id="Grupo_1099994" data-name="Grupo 1099994">
                <g id="Grupo_1099993" data-name="Grupo 1099993" clip-path="url(#clip-path-8)">
                  <g id="Grupo_1099992" data-name="Grupo 1099992" transform="translate(28.479 2.018)">
                    <g id="Grupo_1099991" data-name="Grupo 1099991" clip-path="url(#clip-path-9)">
                      <path id="Trazado_880682" data-name="Trazado 880682" d="M106.312,243.012l6.009.2a.481.481,0,0,0,.339-.123,3.719,3.719,0,0,1,4.054-.585l1.418.668a.5.5,0,0,0,.207.046h8.65a.485.485,0,0,0,.4-.209l1.565-2.26a.485.485,0,0,0-.113-.667l-2.663-1.953a.489.489,0,0,1-.187-.493l.512-2.387a.485.485,0,0,1,.475-.384h2.741a.485.485,0,0,1,.472.374l.773,3.285a.5.5,0,0,0,.06.146l1.768,2.827a.485.485,0,0,0,.809.021l.5-.712a.486.486,0,0,1,.87.165l.618,2.6a.486.486,0,0,0,.851.191l1.837-2.3a.486.486,0,0,0,.069-.49l-.579-1.388a.486.486,0,0,1,.6-.648l4.02,1.34a.485.485,0,0,1,.128.855l-.413.3a.485.485,0,0,0-.144.627l.933,1.71a.486.486,0,0,1-.1.587l-2.553,2.371a.485.485,0,0,0-.117.542l.828,1.988a.485.485,0,0,1-.145.565l-1.636,1.308a.486.486,0,0,1-.572.025l-1.429-.952a.486.486,0,0,1-.21-.472l.145-1.015a.485.485,0,0,0-.859-.371l-.6.743a.5.5,0,0,1-.125.111l-2.369,1.458a.486.486,0,0,0-.158.671l.328.523a.485.485,0,0,1-.453.741l-1.467-.122a.485.485,0,0,0-.359.118l-3.156,2.762a.484.484,0,0,0-.159.449l.483,2.736a.485.485,0,0,0,.746.319.486.486,0,0,1,.754.374l.132,2.11a.485.485,0,0,0,.59.444l1.3-.289a.492.492,0,0,1,.249.011l8.826,2.732a.485.485,0,0,1,.334.379l.573,3.246a.493.493,0,0,0,.2.316l2.7,1.9a.49.49,0,0,0,.77-.447l-.338-3.553,2.982-2.584a.486.486,0,0,0,.092-.626l-2.208-3.5a.486.486,0,0,1,.068-.6l1.2-1.2a.486.486,0,0,0,.061-.613l-2.06-3.09a.484.484,0,0,1,.255-.731l4.69-1.5a.487.487,0,0,1,.371.031l5.854,3.029a.484.484,0,0,1,.248.548l-.514,2.057a.487.487,0,0,0,.067.387l.976,1.464a.484.484,0,0,0,.594.178l2.518-1.079a.487.487,0,0,0,.262-.272l.611-1.589a.485.485,0,0,1,.894-.027l2.96,6.474a.485.485,0,0,0,.247.243l3.347,1.464,5.041,3.66a.491.491,0,0,1,.013.785l-2.9,2.254a.51.51,0,0,1-.159.082l-4.3,1.308a.466.466,0,0,0-.125.058l-4.062,2.65a.491.491,0,0,0-.191.586l.682,1.771a.488.488,0,0,0,.541.307l3.482-.6a.49.49,0,0,1,.574.483v1.164a.49.49,0,0,1-.371.476l-3.377.844a.5.5,0,0,0-.216.118l-2.446,2.294a.491.491,0,0,1-.8-.2l-.272-.815a.49.49,0,0,1,.034-.388l.668-1.242a.49.49,0,0,0-.587-.7l-3.827,1.276a.488.488,0,0,0-.307.3l-1.007,2.853a.5.5,0,0,1-.285.295l-3.033,1.179a.492.492,0,0,0-.3.347l-1.441,6.308a.491.491,0,0,1-.242.321l-5.5,3.015a.49.49,0,0,0-.247.521l1.256,6.634a.485.485,0,0,1-.059.338l-.78,1.338a.49.49,0,0,1-.871-.048l-1.824-4.1a.491.491,0,0,0-.381-.287l-7.2-.982a.491.491,0,0,0-.48.75.49.49,0,0,1-.586.722l-3-1.127a.487.487,0,0,0-.487.083l-5.523,4.632a.489.489,0,0,0-.148.538l2.507,7.163a.49.49,0,0,0,.363.318l4.078.849a.491.491,0,0,0,.485-.176l1.83-2.329a.49.49,0,0,1,.289-.179l3.049-.609a.49.49,0,0,1,.584.526l-.472,5.043a.49.49,0,0,0,.45.535l3.992.307a.491.491,0,0,1,.445.579l-.868,4.687,1.548,2.522,5.551.327a2.168,2.168,0,0,0,1.729-.7l1.313-1.438a2.167,2.167,0,0,1,1.6-.707h3a2.166,2.166,0,0,1,1.2.365l.75.5a2.168,2.168,0,0,0,1.8.282l3.2-.913a2.169,2.169,0,0,1,1.565.145l12.036,6.018a2.17,2.17,0,0,1,1.018,1.071l1.756,4.013a2.169,2.169,0,0,0,1.413,1.223l15.516,4.259a2.17,2.17,0,0,1,1.594,2.092v3.638a2.168,2.168,0,0,1-.887,1.749l-3.723,2.73a2.168,2.168,0,0,0-.858,1.4l-1.422,8.815a2.169,2.169,0,0,1-1.481,1.721l-6.695,2.142a2.166,2.166,0,0,0-1.312,1.164l-4.752,10.393a2.166,2.166,0,0,1-1.806,1.26l-1.338.1a2.17,2.17,0,0,0-2,2.163,2.17,2.17,0,0,1-1,1.827l-7.257,4.644a2.177,2.177,0,0,0-.871,1.09l-4.115,11.4a2.169,2.169,0,0,0-.027,1.394l1,3.124a2.17,2.17,0,0,1-2.721,2.727l-1.517-.479a2.17,2.17,0,0,1-1.479-1.672l-2.536-13.629a2.175,2.175,0,0,1-.012-.72l2.786-18.458,1.91-12.1a2.169,2.169,0,0,0-.97-2.163l-3.363-2.162a2.179,2.179,0,0,1-.676-.691l-6.206-10.125a2.175,2.175,0,0,1-.316-1l-.247-3.96a2.169,2.169,0,0,1,.882-1.884L147.31,332a2.169,2.169,0,0,0,.887-1.75v-2.057a2.169,2.169,0,0,0-2.169-2.17h-1.935a2.162,2.162,0,0,1-.97-.229l-4.513-2.256-2.485-3.906h-4.261l-3.483-2.786a.472.472,0,0,0-.151-.082l-11.464-3.821a.494.494,0,0,1-.264-.21L110.086,302.2a.491.491,0,0,0-.883.415l.736,2.129a.49.49,0,0,1-.851.46l-6.695-8.662-8.167-11.007L96,274.178l-10.3-6.036-6.036-8.521-10.321-3.44a1.059,1.059,0,0,0-.664,0l-10.515,3.392a1.078,1.078,0,0,1-.328.051H54.419a1.064,1.064,0,0,1-.582-.173l-6.548-4.271a1.065,1.065,0,0,1-.009-1.779l4.549-3.033a1.066,1.066,0,0,0-.133-1.849l-1.5-.716a1.066,1.066,0,0,1,.458-2.028,1.066,1.066,0,0,0,.477-2.019l-2.835-1.418a1.065,1.065,0,0,1,.157-1.969l6.4-2.012a15.3,15.3,0,0,1,7.138-.49l15.131,2.561a14.225,14.225,0,0,0,8.3-1.095,14.232,14.232,0,0,1,9.382-.869l10.475,2.619a.485.485,0,0,1,.361.385l.206,1.147a.485.485,0,0,0,.461.4m28.98-11.049-.242.689a2.231,2.231,0,0,0,1.475,2.876l8.554,2.516a2.217,2.217,0,0,1,.74.379l2.827,2.2a2.23,2.23,0,0,1,.857,1.625l.306,5.048a2.23,2.23,0,0,0,1.114,1.8l7.08,4.067a2.229,2.229,0,0,0,3.174-1.088l.854-2.089a2.216,2.216,0,0,1,.449-.694l1.731-1.818a2.229,2.229,0,0,0-.872-3.639l-2.739-.967a2.228,2.228,0,0,1-1.487-2.1,2.231,2.231,0,0,0-1.107-1.925l-6.478-3.779a2.234,2.234,0,0,1-.575-.482l-2.823-3.32a2.227,2.227,0,0,0-1.7-.786h-9.038a2.228,2.228,0,0,0-2.1,1.494m-5.133-1.494h-1.445a1.253,1.253,0,0,0-1.253,1.253v.573a1.253,1.253,0,0,0,1.253,1.253h.935a1.25,1.25,0,0,0,.934-.419l.512-.573a1.253,1.253,0,0,0-.935-2.087m-5.774,5.129,1.284-1.5a1.252,1.252,0,0,0,.229-1.236l-.473-1.324a1.251,1.251,0,0,0-1.483-.793l-2.907.727a1.253,1.253,0,0,0-.582,2.1l2.1,2.1a1.253,1.253,0,0,0,1.837-.07m-17.09-3.689L96.84,229.535a2.21,2.21,0,0,0-2.466,1.167l-.64,1.28a2.21,2.21,0,0,0,.561,2.686l.432.359a2.209,2.209,0,0,0,1.951.446l1.6-.4a2.212,2.212,0,0,1,1.576.194l2.28,1.216a2.2,2.2,0,0,1,.483.35l3.493,3.326a2.212,2.212,0,0,0,2.112.53l4.534-1.252a2.217,2.217,0,0,1,1.261.025l3.91,1.251a2.21,2.21,0,0,0,2.018-3.859l-1.985-1.52a2.211,2.211,0,0,1-.8-1.217l-.411-1.642a2.208,2.208,0,0,0-2.536-1.638l-6.039,1.09a2.214,2.214,0,0,1-.882-.019m-8.935-6.376,8.127,3.484a1.074,1.074,0,0,0,.644.063l5.785-1.239a1.068,1.068,0,0,0,.021-2.084l-5.084-1.193a1.066,1.066,0,0,1-.23-.082l-4.786-2.368a1.065,1.065,0,0,0-.882-.03l-3.583,1.483a1.068,1.068,0,0,0-.012,1.968m8.6-3.681.258.308a1.255,1.255,0,0,0,1.3.4l2.649-.738a1.253,1.253,0,0,0,.916-1.207v-.371a1.253,1.253,0,0,0-1.586-1.208l-2.907.8a1.253,1.253,0,0,0-.625,2.013m12.589,3.033,2.68,2.858a1.251,1.251,0,0,0,.7.378l3.813.647a1.252,1.252,0,0,0,1.362-1.724l-.321-.757a1.254,1.254,0,0,0-1.153-.764h-1.075a1.252,1.252,0,0,1-1.093-.64l-.821-1.466a1.254,1.254,0,0,0-1.094-.641h-2.09a1.253,1.253,0,0,0-.914,2.109m12.2,4.265h13.284a.452.452,0,0,0,.451-.452v-2.329a.452.452,0,0,0-.4-.449l-3.681-.388a.446.446,0,0,0-.179.018l-5.511,1.683a.45.45,0,0,1-.518-.2l-.663-1.094a.451.451,0,0,1,.184-.638l1.859-.93a.447.447,0,0,1,.255-.044l9.472,1.132a.451.451,0,0,0,.505-.448v-2.038a.453.453,0,0,1,.149-.335l3.6-3.255a.452.452,0,0,0-.3-.787.451.451,0,0,1-.168-.87l3.294-1.318a.447.447,0,0,0,.046-.022l5.672-3.054.042-.02,6.136-2.526a.452.452,0,0,0-.072-.858l-13.027-2.96a.439.439,0,0,0-.185,0l-19.64,3.761a.451.451,0,0,0-.207.788l2.026,1.715a.458.458,0,0,0,.252.105l7.249.639a.445.445,0,0,0,.161-.014l1.5-.419a.451.451,0,0,1,.335.832l-2.042,1.1a.455.455,0,0,1-.188.053l-3.547.209a.448.448,0,0,1-.174-.024l-6.226-2.147a.435.435,0,0,1-.118-.061l-2.157-1.569a.453.453,0,0,0-.442-.05l-4.88,2.065a.451.451,0,0,0-.151.727l3.657,3.849a.428.428,0,0,0,.167.111l5.217,1.984a.452.452,0,0,0,.356-.015l3.672-1.762a.452.452,0,0,1,.559.676l-1.706,2.3a.454.454,0,0,1-.152.129l-3.9,2.051a.448.448,0,0,1-.384.018l-4.455-1.855a.451.451,0,0,0-.625.416v1.384a.452.452,0,0,0,.346.439l3.471.83a.45.45,0,0,1,.326.3l1.033,3.3a.452.452,0,0,0,.432.317m-15.307-8.805h0a1.255,1.255,0,0,0,.73.424l3.45.637a1.253,1.253,0,0,0,1.313-1.856l-.218-.378a1.25,1.25,0,0,0-.985-.625l-3.232-.258a1.253,1.253,0,0,0-1.058,2.056m7.849-.6.049.133a1.254,1.254,0,0,0,1.173.813h.1a1.252,1.252,0,0,0,1-2l-.1-.133a1.252,1.252,0,0,0-1-.5h-.049a1.252,1.252,0,0,0-1.173,1.692m33.745,5.821,7.883.368a1.771,1.771,0,0,1,1.148.5l8.528,8.246a1.761,1.761,0,0,1,.518,1l2.671,16.964a1.768,1.768,0,0,0,.422.9l2.365,2.68a1.77,1.77,0,0,0,2.928-.418l3.163-6.72a1.771,1.771,0,0,1,1.6-1.017h3.178a1.769,1.769,0,0,0,1.312-.581l3.512-3.876a1.761,1.761,0,0,1,.72-.479l8.222-2.918a1.769,1.769,0,0,0,.958-.812l5.29-9.571a1.775,1.775,0,0,0,.136-1.4l-2.479-7.716a1.771,1.771,0,0,1,.774-2.059l7.247-4.352a1.77,1.77,0,0,0-.533-3.246l-6.5-1.426c-.045-.01-.091-.018-.136-.024l-18.805-2.61a1.762,1.762,0,0,0-.552.01L169.7,210.883a1.778,1.778,0,0,0-.744.32l-6.912,5.114a1.777,1.777,0,0,1-.513.263l-6.4,2.054a1.769,1.769,0,0,0-.906,2.706l2.45,3.476a1.77,1.77,0,0,0,1.364.748m48.654,20.442,5.339,4H218.7l3.248-4.958-9.35-1.335Zm17.18,50.423-1.83,2.132c-.059.069-.116.14-.171.213l-5.9,7.771a4.531,4.531,0,0,0-.493,4.656l.338.72a4.525,4.525,0,0,1-.044,3.931,4.528,4.528,0,0,0,.873,5.231l6.821,6.74a4.53,4.53,0,0,0,3.182,1.307H232.4a4.519,4.519,0,0,0,1.938-.436l4.094-1.94a.785.785,0,0,1,.83.1l2.563,2.1a.779.779,0,0,0,.494.176h2.1a.781.781,0,0,1,.78.78v5.567a2.325,2.325,0,0,0,.247,1.042l3.928,7.854a2.335,2.335,0,0,1,.134,1.756l-2.014,6.265a2.331,2.331,0,0,0,.113,1.71l1.968,4.154a2.338,2.338,0,0,1,.224,1v4.231a2.334,2.334,0,0,0,.391,1.292L256,373.5a2.331,2.331,0,0,0,1.939,1.038H264.7a2.329,2.329,0,0,0,1.89-.969l4.037-5.606a2.332,2.332,0,0,0,.438-1.361v-1.8a2.331,2.331,0,0,1,1.69-2.241l.644-.184a2.328,2.328,0,0,0,1.69-2.24v-2.45a2.327,2.327,0,0,1,.683-1.647l4.382-4.383a2.33,2.33,0,0,0,.683-1.647v-5.889a2.339,2.339,0,0,0-.307-1.156l-1.1-1.92a2.329,2.329,0,0,1,.4-2.825l9.158-8.917a2.327,2.327,0,0,0,.632-1.093l.917-3.587a2.96,2.96,0,0,0-3.56-3.612,4.265,4.265,0,0,1-4.38-1.546l-1.186-1.541-3.162-1.725-4.979-13.625a.244.244,0,0,1,.418-.24l6.285,7.543,3.188,6.513a4.267,4.267,0,0,0,5.318,2.124l8.85-3.292a1.328,1.328,0,0,0,.7-.6l2.507-4.558a1.328,1.328,0,0,0-.109-1.445l-2.467-3.225a1.327,1.327,0,0,0-1.774-.308l-2.629,1.7a1.326,1.326,0,0,1-1.9-.5l-2.639-5.1a1.326,1.326,0,0,1,2.268-1.364l1.769,2.555a1.326,1.326,0,0,0,1.164.57l3.84-.214a1.327,1.327,0,0,1,1.011.387l1.491,1.491a1.322,1.322,0,0,0,.937.388h6.914a1.319,1.319,0,0,1,.976.433l4.929,5.45a1.287,1.287,0,0,1,.224.342l5.456,12.1a1.315,1.315,0,0,0,2.345.1l3.766-6.7a1.323,1.323,0,0,1,.341-.395l9.836-7.623a1.315,1.315,0,0,1,2.049.609l1.628,4.7a1.314,1.314,0,0,0,1.442.87l1.425-.219a1.316,1.316,0,0,1,1.487,1.026l.861,4.034a1.371,1.371,0,0,1,.029.275v3.394a1.324,1.324,0,0,0,.114.535l2.087,4.695a1.327,1.327,0,0,0,.272.4l.762.763a1.316,1.316,0,0,0,2.192-1.3l-.752-2.538a1.322,1.322,0,0,0-.243-.46l-2.121-2.592a1.315,1.315,0,1,1,2.118-1.554l1.623,2.482a1.316,1.316,0,0,0,1.989.251l4.014-3.666a1.816,1.816,0,0,0,.592-1.341v-2.371a1.814,1.814,0,0,0-.926-1.582L355,314.017a1.815,1.815,0,0,1-.6-2.623l.1-.146a1.817,1.817,0,0,1,2.03-.691l2.474.774a1.814,1.814,0,0,0,1.589-.25l8.469-5.978a1.81,1.81,0,0,0,.723-1.083l1.732-7.669a1.8,1.8,0,0,0-.092-1.09l-1.465-3.56a1.817,1.817,0,0,1,.08-1.552l.906-1.682a1.817,1.817,0,0,1,2.111-.882l2.563.754a1.816,1.816,0,0,1,1.21,1.168l.583,1.75a1.816,1.816,0,1,0,3.109-1.748l-1.056-1.247a1.817,1.817,0,0,1-.078-2.246l1.771-2.414a1.816,1.816,0,0,1,1.464-.742h3.748a1.815,1.815,0,0,0,1.6-.95l4.75-8.748a1.62,1.62,0,0,0,.2-.771v-4.295a1.618,1.618,0,0,0-1.617-1.617,1.618,1.618,0,0,1-1.1-2.805l5.413-5.009a1.62,1.62,0,0,1,1.1-.43h8.632a1.621,1.621,0,0,0,.922-.288l6.354-4.4a1.615,1.615,0,0,1,.921-.288h2.233a1.618,1.618,0,0,1,1.093,2.811l-6.651,6.1a1.617,1.617,0,0,0-.508,1.421l.822,5.753a1.617,1.617,0,0,0,2.812.844l6.185-6.982a1.618,1.618,0,0,0,.407-1.073v-2.7a1.617,1.617,0,0,1,1.146-1.547l5.751-1.752,6.9-2.874H436.6l8.011-7.6a1.76,1.76,0,0,0-.6-2.926l-14.964-5.568a1.757,1.757,0,0,0-1.506.133l-3.7,2.179a1.763,1.763,0,0,1-1,.239l-8.571-.5a1.757,1.757,0,0,1-1.139-.51l-5.623-5.6a1.758,1.758,0,0,0-1.242-.513H392.749a1.758,1.758,0,0,0-1.2.472l-3.418,3.182a1.757,1.757,0,0,1-1.575.432l-6.912-1.509a1.759,1.759,0,0,1-1.384-1.719v-1.223a1.759,1.759,0,0,0-1.349-1.711l-4.638-1.113a1.76,1.76,0,0,0-1.878.741l-.873,1.321a1.759,1.759,0,0,1-2.028.7l-5.407-1.817a1.76,1.76,0,0,1-.332-3.185l.6-.353a1.757,1.757,0,0,0,.86-1.676l-.053-.585a1.761,1.761,0,0,0-1.6-1.593L343.7,221.4a1.752,1.752,0,0,0-.951.185L329.5,228.338a1.759,1.759,0,0,0-.96,1.567v.1a1.76,1.76,0,0,1-1.018,1.6l-6.046,2.81a1.761,1.761,0,0,1-1.835-.216l-1.211-.959a1.761,1.761,0,0,0-1.769-.245l-6.695,2.787a1.758,1.758,0,0,0-1.065,1.873h0a1.759,1.759,0,0,1-2.219,1.942l-4.931-1.386a1.758,1.758,0,0,0-2.161,1.188l-.024.078a1.758,1.758,0,0,1-1.525,1.247l-7.868.716a1.75,1.75,0,0,0-.8.274l-12.149,7.846a1.14,1.14,0,0,1-1.352-.086l-1.491-1.256a1.14,1.14,0,0,1,.4-1.962l4.153-1.277a1.163,1.163,0,0,0,.317-.155,1.141,1.141,0,0,0-.145-1.957l-15.535-7.718a1.141,1.141,0,0,0-1.1.045l-13.968,8.437a1.147,1.147,0,0,0-.271.227l-9.377,10.767a1.14,1.14,0,0,0-.1,1.369l2.215,3.422a1.138,1.138,0,0,0,1.318.461l3.714-1.241a1.14,1.14,0,0,1,1.474.83l.639,2.827a1.14,1.14,0,0,0,1.273.877l2.364-.338a1.141,1.141,0,0,0,.878-.656l2.436-5.361a1.138,1.138,0,0,0,.051-.807l-.811-2.636a1.141,1.141,0,0,1,.318-1.175l5.466-5.028a1.14,1.14,0,0,1,.773-.3h.846a1.141,1.141,0,0,1,.811,1.943l-3.827,3.867a1.142,1.142,0,0,0-.209,1.312l.739,1.477a1.143,1.143,0,0,0,1.077.629l4.322-.216a1.136,1.136,0,0,1,1.033.551l.046.076a1.14,1.14,0,0,1-.976,1.728h-1.816a1.139,1.139,0,0,0-1.136,1.05l-.15,1.906a1.141,1.141,0,0,1-.691.96l-8.615,3.655a1.12,1.12,0,0,1-.485.09l-7.477-.267a1.151,1.151,0,0,0-.6.144l-4.844,2.69a.851.851,0,0,0-.1.066l-5.351,4.142a4.252,4.252,0,0,0-.642,6.109.779.779,0,0,1,.137.772l-.808,2.221a.78.78,0,0,1-.734.514h-2.592a3.735,3.735,0,0,0-3.723,4.034l.21,2.636a.784.784,0,0,0,.531.679l4.408,1.468a.78.78,0,0,0,.544-.019l4.134-1.7a.782.782,0,0,0,.484-.722V287.35a5.157,5.157,0,0,1,3.051-4.708l4.218-1.887a2.786,2.786,0,0,1,3.918,2.358.784.784,0,0,0,.261.531l4.483,3.986a.781.781,0,0,0,.952.066l.621-.414a.782.782,0,0,0,.249-1.031l-3.462-6.181a.78.78,0,0,1-.005-.752l.928-1.725a.781.781,0,0,1,1.433.137l.842,2.695a.759.759,0,0,0,.127.243l2.759,3.588a.77.77,0,0,1,.054.079l3.3,5.593a.782.782,0,0,0,1.087.264l1.174-.733a.782.782,0,0,0,.355-.8.781.781,0,0,1,1.445-.526l1.53,2.653a1.678,1.678,0,0,0,1.683.823l4.879-.678a2.922,2.922,0,0,1,3.227,3.642l-.561,2.123a1.675,1.675,0,0,1-1.62,1.248H267.48a1.681,1.681,0,0,1-.306-.028l-8.277-1.536a2.458,2.458,0,0,0-2.522,1.1,2.456,2.456,0,0,1-3.04.939l-7.508-3.216a.78.78,0,0,1-.443-.933l.655-2.295a.781.781,0,0,0-.8-.994l-11.824.788-.674.065a13.354,13.354,0,0,0-8.869,4.6M277.415,278.7l.062.313a1.983,1.983,0,0,0,1.087,1.4l3.468,1.658a1.98,1.98,0,0,1-1.219,3.731l-7.848-1.472a1.941,1.941,0,0,0-.365-.034h-3.741a1.979,1.979,0,0,1-1.756-2.892l1.678-3.227a1.978,1.978,0,0,1,1.756-1.066h4.936a1.98,1.98,0,0,1,1.941,1.591m17.213,5.69v4.823a1.979,1.979,0,0,1-1.979,1.979h-.927a1.979,1.979,0,0,1-1.979-1.979v-2.726a1.971,1.971,0,0,0-.209-.885l-2-4a1.98,1.98,0,0,1,1.02-2.717l2.222-.908a1.979,1.979,0,0,1,2.672,1.361l1.122,4.579a2.008,2.008,0,0,1,.056.471m-7.138,65.956-2.685,2.929a2.556,2.556,0,0,0-.642,1.333l-.856,5.482a2.557,2.557,0,0,0,2.526,2.952h.887a2.557,2.557,0,0,0,2.438-1.787l2.656-8.411a2.557,2.557,0,0,0-4.324-2.5m57.48-17.276,2.143,3.908a1.1,1.1,0,0,0,.287.337l4,3.109a1.094,1.094,0,0,0,1.622-.32l1.17-2.048a1.1,1.1,0,0,0-.335-1.449l-7.174-4.868a.824.824,0,0,1-.069-.052,1.1,1.1,0,0,0-1.644,1.382m10.617,7.316h0a2.044,2.044,0,0,0,1.116,2.748l3.527,1.381a2.044,2.044,0,0,0,1.991-.284l.714-.549a2.044,2.044,0,0,0,0-3.24l-1.079-.831a2.046,2.046,0,0,0-1.246-.423h-3.162a2.044,2.044,0,0,0-1.861,1.2m1.86-6.275,2.151,2.979a1.424,1.424,0,0,0,.708.519l3.6,1.2a1.433,1.433,0,0,0,1.712-.676l2.809-5.186a1.432,1.432,0,0,0,.022-1.323l-1.216-2.434a1.43,1.43,0,0,1,.268-1.653,1.433,1.433,0,0,0-.263-2.232l-.8-.5a1.431,1.431,0,0,0-2.056.632l-1.761,3.913a1.435,1.435,0,0,1-.468.573l-2.019,1.459a1.431,1.431,0,0,1-.569.244l-1.22.236a1.431,1.431,0,0,0-.89,2.244m12.522-28.519-.761.622a.721.721,0,0,0-.2.859l.761,1.659a.722.722,0,0,0,1.379-.3v-2.28a.722.722,0,0,0-1.179-.559m-.216,7.875-.851,2.63a.94.94,0,0,0,.07.741l.419.759a.937.937,0,0,0,1.758-.452v-1.134a.934.934,0,0,1,.158-.519l.811-1.218a.937.937,0,0,0-.779-1.456h-.694a.937.937,0,0,0-.891.649m1.324,11.134h0a.937.937,0,0,0,1.141,1.015l.17-.039a.937.937,0,0,1,1.038.473l.639,1.205a.935.935,0,0,0,1.42.285l1.528-1.253a.938.938,0,0,0,.314-.951l-.466-1.862a.937.937,0,0,0-1.139-.681l-3.945,1a.938.938,0,0,0-.7.805m1.024-5.593.869.866a.681.681,0,0,1,.169.278l.6,1.935a.675.675,0,0,0,.644.476h.263a.674.674,0,0,0,.674-.675v-1.205a.677.677,0,0,0-.187-.468l-2.066-2.151a.675.675,0,1,0-.963.945M370.212,332.9l-1.9,4.139a.432.432,0,0,0-.036.234l.453,3.548a.432.432,0,0,0,.427.377h.375a.432.432,0,0,0,.431-.432v-2a.431.431,0,0,1,.792-.236l.77,1.177a.431.431,0,0,0,.542.156l1-.468a.431.431,0,0,0,.18-.626L371.9,336.7a.432.432,0,0,1,.024-.505l.6-.757a.431.431,0,0,0-.336-.7h-.956a.427.427,0,0,0-.17.034.431.431,0,0,1-.551-.6l.236-.455a.431.431,0,0,1,.445-.229l2.757.4a.43.43,0,0,0,.4-.161l1.31-1.68a.43.43,0,0,0-.2-.672l-.889-.309a.43.43,0,0,0-.537.234l-.412.945a.431.431,0,0,1-.372.259l-2.677.147a.435.435,0,0,0-.368.251m18.836,3.225-2.655,1.132a.477.477,0,0,1-.541-.119l-.246-.273a.483.483,0,0,1-.123-.321v-1.456a.478.478,0,0,0-.341-.457l-2.7-.808a.485.485,0,0,0-.137-.02h-.888a.478.478,0,0,0-.478.478v.16a.476.476,0,0,0,.259.424l1.3.672a.479.479,0,0,1,.185.171l.4.644a.474.474,0,0,0,.362.222l.645.059a.477.477,0,0,1,.434.476v.162a.483.483,0,0,1-.056.224l-.347.652a.477.477,0,0,0,.568.678l.254-.081a.477.477,0,0,1,.242-.013l2.129.439a.5.5,0,0,1,.15.058l2.74,1.647a.477.477,0,0,1,.083.755l-.711.676a.477.477,0,0,0,.329.823h2.074a.482.482,0,0,1,.339.141l1.365,1.374a.477.477,0,0,0,.618.049l2.41-1.742a.476.476,0,0,1,.517-.029l1.166.667a.476.476,0,0,1,.24.414v.567a.478.478,0,0,0,.348.46l3.487.979a.477.477,0,0,0,.476-.788l-2.79-2.946a.478.478,0,0,1-.1-.5l.373-1a.479.479,0,0,0-.448-.645h-1.1a.476.476,0,0,1-.46-.35L398,338.267a.476.476,0,0,0-.357-.339l-8.3-1.828a.479.479,0,0,0-.29.026M369.69,356.574l-6.084,2.446a1.537,1.537,0,0,0-.941,1.685l2.158,12.556a1.536,1.536,0,0,0,1.513,1.276h6.817a1.546,1.546,0,0,0,.7-.169l6.255-3.211a1.535,1.535,0,0,1,1.589.114l3.776,2.675a1.537,1.537,0,0,0,1.7.049l.659-.411a1.535,1.535,0,0,1,2.214.673l2.081,4.623a1.538,1.538,0,0,0,1.4.906h4.256a1.529,1.529,0,0,0,.616-.129l3.643-1.593a1.542,1.542,0,0,0,.706-.624l3.923-6.621a1.536,1.536,0,0,0,.215-.782v-7.4a1.538,1.538,0,0,0-.505-1.139l-7.015-6.352a1.517,1.517,0,0,1-.278-.336l-3.352-5.475a1.536,1.536,0,0,0-2.771.331l-1.017,3.154a1.536,1.536,0,0,1-2.451.7l-1.733-1.461a1.535,1.535,0,0,1-.535-1.357l.244-2.036a1.536,1.536,0,0,0-1.525-1.718h-2.609a1.538,1.538,0,0,0-1.04.405l-4,3.68a1.535,1.535,0,0,1-1.81.2,1.537,1.537,0,0,0-2,.4l-1.334,1.757a1.523,1.523,0,0,1-.163.184l-2.823,2.689a1.525,1.525,0,0,1-.487.313m59.376,19.109,1.379,3.722a.855.855,0,0,1-.069.733l-.456.758a.851.851,0,0,0,.067.971l1.146,1.422a.85.85,0,0,0,1.482-.31l.517-1.9a.852.852,0,0,1,.466-.548l1.617-.743a.85.85,0,0,0,.5-.773v-.286a.851.851,0,0,0-1.017-.834l-1.857.372a.848.848,0,0,1-.939-.48l-1.26-2.754a.85.85,0,0,0-1.57.649m-.346,8.524-.9-.226a.853.853,0,0,0-.742.164l-4.962,4.023a.851.851,0,0,0,.289,1.475l2.49.751a.849.849,0,0,0,.99-.4l1.459-2.639a.857.857,0,0,1,.162-.209l1.591-1.493a.849.849,0,0,0-.375-1.444" transform="translate(-75.284 -208.979)" fill="#4d812e"/>
                    </g>
                  </g>
                </g>
              </g>
            </g>
            <g id="Grupo_1099998" data-name="Grupo 1099998" transform="translate(79.771 228.819)" opacity="0.77" style="mix-blend-mode: multiply;isolation: isolate">
              <g id="Grupo_1099997" data-name="Grupo 1099997">
                <g id="Grupo_1099996" data-name="Grupo 1099996" clip-path="url(#clip-path-10)">
                  <path id="Trazado_880684" data-name="Trazado 880684" d="M251.976,351.906A140.419,140.419,0,0,1,111.557,211.487c0-.9.025-1.791.043-2.685H77.191A140.434,140.434,0,0,0,321,333.789a139.762,139.762,0,0,1-69.023,18.117" transform="translate(-72.793 -208.802)" fill="#7ba264"/>
                </g>
              </g>
            </g>
            <path id="Trazado_880685" data-name="Trazado 880685" d="M348.849,211.064c0,14.279-60.9,25.854-136.022,25.854S76.805,225.343,76.805,211.064s60.9-25.855,136.022-25.855,136.022,11.576,136.022,25.855" transform="translate(7.363 17.755)" fill="#d1dec9"/>
            <path id="Trazado_880686" data-name="Trazado 880686" d="M176.417,278.656a25.723,25.723,0,0,0,49.853,0Z" transform="translate(16.912 26.713)" fill="#fff"/>
            <path id="Trazado_880687" data-name="Trazado 880687" d="M180.108,261.647c0,3.98-2.257,7.205-5.043,7.205s-5.043-3.225-5.043-7.205,2.259-7.206,5.043-7.206,5.043,3.226,5.043,7.206" transform="translate(16.299 24.392)" fill="#ffe8b6"/>
            <path id="Trazado_880688" data-name="Trazado 880688" d="M229.624,261.647c0,3.98-2.257,7.205-5.043,7.205s-5.042-3.225-5.042-7.205,2.257-7.206,5.042-7.206,5.043,3.226,5.043,7.206" transform="translate(21.046 24.392)" fill="#ffe8b6"/>
            <path id="Trazado_880689" data-name="Trazado 880689" d="M178.663,284.275a25.7,25.7,0,0,0,44.93,0Z" transform="translate(17.128 27.252)" fill="#3d3d3d"/>
            <path id="Trazado_880690" data-name="Trazado 880690" d="M200.926,288.837a29.811,29.811,0,0,0-14.761,3.892,25.653,25.653,0,0,0,28.964-.317,29.819,29.819,0,0,0-14.2-3.576" transform="translate(17.847 27.689)" fill="#737373"/>
            <path id="Trazado_880691" data-name="Trazado 880691" d="M275.424,206.392c0,1.626-9.647,2.945-21.547,2.945s-21.548-1.318-21.548-2.945,9.648-2.945,21.548-2.945,21.547,1.318,21.547,2.945" transform="translate(22.272 19.504)" fill="#4d812e"/>
            <path id="Trazado_880692" data-name="Trazado 880692" d="M115.911,206.291c0,.958-3.556,1.734-7.942,1.734s-7.942-.776-7.942-1.734,3.556-1.734,7.942-1.734,7.942.776,7.942,1.734" transform="translate(9.589 19.61)" fill="#4d812e"/>
            <path id="Trazado_880693" data-name="Trazado 880693" d="M139.007,214.2c0,.958-3.556,1.734-7.942,1.734s-7.942-.776-7.942-1.734,3.556-1.734,7.942-1.734,7.942.776,7.942,1.734" transform="translate(11.803 20.368)" fill="#4d812e"/>
            <path id="Trazado_880694" data-name="Trazado 880694" d="M161.167,206.291c0,.958-3.556,1.734-7.942,1.734s-7.942-.776-7.942-1.734,3.556-1.734,7.942-1.734,7.942.776,7.942,1.734" transform="translate(13.928 19.61)" fill="#4d812e"/>
            <path id="Trazado_880695" data-name="Trazado 880695" d="M152.107,209.2h-.041a2.036,2.036,0,0,1-2.036-2.036V172.385h4.112v34.782a2.035,2.035,0,0,1-2.035,2.036" transform="translate(14.383 16.526)" fill="#262626"/>
            <path id="Trazado_880696" data-name="Trazado 880696" d="M150.03,178.726a17.7,17.7,0,0,0,4.113.014v-6.355H150.03Z" transform="translate(14.383 16.526)"/>
            <path id="Trazado_880697" data-name="Trazado 880697" d="M171.574,160.91a18.036,18.036,0,1,1-18.036-18.035,18.036,18.036,0,0,1,18.036,18.035" transform="translate(12.99 13.697)" fill="#68944d"/>
            <g id="Grupo_1100001" data-name="Grupo 1100001" transform="translate(156.452 156.571)" opacity="0.58">
              <g id="Grupo_1100000" data-name="Grupo 1100000">
                <g id="Grupo_1099999" data-name="Grupo 1099999" clip-path="url(#clip-path-11)">
                  <path id="Trazado_880698" data-name="Trazado 880698" d="M152.841,142.874a17.939,17.939,0,0,0-8.55,2.154,15.919,15.919,0,0,0,26.541,17.091c.026-.4.045-.8.045-1.21a18.036,18.036,0,0,0-18.036-18.036" transform="translate(-142.766 -142.874)" fill="#abc49d"/>
                </g>
              </g>
            </g>
            <path id="Trazado_880699" data-name="Trazado 880699" d="M107.476,209.2h-.042a2.036,2.036,0,0,1-2.035-2.036V172.385h4.113v34.782a2.036,2.036,0,0,1-2.036,2.036" transform="translate(10.104 16.526)" fill="#262626"/>
            <path id="Trazado_880700" data-name="Trazado 880700" d="M105.4,178.726a17.7,17.7,0,0,0,4.113.014v-6.355H105.4Z" transform="translate(10.104 16.526)"/>
            <path id="Trazado_880701" data-name="Trazado 880701" d="M126.941,160.91a18.036,18.036,0,1,1-18.036-18.035,18.036,18.036,0,0,1,18.036,18.035" transform="translate(8.711 13.697)" fill="#68944d"/>
            <g id="Grupo_1100004" data-name="Grupo 1100004" transform="translate(107.543 156.571)" opacity="0.58">
              <g id="Grupo_1100003" data-name="Grupo 1100003">
                <g id="Grupo_1100002" data-name="Grupo 1100002" clip-path="url(#clip-path-12)">
                  <path id="Trazado_880702" data-name="Trazado 880702" d="M108.21,142.874a17.938,17.938,0,0,0-8.55,2.154A15.919,15.919,0,0,0,126.2,162.12c.026-.4.045-.8.045-1.21a18.036,18.036,0,0,0-18.036-18.036" transform="translate(-98.135 -142.874)" fill="#abc49d"/>
                </g>
              </g>
            </g>
            <path id="Trazado_880703" data-name="Trazado 880703" d="M130.549,217.7h-.322a2.036,2.036,0,0,1-2.036-2.036v-37.3h4.394v37.3a2.036,2.036,0,0,1-2.036,2.036" transform="translate(12.289 17.099)" fill="#262626"/>
            <path id="Trazado_880704" data-name="Trazado 880704" d="M128.191,185.138a18.9,18.9,0,0,0,4.394.015v-6.79h-4.394Z" transform="translate(12.289 17.099)"/>
            <path id="Trazado_880705" data-name="Trazado 880705" d="M151.209,166.1a19.27,19.27,0,1,1-19.27-19.27,19.27,19.27,0,0,1,19.27,19.27" transform="translate(10.801 14.076)" fill="#7ba264"/>
            <path id="Trazado_880706" data-name="Trazado 880706" d="M131.194,146.833a19.186,19.186,0,0,0-9.135,2.3A17.01,17.01,0,0,0,150.416,167.4c.027-.427.047-.858.047-1.293a19.269,19.269,0,0,0-19.27-19.27" transform="translate(11.545 14.076)" fill="#abc49d"/>
            <path id="Trazado_880707" data-name="Trazado 880707" d="M244.375,218.312h22.151a3,3,0,0,0,3-2.776c.706-9.645,1.861-42.414-12.343-66.382-16.829-28.4-8.414-63.109-5.785-66.791s-5.259-5.785-10.518,6.311-9.992,46.541-2.629,64.818c5.737,14.241,2.534,45.644.838,58.817a5.326,5.326,0,0,0,5.289,6" transform="translate(22.476 7.621)" fill="#7ba264"/>
            <path id="Trazado_880708" data-name="Trazado 880708" d="M250.734,82.325c.732-1.025.648-1.927.033-2.434-13.13,7.89-11.419,43.184-1.611,77.073,7.733,26.723,4.908,51.477,3.236,61.309h13.471a3,3,0,0,0,3-2.777c.707-9.645,1.861-42.413-12.342-66.381-16.829-28.4-8.415-63.11-5.785-66.791" transform="translate(23.138 7.659)" fill="#68944d"/>
            <path id="Trazado_880709" data-name="Trazado 880709" d="M311.322,215.51c-3.435-4.1-16.957-7.221-22.363-7.764a7.961,7.961,0,0,0-2.481.137c-16.577,3.592-19.877,6.809-20.51,7.754a.405.405,0,0,0-.147.281c0,1.384,10.254,2.506,22.9,2.506s22.9-1.122,22.9-2.506c0-.139-.107-.275-.306-.408" transform="translate(25.483 19.912)" fill="#262626"/>
            <g id="Grupo_1100007" data-name="Grupo 1100007" transform="translate(313.996 227.646)" opacity="0.5" style="mix-blend-mode: overlay;isolation: isolate">
              <g id="Grupo_1100006" data-name="Grupo 1100006">
                <g id="Grupo_1100005" data-name="Grupo 1100005" clip-path="url(#clip-path-13)">
                  <path id="Trazado_880710" data-name="Trazado 880710" d="M309.643,215.915c0-.139-.107-.275-.306-.408-3.434-4.1-16.957-7.221-22.363-7.764-.149-.015-.3,0-.447-.01a12.288,12.288,0,0,0,5.166,3.156c6.82,2.445,6.276.389,8.506,3.621a22.866,22.866,0,0,0,2.575,3.194c4.237-.455,6.869-1.088,6.869-1.79" transform="translate(-286.528 -207.732)" fill="#fff"/>
                </g>
              </g>
            </g>
            <path id="Trazado_880711" data-name="Trazado 880711" d="M287.007,211.067l-.958-.064c0-.065.448-6.564,1.754-14.441a116.382,116.382,0,0,1,2.709-12.47,47.339,47.339,0,0,1,4.417-11.059l.826.49c-2.869,4.839-5.291,12.86-7.005,23.2C287.451,204.55,287.011,211,287.007,211.067Z" transform="translate(27.468 16.611)" fill="#68944d"/>
            <path id="Trazado_880712" data-name="Trazado 880712" d="M290.12,167.507c0,4.088,1.308,7.4,2.922,7.4s2.923-3.314,2.923-7.4-1.309-7.4-2.923-7.4-2.922,3.314-2.922,7.4" transform="translate(27.812 15.349)" fill="#262626"/>
            <path id="Trazado_880713" data-name="Trazado 880713" d="M296.011,181.675c0-4.088-1.308-7.4-2.922-7.4s-2.923,3.314-2.923,7.4,1.308,7.4,2.923,7.4,2.922-3.314,2.922-7.4" transform="translate(27.817 16.707)" fill="#262626"/>
            <path id="Trazado_880714" data-name="Trazado 880714" d="M286.106,171.533c2.891,2.89,6.159,4.308,7.3,3.167s-.277-4.409-3.167-7.3-6.159-4.308-7.3-3.167.277,4.41,3.167,7.3" transform="translate(27.086 15.706)" fill="#3d3d3d"/>
            <path id="Trazado_880715" data-name="Trazado 880715" d="M286.543,177.121c4.088,0,7.4-1.307,7.4-2.92s-3.313-2.924-7.4-2.924-7.4,1.308-7.4,2.924,3.314,2.92,7.4,2.92" transform="translate(26.76 16.42)" fill="#262626"/>
            <path id="Trazado_880716" data-name="Trazado 880716" d="M290.432,181.278c2.89-2.89,4.308-6.159,3.167-7.3s-4.409.277-7.3,3.167-4.308,6.159-3.167,7.3,4.41-.277,7.3-3.167" transform="translate(27.105 16.641)" fill="#3d3d3d"/>
            <path id="Trazado_880717" data-name="Trazado 880717" d="M300.451,171.533c-2.89,2.89-6.159,4.308-7.3,3.167s.277-4.409,3.167-7.3,6.159-4.308,7.3-3.167-.277,4.41-3.167,7.3" transform="translate(28.065 15.706)" fill="#3d3d3d"/>
            <path id="Trazado_880718" data-name="Trazado 880718" d="M300.324,177.121c-4.088,0-7.4-1.307-7.4-2.92s3.314-2.924,7.4-2.924,7.4,1.308,7.4,2.924-3.314,2.92-7.4,2.92" transform="translate(28.081 16.42)" fill="#262626"/>
            <path id="Trazado_880719" data-name="Trazado 880719" d="M296.126,181.278c-2.891-2.89-4.309-6.159-3.167-7.3s4.409.277,7.3,3.167,4.308,6.159,3.167,7.3-4.41-.277-7.3-3.167" transform="translate(28.047 16.641)" fill="#3d3d3d"/>
            <path id="Trazado_880720" data-name="Trazado 880720" d="M287.693,174.1a5.581,5.581,0,1,0,5.581-5.581,5.581,5.581,0,0,0-5.581,5.581" transform="translate(27.58 16.155)" fill="#fff"/>
            <path id="Trazado_880721" data-name="Trazado 880721" d="M295.964,173.84a2.922,2.922,0,1,1-2.923-2.922,2.922,2.922,0,0,1,2.923,2.922" transform="translate(27.812 16.385)" fill="#abc49d"/>
            <g id="Grupo_1100010" data-name="Grupo 1100010" transform="translate(143.815 408.688)" opacity="0.44">
              <g id="Grupo_1100009" data-name="Grupo 1100009">
                <g id="Grupo_1100008" data-name="Grupo 1100008" clip-path="url(#clip-path-14)">
                  <path id="Trazado_880722" data-name="Trazado 880722" d="M282.461,399.416c0,4.1-33.855,7.422-75.615,7.422s-75.611-3.323-75.611-7.422,33.852-7.422,75.611-7.422,75.615,3.323,75.615,7.422" transform="translate(-131.234 -391.994)" fill="#abc49d"/>
                </g>
              </g>
            </g>
            <path id="Trazado_880723" data-name="Trazado 880723" d="M153.108,220.955c0,2,22.828,3.614,50.987,3.614s50.987-1.617,50.987-3.614-22.828-3.614-50.987-3.614-50.987,1.618-50.987,3.614" transform="translate(14.678 20.835)" fill="#4d812e"/>
            <path id="Trazado_880724" data-name="Trazado 880724" d="M212.792,12.162s2.448-5.25-1.18-9.15-15.24-5.1-20.236,3.151-5.444,17.251-11.445,22.351.15,17.39,1.951,20.621,21.3,12.881,34.8,7.531,8.7-19.673,5.1-23.763-8.285-10.39-9.168-15.789c-.433-3.9.176-4.951.176-4.951" transform="translate(17.003 0)" fill="#525252"/>
            <path id="Trazado_880725" data-name="Trazado 880725" d="M199.775,30.024l-12.141,3.661-15,192.211h23l4.14-94.405h1.691l3.77,94.405h23.2l-14.2-192.611Z" transform="translate(16.55 2.878)" fill="#3d3d3d"/>
            <path id="Trazado_880726" data-name="Trazado 880726" d="M207.579,87.16s-14.176,0-21.472-1.2a11.814,11.814,0,0,0-3.33.012l-5.725,73.357c5.7,4.04,14.079,9.049,20.487,8.944l1.813-41.311h1.69l1.6,40.058c7.626-3.26,14.69-11,20.4-13.052L217.6,80.148l-1.372-2.871Z" transform="translate(16.973 7.408)" fill="#262626"/>
            <path id="Trazado_880727" data-name="Trazado 880727" d="M193.689,14.8s-10.379,13.55-1.678,21.551,17.166,2.47,17.166,2.47-5.964-10.729-5.068-17.78S193.689,14.8,193.689,14.8" transform="translate(18.074 1.416)" fill="#363636"/>
            <path id="Trazado_880728" data-name="Trazado 880728" d="M208.751,32.439l-10.708-2.414-7.34,2.213V44.686h18.048Z" transform="translate(18.282 2.878)" fill="#fff"/>
            <path id="Trazado_880729" data-name="Trazado 880729" d="M203.439,25.393l-.4,11.16a3.724,3.724,0,0,1-3.72,3.591h-.077a3.725,3.725,0,0,1-3.713-4.014l1.428-18.251Z" transform="translate(18.744 1.714)" fill="#a1a1a1"/>
            <g id="Grupo_1100013" data-name="Grupo 1100013" transform="translate(215.568 19.594)" style="mix-blend-mode: multiply;isolation: isolate">
              <g id="Grupo_1100012" data-name="Grupo 1100012">
                <g id="Grupo_1100011" data-name="Grupo 1100011" clip-path="url(#clip-path-15)">
                  <path id="Trazado_880730" data-name="Trazado 880730" d="M196.71,19.618h0s1.655,8.154,6.409,11.57l.206-5.795-6.479-7.513Z" transform="translate(-196.71 -17.88)" fill="#212121"/>
                </g>
              </g>
            </g>
            <path id="Trazado_880731" data-name="Trazado 880731" d="M210.709,7.265c-1.5,2.7-6.779,7.051-14.579,7.051-1.208,6.036,1.934,10.423,6.069,13.8a4.11,4.11,0,0,0,6.1-1.007,15.557,15.557,0,0,0,1.68-4.071l.859.353V18.16a54.793,54.793,0,0,0-.132-10.9" transform="translate(18.777 0.696)" fill="#a1a1a1"/>
            <path id="Trazado_880732" data-name="Trazado 880732" d="M208.249,14.329a6.521,6.521,0,0,0-5.5.675,7.472,7.472,0,0,1,5.878-2.4Z" transform="translate(19.436 1.208)" fill="#525252"/>
            <path id="Trazado_880733" data-name="Trazado 880733" d="M211.142,33l6.507,2.1a9.712,9.712,0,0,1,6.687,8.344l3.128,33.565a12.7,12.7,0,0,1-.812,5.793l-10.07,25.85a4.994,4.994,0,0,1-7.4,2.36l-4.276-2.81,9.6-29.6Z" transform="translate(19.644 3.164)" fill="#a1a1a1"/>
            <g id="Grupo_1100016" data-name="Grupo 1100016" transform="translate(243.786 78.292)" opacity="0.19" style="mix-blend-mode: multiply;isolation: isolate">
              <g id="Grupo_1100015" data-name="Grupo 1100015">
                <g id="Grupo_1100014" data-name="Grupo 1100014" clip-path="url(#clip-path-16)">
                  <path id="Trazado_880734" data-name="Trazado 880734" d="M222.46,77.368a7.107,7.107,0,0,0,1.493,4.36l1.017-2.61a12.722,12.722,0,0,0,.812-5.793l-.175-1.882a7.143,7.143,0,0,0-3.146,5.924" transform="translate(-222.46 -71.443)" fill="#212121"/>
                </g>
              </g>
            </g>
            <path id="Trazado_880735" data-name="Trazado 880735" d="M196.038,200.367H173.352l-.718,9.2h23Z" transform="translate(16.55 19.208)" fill="#262626"/>
            <path id="Trazado_880736" data-name="Trazado 880736" d="M223.791,43.446A9.716,9.716,0,0,0,217.1,35.1L210.6,33l1.813,24.591a19.155,19.155,0,0,1,12.47-2.467Z" transform="translate(20.189 3.164)" fill="#fff"/>
            <path id="Trazado_880737" data-name="Trazado 880737" d="M205.206,18.1a5.51,5.51,0,0,1-1.7-.275l.168-.522a4.3,4.3,0,0,0,3.659-.322l.315.449A4.49,4.49,0,0,1,205.206,18.1Z" transform="translate(19.518 1.649)" fill="#2b2b2b"/>
            <path id="Línea_590" data-name="Línea 590" d="M.194,4.772l-.387-.141,1.71-4.7L1.9.07Z" transform="translate(234.148 77.066)" fill="#525252"/>
            <path id="Trazado_880738" data-name="Trazado 880738" d="M198.389,17.291a3.113,3.113,0,1,1-3.112-3.112,3.112,3.112,0,0,1,3.112,3.112" transform="translate(18.422 1.359)" fill="#a1a1a1"/>
            <path id="Línea_591" data-name="Línea 591" d="M.274,74.843l-.548-.017L2.027-.008l.548.017Z" transform="translate(208.379 153.941)"/>
            <path id="Línea_592" data-name="Línea 592" d="M3.029,1.717-.091.185l.182-.37,3.12,1.532Z" transform="translate(212.585 18.063)" fill="#525252"/>
            <path id="Trazado_880739" data-name="Trazado 880739" d="M192.819,47.822V31.6l-6.4,1.93-1.093,14a3.712,3.712,0,0,0,3.7,4h.078a3.713,3.713,0,0,0,3.713-3.713" transform="translate(17.765 3.03)" fill="#262626"/>
            <g id="Grupo_1100019" data-name="Grupo 1100019" transform="translate(224.553 95.502)" opacity="0.19" style="mix-blend-mode: multiply;isolation: isolate">
              <g id="Grupo_1100018" data-name="Grupo 1100018">
                <g id="Grupo_1100017" data-name="Grupo 1100017" clip-path="url(#clip-path-17)">
                  <path id="Trazado_880740" data-name="Trazado 880740" d="M210.052,87.148l-5.143,15.866,4.275,2.81a5,5,0,0,0,7.4-2.361l3.3-8.469c-2.6-3.169-7.541-6.428-9.829-7.846" transform="translate(-204.909 -87.148)" fill="#212121"/>
                </g>
              </g>
            </g>
            <path id="Trazado_880741" data-name="Trazado 880741" d="M222.541,98.924c-7.584-13.966-52.627-21.073-53.657,17.629l-7.931,9.3s2.48,29.4,42.492,33.6c20.812-30,26.68-46.566,19.1-60.532m-2.968,16.129c-23.284-21.3-43.9-4.9-43.9-4.9,1.4-5.4,3.879-12.5,15.728-14.7,26.85-4.9,29.947,13.6,28.17,19.6" transform="translate(15.43 8.416)" fill="#b0dcdd"/>
            <path id="Trazado_880742" data-name="Trazado 880742" d="M190.427,46.418a1.582,1.582,0,1,1-1.582-1.582,1.582,1.582,0,0,1,1.582,1.582" transform="translate(17.952 4.298)" fill="#fff"/>
            <path id="Trazado_880743" data-name="Trazado 880743" d="M220.4,98.1c-6.121-9.256-28.643-15.009-42.335-5.2.772,2.079,3.386,3.6,5.44,4.514a25.131,25.131,0,0,1,6.261-1.959c15.885-2.9,23.456,2.391,26.622,8.439A9.98,9.98,0,0,1,220.4,98.1" transform="translate(17.07 8.416)" fill="#70bfc2"/>
            <path id="Trazado_880744" data-name="Trazado 880744" d="M211.142,33.123l-6.233-1.406V47.906a3.619,3.619,0,0,0,3.619,3.617h.077a3.618,3.618,0,0,0,3.609-3.884Z" transform="translate(19.644 3.041)" fill="#262626"/>
            <path id="Trazado_880745" data-name="Trazado 880745" d="M210.336,46.418a1.582,1.582,0,1,1-1.582-1.582,1.582,1.582,0,0,1,1.582,1.582" transform="translate(19.861 4.298)" fill="#fff"/>
            <path id="Trazado_880746" data-name="Trazado 880746" d="M188.269,33.365l-.478.146-4.9,1.5a12.381,12.381,0,0,0-8.365,8.732l-8.2,31.63a9.656,9.656,0,0,0,3.705,10.259L193,102.165a7.291,7.291,0,0,1,2.468,3.108l1.952,4.666a7.218,7.218,0,0,0,6.657,4.432h5.26a2.464,2.464,0,0,0,2.423-2.912L209.308,98.2a5.507,5.507,0,0,0-4.283-4.389l-4.957-1.041-21.6-18.9,6-20.9,2.159,1.428" transform="translate(15.915 3.199)" fill="#a1a1a1"/>
            <g id="Grupo_1100022" data-name="Grupo 1100022" transform="translate(181.932 75.638)" opacity="0.19" style="mix-blend-mode: multiply;isolation: isolate">
              <g id="Grupo_1100021" data-name="Grupo 1100021">
                <g id="Grupo_1100020" data-name="Grupo 1100020" clip-path="url(#clip-path-18)">
                  <path id="Trazado_880747" data-name="Trazado 880747" d="M167.087,69.021l-.76,2.931a9.657,9.657,0,0,0,2.6,9.329,8.445,8.445,0,0,0-1.838-12.261" transform="translate(-166.017 -69.021)" fill="#212121"/>
                </g>
              </g>
            </g>
            <path id="Trazado_880748" data-name="Trazado 880748" d="M181.743,60.842,184,52.967l2.159,1.428,1.642-21.03-.478.147-4.9,1.5a12.379,12.379,0,0,0-8.364,8.733l-3.2,12.328c3.628.489,8.238,1.719,10.876,4.771" transform="translate(16.38 3.199)" fill="#fff"/>
            <path id="Línea_593" data-name="Línea 593" d="M2.669,2.459l-2.8-2.3L.131-.159l2.8,2.3Z" transform="translate(191.584 74.766)" fill="#525252"/>
            <path id="Trazado_880749" data-name="Trazado 880749" d="M204.138,68.009h-9.162a3.269,3.269,0,0,1-3.269-3.269V51.708h15.7V64.74a3.27,3.27,0,0,1-3.269,3.269" transform="translate(18.378 4.957)" fill="#262626"/>
            <rect id="Rectángulo_402299" data-name="Rectángulo 402299" width="15.7" height="4.089" transform="translate(210.085 56.666)" fill="#666"/>
            <path id="Trazado_880750" data-name="Trazado 880750" d="M202.416,209.568h23.2l-.678-9.2h-22.89Z" transform="translate(19.369 19.208)" fill="#262626"/>
            <path id="Trazado_880751" data-name="Trazado 880751" d="M202.384,208.763v11.6h31.4s1.2-11.6-8.2-11.6Z" transform="translate(19.402 20.013)"/>
            <path id="Trazado_880752" data-name="Trazado 880752" d="M226.32,211.441a1.4,1.4,0,0,1-1.4,1.4h-14.2a1.4,1.4,0,1,1,0-2.8h14.2a1.4,1.4,0,0,1,1.4,1.4" transform="translate(20.066 20.136)" fill="#fff"/>
            <path id="Línea_594" data-name="Línea 594" d="M2.887,76.324-.274.011.274-.011,3.434,76.3Z" transform="translate(224.553 152.463)"/>
            <path id="Trazado_880753" data-name="Trazado 880753" d="M233.809,217.341H202.383v2.2h31.4a15.617,15.617,0,0,0,.024-2.2" transform="translate(19.401 20.835)" fill="#525252"/>
            <path id="Trazado_880754" data-name="Trazado 880754" d="M196.4,208.763v11.6H165s-1.2-11.6,8.2-11.6Z" transform="translate(15.813 20.013)"/>
            <path id="Trazado_880755" data-name="Trazado 880755" d="M171.2,211.441a1.4,1.4,0,0,0,1.4,1.4h14.2a1.4,1.4,0,1,0,0-2.8H172.6a1.4,1.4,0,0,0-1.4,1.4" transform="translate(16.412 20.136)" fill="#fff"/>
            <path id="Trazado_880756" data-name="Trazado 880756" d="M164.971,217.341H196.4v2.2H165a15.619,15.619,0,0,1-.024-2.2" transform="translate(15.813 20.835)" fill="#525252"/>
            <path id="Trazado_880757" data-name="Trazado 880757" d="M202.3,151.73s11.168-12.592,36.57-9.392l5.2-8s-19.066-7.8-38.635-3.2c-9.769,6.2-5.3,18.184-3.135,20.592" transform="translate(19.114 12.432)" fill="#d1ebeb"/>
            <path id="Trazado_880758" data-name="Trazado 880758" d="M245.955,134.264s-7.32-3.09-10.267,2.374,3.655,9.884,3.655,9.884Z" transform="translate(22.522 12.788)" fill="#fff"/>
            <path id="Trazado_880759" data-name="Trazado 880759" d="M196,19.659a1.007,1.007,0,1,1-1.006-1.006A1.006,1.006,0,0,1,196,19.659" transform="translate(18.597 1.788)" fill="#e0ebe7"/>
            <path id="Trazado_880760" data-name="Trazado 880760" d="M209.374,1.9c-4.592-2.935-14.391-3.14-18.872,4.261a50.642,50.642,0,0,0-4.028,8.8c11.944-.678,19.883-9.188,22.9-13.064" transform="translate(17.876 0)" fill="#363636"/>
            <path id="Trazado_880761" data-name="Trazado 880761" d="M256.848,134.8s-12.416-5.242-17.416,4.025,6.2,16.766,6.2,16.766Z" transform="translate(22.83 12.781)" fill="#d1ebeb"/>
            <path id="Trazado_880762" data-name="Trazado 880762" d="M253.647,146.7c-3.1,5.741-6.949,9.672-8.6,8.779s-.485-6.271,2.611-12.012,6.95-9.671,8.6-8.779.485,6.271-2.611,12.012" transform="translate(23.419 12.9)" fill="#fff"/>
            <path id="Trazado_880763" data-name="Trazado 880763" d="M249.075,143.965c-.436.81-.955,1.378-1.157,1.268s-.012-.854.424-1.664.956-1.377,1.157-1.268.013.854-.424,1.663" transform="translate(23.759 13.64)" fill="#70bfc2"/>
            <path id="Trazado_880764" data-name="Trazado 880764" d="M252.373,139.453c-.437.81-.954,1.378-1.157,1.268s-.012-.854.424-1.663.954-1.378,1.157-1.268.013.854-.424,1.664" transform="translate(24.075 13.208)" fill="#70bfc2"/>
            <path id="Trazado_880765" data-name="Trazado 880765" d="M247.064,149.294c-.437.811-.954,1.379-1.157,1.269s-.013-.854.424-1.665.954-1.376,1.157-1.267.012.854-.424,1.662" transform="translate(23.566 14.151)" fill="#70bfc2"/>
            <path id="Trazado_880766" data-name="Trazado 880766" d="M251.861,145.889c-.437.81-.954,1.378-1.157,1.268s-.012-.854.424-1.664.954-1.378,1.157-1.268.012.854-.424,1.664" transform="translate(24.026 13.825)" fill="#70bfc2"/>
            <path id="Trazado_880767" data-name="Trazado 880767" d="M214.769,89.545l-2.575,8.375a2.224,2.224,0,0,1-3.346,1.207l-.039-.025a2.225,2.225,0,0,1-.916-2.484l2.763-9.468Z" transform="translate(19.921 8.354)" fill="#a1a1a1"/>
            <g id="Grupo_1100025" data-name="Grupo 1100025" transform="translate(227.38 23.141)" style="mix-blend-mode: multiply;isolation: isolate">
              <g id="Grupo_1100024" data-name="Grupo 1100024">
                <g id="Grupo_1100023" data-name="Grupo 1100023" clip-path="url(#clip-path-19)">
                  <path id="Trazado_880768" data-name="Trazado 880768" d="M208.868,21.71l-1.379-.593,1.232,1.1Z" transform="translate(-207.489 -21.117)" fill="#212121"/>
                </g>
              </g>
            </g>
            <g id="Grupo_1100028" data-name="Grupo 1100028" transform="translate(219.428 7.961)" opacity="0.5" style="mix-blend-mode: overlay;isolation: isolate">
              <g id="Grupo_1100027" data-name="Grupo 1100027">
                <g id="Grupo_1100026" data-name="Grupo 1100026" clip-path="url(#clip-path-20)">
                  <path id="Trazado_880769" data-name="Trazado 880769" d="M210.423,18.158v0a54.706,54.706,0,0,0-.132-10.9c-1.773,2.666-5.4,5.141-10.044,6.535-.164,3.365,1.1,9.965,3.88,15.238a4.077,4.077,0,0,0,3.757-1.928,15.691,15.691,0,0,0,1.679-4.072l.86.354Z" transform="translate(-200.233 -7.265)" fill="#fff"/>
                </g>
              </g>
            </g>
            <g id="Grupo_1100031" data-name="Grupo 1100031" transform="translate(239.186 39.138)" opacity="0.5" style="mix-blend-mode: overlay;isolation: isolate">
              <g id="Grupo_1100030" data-name="Grupo 1100030">
                <g id="Grupo_1100029" data-name="Grupo 1100029" clip-path="url(#clip-path-21)">
                  <path id="Trazado_880770" data-name="Trazado 880770" d="M221.063,80.011a13.9,13.9,0,0,0,3.321,5.072l.988-2.539a12.7,12.7,0,0,0,.812-5.793l-3.127-33.565a9.718,9.718,0,0,0-4.745-7.472l-.049.026s.162,37.446,2.8,44.271" transform="translate(-218.262 -35.714)" fill="#fff"/>
                </g>
              </g>
            </g>
            <g id="Grupo_1100034" data-name="Grupo 1100034" transform="translate(181.932 42.167)" opacity="0.19" style="mix-blend-mode: multiply;isolation: isolate">
              <g id="Grupo_1100033" data-name="Grupo 1100033">
                <g id="Grupo_1100032" data-name="Grupo 1100032" clip-path="url(#clip-path-22)">
                  <path id="Trazado_880771" data-name="Trazado 880771" d="M171.332,75.729c-1.136-1.75,4.336-17.452,6.778-27.118,1.336-5.288.18-8.4-1.141-10.132a12.379,12.379,0,0,0-2.441,4.774l-8.2,31.629a9.658,9.658,0,0,0,3.7,10.261L193,101.675a7.256,7.256,0,0,1,1.669,1.7l0-.018c1.8-10.92-22.2-25.882-23.338-27.631" transform="translate(-166.017 -38.478)" fill="#212121"/>
                </g>
              </g>
            </g>
            <path id="Trazado_880772" data-name="Trazado 880772" d="M161.708,127.862a36.841,36.841,0,0,0,8.684,15.17c1.027.172,2.116.332,3.29.478,30.5,3.771,13.9-34.374,13.9-34.374-11.7-3-24,17.318-24,17.318a22.59,22.59,0,0,0-1.873,1.408" transform="translate(15.502 10.433)" fill="#d1ebeb"/>
            <path id="Trazado_880773" data-name="Trazado 880773" d="M163.063,120.266l-2.11,2.474s2.48,29.4,42.492,33.6q.991-1.43,1.938-2.817c-30.9-4.244-39.837-24.245-42.32-33.259" transform="translate(15.43 11.529)" fill="#70bfc2"/>
            <path id="Trazado_880774" data-name="Trazado 880774" d="M214.1,118.506c-.719,1.369-6.936-.481-13.886-4.134s-12-7.721-11.28-9.09,6.936.481,13.886,4.132,12,7.723,11.28,9.091" transform="translate(18.106 10.05)" fill="#70bfc2"/>
            <g id="Grupo_1100037" data-name="Grupo 1100037" transform="translate(231.963 170.769)" opacity="0.5" style="mix-blend-mode: overlay;isolation: isolate">
              <g id="Grupo_1100036" data-name="Grupo 1100036">
                <g id="Grupo_1100035" data-name="Grupo 1100035" clip-path="url(#clip-path-23)">
                  <path id="Trazado_880775" data-name="Trazado 880775" d="M220.418,155.83c-4.229,6.025-11.977,22.43-7.29,58.006H224.7Z" transform="translate(-211.671 -155.83)" fill="#fff"/>
                </g>
              </g>
            </g>
            <g id="Grupo_1100040" data-name="Grupo 1100040" transform="translate(189.184 175.861)" style="mix-blend-mode: multiply;isolation: isolate">
              <g id="Grupo_1100039" data-name="Grupo 1100039">
                <g id="Grupo_1100038" data-name="Grupo 1100038" clip-path="url(#clip-path-24)">
                  <path id="Trazado_880776" data-name="Trazado 880776" d="M181.227,213.392a137.558,137.558,0,0,0-4.463-52.915l-4.129,52.915Z" transform="translate(-172.634 -160.477)" fill="#262626"/>
                </g>
              </g>
            </g>
            <path id="Trazado_880777" data-name="Trazado 880777" d="M264.157,153.148a16.315,16.315,0,0,0-2.608-1.016c-.381-.124-4.524-1.066-4.523-.827a14.2,14.2,0,0,0,.86,4.515c.446,1.305.891,3,1.886,3.991a4.039,4.039,0,1,0,5.707-5.716,5.489,5.489,0,0,0-1.323-.947" transform="translate(24.64 14.501)" fill="#fff"/>
            <path id="Trazado_880778" data-name="Trazado 880778" d="M277.3,153.148a16.318,16.318,0,0,0-2.608-1.016c-.381-.124-4.524-1.066-4.523-.827a14.174,14.174,0,0,0,.86,4.515c.446,1.305.891,3,1.886,3.991a4.039,4.039,0,0,0,5.707-5.716,5.491,5.491,0,0,0-1.323-.947" transform="translate(25.9 14.501)" fill="#fff"/>
            <path id="Trazado_880779" data-name="Trazado 880779" d="M276.266,168.486a16.424,16.424,0,0,0-2.283-1.621c-.34-.213-4.128-2.135-4.185-1.9a14.152,14.152,0,0,0-.264,4.588c.114,1.373.134,3.124.857,4.331a4.039,4.039,0,1,0,6.927-4.157,5.5,5.5,0,0,0-1.052-1.239" transform="translate(25.832 15.812)" fill="#fff"/>
            <path id="Trazado_880780" data-name="Trazado 880780" d="M208.463,23.481a10.494,10.494,0,0,1-2.83-.715l.2-.362a10.341,10.341,0,0,0,2.682.668Z" transform="translate(19.722 2.165)" fill="#525252"/>
          </g>
        </g>
      </g>
    </g>
  </g>
</svg>
