<svg xmlns="http://www.w3.org/2000/svg" xmlns:xlink="http://www.w3.org/1999/xlink" width="91.188" height="91.188" viewBox="0 0 91.188 91.188">
  <defs>
    <clipPath id="clip-path">
      <rect id="Rectángulo_402161" data-name="Rectángulo 402161" width="48.666" height="48.614" fill="#ffe8b6"/>
    </clipPath>
  </defs>
  <g id="Grupo_1100056" data-name="Grupo 1100056" transform="translate(-223.051 -6253)">
    <g id="Grupo_1098742" data-name="Grupo 1098742" transform="translate(223.051 6253)">
      <rect id="Rectángulo_400898" data-name="Rectángulo 400898" width="81.157" height="81.157" rx="40.578" transform="translate(5.471 5.471)" fill="#0f6646" opacity="0.859"/>
      <g id="Rectángulo_400907" data-name="Rectángulo 400907" fill="none" stroke="#4d812e" stroke-linecap="round" stroke-width="2" stroke-dasharray="7">
        <rect width="91.188" height="91.188" rx="45.594" stroke="none"/>
        <rect x="1" y="1" width="89.188" height="89.188" rx="44.594" fill="none"/>
      </g>
    </g>
    <g id="Grupo_1099710" data-name="Grupo 1099710" transform="translate(244.312 6274.193)">
      <g id="Grupo_1099709" data-name="Grupo 1099709" clip-path="url(#clip-path)">
        <path id="Trazado_880341" data-name="Trazado 880341" d="M11.582,42.583c0-2.5.017-5-.02-7.5a1.642,1.642,0,0,0-.448-.973c-1.008-1.1-2.064-2.146-3.093-3.222-.385-.4-.978-.847-.346-1.418.611-.552,1.012.068,1.411.456l2.488,2.418c0-1.67.019-3.235-.02-4.8-.006-.235-.251-.493-.438-.691-1.069-1.125-2.153-2.236-3.233-3.35-.374-.385-.76-.863-.191-1.261.231-.162.892.028,1.185.268.92.755,1.758,1.61,2.706,2.5,0-1.241,0-2.457,0-3.674,0-.507,0-1.014,0-1.521.005-.538-.078-1.182.727-1.168.737.013.672.619.674,1.127,0,1.425,0,2.851,0,4.276V25c.957-.9,1.821-1.754,2.747-2.539.262-.222.809-.423,1.046-.3.614.326.4.831,0,1.246-1.076,1.118-2.186,2.206-3.218,3.364a2.3,2.3,0,0,0-.545,1.311c-.07,1.374-.025,2.754-.025,4.108.9-.826,1.764-1.6,2.605-2.393.407-.384.82-.844,1.352-.291.488.507.051.921-.308,1.292-1.056,1.093-2.13,2.17-3.162,3.287a1.649,1.649,0,0,0-.466.969c-.039,2.5-.021,5-.021,7.572.156-.033.293-.022.37-.085,3.65-2.976,6.819-6.345,8.582-10.812a15.616,15.616,0,0,0-.953-13.727A30.148,30.148,0,0,0,12.3,8.467c-.505.383-1.013.744-1.494,1.138a27.478,27.478,0,0,0-7.435,8.9,15.734,15.734,0,0,0,.823,16.419c.186.294.377.586.58.868.312.434.624.886.018,1.3s-.915-.076-1.209-.5c-4.327-6.235-4.762-12.709-1.141-19.4A30.685,30.685,0,0,1,11.6,7.18a1.109,1.109,0,0,1,1.524.107A33.909,33.909,0,0,1,21.058,15.4c.176.257.352.512.594.863.221-.358.4-.644.577-.936q3.983-6.744,7.966-13.488c1.417-2.4,3.771-2.391,5.2,0,.373.625.741,1.253,1.114,1.878.275.461.518.941-.105,1.3-.589.34-.857-.113-1.108-.535-.42-.707-.828-1.423-1.259-2.123-.71-1.153-1.772-1.192-2.45-.051Q27.147,9.78,22.757,17.275a.98.98,0,0,0-.13.76,18.313,18.313,0,0,1,1.954,8.343h1.092c6.525,0,13.05.016,19.575-.027A2.684,2.684,0,0,0,47,25.723c.583-.59.074-1.289-.285-1.895Q42.386,16.514,38.068,9.2c-.145-.245-.377-.49-.392-.746-.018-.3.073-.745.275-.868s.629.026.89.174c.193.109.283.406.412.624q4.394,7.438,8.794,14.873a2.9,2.9,0,0,1,.23,3.21,2.951,2.951,0,0,1-2.841,1.344c-6.588-.024-13.177-.011-19.765-.011H24.533c-.1.5-.186.988-.292,1.468A21.856,21.856,0,0,1,18.93,39.1c-1.634,1.834-3.564,3.4-5.327,5.124a2.155,2.155,0,0,0-.591,1.157,14.972,14.972,0,0,0-.026,2.087c0,.549.042,1.2-.728,1.181-.691-.013-.682-.614-.677-1.139a13.185,13.185,0,0,0-.026-2.086,2.266,2.266,0,0,0-.627-1.231c-1.382-1.3-2.833-2.525-4.235-3.8-.406-.37-.978-.822-.332-1.409.577-.525.948.026,1.338.395,1.207,1.141,2.426,2.269,3.64,3.4l.243-.194" transform="translate(0 -0.035)" fill="#ffe8b6"/>
        <path id="Trazado_880342" data-name="Trazado 880342" d="M160.05,42c0-1.137-.017-2.274,0-3.41a2.364,2.364,0,1,1,4.726-.076q.059,3.551,0,7.1a2.364,2.364,0,1,1-4.726-.113c-.02-1.168,0-2.336,0-3.5m1.429.115c0,1.073,0,2.146,0,3.22,0,.648.226,1.169.942,1.163s.922-.521.918-1.176c-.011-2.178-.007-4.356,0-6.533,0-.641-.175-1.157-.927-1.153s-.926.535-.928,1.165c0,1.1,0,2.209,0,3.314" transform="translate(-129.625 -29.287)" fill="#ffe8b6"/>
        <path id="Trazado_880343" data-name="Trazado 880343" d="M148.178,170.5q-2.889,0-5.779,0c-.52,0-1.113-.007-1.125-.7-.014-.756.6-.755,1.16-.755q5.779,0,11.558,0c.522,0,1.1-.009,1.12.7.021.784-.611.755-1.155.757-1.926.006-3.852,0-5.779,0" transform="translate(-114.423 -136.911)" fill="#ffe8b6"/>
        <path id="Trazado_880344" data-name="Trazado 880344" d="M148.207,207.084h5.779c.52,0,1.1-.014,1.124.691.024.777-.6.768-1.148.769q-5.779.005-11.559,0c-.522,0-1.111-.015-1.13-.7-.021-.757.593-.763,1.154-.762q2.889,0,5.779,0" transform="translate(-114.422 -167.723)" fill="#ffe8b6"/>
        <path id="Trazado_880345" data-name="Trazado 880345" d="M146.858,188.063c1.484,0,2.969,0,4.453,0,.527,0,1.049.143.952.74a1.182,1.182,0,0,1-.9.687q-4.546.078-9.094,0a1.186,1.186,0,0,1-.905-.682c-.1-.6.419-.746.947-.745,1.516,0,3.032,0,4.548,0" transform="translate(-114.485 -152.317)" fill="#ffe8b6"/>
        <path id="Trazado_880346" data-name="Trazado 880346" d="M162.435,108.51a2.312,2.312,0,1,1,2.383-2.292,2.317,2.317,0,0,1-2.383,2.292m1.044-2.066q.009-.2.019-.4c-.335-.246-.686-.7-1-.68-.333.025-.63.51-.943.794.286.311.539.822.868.876.311.052.7-.376,1.056-.593" transform="translate(-129.663 -84.142)" fill="#ffe8b6"/>
        <path id="Trazado_880347" data-name="Trazado 880347" d="M44.9,0a6.234,6.234,0,0,1,4.38,1.736c.227.224.167.74.239,1.121-.388-.021-.924.116-1.14-.087a5.253,5.253,0,0,0-6.94.022c-.2.2-.753.031-1.142.033.072-.361.02-.848.236-1.062A6.261,6.261,0,0,1,44.9,0" transform="translate(-32.639)" fill="#ffe8b6"/>
        <path id="Trazado_880348" data-name="Trazado 880348" d="M144.86,226.009h2.557c.516,0,1.056.118.946.737a1.178,1.178,0,0,1-.884.69c-1.8.066-3.6.067-5.4,0-.312-.012-.607-.463-.909-.711.313-.238.608-.646.943-.681a26.342,26.342,0,0,1,2.744-.033" transform="translate(-114.341 -183.036)" fill="#ffe8b6"/>
        <path id="Trazado_880349" data-name="Trazado 880349" d="M55.891,17.81a.682.682,0,0,1-1.123.564,2.478,2.478,0,0,0-3.366-.011.914.914,0,0,1-.9-.072.952.952,0,0,1-.031-.907c.952-1.455,4.234-1.447,5.233-.015a1.9,1.9,0,0,1,.183.442" transform="translate(-40.801 -13.197)" fill="#ffe8b6"/>
      </g>
    </g>
  </g>
</svg>
