<svg xmlns="http://www.w3.org/2000/svg" xmlns:xlink="http://www.w3.org/1999/xlink" width="71.455" height="77.99" viewBox="0 0 71.455 77.99">
  <defs>
    <clipPath id="clip-path">
      <rect id="Rectángulo_402162" data-name="Rectángulo 402162" width="71.455" height="77.99" fill="#ffe8b6"/>
    </clipPath>
  </defs>
  <g id="Grupo_1100056" data-name="Grupo 1100056" transform="translate(-246.051 -6949.005)">
    <g id="Grupo_1099712" data-name="Grupo 1099712" transform="translate(246.051 6949.005)">
      <g id="Grupo_1099711" data-name="Grupo 1099711" clip-path="url(#clip-path)">
        <path id="Trazado_880350" data-name="Trazado 880350" d="M68.786,37.965c1.852,3.212,3.577,6.2,5.3,9.188,1.435,2.5,1.122,3.628-1.391,5.077-.309.178-.615.361-.925.537-2.273,1.3-3.49.988-4.784-1.236-1.562-2.684-3.131-5.365-4.648-8.075-.442-.789-.8-1.269-1.873-.926a3.034,3.034,0,0,1-2.207-.186,4.205,4.205,0,0,0-3.525-.281,7.221,7.221,0,0,1-8.144-3.658,7.315,7.315,0,0,1,1.462-8.948,3.039,3.039,0,0,0,1.106-2.3,7.135,7.135,0,0,1,1.069-2.606,1.948,1.948,0,0,1,.925-.774C57.5,21.061,61.89,16.034,66.271,10.99c.8-.923,1.636-1.819,2.473-2.711,1.17-1.246,2.307-2.354,2.2-4.4C70.847,2.057,72.622.49,74.422.115a4.5,4.5,0,0,1,4.914,2c1.14,1.808,2.186,3.676,3.219,5.548a1.275,1.275,0,0,0,1.555.764c3.587-.551,6.483.66,8.283,3.846s1.315,6.248-.939,9.1a1.59,1.59,0,0,0-.1,1.41c.921,1.757,1.969,3.447,2.944,5.177a4.75,4.75,0,0,1-.628,6.027c-1.62,1.543-3.717,1.669-5.912.443a2.424,2.424,0,0,0-1.543-.288c-5.719,1.22-11.426,2.5-17.427,3.821M85.7,31.7,72.142,8.219,60.732,20.692l2.449,4.231.549.059a8.267,8.267,0,0,0,.935-2.105,7.629,7.629,0,0,1,10.342-6.192c.59.245,1.359.827,1.428,1.337.062.462-.642,1.131-1.146,1.539a16.02,16.02,0,0,1-2.1,1.247A2.535,2.535,0,0,0,72.1,23.982a2.443,2.443,0,0,0,3.174.554,19.807,19.807,0,0,1,2.258-1.277c.555-.228,1.487-.478,1.767-.211a2.448,2.448,0,0,1,.5,1.879,7.519,7.519,0,0,1-10.6,5.832c-.99-.407-1.7-.416-2.357.5.3.525.581,1.009.86,1.493,1.489,2.58,1.492,2.592,4.344,1.968,4.468-.977,8.932-1.973,13.659-3.019m-26.94-9.486c-2.159,1.247-4.234,2.42-6.281,3.641a1.673,1.673,0,0,0-.662,2.487q3.093,5.435,6.244,10.836a1.627,1.627,0,0,0,2.319.82c2.173-1.18,4.3-2.437,6.516-3.7L58.763,22.214m34.128,8.614c-.439-.926-.7-1.583-1.046-2.188Q84.828,16.453,77.786,4.281c-.228-.4-.432-.993-.77-1.1a4.925,4.925,0,0,0-2.638-.353,1.836,1.836,0,0,0-1,2.434,5.44,5.44,0,0,0,.613,1.226q7.067,12.246,14.144,24.486c.229.4.417.965.765,1.109a3.925,3.925,0,0,0,2.34.467c.659-.208,1.1-1.109,1.652-1.723M72.57,49.456,66.675,39.263l-2.945,1.72,5.883,10.169,2.957-1.7M50.291,30.848A4.872,4.872,0,0,0,48.9,37.5a4.773,4.773,0,0,0,6.32,1.708q-2.2-3.827-4.406-7.644a8.341,8.341,0,0,0-.52-.718M71.165,18.855a4.662,4.662,0,0,0-3.989,4.619A2.949,2.949,0,0,1,65.2,26.648a3.792,3.792,0,0,0-.726.557l1.1,1.824a3.59,3.59,0,0,1,4.778-.507c2.04,1.139,4.361.348,5.971-1.631-1.253.484-2.248,1.466-3.51.482-.991-.774-2.619-1.176-3.03-2.141a8.957,8.957,0,0,1-.182-4.5c.094-.683,1.012-1.252,1.562-1.877M84.512,11l5.031,8.728c1.741-2.315,1.88-4.552.545-6.571A5.032,5.032,0,0,0,84.512,11" transform="translate(-31.694 0)" fill="#ffe8b6"/>
        <path id="Trazado_880351" data-name="Trazado 880351" d="M38.6,172.066c4.5-2.594,8.906-5.149,13.328-7.671a5.384,5.384,0,0,1,8.035,5.635,5,5,0,0,1-2.539,3.636q-11.3,6.55-22.621,13.057a8.153,8.153,0,0,1-5.927.808c-3.133-.679-6.233-1.554-9.393-2.051a12.78,12.78,0,0,0-4.605.411c-.975.216-1.915.7-1.619,2.241.107.555-.825,1.595-1.519,1.952a14.1,14.1,0,0,1-3.509,1,2.107,2.107,0,0,1-2.855-1.749q-2.67-9.793-5.27-19.606a2.094,2.094,0,0,1,1.516-2.749c1.006-.35,2.058-.572,3.093-.838,1.775-.456,2.395-.17,3.39,1.648,1.092-.821,2.205-1.588,3.24-2.448a9.108,9.108,0,0,1,9.009-1.741c4.046,1.205,8.144,2.237,12.219,3.346,3.789,1.031,4.434,1.572,6.027,5.123M12.414,184.227c4.032-1.76,4.869-1.832,9.042-.884,2.482.564,4.974,1.084,7.447,1.685a7.028,7.028,0,0,0,5.426-.835c7.087-4.122,14.195-8.207,21.289-12.316,1.915-1.109,2.5-2.714,1.606-4.3-.872-1.553-2.629-1.884-4.506-.808q-6.825,3.914-13.623,7.874a4.383,4.383,0,0,0-1.38,1.338,5.833,5.833,0,0,1-6.734,2.645c-2.513-.65-5.016-1.337-7.521-2.017-.876-.238-1.789-.559-1.44-1.723s1.3-.882,2.156-.649c2.406.655,4.808,1.326,7.219,1.96,2.225.585,4.048-.389,4.555-2.391a3.442,3.442,0,0,0-2.711-4.122q-7.209-2-14.434-3.934a5.757,5.757,0,0,0-5.089.9c-1.443,1.047-2.866,2.126-4.239,3.262a1.555,1.555,0,0,0-.553,1.225c1.107,4.33,2.29,8.642,3.489,13.087M2.533,169.274l5.2,19.415,3.087-.844L5.625,168.453l-3.092.821" transform="translate(0 -113.186)" fill="#ffe8b6"/>
        <path id="Trazado_880352" data-name="Trazado 880352" d="M211.564,21.009c.463.4,1.012.646,1.133,1.031a1.454,1.454,0,0,1-.348,1.312,35,35,0,0,1-4.084,2.353,1.43,1.43,0,0,1-1.322-.348c-.241-.293-.285-1.191-.074-1.341,1.48-1.05,3.049-1.975,4.7-3.007" transform="translate(-143.461 -14.579)" fill="#ffe8b6"/>
        <path id="Trazado_880353" data-name="Trazado 880353" d="M193.773,8.972c-1.046.028-1.663-.79-1.235-1.673a30.717,30.717,0,0,1,2.287-3.948,1.513,1.513,0,0,1,1.415-.389c.359.158.789,1.006.651,1.3-.717,1.5-1.589,2.937-2.454,4.366-.129.213-.512.273-.664.349" transform="translate(-133.516 -2.019)" fill="#ffe8b6"/>
        <path id="Trazado_880354" data-name="Trazado 880354" d="M215.152,50.407a8.42,8.42,0,0,1-2.264-.052,1.658,1.658,0,0,1-1.027-1.186,1.578,1.578,0,0,1,1.092-1.1,23.343,23.343,0,0,1,4.4,0,1.6,1.6,0,0,1,1.122,1.1c.008.4-.6,1.05-1.059,1.181a8.54,8.54,0,0,1-2.263.054" transform="translate(-147.019 -33.285)" fill="#ffe8b6"/>
      </g>
    </g>
  </g>
</svg>
