<svg xmlns="http://www.w3.org/2000/svg" xmlns:xlink="http://www.w3.org/1999/xlink" width="80.591" height="80.549" viewBox="0 0 80.591 80.549">
  <defs>
    <clipPath id="clip-path">
      <rect id="Rectángulo_402166" data-name="Rectángulo 402166" width="80.591" height="80.549" fill="#4d812e"/>
    </clipPath>
  </defs>
  <g id="Grupo_1100057" data-name="Grupo 1100057" transform="translate(-865.051 -6948.005)">
    <g id="Grupo_1099714" data-name="Grupo 1099714" transform="translate(865.051 6948.005)">
      <g id="Grupo_1099713" data-name="Grupo 1099713" clip-path="url(#clip-path)">
        <path id="Trazado_880355" data-name="Trazado 880355" d="M24.672,67.507c-7.093,0-13.843-.006-20.594.005-1.383,0-3.113.149-3.5-1.379A12.854,12.854,0,0,1,.6,60.968c.088-.526,1.34-1,2.135-1.223A9.567,9.567,0,0,1,5.184,59.7V12.966c-.648,0-1.258.021-1.867-.007a5.473,5.473,0,0,1-1.546-.179C.262,12.247-.3,10.417.149,7.511a2.527,2.527,0,0,1,2.562-2.3c.573-.041,1.151-.025,1.727-.025h39.78c0-.917-.041-1.684.008-2.445A2.582,2.582,0,0,1,47.031.015q15.393-.031,30.786,0A2.528,2.528,0,0,1,80.56,2.776q.045,8.874,0,17.749c-.008,1.839-.971,2.748-2.838,2.814-.719.026-1.439,0-2.245,0V59.7c.84,0,1.659-.035,2.474.007a2.572,2.572,0,0,1,2.614,2.573c.008.1,0,.21.006.314.136,4.353-.4,4.912-4.728,4.912H56.012c.747,1.031,1.325,1.846,1.922,2.647,1.126,1.511,2.272,3.006,3.393,4.521,1.436,1.94,1.389,3.79-.106,5.023a4.281,4.281,0,0,1-5.675-.571Q51.322,73.961,47.221,68.7a2.309,2.309,0,0,0-3-.97V73.08c0,1.413.011,2.827-.007,4.241a4.933,4.933,0,0,1-.147,1.4c-.48,1.529-2.212,2.084-5.211,1.724A2.513,2.513,0,0,1,36.495,77.8c-.052-2.774-.021-5.549-.024-8.324,0-.569,0-1.139,0-1.732a2.179,2.179,0,0,0-2.89.827c-2.627,3.394-5.37,6.7-8,10.087a4.256,4.256,0,0,1-3.921,1.812,3.3,3.3,0,0,1-3.028-1.876,3.117,3.117,0,0,1,.371-3.4c1.62-2.186,3.261-4.358,4.889-6.538.21-.281.4-.579.784-1.148M8.006,59.589H72.623V23.347h-6.7c-5.864,0-11.728-.015-17.592.009a48.117,48.117,0,0,0-5.5-.151c-.967.112-2.091-1.04-3.126-1.65-.367-.217-.654-.7-1.023-.76-4.52-.685-5.369-.219-7.224,3.82-.044.095-.111.18-.148.277-.38.995.883,3.615,1.884,3.629,2.441.035,3.64,1.506,4.527,3.494a24.359,24.359,0,0,0,1.3,2.179c.348-1,.543-1.511.7-2.03a4.72,4.72,0,0,1,4.43-3.586A4.64,4.64,0,0,1,48.841,31.8c.421,1.125.762,2.28,1.173,3.409.457,1.255.884,1.365,1.625.344A5.135,5.135,0,0,1,55.1,33.662a7.376,7.376,0,0,0,2.9-1.31c1.355-1.039,2.717-1.572,4.356-.929a4.222,4.222,0,0,1,2.669,3.735,7.056,7.056,0,0,0,1.214,3.112c1.812,2.433,1.816,5.169-.209,7.083s-4.8,1.858-7.047-.231a2.62,2.62,0,0,0-3.66-.343,9.844,9.844,0,0,1-11.48.237,5.926,5.926,0,0,0-5.575-.344c-1.92.78-4.2,1.123-5.681,2.4-1.5,1.294-2.211,3.5-3.253,5.31a3.921,3.921,0,0,1-3.6,2.1c-2.147.01-4.3-.047-6.438.049a2.511,2.511,0,0,0-1.628.809,3.976,3.976,0,0,1-4.575,1.521,3.886,3.886,0,0,1,.165-7.382,3.966,3.966,0,0,1,4.41,1.6A2.09,2.09,0,0,0,19,51.845c2.144.079,4.295.1,6.437-.006a2.362,2.362,0,0,0,1.654-.865c1.056-1.6,1.945-3.318,2.828-4.867a18.913,18.913,0,0,1-1.648-2.442c-1.189-2.553-2.1-2.792-4.132-.95a4.653,4.653,0,0,1-6.406.156,7,7,0,0,0-3.035-1.33,4.648,4.648,0,0,1-4.06-5.644,13.213,13.213,0,0,0-.01-6.95c-.751-2.9.783-5.009,3.7-5.63a4.59,4.59,0,0,0,1.861-1c2.147-1.784,5-2.265,7.1-.625a11.064,11.064,0,0,0,5.677,2.04c.456-.913.95-1.829,1.38-2.776A4.249,4.249,0,0,1,34.8,18.177c1.148.067,2.3.037,3.454,0,.382-.014.968-.079,1.1-.321a4.236,4.236,0,0,1,4.723-2.195V13.076H8.006Zm57.234-17.7c-.45-.817-.817-1.372-1.074-1.973-.623-1.458-1.172-2.948-1.8-4.4-.246-.573-.5-1.323-.971-1.561-.386-.2-1.118.195-1.656.421-1.509.633-3,1.3-4.49,1.986a3.821,3.821,0,0,0-1.53.88A3.349,3.349,0,0,1,50.41,38.9a3.434,3.434,0,0,1-2.861-2.767A16.239,16.239,0,0,0,46.286,32.6a2.81,2.81,0,0,0-2-1.342c-.681.022-1.4.851-1.969,1.452-.285.3-.255.888-.4,1.335a3.153,3.153,0,0,1-5.83.553,13.566,13.566,0,0,0-1.16-2.214,3.228,3.228,0,0,0-1.794-1.2,3.886,3.886,0,0,1-3.57-2.814,3.519,3.519,0,0,0-3.111-2.45,9.779,9.779,0,0,1-3.675-1.507c-1.9-1.3-3.4-1.312-5.226.182a6.6,6.6,0,0,1-2.444,1.269c-1.949.5-2.344.967-1.816,2.956a13.489,13.489,0,0,1,.025,7.124C12.827,37.767,13.584,38.6,15.4,39a10.911,10.911,0,0,1,3.774,1.641c1.541,1.072,2.066,1.181,3.5-.156,2.824-2.623,6.411-1.846,7.828,1.7.758,1.894,1.964,2.375,3.855,1.523.523-.236,1.047-.48,1.546-.764a9.114,9.114,0,0,1,9.936.183,6.8,6.8,0,0,0,7.306-.049c3.815-2.213,4.387-2.14,7.99.412a3.272,3.272,0,0,0,2.586.229c.623-.212,1-1.157,1.519-1.824M53.393,2.674l7.73,10.336h-6.2c2.3,2.626,4.3,4.968,6.386,7.235a2.3,2.3,0,0,0,1.528.488c2.877.046,5.755.022,8.632.022H77.9V2.674ZM77.91,62.367H2.814v2.36h75.1ZM46.983,2.734V20.671H58.137L49.1,10.3h6.727c-1.582-2.117-3.162-3.94-4.4-5.971-1.116-1.832-2.57-1.98-4.449-1.6M44.13,7.919H2.809v2.348H44.13ZM31.035,67.628c-1.852-.237-3.174-.274-4.244,1.4-1.569,2.459-3.485,4.695-5.19,7.07a4.619,4.619,0,0,0-.405,1.572c.667-.091,1.631.07,1.954-.312C25.8,74.23,28.332,71,31.035,67.628m18.687.063c2.181,2.727,4.232,5.293,6.284,7.858a7.854,7.854,0,0,0,1.5,1.783,5.207,5.207,0,0,0,1.965.358,4.374,4.374,0,0,0-.366-1.566c-1.673-2.334-3.534-4.539-5.105-6.937-1.063-1.622-2.335-1.984-4.283-1.5m-8.2-.065H39.208V77.834H41.52ZM44.792,19.54c-.9-.638-1.416-1.29-1.839-1.233a1.827,1.827,0,0,0-1.2,1.214c-.066.312.68,1.1,1.1,1.13.475.037,1-.535,1.94-1.111M16.233,53.252c-.888-.636-1.417-1.3-1.841-1.241a1.9,1.9,0,0,0-1.189,1.26c-.069.276.7,1.055,1.131,1.082.474.03.986-.536,1.9-1.1" transform="translate(0 0)" fill="#4d812e"/>
        <rect id="Rectángulo_402163" data-name="Rectángulo 402163" width="12.783" height="2.445" transform="translate(57.318 54.568)" fill="#4d812e"/>
        <rect id="Rectángulo_402164" data-name="Rectángulo 402164" width="7.606" height="2.412" transform="translate(62.502 49.387)" fill="#4d812e"/>
        <rect id="Rectángulo_402165" data-name="Rectángulo 402165" width="5.059" height="2.406" transform="translate(54.687 49.402)" fill="#4d812e"/>
        <path id="Trazado_880356" data-name="Trazado 880356" d="M160.733,51.124c-.926.644-1.465,1.3-1.9,1.241a1.874,1.874,0,0,1-1.181-1.273c-.065-.3.7-1.079,1.126-1.1.485-.026,1,.545,1.954,1.133" transform="translate(-108.112 -34.282)" fill="#4d812e"/>
        <path id="Trazado_880357" data-name="Trazado 880357" d="M155.4,22.136c.974-.546,1.516-1.094,2.007-1.051.415.036,1.142.849,1.066,1.154a1.848,1.848,0,0,1-1.226,1.215c-.444.039-.951-.64-1.847-1.319" transform="translate(-106.57 -14.458)" fill="#4d812e"/>
      </g>
    </g>
  </g>
</svg>
