<svg xmlns="http://www.w3.org/2000/svg" xmlns:xlink="http://www.w3.org/1999/xlink" width="52.58" height="52.58" viewBox="0 0 52.58 52.58">
  <defs>
    <clipPath id="clip-path">
      <rect id="Rectángulo_401368" data-name="Rectángulo 401368" width="52.58" height="52.58" fill="#fff"/>
    </clipPath>
  </defs>
  <g id="Grupo_1100054" data-name="Grupo 1100054" transform="translate(-714.05 -7088.789)">
    <g id="Grupo_1099631" data-name="Grupo 1099631" transform="translate(714.05 7088.789)" opacity="0.4">
      <g id="Grupo_1099442" data-name="Grupo 1099442" clip-path="url(#clip-path)">
        <path id="Trazado_878804" data-name="Trazado 878804" d="M856.5,476.527c-.909.1-1.561,1.06-2.077,1.69-.735.9-1.7,1.574-2.52,2.392-1.789,1.786-3.59,3.544-5.425,5.284-3.581,3.4-6.865,7.106-10.492,10.422-.882.807-1.763,1.64-2.586,2.507-.455.479-1.3,2.3-2.181,1.959-1.558-.607,2.644-4.117,3.168-4.631.823-.809,1.811-1.456,2.573-2.323.817-.931,1.608-1.845,2.485-2.726,1.795-1.8,3.62-3.568,5.4-5.382,1.925-1.958,3.977-3.819,5.947-5.735.978-.952,2.014-1.856,2.94-2.858a17.544,17.544,0,0,1,2.764-2.219v-1.838a22.833,22.833,0,0,0-1.684,1.653,18.967,18.967,0,0,0-2.285,1.931c-1.325,1.414-2.773,2.743-4.174,4.075-2.8,2.657-5.426,5.414-8.214,8.089a45.491,45.491,0,0,0-3.894,4,38.355,38.355,0,0,1-3.271,3.08c-.5.483-.893,1.018-1.432,1.458a5.6,5.6,0,0,0-1.35,1.559,4.277,4.277,0,0,1-1.462,1.433c-.573.421-.82,1.072-1.355,1.522-.555.467-1.633.786-1.716,1.646-.065.67.877,1.52,1.263,2,.363.449.94,1.036,1.5.436.64-.681-.268-1.093-.744-1.414-.527-.355-1.012-1.316-.048-1.5.651-.123,1.06.719,1.5,1.041.495.36,1.876.4,1.974-.507.1-.967-1.43-.6-1.913-.933a.758.758,0,0,1,.446-1.383c.709-.059,1.1.712,1.743.823,1.324.228,2.6-2.107,3.4-2.916,1.178-1.192,2.388-2.382,3.647-3.489,1.181-1.039,2.165-2.306,3.287-3.412,2.759-2.718,5.621-5.346,8.335-8.106.681-.693,1.482-1.256,2.152-1.948a19.782,19.782,0,0,1,1.382-1.587,7.361,7.361,0,0,0,1.648-1.379c.357-.522.616-1.178,1.262-1.387Z" transform="translate(-803.945 -460.616)" fill="#fff"/>
        <path id="Trazado_878805" data-name="Trazado 878805" d="M34.011,0a25.189,25.189,0,0,0-1.5,2.2,10.158,10.158,0,0,1-1.565,2.077,6.472,6.472,0,0,1-1.682,1.553c-.73.354-1.439.458-1.829,1.272-.332.693.024,1.592-.434,2.21s-1.356.454-1.972.827c-.8.484-.806,1.19-.986,1.994-.171.765-.518.773-1.249.652-1.125-.187-2.75.279-2.392,1.8.121.516.936.84.838,1.383-.129.721-1.038.364-1.5.322-1.807-.164-2,1.029-3.046,2.147s-2.38,2.262-3.949,1.813c-.894-.256-3.665-1.313-4,.287-.179.854.685.732,1.218.627a5.216,5.216,0,0,1,2.307,0c.665.2.938.8.305,1.275-.594.442-1.138.012-1.761-.077-.656-.094-1.266.342-1.89.154-.486-.147-1.083-.975-1.571-.354-.444.565.347,1.349.724,1.7.588.543.932.317,1.549-.063,1.4-.862,2.1.741.575,1.262-.578.2-.947.585-1.473.806-.713.3-.938-.214-1.268-.768-.282-.475-.749-1.554-1.378-1.613-.689-.065-.873.655-.6,1.133.392.7,1.278,1.141,1.594,1.886.337.794-.2,1.06-.731,1.486-.559.453-.927,1.069-1.5,1.507a3.549,3.549,0,0,0-1.215,1.264c-.325.663-.428.984-1.227,1.121-.535.092-1.093.005-1.481.467-.777.925.512,2.444-.921,2.3v1.306A6.6,6.6,0,0,1,1.752,35.5c.686.01,1.331.789,2.02.453.621-.3.483-1.03-.105-1.29s-1.673.107-1.855-.82c-.4-2.033,2.881.22,3.286.185a2.441,2.441,0,0,0,1.766-3.141c-.329-.744-.692-1.2.017-1.867.37-.347.838-.553,1.185-.943.706-.794,1.767-2.308,3.063-1.836.478.174,1.078,1.23,1.693.825.674-.444-.1-.993-.373-1.294-1.053-1.163.022-1.826.893-2.614a17.6,17.6,0,0,0,1.127-1.545,10.586,10.586,0,0,1,1.6-1.092c1.055-.8,1.729-2.07,2.786-2.828,1.168-.838,2.559.217,3.75-.672.3-.221.8-.65.736-1.066-.1-.637-.849-.489-1.273-.749-.44-.269-.682-.943-.172-1.273s1.391.058,1.77.409.755,1.194,1.436.729c.557-.38.145-1,.024-1.462-.371-1.41.182-2.724,1.709-2.843.783-.061,1.025-.085,1.326-.873.262-.685.2-1.4.4-2.081.135-.457.544-1.024,1.107-.683.448.271.254.972.724,1.25a.644.644,0,0,0,1.013-.583c.008-.549-.663-.9-.617-1.475.054-.682.951-1.362,1.385-1.813a9.141,9.141,0,0,0,1.147-1.424c.189-.3,1.861-2.62,2.164-3.081ZM4.261,31.87c.113-.972,1.747-1.755,1.609-.334.21,1.166-1.773,1.745-1.609.334" transform="translate(0.028 0.028)" fill="#fff"/>
        <path id="Trazado_878806" data-name="Trazado 878806" d="M38.441,161.9c-.174-.645-.917-.489-1.313-.243a18.233,18.233,0,0,0-2.536,2.61c-.758.73-1.728,1.017-2.33,1.884-.226.326-.364.841-.825.927-.545.1-.8-.445-1.281-.515-1.039-.152-1.131,1.765-1.221,2.482-.1.815-.68,2.033-1.355.831-.219-.389-.242-1.006-.895-.778-.489.171-.457.722-.365,1.118.234,1,.721,2-.261,2.846-.445.382-1.077.381-1.528.748-.39.317-.521.8-.849,1.165s-.788.574-1.118.945-.522.871-.826,1.283a23.462,23.462,0,0,1-2.5,2.631c-.809.787-1.614,1.66-2.48,2.379s-2.107,1.133-2.68,2.161-.819,1.826-2.078,1.01c-.481-.312-2.4-1.339-2.379.03.017,1.115,1.61.341,2.06,1.01.558.831-.776,1.32-1.433,1.058-.712-.284-1.507-1.594-2.3-.606A.738.738,0,0,0,8.3,188.1c.356.113.782-.175,1.134.032,1.158.68-.649,1.238-1.049,1.486-.473.294-.6.831-.9,1.261a4.852,4.852,0,0,1-1.046,1c-.811.637-1.211,1.524-1.969,2.177-.874.753-1.607,1.65-2.453,2.442-.659.618-1.282,1.423-2.02,1.988V200.1a79.906,79.906,0,0,0,5.738-5.641c1.683-1.848,3.426-3.6,5.219-5.334a16.027,16.027,0,0,1,2.793-2.3c1.078-.642,1.135-1.946,2.151-2.676.489-.351,1.073-.546,1.56-.887a15.777,15.777,0,0,0,1.3-1.289c1.036-.921,1.881-1.908,2.859-2.887.8-.8,1.525-1.685,2.305-2.51.621-.657,1.03-1.7,1.87-2.087,1.119-.509,1.5-.315,1.781-1.673.259-1.234.962-1.188,1.82-1.9a2.068,2.068,0,0,0,.748-1.426c.042-.368-.1-.805.182-1.1.64-.678,1.692.212,2.405-.6.429-.487.51-1.045,1.04-1.471.407-.328.9-.514,1.309-.855.874-.739,1.548-1.691,2.433-2.428.322-.268,1.073-.607.932-1.13" transform="translate(0.028 -157.178)" fill="#fff"/>
        <path id="Trazado_878807" data-name="Trazado 878807" d="M708.023,756.84c-.005-.213-.191-.558-.186-.729a1.66,1.66,0,0,1,.516-1.1c.562-.582,1.419-.594,1.969-1.179a10.149,10.149,0,0,0,.678-1.12,9.7,9.7,0,0,1,1.1-1.166,10.3,10.3,0,0,1,2.164-1.794c1.708-.974,2.579-2.974,3.9-4.391a51.338,51.338,0,0,1,4.92-4.816,20.187,20.187,0,0,0,1.859-2.023c.606-.638,1.278-1.213,1.884-1.858,1.454-1.546,3.117-2.772,4.691-4.174,1.373-1.224,2.213-3.492,4.037-4.111a3.778,3.778,0,0,0,1.05-.323c.4-.289.45-.766.658-1.172.414-.806,1.1-.991,1.741-1.5v-2.081c-.307.219-.905,1.169-1.174,1.35a5.509,5.509,0,0,0-1.717,1.655c-.542.8-1.341,1.046-2.062,1.645a21.792,21.792,0,0,0-2.118,2.232c-1.178,1.3-2.566,2.411-3.814,3.649s-2.551,2.467-3.839,3.69c-.583.553-1.01,1.236-1.591,1.792s-1.208,1.114-1.793,1.7c-1.331,1.323-2.669,2.639-3.965,4a16.466,16.466,0,0,0-1.837,2.073,4.852,4.852,0,0,1-1.273,1.606,14.553,14.553,0,0,0-3.4,2.778c-.438.544-.586,1.239-1.167,1.676-.518.39-1.173.431-1.638.913-.545.564-.573,1.3-1.307,1.7-.511.281-1.214.414-1.313,1.075Z" transform="translate(-686.45 -704.288)" fill="#fff"/>
        <path id="Trazado_878808" data-name="Trazado 878808" d="M745.72,0c-.406.725-1.12,1.784-2.047,1.779-.663,0-1.631-.68-1.559.523.027.447.323.8.23,1.276a1.99,1.99,0,0,1-.717,1.076c-.836.7-1.7,1.195-2.5,1.984-.774.77-1.462,1.656-2.254,2.4-.655.613-1.467.913-1.986,1.681a2.66,2.66,0,0,1-1.794,1.431c-1.032.29-1.02.885-1.506,1.71-.449.762-1.259,1.035-1.82,1.679a2.6,2.6,0,0,0-.489,2.053c.017,1.023-.459.881-1.284.757s-1.188.208-1.567.9a4.45,4.45,0,0,1-1.584,1.646,16.631,16.631,0,0,0-1.48,1.758,18.115,18.115,0,0,0-1.392,1.87c-.483.613-1.332.74-1.884,1.295-.756.759-.313,1.347.076,2.182.2.429.635,1.458,1.255.8.581-.619-.564-1.49-.275-2.2.46-1.125,1.594-.34,2.382-.508,1.03-.219.2-.867-.051-1.339-.3-.582.081-1.181.768-.963.5.158.853.978,1.471.508.829-.631-.381-1.02-.615-1.448-.459-.84.469-1.393,1.107-.793.3.286.7,1.136,1.149.367s-.712-1.642-.024-2.416c.6-.678,1.449-.234,2.187-.253,2.1-.053.365-2.2,1.145-3.357.44-.656,1.27-.819,1.709-1.516s.481-1.285,1.29-1.65,1.437-.342,1.92-1.2a3.427,3.427,0,0,1,1.507-1.559,8.471,8.471,0,0,0,1.716-1.808c.558-.6,1.148-1.213,1.731-1.789.6-.6,1.437-.893,2.028-1.5.552-.564.6-1.286,1-1.925.462-.745,1.447-1.051,2.079-1.656.278-.266,1.486-1.305,1.514-1.794Z" transform="translate(-700.751 0.028)" fill="#fff"/>
        <path id="Trazado_878809" data-name="Trazado 878809" d="M32.571,718.725c-.71-.116-1.346.556-1.72,1.045-.444.58-.775,1.055-1.577,1.057-.53,0-1.129-.31-1.458.271-.283.5.058,1.126-.254,1.709a8.538,8.538,0,0,1-1.556,1.75c-.491.482-1.2.77-1.6,1.341-.337.49-.391,1.253-1.093,1.336-.67.079-1.522-.7-1.463.5.033.687.3,1.021-.242,1.609-.525.566-1.245,1.008-1.8,1.571a9.224,9.224,0,0,1-1.7,1.116c-.71.473-.821,1.152-1.181,1.87a7.719,7.719,0,0,1-1.362,1.78c-2.64,2.8-5.423,5.473-8.127,8.211-2.465,2.5-4.892,5.073-7.444,7.48v.987H.578a19.017,19.017,0,0,1,2-2.017c.723-.727,1.422-1.476,2.141-2.206,1.412-1.431,2.874-2.813,4.266-4.265,2.656-2.772,5.654-5.3,8.093-8.27.5-.61.823-1.307,1.293-1.929a9.877,9.877,0,0,1,1.646-1.376c.7-.6,1.44-1.232,2.1-1.865.545-.521.779-1.275,1.329-1.785a14.345,14.345,0,0,0,1.775-1.667,14.837,14.837,0,0,1,1.514-1.508,12.129,12.129,0,0,0,1.575-1.633c.368-.526.4-1.3.97-1.658.607-.38,1.284-.279,1.867-.806.46-.416.8-.9,1.289-1.288.45-.354,1.193-1.189.133-1.363" transform="translate(0.028 -699.809)" fill="#fff"/>
        <path id="Trazado_878810" data-name="Trazado 878810" d="M86.533,749.553A8.091,8.091,0,0,1,87.883,748c.732-.759,1.492-1.493,2.24-2.237q2.083-2.074,4.17-4.144c1.107-1.1,2.162-2.243,3.27-3.337,1.237-1.221,2.355-2.529,3.558-3.8,2.208-2.333,4.48-4.625,6.767-6.882,1.289-1.271,2.534-2.581,3.812-3.862a26.908,26.908,0,0,1,2.862-2.76,22.8,22.8,0,0,0,3.156-3.2c.328-.358,1.187-.907,1.111-1.487-.092-.695-.919-.476-1.3-.19a8.956,8.956,0,0,0-1.255,1.687,13.988,13.988,0,0,1-1.43,1.466,13.767,13.767,0,0,1-1.608,1.112,6.589,6.589,0,0,0-1.4,1.535c-.966,1.225-2.2,2.231-3.259,3.373-.994,1.07-2.034,2.094-3.045,3.148-1.248,1.3-2.761,2.368-3.912,3.753-.908,1.092-1.8,2.171-2.764,3.219-2.228,2.427-4.634,4.677-6.941,7.028-.7.708-6.577,6.2-7.047,7.132Z" transform="translate(-82.613 -697.001)" fill="#fff"/>
        <path id="Trazado_878811" data-name="Trazado 878811" d="M21.328,71.3c-.868-.421-1.6,1.03-2.2,1.454a3.877,3.877,0,0,0-1.635,2c-.446,1.037-1.359,1.532-2.141,2.3-.695.684-1.146,1.685-1.961,2.229-.457.305-1.006.369-1.482.633a12.039,12.039,0,0,0-1.574,1.217,6.084,6.084,0,0,0-1.806,2.083,7.412,7.412,0,0,1-2.136,2.2,32.093,32.093,0,0,0-2.171,2.459c-.837.9-1.863,1.6-2.694,2.512-.524.576-.866,1.536-1.531,2v1.372a8.709,8.709,0,0,0,1.03-.7A5,5,0,0,0,2,91.781a15.265,15.265,0,0,1,2.567-2.53c1.022-.961,1.773-2.2,2.874-3.076.419-.333.949-.494,1.355-.832a3.279,3.279,0,0,0,.774-1.44,6.153,6.153,0,0,1,2.375-2.536c.782-.532,1.833-.614,2.5-1.285.71-.711,1.16-1.618,1.914-2.311a8.633,8.633,0,0,0,2.019-2.035,5.032,5.032,0,0,1,1.936-2.4c.512-.331,2.359-1.371,1.008-2.026" transform="translate(0.028 -69.33)" fill="#fff"/>
        <path id="Trazado_878812" data-name="Trazado 878812" d="M1148.554,1049.594a10.852,10.852,0,0,0-1.2,1.254,3.923,3.923,0,0,1-1.334.81,5.655,5.655,0,0,0-2.912,2.288c-.284.458-.367,1-.638,1.469a7.636,7.636,0,0,1-1.432,1.61,11.944,11.944,0,0,1-2.9,2.491c-.438.2-.971.227-1.309.6a3.29,3.29,0,0,0-.432,1.151,7.153,7.153,0,0,1-1.971,2.5,39.034,39.034,0,0,1-2.9,2.634c-.817.665-1.9.831-2.643,1.546a6.434,6.434,0,0,0-2.12,3.031,3.211,3.211,0,0,1-.322,1.194c-.225.38-.753.728-.835,1.188a.633.633,0,0,0,.6.8c.54,0,.8-.622,1-1.01a16.1,16.1,0,0,1,1.4-3.013c1.459-1.747,3.573-2.751,5.218-4.3a26.23,26.23,0,0,0,2.945-3.03,9.963,9.963,0,0,1,2.061-2.313,22.442,22.442,0,0,0,4.835-5.058,7.769,7.769,0,0,1,2.371-2.48,10.516,10.516,0,0,0,1.427-.85c.394-.323.694-.761,1.1-1.073Z" transform="translate(-1096.002 -1022.002)" fill="#fff"/>
        <path id="Trazado_878813" data-name="Trazado 878813" d="M18.119,1047c-.546-.769-1.269-.35-1.79.217-.592.643-.582,1.643-1.222,2.192s-1.461.724-2.1,1.347q-2.465,2.409-4.878,4.873c-1.4,1.435-2.707,3.058-4.232,4.354-.785.668-1.5,1.4-2.231,2.129A19.084,19.084,0,0,1,0,1063.893v1.732a30.582,30.582,0,0,0,2.167-2.217c.865-.866,1.732-1.694,2.616-2.533,1.767-1.676,3.383-3.532,5.1-5.262.858-.865,1.693-1.752,2.56-2.61a12.875,12.875,0,0,1,2.268-2.151c.516-.292.763-.163,1.293-.033.337.083.713.238.954-.121.458-.681-.712-1.354-.306-2.156.608-1.2,1.047.2,1.222.712.209.607.958.813,1.237.113.25-.627-.625-1.846-.992-2.362" transform="translate(0.028 -1019.072)" fill="#fff"/>
        <path id="Trazado_878814" data-name="Trazado 878814" d="M1211.236,1227.537c.032-.514.528-.9.747-1.338.2-.409.237-.881.442-1.286a8.84,8.84,0,0,1,2.26-2.353c.88-.726,1.77-1.346,2.7-2,.775-.547,1.142-1.414,1.811-2.062.639-.619,1.2-1.324,1.838-1.931a20.239,20.239,0,0,0,1.717-1.532c.649-.764,1.491-1.38,2.09-2.176a19.2,19.2,0,0,1,1.776-2.3,16.85,16.85,0,0,1,2.314-2.149c.424-.284,1.414-.8.965-1.47-.812-1.21-3.807,2.679-4.312,3.261a60.4,60.4,0,0,1-4.421,4.656c-1.484,1.383-2.72,3.025-4.169,4.446-1.337,1.312-2.991,2.255-4.329,3.572a6.9,6.9,0,0,0-1.7,2.512c-.238.56-1.132,1.5-1.123,2.155Z" transform="translate(-1178.039 -1174.985)" fill="#fff"/>
        <path id="Trazado_878815" data-name="Trazado 878815" d="M17.292,0h-4.3a4.544,4.544,0,0,1-1.866,1.491A4.09,4.09,0,0,0,9.348,2.531c-.465.542-.618,1.253-1.211,1.695-.692.515-1.615.556-2.353,1A4.9,4.9,0,0,0,4.172,7.18,13.644,13.644,0,0,1,2.63,8.792c-.512.6-.772,1.33-1.335,1.9A13.322,13.322,0,0,1,0,12v1.812c.537.319.926.714,1.457,1.1.47.343,1.118.426,1.3-.266.379-1.419-2.029-.818-1.9-1.936.063-.539.958-.786,1.3-1.131A17.444,17.444,0,0,0,3.428,9.81C3.877,9.222,4.446,8.747,4.9,8.175A17.834,17.834,0,0,1,5.96,6.6c.9-.91,2.314-.662,3.2-1.541a10.3,10.3,0,0,0,.9-1.511,2.578,2.578,0,0,1,1.427-.894c1.236-.482,2-1.629,3.205-2.155.677-.3,1.042-.048,1.7.024.442.048.973.083.9-.519" transform="translate(0.028 0.028)" fill="#fff"/>
        <path id="Trazado_878816" data-name="Trazado 878816" d="M947.107,1335.834c.032-.378-.115-.909-.1-1.274a3.013,3.013,0,0,1,.352-1.513,5.769,5.769,0,0,1,2-2.055c.747-.411,1.5-.435,2.142-1.072a13.51,13.51,0,0,0,1.655-1.974c.432-.658.481-1.415,1.011-2.034.5-.58,1.113-1.067,1.629-1.634,1.057-1.16,2.4-2.854,3.937-3.329.841-.26,1.137-.457,1.389-1.325.132-.455.542-1.682-.3-1.7-.676-.016-.808,1.1-1.106,1.511-.407.563-1.161.771-1.7,1.2a56.255,56.255,0,0,0-4.225,4.17c-1.174,1.176-1.8,2.738-2.934,3.946a8.511,8.511,0,0,1-1.957,1.276,9.4,9.4,0,0,0-1.7,1.494,4.605,4.605,0,0,0-1.386,2.085,8.945,8.945,0,0,0,.221,2.229Z" transform="translate(-920.9 -1283.282)" fill="#fff"/>
        <path id="Trazado_878817" data-name="Trazado 878817" d="M337.992,1401.923c.16-.55.961-1.173,1.308-1.52.574-.574,1.014-1.236,1.622-1.786.648-.587,1.094-1.354,1.758-1.91a16.726,16.726,0,0,0,2-1.85c.51-.581.978-1.238,1.522-1.787.506-.51,1.2-.767,1.651-1.331a9.116,9.116,0,0,1,1.329-1.594,13.7,13.7,0,0,0,1.557-1.551c.512-.567,1.336-.888,1.755-1.527.314-.478.308-1.306-.478-1.274-.606.025-.95.811-1.306,1.186-.479.5-.968,1-1.447,1.51-.54.576-1.218.991-1.732,1.605a8.729,8.729,0,0,1-1.458,1.545,10.985,10.985,0,0,0-1.625,1.805c-.524.6-1.152,1.158-1.728,1.714-1.326,1.279-2.613,2.587-3.866,3.94-.261.281-2.142,2.3-2.745,2.825Z" transform="translate(-327.259 -1349.371)" fill="#fff"/>
        <path id="Trazado_878818" data-name="Trazado 878818" d="M16.029,1249.871c-.1-1.057-1.146-.235-1.508.188-.574.67-1.164,1.3-1.792,1.919-1.49,1.474-2.936,2.984-4.4,4.481q-2.232,2.279-4.5,4.531-1.061,1.059-2.131,2.109a18.612,18.612,0,0,1-1.7,1.815v1.6c.924-.78,3.08-3.19,3.444-3.55,1.51-1.492,2.975-3.024,4.464-4.535,1.456-1.478,2.933-2.932,4.379-4.42.67-.69,1.359-1.362,2.046-2.035.469-.459,1.767-1.343,1.7-2.107" transform="translate(0.028 -1216.515)" fill="#fff"/>
        <path id="Trazado_878819" data-name="Trazado 878819" d="M12.89,219.957c-.179-.261-.7-.31-.948-.477a2.584,2.584,0,0,1-.689-.836c-.245-.382-1.284-1.732-1.605-.572-.22.8,1.052,1.2,1.034,1.976-.019.831-1.271,1.3-1.858,1.651a7.6,7.6,0,0,0-1.836,1.771,18.987,18.987,0,0,1-1.609,2.078,10.368,10.368,0,0,0-1.842,1.8c-.451.639-1.057,2.034-1.982,1.44-.526-.338-.837-1.689-1.553-1.751v1.8A5.887,5.887,0,0,0,1.7,230.3c.942.376,1.443-.432,1.942-1.1a11.382,11.382,0,0,1,1.877-2.189,7.644,7.644,0,0,0,1.9-1.994A8.713,8.713,0,0,1,9.3,222.905a12.425,12.425,0,0,1,2.322-1.784c.489-.218,1.9-.246,1.27-1.165" transform="translate(0.028 -211.868)" fill="#fff"/>
        <path id="Trazado_878820" data-name="Trazado 878820" d="M1467.258,0a20.514,20.514,0,0,1-3.538,3.391c-1.021.845-1.24,2.1-2.178,3-.513.492-1.194.727-1.727,1.192s-.765,1.109-1.252,1.607c-.366.375-1.21.639-1.221,1.243-.01.559.776.985,1.261.994.785.014.917-.538,1.066-1.18a3.013,3.013,0,0,1,1-1.855c1.1-.92,2.1-1.153,2.723-2.559a7.4,7.4,0,0,1,2.531-2.878,10.246,10.246,0,0,0,1.645-1.478A11.8,11.8,0,0,0,1468.929,0Z" transform="translate(-1419.042 0.028)" fill="#fff"/>
        <path id="Trazado_878821" data-name="Trazado 878821" d="M209.345,1599.966a4.762,4.762,0,0,1,1.12-1.012,19.868,19.868,0,0,0,1.553-1.475c.96-1.011,1.9-2.036,2.886-3.024,1.07-1.073,2.129-2.173,3.239-3.206.363-.337.867-.63,1.06-1.106s.108-1.014-.494-.964c-.586.049-.894.772-1.229,1.153-.413.469-.948.794-1.372,1.253-.832.9-1.686,1.747-2.558,2.614l-3.36,3.339c-.381.379-2.209,1.711-2.282,2.427Z" transform="translate(-202.419 -1547.414)" fill="#fff"/>
        <path id="Trazado_878822" data-name="Trazado 878822" d="M1737.629,1384.474c-.517.09-1.641,1.39-1.92,1.666-.683.678-1.142,1.259-2.154,1.222-1.066-.038-1.421-.111-2.231.717-.713.728-1.059,1.308-.478,2.25.95,1.542,2.831.592,3.459-.784a5.328,5.328,0,0,1,1.467-1.939,9.459,9.459,0,0,1,1.858-1.7Zm-5.827,4.9c0-.792,1.573-1.612,1.649-.49.055.822-1.656,1.623-1.649.49" transform="translate(-1685.077 -1348.087)" fill="#fff"/>
        <path id="Trazado_878823" data-name="Trazado 878823" d="M1715.89,1632.736a1.4,1.4,0,0,0,.564.339h.32a.67.67,0,0,0,.344-.256c.354-.467-.078-.772-.238-1.232a2.176,2.176,0,0,1,1.148-2.391c1.793-1.289,3.106-3.152,4.841-4.494v-1.523c-.718.388-4.055,3.989-4.556,4.379-1.01.786-1.691.962-2.218,2.194-.436,1.018-1.216,2.061-.205,2.984" transform="translate(-1670.318 -1580.523)" fill="#fff"/>
        <path id="Trazado_878824" data-name="Trazado 878824" d="M938.1,0c-.126.119-.394.236-.489.378a2.4,2.4,0,0,0-.2.785,3,3,0,0,1-.641,1.286,3.347,3.347,0,0,1-1.408.831,5.845,5.845,0,0,0-1.442,1.011c-.758.609-1.731.786-1.875,1.845a5.471,5.471,0,0,1-.358,1.612c-.156.385-.389.869.081,1.149,1.211.723,1.247-1.443,1.364-2,.237-1.123,1.359-1.576,2.259-2.088a7.135,7.135,0,0,0,2.526-2.187,6.332,6.332,0,0,0,.992-1.705c.121-.535-.088-.625-.355-.924Z" transform="translate(-907.002 0.028)" fill="#fff"/>
        <path id="Trazado_878825" data-name="Trazado 878825" d="M1324.387,1683.225a32.176,32.176,0,0,1,2.386-2.174,6.6,6.6,0,0,0,2.134-2.42,2.32,2.32,0,0,0-.019-1.256,2.016,2.016,0,0,1,.258-1.572c.364-.864-.3-1.578-1.034-.764a2.838,2.838,0,0,0-.644,1.358c-.059.561.359,1.022.322,1.574-.066.97-1.184,1.741-1.874,2.305-.859.7-1.581,1.585-2.45,2.265a1.982,1.982,0,0,1-1.185.484c-.415.027-.962-.235-1.219.2Z" transform="translate(-1286.34 -1630.673)" fill="#fff"/>
        <path id="Trazado_878826" data-name="Trazado 878826" d="M1712.254,336.906a11.831,11.831,0,0,0-1.983,1.9,7.822,7.822,0,0,1-1.835,2.166c-.37.253-.8.418-1.147.7a10.233,10.233,0,0,0-.923,1.084c-.419.45-1.609.586-1.805,1.094-.39,1.012,1.056,1.149,1.613.756.745-.525,1.23-1.458,1.938-2.053a23.379,23.379,0,0,0,2.29-1.9,20.544,20.544,0,0,1,1.853-2.136Z" transform="translate(-1659.703 -328.03)" fill="#fff"/>
        <path id="Trazado_878827" data-name="Trazado 878827" d="M760.432,0a6.968,6.968,0,0,1-.551,1.275,4.614,4.614,0,0,1-.559,1.182c-.6.778-1.38.676-2.21.975a13.27,13.27,0,0,0-2.453,1.714c-.343.226-.917.486-.914.976,0,.533.5.671.932.552.892-.243,1.457-1.356,2.306-1.759a16.221,16.221,0,0,0,2.491-1.1,3.146,3.146,0,0,0,1.518-2.027A3.793,3.793,0,0,1,761.234.64c.07-.13.46-.446.511-.64Z" transform="translate(-733.922 0.028)" fill="#fff"/>
        <path id="Trazado_878828" data-name="Trazado 878828" d="M1229.856,0c-.516.726-1.258,1.256-1.758,2-.461.685-.739,1.458-1.262,2.106s-1.4,1.156-1.784,1.879c-.344.641,0,1.187.758.88.6-.243,1.02-1.07,1.463-1.527a5.642,5.642,0,0,0,1.424-1.879,4.62,4.62,0,0,1,1.185-1.909c.393-.37,1.275-.978,1.4-1.549Z" transform="translate(-1192.722 0.028)" fill="#fff"/>
        <path id="Trazado_878829" data-name="Trazado 878829" d="M523.517,1829.787h2.034a6.208,6.208,0,0,0,.658-.556,1.565,1.565,0,0,0,.143-1.065c-.078-.473-.346-.9-.427-1.382a6.211,6.211,0,0,0-.1-1.05c-.276-.773-1.113-.677-1.432.051-.376.859.547,1.365.739,2.122.145.573-.136,1.463-.88.99-.52-.33-.3-1.275-.933-1.518s-1.068.5-.883,1.039c.207.607,1.061.686,1.078,1.368" transform="translate(-508.648 -1777.235)" fill="#fff"/>
        <path id="Trazado_878830" data-name="Trazado 878830" d="M1816.987,1860.161c.922.626-.167.923-.29,1.238h1.625a4.656,4.656,0,0,1,1.314-1.25c.315-.232.729-.822,1.1-1.013v-1.475c-.457.259-1.9,1.837-2.363,1.868-.817.054-1.213-1.281-2.078-.878a.719.719,0,0,0-.28,1.031c.247.371.638.253.971.48" transform="translate(-1768.185 -1808.847)" fill="#fff"/>
        <path id="Trazado_878831" data-name="Trazado 878831" d="M41.3,0a2.724,2.724,0,0,1-2.814,1.4c-.438-.107-.893-.425-1.329-.114a.7.7,0,0,0-.006,1.15c.789.643,2.623.245,3.375-.244C40.791,2.022,42.8.456,42.909,0Z" transform="translate(-35.861 0.028)" fill="#fff"/>
        <path id="Trazado_878832" data-name="Trazado 878832" d="M199.853,0a13.563,13.563,0,0,1-1.333,1.244,7.694,7.694,0,0,1-1.267,1.2c-.3.206-.92.4-1,.816-.094.463.267.734.709.7,1.212-.09,2.01-1.587,2.738-2.351.216-.227,2.011-1.3,2.454-1.608Z" transform="translate(-191.054 0.028)" fill="#fff"/>
        <path id="Trazado_878833" data-name="Trazado 878833" d="M1888.741,856.285c-.493.082-1.3,2.231-1.37,2.457a7,7,0,0,1-.486,1.524c-.266.469-.795.757-1.037,1.225s-.091.887.493.772c.445-.088.874-.747,1.131-1.073a6.612,6.612,0,0,0,.826-1.316c.189-.409.248-.914.443-1.323Z" transform="translate(-1836.189 -833.769)" fill="#fff"/>
        <path id="Trazado_878834" data-name="Trazado 878834" d="M4.45,142.227c-.3-.521-1.145-.388-1.625-.418a4.707,4.707,0,0,0-1.777.035c-.375.123-.69.359-1.049.51v1.955c.593-.1.761-1.1,1.342-1.362.978-.448,1.812.472,2.692.22a.63.63,0,0,0,.416-.94" transform="translate(0.029 -137.989)" fill="#fff"/>
        <path id="Trazado_878835" data-name="Trazado 878835" d="M1836.634,1298.71c-.95-.6-1.861.716-2.516,1.359-.405.4-2.155,1.612-1.856,2.251.474,1.011,1.734-.657,2.057-.983a10.03,10.03,0,0,1,1.275-1.141,4.34,4.34,0,0,0,1.04-.8Z" transform="translate(-1784.082 -1264.428)" fill="#fff"/>
        <path id="Trazado_878836" data-name="Trazado 878836" d="M1037.722,1850.7a3.127,3.127,0,0,1,.389-2.286c.236-.324,1.494-1.46.483-1.723-.675-.175-1.352.98-1.631,1.451a4.617,4.617,0,0,0-.458,2.557Z" transform="translate(-1009.256 -1798.148)" fill="#fff"/>
        <path id="Trazado_878837" data-name="Trazado 878837" d="M1886.409,1745.433c-.58.43-3.04,2.473-3.062,2.878-.055,1.042,1.141.4,1.471.068.51-.515,1.037-.986,1.591-1.463Z" transform="translate(-1833.857 -1699.567)" fill="#fff"/>
        <path id="Trazado_878838" data-name="Trazado 878838" d="M1900.813,1496.494a7.945,7.945,0,0,0-1.417,1.3c-.381.381-1.225,1.192-1.255,1.787-.05.974.826.532,1.21.106.468-.52.823-1.277,1.463-1.62Z" transform="translate(-1848.262 -1457.165)" fill="#fff"/>
        <path id="Trazado_878839" data-name="Trazado 878839" d="M1.3,1118.014a1.54,1.54,0,0,0-1.3.414v1.752c.3-.351.693-.789.914-.841.508-.118,1.571.417,1.768-.377.172-.689-.939-.88-1.384-.949" transform="translate(0.028 -1088.603)" fill="#fff"/>
        <path id="Trazado_878840" data-name="Trazado 878840" d="M0,1399.745v1.913c.287-.3.631-.736.75-.826.437-.331,1.454-.563,1.651-1.125.444-1.268-1.5-.49-2.4.037" transform="translate(0.028 -1362.252)" fill="#fff"/>
        <path id="Trazado_878841" data-name="Trazado 878841" d="M811.685,0h-.922c-.483.673.163.936.7,1.321.515.368,1.143,1.046,1.857.743,1.617-.686-.9-1.648-1.637-2.064" transform="translate(-789.278 0.028)" fill="#fff"/>
        <path id="Trazado_878842" data-name="Trazado 878842" d="M.771,953.327a3.327,3.327,0,0,0-.771.93v2.019a10.035,10.035,0,0,0,.789-1.071c.333-.378,1.114-.727,1.195-1.25.119-.773-.683-.98-1.213-.628" transform="translate(0.028 -928.101)" fill="#fff"/>
        <path id="Trazado_878843" data-name="Trazado 878843" d="M1952.4,122.216c-1.269-.537-2.1,3.523,0,2.707Z" transform="translate(-1899.848 -118.931)" fill="#fff"/>
        <path id="Trazado_878844" data-name="Trazado 878844" d="M1.464,285.625c-.127-.663-.735-.641-1.147-.263A1.735,1.735,0,0,0,0,285.9v2.051a5.607,5.607,0,0,0,1.464-2.323" transform="translate(0.028 -277.583)" fill="#fff"/>
        <path id="Trazado_878845" data-name="Trazado 878845" d="M683.924,0c-.366.544-1.533,2.242-.249,2.265.641.012,1.511-1.629,1.67-2.265Z" transform="translate(-665.12 0.028)" fill="#fff"/>
        <path id="Trazado_878846" data-name="Trazado 878846" d="M1483.391,0c-.326.434-1.862,1.387-.683,1.718.54.151,1.992-1.123,2.109-1.718Z" transform="translate(-1443.315 0.028)" fill="#fff"/>
        <path id="Trazado_878847" data-name="Trazado 878847" d="M0,709.362v1.678l.553-.14c.332-.082.719-.059.71-.539-.005-.29-.764-.791-1.264-1" transform="translate(0.028 -690.705)" fill="#fff"/>
        <path id="Trazado_878848" data-name="Trazado 878848" d="M1515.807,1957.81c.123-.443.357-1.068-.395-1.137a2.477,2.477,0,0,0-1.439,1.137Z" transform="translate(-1474.185 -1905.258)" fill="#fff"/>
        <path id="Trazado_878849" data-name="Trazado 878849" d="M863.578,1949.276c.006-.529.019-1.425-.715-1.365-.673.055-.661.853-.54,1.365Z" transform="translate(-839.587 -1896.724)" fill="#fff"/>
        <path id="Trazado_878850" data-name="Trazado 878850" d="M1965.827,0h-.922a5.325,5.325,0,0,0,.922,1.59Z" transform="translate(-1913.275 0.028)" fill="#fff"/>
        <path id="Trazado_878851" data-name="Trazado 878851" d="M0,0V.921A6.489,6.489,0,0,0,.963,0Z" transform="translate(0.028 0.028)" fill="#fff"/>
        <path id="Trazado_878852" data-name="Trazado 878852" d="M1634.9,1982.038c-.051-.4-1.187-.857-1.458,0Z" transform="translate(-1590.514 -1929.486)" fill="#fff"/>
        <path id="Trazado_878853" data-name="Trazado 878853" d="M1623.088,0c.058.758.939.612,1.191,0Z" transform="translate(-1580.435 0.028)" fill="#fff"/>
        <path id="Trazado_878854" data-name="Trazado 878854" d="M460.411,1983.9c-.173-.556-1.267-.6-1.29,0Z" transform="translate(-447.036 -1931.352)" fill="#fff"/>
        <path id="Trazado_878855" data-name="Trazado 878855" d="M0,100.72v.3a1.059,1.059,0,0,0,0-.3" transform="translate(0.028 -98.047)" fill="#fff"/>
        <path id="Trazado_878856" data-name="Trazado 878856" d="M97.4,0c.132.356.41.406.892.261.141-.042.279-.1.3-.261Z" transform="translate(-94.812 0.028)" fill="#fff"/>
        <path id="Trazado_878857" data-name="Trazado 878857" d="M1975.5,1979.837v-.544a1.773,1.773,0,0,0-.661.544Z" transform="translate(-1922.953 -1927.285)" fill="#fff"/>
        <path id="Trazado_878858" data-name="Trazado 878858" d="M1995.618,1160.114c-.111.049-.1.2-.112.291-.015.117-.009.261.112.318Z" transform="translate(-1943.066 -1129.619)" fill="#fff"/>
        <path id="Trazado_878859" data-name="Trazado 878859" d="M678.1,539.379c.486-.113.986.615.949,1.045-.05.6-.738.857-1.155,1.164a13.381,13.381,0,0,0-1.252,1.148c-.572.544-1.216.918-1.825,1.408a14.3,14.3,0,0,0-1.8,2.324c-.8.99-1.592,1.932-2.437,2.884-3.315,3.731-7.552,6.638-10.687,10.521-1.58,1.957-3.693,3.485-5.312,5.422a5.141,5.141,0,0,1-1,1.154c-.536.34-1.114.215-1.039-.485.062-.577.774-1.1,1.157-1.48.628-.618,1.258-1.233,1.882-1.855,4.058-4.047,7.876-8.342,12.114-12.213a35.181,35.181,0,0,0,2.727-2.618c.524-.59,1.054-1.172,1.562-1.776a12.272,12.272,0,0,0,1.008-1.744,9.052,9.052,0,0,1,2.857-2.469,3.061,3.061,0,0,0,1.332-1.317c.2-.456.235-1.179.92-1.114" transform="translate(-635.37 -525.174)" fill="#fff"/>
        <path id="Trazado_878860" data-name="Trazado 878860" d="M682.466,1683.167a3.6,3.6,0,0,0-.45-1.675,1.01,1.01,0,0,1,.109-1.194c.392-.608,1.315-2.012,2-2.294.926-.382,1.61.981,2.071,1.574a1.6,1.6,0,0,1-.757,2.561c-1.566.429-.266-1.389-.24-1.8a.706.706,0,0,0-.765-.816c-.5.05-.841.651-.979,1.068-.37,1.119.7,2,.308,3.078-.117.322-.463.836-.9.711-.5-.145-.4-.845-.4-1.218" transform="translate(-663.935 -1633.844)" fill="#fff"/>
        <path id="Trazado_878861" data-name="Trazado 878861" d="M513.908,699.915c.028.616-1.256,1.338-1.653,1.727-.781.764-1.555,1.532-2.346,2.286-.755.719-1.482,1.46-2.3,2.114-.5.4-1.758.8-1.364-.362.2-.586,1.251-1.1,1.666-1.6a18.874,18.874,0,0,1,1.857-1.671c.783-.734,1.515-1.523,2.271-2.282.326-.327,1.845-1.391,1.867-.208" transform="translate(-492.852 -680.976)" fill="#fff"/>
        <path id="Trazado_878862" data-name="Trazado 878862" d="M1171.453,552.807a5.177,5.177,0,0,1,1.339.257,3.362,3.362,0,0,0,1.265-.125c.715-.14,2.159.141,2.51-.7.188-.448-.191-1.844.836-1.539.868.257.71,1.584.369,2.142a2.308,2.308,0,0,1-2.145,1.108c-.821-.007-1.607.292-2.416.245a8.452,8.452,0,0,0-1.469-.141c-.346.038-.866.352-1.2.107-.781-.57.247-1.43.912-1.358" transform="translate(-1139.499 -536.171)" fill="#fff"/>
        <path id="Trazado_878863" data-name="Trazado 878863" d="M1188.356,913.792c-.106-.609,1.267-1.36,1.661-1.735.638-.607,1.288-1.2,1.917-1.817.412-.4,2.832-3.548,3.243-1.859.187.766-1.018,1.288-1.457,1.738-.6.616-1.217,1.188-1.832,1.8-.653.647-1.292,1.3-1.927,1.967-.427.445-1.592,1.058-1.605-.091" transform="translate(-1157.114 -884.016)" fill="#fff"/>
        <path id="Trazado_878864" data-name="Trazado 878864" d="M1503.158,345.458c-.313.747-.095,1.423-.72,2.1-.5.541-1.325.669-1.788,1.211-.41.48-.235,1.223-.639,1.684-.682.778-1.144-.1-1.083-.8a3.007,3.007,0,0,1,1.041-1.913c.5-.447,1.461-.682,1.729-1.322.275-.655-.426-1.367.176-1.928.729-.679,1.287.3,1.285.973" transform="translate(-1459.53 -335.186)" fill="#fff"/>
        <path id="Trazado_878865" data-name="Trazado 878865" d="M1737.63,47.988c-.12-1.128,2.552-2.145,3.258-2.569.61-.366.594-.892.895-1.458.329-.618,1.21-.962,1.421-.042.115.5-.556,1.612-.838,2.006-.379.53-.781.565-1.369.73a4.158,4.158,0,0,0-1.76,1.127c-.289.273-1.622,1.405-1.607.206" transform="translate(-1691.965 -42.188)" fill="#fff"/>
        <path id="Trazado_878866" data-name="Trazado 878866" d="M1702.237,329.59a4.248,4.248,0,0,1-2.39-1.015c-.451-.61.068-1.18.756-1.08s1.06.966,1.8.882c.89-.1.641-.825.146-1.2-.379-.292-1.183-.723-.454-1.212.609-.408,1.482.286,1.86.735.931,1.1-.367,2.946-1.721,2.895" transform="translate(-1655.013 -317.252)" fill="#fff"/>
        <path id="Trazado_878867" data-name="Trazado 878867" d="M1516.591,650.343c.052.641-.793.953-1.2,1.312-.439.39-.8.853-1.231,1.249-.481.44-2.232,2.445-2.6.645-.118-.579.4-.837.816-1.061a4.81,4.81,0,0,0,1.35-1,10,10,0,0,1,1.527-1.643c.472-.316,1.4-.3,1.334.494" transform="translate(-1471.823 -632.567)" fill="#fff"/>
        <path id="Trazado_878868" data-name="Trazado 878868" d="M1246.244,523.922c-1.076,0-.694-.971-.1-1.315.429-.247,1.685-.932,2.2-.742a.835.835,0,0,1,.219,1.48c-.3.208-.665.128-1,.194a11.74,11.74,0,0,1-1.319.383" transform="translate(-1212.825 -508.099)" fill="#fff"/>
        <path id="Trazado_878869" data-name="Trazado 878869" d="M1800.88,209.766c.242.738-2.83,2.66-2.983,1.212-.073-.689,3-2.608,2.983-1.212" transform="translate(-1750.652 -203.746)" fill="#fff"/>
        <path id="Trazado_878870" data-name="Trazado 878870" d="M1370.672,441.833c-.517.012-1.641-.11-1.913-.635-.29-.561.258-1.087.789-1.164,1.1-.159,2.9,1.471,1.124,1.8" transform="translate(-1332.706 -428.439)" fill="#fff"/>
        <path id="Trazado_878871" data-name="Trazado 878871" d="M1893.2,264.277c.066.7-2.325,2.613-2.5,1.227-.109-.871,2.487-2.521,2.5-1.227" transform="translate(-1841.018 -256.843)" fill="#fff"/>
        <path id="Trazado_878872" data-name="Trazado 878872" d="M974.116,1294.823c-.123.97-2.253,2.258-2.16.745.056-.911,2.179-2.135,2.16-.745" transform="translate(-946.4 -1260.18)" fill="#fff"/>
        <path id="Trazado_878873" data-name="Trazado 878873" d="M1668.249,480.107c-1.054-.1-2.071-1.732-.51-1.705,1.2.021,2.157,1.522.51,1.705" transform="translate(-1623.132 -465.81)" fill="#fff"/>
        <path id="Trazado_878874" data-name="Trazado 878874" d="M1681.334,273.329c-1.415,0-.606-1.868.35-2.015,1.377-.212.74,2.2-.35,2.015" transform="translate(-1636.408 -264.148)" fill="#fff"/>
        <path id="Trazado_878875" data-name="Trazado 878875" d="M1452.08,833.512c-1.005,0-1.377-1.67-.258-1.723.993-.047,1.352,1.561.258,1.723" transform="translate(-1413 -809.916)" fill="#fff"/>
        <path id="Trazado_878876" data-name="Trazado 878876" d="M1123.976,1167.267c0,1.192-1.86.583-1.641-.388s1.819-.462,1.641.388" transform="translate(-1092.815 -1135.693)" fill="#fff"/>
        <path id="Trazado_878877" data-name="Trazado 878877" d="M1062.653,1231.769c.188.974-1.677.842-1.54-.255.131-1.044,1.8-.519,1.54.255" transform="translate(-1033.211 -1198.574)" fill="#fff"/>
        <path id="Trazado_878878" data-name="Trazado 878878" d="M1488.384,101.034c.005.78-1.187,1.068-1.355.192-.183-.954,1.348-1.179,1.355-.192" transform="translate(-1447.934 -97.729)" fill="#fff"/>
        <path id="Trazado_878879" data-name="Trazado 878879" d="M1419.443,90.542c-.69-.013-.527-1.062.1-1.053a.53.53,0,1,1-.1,1.053" transform="translate(-1381.701 -87.111)" fill="#fff"/>
        <path id="Trazado_878880" data-name="Trazado 878880" d="M62.19,311.151c-.527-.029-2.627-.415-1.53-1.317.524-.43,2.542.559,2.158-.865-.133-.492-.856-.881-1.132-1.339a1.978,1.978,0,0,1-.337-1.555c.357-1.078,1.859-2.013,2.685-2.71.958-.808,1.535-1.915,2.441-2.771.774-.731,2.131-.835,2.588-1.8.467-.991.474-1.729,1.308-2.543a5.2,5.2,0,0,1,1.4-1.09,19.73,19.73,0,0,0,1.924-.6c.82-.5,1.209-1.819,1.945-2.514.711-.671,1.486-1.961,2.536-2.04.486-.036,2.127.164,2.1.9-.03.719-.829.5-1.244.453a1.439,1.439,0,0,0-1.477.461,9.588,9.588,0,0,0-2.076,2.345,2.436,2.436,0,0,1-2.2,1.82,3.257,3.257,0,0,0-2.639,1.785c-.545,1.172-.523,2.66-1.977,3.071a3.463,3.463,0,0,0-1.469.6,14.739,14.739,0,0,0-1.359,1.876c-.843,1.013-2.2,1.584-2.933,2.672-.881,1.317.779,1.716,1.278,2.674.443.852-1.044,2.626-1.987,2.488" transform="translate(-58.735 -282.352)" fill="#fff"/>
        <path id="Trazado_878881" data-name="Trazado 878881" d="M454.839,531.658a2.223,2.223,0,0,0,2.16-.8c.673-.725.545-1.606,1.044-2.373.526-.809,1.388-.775,2.242-.589.4.086.948.153,1.036.626.1.52-.371.646-.8.643-.921-.006-1.355-.316-1.761.711a5.027,5.027,0,0,1-1.478,2.218,3.069,3.069,0,0,1-2.8.878c-1.029-.327-.624-1.309.354-1.309" transform="translate(-441.935 -513.892)" fill="#fff"/>
        <path id="Trazado_878882" data-name="Trazado 878882" d="M114.692,267.026c-1.046.09-.607-1.056-.229-1.491.555-.639,1.069-1.32,1.632-1.95.718-.8,2.283-3.927,3.758-2.726a.748.748,0,0,1-.264,1.388c-.434.139-.768-.078-1.165.24-.271.217-.329.615-.489.9a20.243,20.243,0,0,1-1.647,1.986c-.288.393-.929,1.828-1.6,1.648" transform="translate(-111.018 -253.716)" fill="#fff"/>
        <path id="Trazado_878883" data-name="Trazado 878883" d="M748.132,350.244c-.506.013-2.668-.425-1.9-1.357.375-.454,1,.037,1.416.092.644.084.809-.224,1.193-.681.722-.86,1.676-.582,1.125.58a1.985,1.985,0,0,1-1.835,1.367" transform="translate(-726.448 -338.634)" fill="#fff"/>
        <path id="Trazado_878884" data-name="Trazado 878884" d="M421.434,148.722c-.737.085-1.611-1.323-2.1-1.761-.392-.354-1.568-1.722-.223-1.8.7-.039,1.388,1.343,1.876,1.731.376.3,1.092.611,1.085,1.189a.611.611,0,0,1-.642.638" transform="translate(-407.468 -141.323)" fill="#fff"/>
        <path id="Trazado_878885" data-name="Trazado 878885" d="M500.346,101.5c.587-.094,1.448,1.14,1.89,1.47.467.349,1.245,1.492.105,1.619-.658.073-1.286-1.073-1.765-1.433-.495-.372-1.528-1.584-.231-1.656" transform="translate(-486.566 -98.804)" fill="#fff"/>
        <path id="Trazado_878886" data-name="Trazado 878886" d="M570.85,52.493a2.892,2.892,0,0,1,1.673,1.119c.392.628.056,1.263-.7.98-.543-.2-2.707-2.1-.973-2.1" transform="translate(-555.187 -51.086)" fill="#fff"/>
        <path id="Trazado_878887" data-name="Trazado 878887" d="M841.879,230.724c-1.325,0-.019-2.083.787-2.011,1.145.1.039,2.011-.787,2.011" transform="translate(-819.19 -222.677)" fill="#fff"/>
        <path id="Trazado_878888" data-name="Trazado 878888" d="M681.766,439.362c-1.124.063-1.723-1.438-.411-1.54,1.013-.079,1.784,1.54.411,1.54" transform="translate(-662.707 -426.293)" fill="#fff"/>
        <path id="Trazado_878889" data-name="Trazado 878889" d="M489.821,565.712c-.223-.739,1.766-2.028,1.843-.779.05.812-1.846,2.044-1.843.779" transform="translate(-476.913 -549.56)" fill="#fff"/>
        <path id="Trazado_878890" data-name="Trazado 878890" d="M1069.128,25.469c.179.746-1.272,1.309-1.3.282-.018-.721,1.292-1.211,1.3-.282" transform="translate(-1039.76 -24.275)" fill="#fff"/>
        <path id="Trazado_878891" data-name="Trazado 878891" d="M1554.631,963.562c-.074-.718,1.632-1.776,2.114-2.25.895-.88,2.006-1.346,2.927-2.178a13.3,13.3,0,0,0,2.1-2.777c.237-.355,1.715-2.189,1.915-.9.074.472-.533.9-.791,1.2a4.319,4.319,0,0,0-.748,1.48,5.568,5.568,0,0,1-2.257,2.618c-.516.274-1.111.316-1.62.631a8.377,8.377,0,0,0-1.421,1.283c-.221.22-2.228,2.285-2.216.888" transform="translate(-1513.774 -929.897)" fill="#fff"/>
        <path id="Trazado_878892" data-name="Trazado 878892" d="M1606.508,1610.616c.143.823-2.22,4.911-3.055,3.345-.379-.712.846-1.344,1.188-1.815.748-1.03.33-1.733.394-2.85.054-.936.809-1.475.191-2.388-.289-.428-.979-1.641.209-1.558.816.057,1.478,1.8,1.328,2.43a9.7,9.7,0,0,0-.419,1.235,10.148,10.148,0,0,0,.163,1.6" transform="translate(-1561.245 -1563.158)" fill="#fff"/>
        <path id="Trazado_878893" data-name="Trazado 878893" d="M1343.684,1778.57c-.05-.931,1.927-2.171,2.552-2.733.284-.255,2.39-2.413,2.347-.817-.022.833-1.874,1.852-2.427,2.391-.219.213-2.491,2.755-2.472,1.159" transform="translate(-1308.368 -1727.809)" fill="#fff"/>
        <path id="Trazado_878894" data-name="Trazado 878894" d="M1576.406,1227.29c.072.721-1.828,2.082-2.333,2.5-.293.245-2.343,2.232-2.079.624.137-.832,1.744-1.591,2.316-2.157.168-.166,2.073-2.336,2.1-.971" transform="translate(-1530.66 -1194.594)" fill="#fff"/>
        <path id="Trazado_878895" data-name="Trazado 878895" d="M1343.223,1479.526c-1.255,0,.258-1.4.518-1.633.661-.582,1.395-1.92,2.245-2.217,1.222-.426.426.975.024,1.386s-.843.837-1.263,1.256c-.317.315-.995,1.282-1.524,1.208" transform="translate(-1307.441 -1436.816)" fill="#fff"/>
        <path id="Trazado_878896" data-name="Trazado 878896" d="M1761.9,1655.013c.13.527-1.436,1.386-1.759,1.774-.343.412-1.164,1.293-1.416.271-.187-.76.8-1.537,1.329-1.894.372-.252,1.854-1.272,1.846-.151" transform="translate(-1712.491 -1611.019)" fill="#fff"/>
        <path id="Trazado_878897" data-name="Trazado 878897" d="M1284.974,1639.463c-.728,0-.489-1.045.1-1.108.843-.091.658,1.11-.1,1.108" transform="translate(-1250.76 -1595.296)" fill="#fff"/>
        <path id="Trazado_878898" data-name="Trazado 878898" d="M63.641,225.17c0,.973-1.666,1.008-1.547.018.1-.8,1.55-.924,1.547-.018" transform="translate(-60.43 -218.614)" fill="#fff"/>
      </g>
    </g>
  </g>
</svg>
