<svg xmlns="http://www.w3.org/2000/svg" width="950.897" height="541.957" viewBox="0 0 950.897 541.957">
  <g id="Grupo_1100054" data-name="Grupo 1100054" transform="translate(-324.222 -7669)">
    <path id="Trazado_880358" data-name="Trazado 880358" d="M849.164,392.623v-45.8H96.077v45.8L-2.829,293.717l99.166-99.166v51.8H423.946V104.217H374.5L472.62,6.095l98.123,98.122H521.294V246.348H848.9v-51.8l99.166,99.166ZM4.242,293.717l86.835,86.835V341.826H854.164v38.725L941,293.717,853.9,206.623v44.725H516.294V99.217h42.378L472.62,13.166,386.568,99.217h42.378V251.348H91.337V206.623Z" transform="translate(327.051 7669)" fill="#70bfc2"/>
    <path id="Trazado_880782" data-name="Trazado 880782" d="M0,0H945.24V541.522H0Z" transform="translate(327.051 7669)" fill="none"/>
    <path id="Trazado_880359" data-name="Trazado 880359" d="M464.1,216.761H598.837v15.261l29.348-29.348L598.707,173.2v13.826h-260.7V173.2l-29.478,29.478,29.348,29.348V216.761H472.62" transform="translate(327.051 7669)" fill="#437375"/>
    <path id="Trazado_880783" data-name="Trazado 880783" d="M15,0H277.7a15,15,0,0,1,15,15V127.957a15,15,0,0,1-15,15H15a15,15,0,0,1-15-15V15A15,15,0,0,1,15,0Z" transform="translate(359.051 7670)" fill="#70bfc2"/>
    <path id="Trazado_880786" data-name="Trazado 880786" d="M15,0H277.7a15,15,0,0,1,15,15V127.957a15,15,0,0,1-15,15H15a15,15,0,0,1-15-15V15A15,15,0,0,1,15,0Z" transform="translate(936.051 7670)" fill="#70bfc2"/>
    <path id="Trazado_880789" data-name="Trazado 880789" d="M15,0H277.7a15,15,0,0,1,15,15V127.957a15,15,0,0,1-15,15H15a15,15,0,0,1-15-15V15A15,15,0,0,1,15,0Z" transform="translate(649.051 8068)" fill="#70bfc2"/>
    <path id="Trazado_880784" data-name="Trazado 880784" d="M0,0H945.24V541.522H0Z" transform="translate(327.051 7669)" fill="none"/>
    <path id="Trazado_880785" data-name="Trazado 880785" d="M29.7,26l-1.254-3.621A4.5,4.5,0,0,0,27.5,20.7a1.722,1.722,0,0,0-1.26-.609h-.2V26H20.982V9.2h6.727a9.327,9.327,0,0,1,5.209,1.154A3.921,3.921,0,0,1,34.6,13.813a4.381,4.381,0,0,1-.979,2.906,5.577,5.577,0,0,1-2.912,1.7v.047a4.069,4.069,0,0,1,1.775,1.066,6.6,6.6,0,0,1,1.271,2.191L35.408,26Zm-.48-11.473a1.76,1.76,0,0,0-.516-1.336,2.276,2.276,0,0,0-1.617-.492H26.045v3.844h.914a2.321,2.321,0,0,0,1.641-.574A1.88,1.88,0,0,0,29.221,14.527ZM41.2,21.418a1.686,1.686,0,0,0,.891,1.213,4.016,4.016,0,0,0,2.016.439,8.3,8.3,0,0,0,3.3-.668v3.164A11.877,11.877,0,0,1,43,26.293a6.952,6.952,0,0,1-4.887-1.605,5.7,5.7,0,0,1-1.746-4.418,7.289,7.289,0,0,1,.768-3.41,5.523,5.523,0,0,1,2.273-2.314,6.717,6.717,0,0,1,3.322-.838,6.537,6.537,0,0,1,3.188.727,4.84,4.84,0,0,1,2.01,2.039,6.542,6.542,0,0,1,.686,3.07v1.875Zm3-2.613q0-2.074-1.488-2.074a1.259,1.259,0,0,0-1.043.568,2.836,2.836,0,0,0-.492,1.506Zm15.891,3.211a3.665,3.665,0,0,1-1.553,3.158,7.3,7.3,0,0,1-4.33,1.119,15.055,15.055,0,0,1-2-.164,12.343,12.343,0,0,1-1.939-.4v-3.5a9.55,9.55,0,0,0,3.7.984q1.465,0,1.465-.762a.6.6,0,0,0-.34-.521,12.012,12.012,0,0,0-1.781-.686,5.03,5.03,0,0,1-2.32-1.336,3.177,3.177,0,0,1-.727-2.168,3.459,3.459,0,0,1,1.482-2.947,6.955,6.955,0,0,1,4.166-1.084,13.242,13.242,0,0,1,3.328.457v3.363A10.065,10.065,0,0,0,57.627,17a6.532,6.532,0,0,0-1.477-.211,1.607,1.607,0,0,0-.785.164.5.5,0,0,0-.293.457.637.637,0,0,0,.316.551,5.6,5.6,0,0,0,1.266.5,5.873,5.873,0,0,1,2.637,1.383A3.03,3.03,0,0,1,60.088,22.016Zm10.289,3.82a4.864,4.864,0,0,1-1.113.311,10.178,10.178,0,0,1-1.863.146,4.476,4.476,0,0,1-3.264-1.148,4.359,4.359,0,0,1-1.178-3.27V17.457H61.072V14h1.887V11.645l4.922-1.359V14h2.5v3.457h-2.5v3.6q0,1.582,1.254,1.582a3.4,3.4,0,0,0,1.242-.258ZM78.592,26V24.172h-.047a3.926,3.926,0,0,1-3.656,2.121,3.5,3.5,0,0,1-2.66-1.008,3.744,3.744,0,0,1-.961-2.7q0-3.539,4.348-4.1l2.977-.387a1.135,1.135,0,0,0-.527-.961,2.4,2.4,0,0,0-1.418-.375,9.34,9.34,0,0,0-4.254,1.148V14.668a11.38,11.38,0,0,1,2.438-.691,14.186,14.186,0,0,1,2.508-.27,6.3,6.3,0,0,1,4.436,1.307q1.377,1.307,1.377,4.365V26Zm-2.953-4.078a1.106,1.106,0,0,0,.311.809,1.184,1.184,0,0,0,.885.316,1.573,1.573,0,0,0,1.271-.586,2.27,2.27,0,0,0,.486-1.5V20.5l-1.687.234Q75.639,20.949,75.639,21.922ZM93.041,26V24.148h-.047A6.568,6.568,0,0,1,91.875,25.4a4.306,4.306,0,0,1-1.125.645,3.978,3.978,0,0,1-1.459.246,3.63,3.63,0,0,1-3-1.277,5.9,5.9,0,0,1-1.031-3.773V14h4.992v6.867q0,1.77,1.324,1.77a1.3,1.3,0,0,0,1.1-.48,2.19,2.19,0,0,0,.369-1.359V14h4.992V26Zm16.406-7.723a4.8,4.8,0,0,0-1.559-.34q-2.473,0-2.473,2.859V26h-4.992V14h4.992v2.109h.047a3.747,3.747,0,0,1,1.3-1.729,3.342,3.342,0,0,1,1.969-.592,1.691,1.691,0,0,1,.715.141Zm8.1,7.723V24.172H117.5a3.926,3.926,0,0,1-3.656,2.121,3.5,3.5,0,0,1-2.66-1.008,3.744,3.744,0,0,1-.961-2.7q0-3.539,4.348-4.1l2.977-.387a1.135,1.135,0,0,0-.527-.961,2.4,2.4,0,0,0-1.418-.375,9.34,9.34,0,0,0-4.254,1.148V14.668a11.38,11.38,0,0,1,2.438-.691,14.186,14.186,0,0,1,2.508-.27,6.3,6.3,0,0,1,4.436,1.307q1.377,1.307,1.377,4.365V26Zm-2.953-4.078a1.106,1.106,0,0,0,.311.809,1.184,1.184,0,0,0,.885.316,1.573,1.573,0,0,0,1.271-.586,2.27,2.27,0,0,0,.486-1.5V20.5l-1.687.234Q114.592,20.949,114.592,21.922Zm19.652,3.738a4.706,4.706,0,0,1-1.512.457,14.292,14.292,0,0,1-2.379.176,7.317,7.317,0,0,1-3.393-.768,5.6,5.6,0,0,1-2.314-2.15,5.971,5.971,0,0,1-.82-3.105,6.8,6.8,0,0,1,.873-3.533,5.691,5.691,0,0,1,2.49-2.25,8.543,8.543,0,0,1,3.75-.779,13.119,13.119,0,0,1,2.1.152,3.214,3.214,0,0,1,1.2.352V18.1a3.467,3.467,0,0,0-1.078-.516,4.331,4.331,0,0,0-1.3-.223,3.167,3.167,0,0,0-2.221.7,2.537,2.537,0,0,0-.756,1.963,2.49,2.49,0,0,0,.744,1.928,2.9,2.9,0,0,0,2.045.686,5.093,5.093,0,0,0,2.566-.668Zm7.277-14.895a2.144,2.144,0,0,1-.768,1.711,3,3,0,0,1-2.021.656,2.929,2.929,0,0,1-2-.68,2.15,2.15,0,0,1-.779-1.687,2.081,2.081,0,0,1,.756-1.67,3.518,3.518,0,0,1,4.043,0A2.068,2.068,0,0,1,141.521,10.766ZM136.236,26V14h4.992V26Zm20.742-6.211a6.249,6.249,0,0,1-1.834,4.77,8.473,8.473,0,0,1-10.219.041,6.061,6.061,0,0,1-1.822-4.67,6.256,6.256,0,0,1,.855-3.316,5.563,5.563,0,0,1,2.438-2.156,8.415,8.415,0,0,1,3.645-.75,8.151,8.151,0,0,1,3.7.785,5.715,5.715,0,0,1,2.4,2.18A5.935,5.935,0,0,1,156.979,19.789Zm-5.062.023q0-2.449-1.875-2.449t-1.875,2.566q0,2.707,1.9,2.707Q151.916,22.637,151.916,19.813ZM150.662,12.1h-3.527l3.5-3.762h4.2ZM166.623,26V19.449a2.912,2.912,0,0,0-.334-1.6,1.22,1.22,0,0,0-1.084-.486,1.173,1.173,0,0,0-1.008.5,2.15,2.15,0,0,0-.363,1.289V26h-4.992V14h4.992v1.875h.047a4.237,4.237,0,0,1,1.605-1.6,4.386,4.386,0,0,1,2.191-.568q3.938,0,3.938,4.969V26Z" transform="translate(409.051 7722)" fill="#12263f"/>
    <path id="Trazado_880787" data-name="Trazado 880787" d="M38.932,18.324q0,4.043-1.846,6.006T31.4,26.293a7.142,7.142,0,0,1-5.443-1.963Q24.1,22.367,24.1,18.418V9.2h5.086v9.41a4.351,4.351,0,0,0,.6,2.49,1.975,1.975,0,0,0,1.729.873,2,2,0,0,0,1.729-.82,4.131,4.131,0,0,0,.592-2.426V9.2h5.1Zm12.41,3.691a3.665,3.665,0,0,1-1.553,3.158,7.3,7.3,0,0,1-4.33,1.119,15.055,15.055,0,0,1-2-.164,12.343,12.343,0,0,1-1.939-.4v-3.5a9.55,9.55,0,0,0,3.7.984q1.465,0,1.465-.762a.6.6,0,0,0-.34-.521,12.012,12.012,0,0,0-1.781-.686,5.03,5.03,0,0,1-2.32-1.336,3.177,3.177,0,0,1-.727-2.168A3.459,3.459,0,0,1,43,14.791a6.955,6.955,0,0,1,4.166-1.084,13.242,13.242,0,0,1,3.328.457v3.363A10.065,10.065,0,0,0,48.881,17a6.532,6.532,0,0,0-1.477-.211,1.607,1.607,0,0,0-.785.164.5.5,0,0,0-.293.457.637.637,0,0,0,.316.551,5.6,5.6,0,0,0,1.266.5,5.873,5.873,0,0,1,2.637,1.383A3.03,3.03,0,0,1,51.342,22.016Zm15.188-2.227a6.249,6.249,0,0,1-1.834,4.77,7.167,7.167,0,0,1-5.127,1.734A7.2,7.2,0,0,1,54.477,24.6a6.061,6.061,0,0,1-1.822-4.67,6.256,6.256,0,0,1,.855-3.316,5.563,5.563,0,0,1,2.438-2.156,8.415,8.415,0,0,1,3.645-.75,8.151,8.151,0,0,1,3.7.785,5.715,5.715,0,0,1,2.4,2.18A5.935,5.935,0,0,1,66.529,19.789Zm-5.062.023q0-2.449-1.875-2.449T57.717,19.93q0,2.707,1.9,2.707Q61.467,22.637,61.467,19.813Zm23.344,2.2a3.665,3.665,0,0,1-1.553,3.158,7.3,7.3,0,0,1-4.33,1.119,15.055,15.055,0,0,1-2-.164,12.343,12.343,0,0,1-1.939-.4v-3.5a9.55,9.55,0,0,0,3.7.984q1.465,0,1.465-.762a.6.6,0,0,0-.34-.521,12.012,12.012,0,0,0-1.781-.686,5.03,5.03,0,0,1-2.32-1.336,3.177,3.177,0,0,1-.727-2.168,3.459,3.459,0,0,1,1.482-2.947,6.955,6.955,0,0,1,4.166-1.084,13.242,13.242,0,0,1,3.328.457v3.363A10.065,10.065,0,0,0,82.35,17a6.532,6.532,0,0,0-1.477-.211,1.607,1.607,0,0,0-.785.164.5.5,0,0,0-.293.457.637.637,0,0,0,.316.551,5.6,5.6,0,0,0,1.266.5,5.873,5.873,0,0,1,2.637,1.383A3.03,3.03,0,0,1,84.811,22.016ZM100,19.789a6.249,6.249,0,0,1-1.834,4.77,8.473,8.473,0,0,1-10.219.041,6.061,6.061,0,0,1-1.822-4.67,6.256,6.256,0,0,1,.855-3.316,5.563,5.563,0,0,1,2.438-2.156,8.415,8.415,0,0,1,3.645-.75,8.151,8.151,0,0,1,3.7.785,5.715,5.715,0,0,1,2.4,2.18A5.935,5.935,0,0,1,100,19.789Zm-5.062.023q0-2.449-1.875-2.449T91.186,19.93q0,2.707,1.9,2.707Q94.936,22.637,94.936,19.813Zm16.676,2.2a3.665,3.665,0,0,1-1.553,3.158,7.3,7.3,0,0,1-4.33,1.119,15.055,15.055,0,0,1-2-.164,12.343,12.343,0,0,1-1.939-.4v-3.5a9.55,9.55,0,0,0,3.7.984q1.465,0,1.465-.762a.6.6,0,0,0-.34-.521,12.012,12.012,0,0,0-1.781-.686,5.03,5.03,0,0,1-2.32-1.336,3.177,3.177,0,0,1-.727-2.168,3.459,3.459,0,0,1,1.482-2.947,6.955,6.955,0,0,1,4.166-1.084,13.242,13.242,0,0,1,3.328.457v3.363A10.065,10.065,0,0,0,109.15,17a6.532,6.532,0,0,0-1.477-.211,1.607,1.607,0,0,0-.785.164.5.5,0,0,0-.293.457.637.637,0,0,0,.316.551,5.6,5.6,0,0,0,1.266.5,5.873,5.873,0,0,1,2.637,1.383A3.03,3.03,0,0,1,111.611,22.016Zm10.289,3.82a4.864,4.864,0,0,1-1.113.311,10.178,10.178,0,0,1-1.863.146,4.476,4.476,0,0,1-3.264-1.148,4.359,4.359,0,0,1-1.178-3.27V17.457H112.6V14h1.887V11.645l4.922-1.359V14h2.5v3.457h-2.5v3.6q0,1.582,1.254,1.582a3.4,3.4,0,0,0,1.242-.258Zm5.859-4.418a1.686,1.686,0,0,0,.891,1.213,4.016,4.016,0,0,0,2.016.439,8.3,8.3,0,0,0,3.3-.668v3.164a11.877,11.877,0,0,1-4.406.727,6.952,6.952,0,0,1-4.887-1.605,5.7,5.7,0,0,1-1.746-4.418,7.289,7.289,0,0,1,.768-3.41,5.523,5.523,0,0,1,2.273-2.314,6.717,6.717,0,0,1,3.322-.838,6.537,6.537,0,0,1,3.188.727,4.84,4.84,0,0,1,2.01,2.039,6.542,6.542,0,0,1,.686,3.07v1.875Zm3-2.613q0-2.074-1.488-2.074a1.259,1.259,0,0,0-1.043.568,2.836,2.836,0,0,0-.492,1.506ZM144.682,26V19.449a2.912,2.912,0,0,0-.334-1.6,1.22,1.22,0,0,0-1.084-.486,1.173,1.173,0,0,0-1.008.5,2.15,2.15,0,0,0-.363,1.289V26H136.9V14h4.992v1.875h.047a4.237,4.237,0,0,1,1.605-1.6,4.386,4.386,0,0,1,2.191-.568q3.938,0,3.938,4.969V26Zm12.527-15.234a2.144,2.144,0,0,1-.768,1.711,3,3,0,0,1-2.021.656,2.929,2.929,0,0,1-2-.68,2.15,2.15,0,0,1-.779-1.687A2.081,2.081,0,0,1,152.4,9.1a3.518,3.518,0,0,1,4.043,0A2.068,2.068,0,0,1,157.209,10.766ZM151.924,26V14h4.992V26Zm20.93-6.363a8.781,8.781,0,0,1-.65,3.486,5.3,5.3,0,0,1-1.846,2.344,4.648,4.648,0,0,1-2.707.826,4.273,4.273,0,0,1-1.986-.428,3.577,3.577,0,0,1-1.307-1.107h-.047V26h-4.992V8.234h4.992v7.395h.047a4.111,4.111,0,0,1,1.588-1.406,4.756,4.756,0,0,1,2.209-.516,4.209,4.209,0,0,1,3.486,1.512A6.932,6.932,0,0,1,172.854,19.637Zm-5.062.152a2.978,2.978,0,0,0-.463-1.816,1.667,1.667,0,0,0-2.6.029,2.577,2.577,0,0,0-.51,1.658v.727a2.672,2.672,0,0,0,.457,1.641,1.459,1.459,0,0,0,1.23.609,1.577,1.577,0,0,0,1.395-.744A3.8,3.8,0,0,0,167.791,19.789ZM174.729,26V8.234h4.992V26Zm11.7-4.582a1.686,1.686,0,0,0,.891,1.213,4.016,4.016,0,0,0,2.016.439,8.3,8.3,0,0,0,3.3-.668v3.164a11.877,11.877,0,0,1-4.406.727,6.952,6.952,0,0,1-4.887-1.605A5.7,5.7,0,0,1,181.6,20.27a7.289,7.289,0,0,1,.768-3.41,5.523,5.523,0,0,1,2.273-2.314,6.717,6.717,0,0,1,3.322-.838,6.537,6.537,0,0,1,3.188.727,4.84,4.84,0,0,1,2.01,2.039,6.542,6.542,0,0,1,.686,3.07v1.875Zm3-2.613q0-2.074-1.488-2.074a1.259,1.259,0,0,0-1.043.568A2.836,2.836,0,0,0,186.4,18.8Z" transform="translate(974.051 7722)" fill="#12263f"/>
    <path id="Trazado_880790" data-name="Trazado 880790" d="M35.773,14.738A5.465,5.465,0,0,1,34.9,17.8a5.689,5.689,0,0,1-2.49,2.068,9.04,9.04,0,0,1-3.762.732H27.1V26H22.039V9.2H28.93q3.551,0,5.2,1.348A5.107,5.107,0,0,1,35.773,14.738Zm-5.355.176a1.969,1.969,0,0,0-.6-1.559,2.583,2.583,0,0,0-1.758-.527H27.1v4.148h1.137Q30.418,16.977,30.418,14.914Zm15.926,3.363a4.8,4.8,0,0,0-1.559-.34q-2.473,0-2.473,2.859V26H37.32V14h4.992v2.109h.047a3.747,3.747,0,0,1,1.3-1.729,3.342,3.342,0,0,1,1.969-.592,1.691,1.691,0,0,1,.715.141Zm5.742,3.141a1.686,1.686,0,0,0,.891,1.213,4.016,4.016,0,0,0,2.016.439,8.3,8.3,0,0,0,3.3-.668v3.164a11.877,11.877,0,0,1-4.406.727A6.952,6.952,0,0,1,49,24.688a5.7,5.7,0,0,1-1.746-4.418,7.289,7.289,0,0,1,.768-3.41A5.523,5.523,0,0,1,50.3,14.545a6.717,6.717,0,0,1,3.322-.838,6.537,6.537,0,0,1,3.188.727,4.84,4.84,0,0,1,2.01,2.039,6.542,6.542,0,0,1,.686,3.07v1.875Zm3-2.613q0-2.074-1.488-2.074a1.259,1.259,0,0,0-1.043.568,2.836,2.836,0,0,0-.492,1.506Zm15.891,3.211a3.665,3.665,0,0,1-1.553,3.158,7.3,7.3,0,0,1-4.33,1.119,15.055,15.055,0,0,1-2-.164,12.343,12.343,0,0,1-1.939-.4v-3.5a9.55,9.55,0,0,0,3.7.984q1.465,0,1.465-.762a.6.6,0,0,0-.34-.521,12.012,12.012,0,0,0-1.781-.686,5.03,5.03,0,0,1-2.32-1.336,3.177,3.177,0,0,1-.727-2.168,3.459,3.459,0,0,1,1.482-2.947A6.955,6.955,0,0,1,66.8,13.707a13.242,13.242,0,0,1,3.328.457v3.363A10.065,10.065,0,0,0,68.516,17a6.532,6.532,0,0,0-1.477-.211,1.607,1.607,0,0,0-.785.164.5.5,0,0,0-.293.457.637.637,0,0,0,.316.551,5.6,5.6,0,0,0,1.266.5,5.873,5.873,0,0,1,2.637,1.383A3.03,3.03,0,0,1,70.977,22.016Zm6.141-.6a1.686,1.686,0,0,0,.891,1.213,4.016,4.016,0,0,0,2.016.439,8.3,8.3,0,0,0,3.3-.668v3.164a11.877,11.877,0,0,1-4.406.727,6.952,6.952,0,0,1-4.887-1.605,5.7,5.7,0,0,1-1.746-4.418,7.289,7.289,0,0,1,.768-3.41,5.523,5.523,0,0,1,2.273-2.314,6.717,6.717,0,0,1,3.322-.838,6.537,6.537,0,0,1,3.188.727,4.84,4.84,0,0,1,2.01,2.039,6.542,6.542,0,0,1,.686,3.07v1.875Zm3-2.613q0-2.074-1.488-2.074a1.259,1.259,0,0,0-1.043.568,2.836,2.836,0,0,0-.492,1.506Zm15.164-.527a4.8,4.8,0,0,0-1.559-.34q-2.473,0-2.473,2.859V26H86.258V14H91.25v2.109H91.3a3.747,3.747,0,0,1,1.3-1.729,3.342,3.342,0,0,1,1.969-.592,1.691,1.691,0,0,1,.715.141ZM105.465,26h-5.93L95.527,14h5.2l1.465,6.551a15.155,15.155,0,0,1,.387,2.379h.07q.023-.234.064-.48T104.457,14h5.18Zm12.023,0V24.172h-.047a3.926,3.926,0,0,1-3.656,2.121,3.5,3.5,0,0,1-2.66-1.008,3.744,3.744,0,0,1-.961-2.7q0-3.539,4.348-4.1l2.977-.387a1.135,1.135,0,0,0-.527-.961,2.4,2.4,0,0,0-1.418-.375,9.34,9.34,0,0,0-4.254,1.148V14.668a11.38,11.38,0,0,1,2.438-.691,14.186,14.186,0,0,1,2.508-.27,6.3,6.3,0,0,1,4.436,1.307q1.377,1.307,1.377,4.365V26Zm-2.953-4.078a1.106,1.106,0,0,0,.311.809,1.184,1.184,0,0,0,.885.316A1.573,1.573,0,0,0,117,22.461a2.27,2.27,0,0,0,.486-1.5V20.5l-1.687.234Q114.535,20.949,114.535,21.922Zm19.652,3.738a4.706,4.706,0,0,1-1.512.457,14.292,14.292,0,0,1-2.379.176,7.317,7.317,0,0,1-3.393-.768,5.6,5.6,0,0,1-2.314-2.15,5.971,5.971,0,0,1-.82-3.105,6.8,6.8,0,0,1,.873-3.533,5.691,5.691,0,0,1,2.49-2.25,8.543,8.543,0,0,1,3.75-.779,13.119,13.119,0,0,1,2.1.152,3.214,3.214,0,0,1,1.2.352V18.1a3.467,3.467,0,0,0-1.078-.516,4.331,4.331,0,0,0-1.3-.223,3.167,3.167,0,0,0-2.221.7,2.537,2.537,0,0,0-.756,1.963,2.49,2.49,0,0,0,.744,1.928,2.9,2.9,0,0,0,2.045.686,5.093,5.093,0,0,0,2.566-.668Zm7.277-14.895a2.144,2.144,0,0,1-.768,1.711,3,3,0,0,1-2.021.656,2.929,2.929,0,0,1-2-.68,2.15,2.15,0,0,1-.779-1.687,2.081,2.081,0,0,1,.756-1.67,3.518,3.518,0,0,1,4.043,0A2.068,2.068,0,0,1,141.465,10.766ZM136.18,26V14h4.992V26Zm20.742-6.211a6.249,6.249,0,0,1-1.834,4.77,8.473,8.473,0,0,1-10.219.041,6.061,6.061,0,0,1-1.822-4.67,6.256,6.256,0,0,1,.855-3.316,5.563,5.563,0,0,1,2.438-2.156,8.415,8.415,0,0,1,3.645-.75,8.151,8.151,0,0,1,3.7.785,5.715,5.715,0,0,1,2.4,2.18A5.935,5.935,0,0,1,156.922,19.789Zm-5.062.023q0-2.449-1.875-2.449t-1.875,2.566q0,2.707,1.9,2.707Q151.859,22.637,151.859,19.813ZM150.605,12.1h-3.527l3.5-3.762h4.2ZM166.566,26V19.449a2.912,2.912,0,0,0-.334-1.6,1.22,1.22,0,0,0-1.084-.486,1.173,1.173,0,0,0-1.008.5,2.15,2.15,0,0,0-.363,1.289V26h-4.992V14h4.992v1.875h.047a4.237,4.237,0,0,1,1.605-1.6,4.386,4.386,0,0,1,2.191-.568q3.938,0,3.938,4.969V26Z" transform="translate(699.051 8120)" fill="#12263f"/>
    <path id="Trazado_880788" data-name="Trazado 880788" d="M42.576,26V9.2h5.063V26Zm15.691,0V19.449a2.912,2.912,0,0,0-.334-1.6,1.22,1.22,0,0,0-1.084-.486,1.173,1.173,0,0,0-1.008.5,2.15,2.15,0,0,0-.363,1.289V26H50.486V14h4.992v1.875h.047a4.237,4.237,0,0,1,1.605-1.6,4.386,4.386,0,0,1,2.191-.568q3.938,0,3.938,4.969V26Zm15.984,0h-5.93L64.314,14h5.2l1.465,6.551a15.155,15.155,0,0,1,.387,2.379h.07q.023-.234.064-.48T73.244,14h5.18Zm9.668-4.582a1.686,1.686,0,0,0,.891,1.213,4.016,4.016,0,0,0,2.016.439,8.3,8.3,0,0,0,3.3-.668v3.164a11.877,11.877,0,0,1-4.406.727,6.952,6.952,0,0,1-4.887-1.605,5.7,5.7,0,0,1-1.746-4.418,7.289,7.289,0,0,1,.768-3.41,5.523,5.523,0,0,1,2.273-2.314,6.717,6.717,0,0,1,3.322-.838,6.537,6.537,0,0,1,3.188.727,4.84,4.84,0,0,1,2.01,2.039,6.542,6.542,0,0,1,.686,3.07v1.875Zm3-2.613q0-2.074-1.488-2.074a1.259,1.259,0,0,0-1.043.568A2.836,2.836,0,0,0,83.9,18.8Zm15.891,3.211a3.665,3.665,0,0,1-1.553,3.158,7.3,7.3,0,0,1-4.33,1.119,15.055,15.055,0,0,1-2-.164,12.343,12.343,0,0,1-1.939-.4v-3.5a9.55,9.55,0,0,0,3.7.984q1.465,0,1.465-.762a.6.6,0,0,0-.34-.521,12.012,12.012,0,0,0-1.781-.686,5.03,5.03,0,0,1-2.32-1.336,3.177,3.177,0,0,1-.727-2.168,3.459,3.459,0,0,1,1.482-2.947,6.955,6.955,0,0,1,4.166-1.084,13.242,13.242,0,0,1,3.328.457v3.363A10.065,10.065,0,0,0,100.35,17a6.532,6.532,0,0,0-1.477-.211,1.607,1.607,0,0,0-.785.164.5.5,0,0,0-.293.457.637.637,0,0,0,.316.551,5.6,5.6,0,0,0,1.266.5,5.873,5.873,0,0,1,2.637,1.383A3.03,3.03,0,0,1,102.811,22.016Zm10.289,3.82a4.864,4.864,0,0,1-1.113.311,10.178,10.178,0,0,1-1.863.146,4.476,4.476,0,0,1-3.264-1.148,4.359,4.359,0,0,1-1.178-3.27V17.457h-1.887V14h1.887V11.645l4.922-1.359V14h2.5v3.457h-2.5v3.6q0,1.582,1.254,1.582a3.4,3.4,0,0,0,1.242-.258Zm6.844-15.07a2.144,2.144,0,0,1-.768,1.711,3,3,0,0,1-2.021.656,2.929,2.929,0,0,1-2-.68,2.15,2.15,0,0,1-.779-1.687,2.081,2.081,0,0,1,.756-1.67,3.518,3.518,0,0,1,4.043,0A2.068,2.068,0,0,1,119.943,10.766ZM114.658,26V14h4.992V26Zm20.4-1.676a6.822,6.822,0,0,1-2.174,5.385q-2.174,1.928-6.346,1.928a13.24,13.24,0,0,1-2.18-.176,6.007,6.007,0,0,1-1.512-.4V27.148A7.541,7.541,0,0,0,126.4,28.18a4.163,4.163,0,0,0,2.684-.809,2.612,2.612,0,0,0,1.008-2.145v-.738h-.047a3.878,3.878,0,0,1-1.482,1.313,4.307,4.307,0,0,1-2.021.492,4.529,4.529,0,0,1-3.668-1.611,6.726,6.726,0,0,1-1.348-4.447,7.952,7.952,0,0,1,.7-3.434,5.358,5.358,0,0,1,1.957-2.291,5.025,5.025,0,0,1,2.766-.8,3.461,3.461,0,0,1,3.094,1.535h.047V14h4.969Zm-4.887-4.664a2.694,2.694,0,0,0-.475-1.676,1.507,1.507,0,0,0-1.26-.621,1.551,1.551,0,0,0-1.348.75,3.541,3.541,0,0,0-.5,2,3.468,3.468,0,0,0,.422,1.84,1.457,1.457,0,0,0,1.336.68,1.548,1.548,0,0,0,1.342-.7,3.211,3.211,0,0,0,.486-1.869ZM144.119,26V24.172h-.047a3.926,3.926,0,0,1-3.656,2.121,3.5,3.5,0,0,1-2.66-1.008,3.744,3.744,0,0,1-.961-2.7q0-3.539,4.348-4.1l2.977-.387a1.135,1.135,0,0,0-.527-.961,2.4,2.4,0,0,0-1.418-.375,9.34,9.34,0,0,0-4.254,1.148V14.668a11.38,11.38,0,0,1,2.438-.691,14.186,14.186,0,0,1,2.508-.27,6.3,6.3,0,0,1,4.436,1.307q1.377,1.307,1.377,4.365V26Zm-2.953-4.078a1.106,1.106,0,0,0,.311.809,1.184,1.184,0,0,0,.885.316,1.573,1.573,0,0,0,1.271-.586,2.27,2.27,0,0,0,.486-1.5V20.5l-1.687.234Q141.166,20.949,141.166,21.922Zm19.652,3.738a4.706,4.706,0,0,1-1.512.457,14.292,14.292,0,0,1-2.379.176,7.317,7.317,0,0,1-3.393-.768,5.6,5.6,0,0,1-2.314-2.15,5.971,5.971,0,0,1-.82-3.105,6.8,6.8,0,0,1,.873-3.533,5.691,5.691,0,0,1,2.49-2.25,8.543,8.543,0,0,1,3.75-.779,13.119,13.119,0,0,1,2.1.152,3.214,3.214,0,0,1,1.2.352V18.1a3.467,3.467,0,0,0-1.078-.516,4.331,4.331,0,0,0-1.3-.223,3.167,3.167,0,0,0-2.221.7,2.537,2.537,0,0,0-.756,1.963,2.49,2.49,0,0,0,.744,1.928,2.9,2.9,0,0,0,2.045.686,5.093,5.093,0,0,0,2.566-.668ZM168.1,10.766a2.144,2.144,0,0,1-.768,1.711,3,3,0,0,1-2.021.656,2.929,2.929,0,0,1-2-.68,2.15,2.15,0,0,1-.779-1.687,2.081,2.081,0,0,1,.756-1.67,3.518,3.518,0,0,1,4.043,0A2.068,2.068,0,0,1,168.1,10.766ZM162.811,26V14H167.8V26Zm20.742-6.211a6.249,6.249,0,0,1-1.834,4.77A8.473,8.473,0,0,1,171.5,24.6a6.061,6.061,0,0,1-1.822-4.67,6.256,6.256,0,0,1,.855-3.316,5.563,5.563,0,0,1,2.438-2.156,8.415,8.415,0,0,1,3.645-.75,8.151,8.151,0,0,1,3.7.785,5.715,5.715,0,0,1,2.4,2.18A5.935,5.935,0,0,1,183.553,19.789Zm-5.062.023q0-2.449-1.875-2.449T174.74,19.93q0,2.707,1.9,2.707Q178.49,22.637,178.49,19.813ZM177.236,12.1h-3.527l3.5-3.762h4.2ZM193.2,26V19.449a2.912,2.912,0,0,0-.334-1.6,1.22,1.22,0,0,0-1.084-.486,1.173,1.173,0,0,0-1.008.5,2.15,2.15,0,0,0-.363,1.289V26h-4.992V14h4.992v1.875h.047a4.237,4.237,0,0,1,1.605-1.6,4.386,4.386,0,0,1,2.191-.568q3.938,0,3.938,4.969V26Zm14.391-4.605V18.031H214v3.363Zm28.922,4.148a14.2,14.2,0,0,1-4.816.75,9.8,9.8,0,0,1-4.629-1.025,7.021,7.021,0,0,1-2.971-2.918,9.02,9.02,0,0,1-1.025-4.365,9.61,9.61,0,0,1,1.148-4.734,7.942,7.942,0,0,1,3.246-3.205,10.016,10.016,0,0,1,4.828-1.131,16.781,16.781,0,0,1,4.219.527v4.676a5.954,5.954,0,0,0-1.676-.656,8.375,8.375,0,0,0-1.969-.234,4.407,4.407,0,0,0-3.252,1.184,4.327,4.327,0,0,0-1.189,3.211,4.251,4.251,0,0,0,1.189,3.182,4.348,4.348,0,0,0,3.182,1.166,8.255,8.255,0,0,0,3.715-.937Zm15.5-5.754a6.249,6.249,0,0,1-1.834,4.77,8.473,8.473,0,0,1-10.219.041,6.061,6.061,0,0,1-1.822-4.67,6.256,6.256,0,0,1,.855-3.316,5.563,5.563,0,0,1,2.438-2.156,8.415,8.415,0,0,1,3.645-.75,8.151,8.151,0,0,1,3.7.785,5.715,5.715,0,0,1,2.4,2.18A5.935,5.935,0,0,1,252.014,19.789Zm-5.062.023q0-2.449-1.875-2.449T243.2,19.93q0,2.707,1.9,2.707Q246.951,22.637,246.951,19.813ZM261.658,26V19.449a2.912,2.912,0,0,0-.334-1.6,1.22,1.22,0,0,0-1.084-.486,1.173,1.173,0,0,0-1.008.5,2.15,2.15,0,0,0-.363,1.289V26h-4.992V14h4.992v1.875h.047a4.237,4.237,0,0,1,1.605-1.6,4.386,4.386,0,0,1,2.191-.568q3.938,0,3.938,4.969V26Zm20.59-6.211a6.249,6.249,0,0,1-1.834,4.77A8.473,8.473,0,0,1,270.2,24.6a6.061,6.061,0,0,1-1.822-4.67,6.256,6.256,0,0,1,.855-3.316,5.563,5.563,0,0,1,2.438-2.156,8.415,8.415,0,0,1,3.645-.75,8.151,8.151,0,0,1,3.7.785,5.715,5.715,0,0,1,2.4,2.18A5.935,5.935,0,0,1,282.248,19.789Zm-5.062.023q0-2.449-1.875-2.449t-1.875,2.566q0,2.707,1.9,2.707Q277.186,22.637,277.186,19.813ZM294,25.66a4.706,4.706,0,0,1-1.512.457,14.292,14.292,0,0,1-2.379.176,7.317,7.317,0,0,1-3.393-.768,5.6,5.6,0,0,1-2.314-2.15,5.971,5.971,0,0,1-.82-3.105,6.8,6.8,0,0,1,.873-3.533,5.691,5.691,0,0,1,2.49-2.25,8.543,8.543,0,0,1,3.75-.779,13.119,13.119,0,0,1,2.1.152,3.214,3.214,0,0,1,1.2.352V18.1a3.467,3.467,0,0,0-1.078-.516,4.331,4.331,0,0,0-1.3-.223,3.167,3.167,0,0,0-2.221.7,2.537,2.537,0,0,0-.756,1.963,2.49,2.49,0,0,0,.744,1.928,2.9,2.9,0,0,0,2.045.686A5.093,5.093,0,0,0,294,21.969Zm7.277-14.895a2.144,2.144,0,0,1-.768,1.711,3,3,0,0,1-2.021.656,2.929,2.929,0,0,1-2-.68,2.15,2.15,0,0,1-.779-1.687,2.081,2.081,0,0,1,.756-1.67,3.518,3.518,0,0,1,4.043,0A2.068,2.068,0,0,1,301.279,10.766ZM295.994,26V14h4.992V26Zm22.957,0V19.086a2.206,2.206,0,0,0-.311-1.295,1.168,1.168,0,0,0-1.014-.428,1.266,1.266,0,0,0-1.078.521,2.386,2.386,0,0,0-.387,1.447V26H311.17V19.2q0-1.84-1.254-1.84a1.327,1.327,0,0,0-1.148.533,2.578,2.578,0,0,0-.387,1.529V26h-4.992V14h4.992v1.9h.047a3.869,3.869,0,0,1,.9-1.025,5.261,5.261,0,0,1,1.389-.844,4.313,4.313,0,0,1,1.676-.322,4.241,4.241,0,0,1,2.15.5A3.908,3.908,0,0,1,316,15.8a4.277,4.277,0,0,1,1.688-1.553,5.029,5.029,0,0,1,2.344-.545,3.527,3.527,0,0,1,2.895,1.23,5.479,5.479,0,0,1,1.008,3.551V26Zm12.527-15.234a2.144,2.144,0,0,1-.768,1.711,3,3,0,0,1-2.021.656,2.929,2.929,0,0,1-2-.68,2.15,2.15,0,0,1-.779-1.687,2.081,2.081,0,0,1,.756-1.67,3.518,3.518,0,0,1,4.043,0A2.068,2.068,0,0,1,331.479,10.766ZM326.193,26V14h4.992V26Zm11.7-4.582a1.686,1.686,0,0,0,.891,1.213,4.016,4.016,0,0,0,2.016.439,8.3,8.3,0,0,0,3.3-.668v3.164a11.877,11.877,0,0,1-4.406.727,6.952,6.952,0,0,1-4.887-1.605,5.7,5.7,0,0,1-1.746-4.418,7.289,7.289,0,0,1,.768-3.41,5.523,5.523,0,0,1,2.273-2.314,6.717,6.717,0,0,1,3.322-.838,6.537,6.537,0,0,1,3.188.727,4.84,4.84,0,0,1,2.01,2.039,6.542,6.542,0,0,1,.686,3.07v1.875Zm3-2.613q0-2.074-1.488-2.074a1.259,1.259,0,0,0-1.043.568,2.836,2.836,0,0,0-.492,1.506ZM354.811,26V19.449a2.912,2.912,0,0,0-.334-1.6,1.22,1.22,0,0,0-1.084-.486,1.173,1.173,0,0,0-1.008.5,2.15,2.15,0,0,0-.363,1.289V26h-4.992V14h4.992v1.875h.047a4.237,4.237,0,0,1,1.605-1.6,4.386,4.386,0,0,1,2.191-.568q3.938,0,3.938,4.969V26Zm15.691-.164a4.864,4.864,0,0,1-1.113.311,10.178,10.178,0,0,1-1.863.146,4.476,4.476,0,0,1-3.264-1.148,4.359,4.359,0,0,1-1.178-3.27V17.457H361.2V14h1.887V11.645l4.922-1.359V14h2.5v3.457h-2.5v3.6q0,1.582,1.254,1.582a3.4,3.4,0,0,0,1.242-.258Zm14.906-6.047a6.249,6.249,0,0,1-1.834,4.77,8.473,8.473,0,0,1-10.219.041,6.061,6.061,0,0,1-1.822-4.67,6.256,6.256,0,0,1,.855-3.316,5.563,5.563,0,0,1,2.438-2.156,8.415,8.415,0,0,1,3.645-.75,8.151,8.151,0,0,1,3.7.785,5.715,5.715,0,0,1,2.4,2.18A5.935,5.935,0,0,1,385.408,19.789Zm-5.062.023q0-2.449-1.875-2.449T376.6,19.93q0,2.707,1.9,2.707Q380.346,22.637,380.346,19.813Z" transform="translate(586.051 7950)" fill="#12263f"/>
  </g>
</svg>
