<svg xmlns="http://www.w3.org/2000/svg" xmlns:xlink="http://www.w3.org/1999/xlink" width="91.188" height="91.188" viewBox="0 0 91.188 91.188">
  <defs>
    <clipPath id="clip-path">
      <rect id="Rectángulo_402173" data-name="Rectángulo 402173" width="42.05" height="42.005" fill="#ffe8b6"/>
    </clipPath>
  </defs>
  <g id="Grupo_1100067" data-name="Grupo 1100067" transform="translate(-223.051 -6789)">
    <g id="Grupo_1099481" data-name="Grupo 1099481" transform="translate(-1028.039 6375.663)">
      <g id="Grupo_1098742" data-name="Grupo 1098742" transform="translate(1251.09 413.337)">
        <rect id="Rectángulo_400898" data-name="Rectángulo 400898" width="81.157" height="81.157" rx="40.578" transform="translate(5.471 5.471)" fill="#0f6646" opacity="0.859"/>
        <g id="Rectángulo_400907" data-name="Rectángulo 400907" fill="none" stroke="#4d812e" stroke-linecap="round" stroke-width="2" stroke-dasharray="7">
          <rect width="91.188" height="91.188" rx="45.594" stroke="none"/>
          <rect x="1" y="1" width="89.188" height="89.188" rx="44.594" fill="none"/>
        </g>
      </g>
      <g id="Grupo_1099721" data-name="Grupo 1099721" transform="translate(1275.659 437.928)" clip-path="url(#clip-path)">
        <path id="Trazado_880369" data-name="Trazado 880369" d="M10.008,36.8c0-2.161.014-4.323-.017-6.484a1.419,1.419,0,0,0-.387-.841c-.871-.946-1.783-1.854-2.672-2.784-.333-.348-.845-.732-.3-1.225.528-.477.874.058,1.219.394L10,27.95c0-1.443.016-2.795-.017-4.145-.005-.2-.217-.426-.379-.6-.923-.972-1.86-1.932-2.794-2.895-.323-.333-.656-.745-.165-1.089.2-.14.771.024,1.024.231.795.652,1.519,1.391,2.338,2.161,0-1.072,0-2.123,0-3.175,0-.438,0-.876,0-1.314,0-.464-.068-1.021.628-1.009.636.011.581.535.582.973,0,1.232,0,2.463,0,3.695v.821c.827-.774,1.573-1.515,2.374-2.194.226-.192.7-.365.9-.256.531.282.342.718,0,1.077-.93.966-1.889,1.906-2.781,2.907a1.983,1.983,0,0,0-.471,1.133c-.06,1.187-.022,2.38-.022,3.55.78-.714,1.524-1.381,2.251-2.068.351-.332.708-.729,1.168-.251.421.438.044.8-.266,1.117-.913.945-1.841,1.875-2.732,2.84a1.425,1.425,0,0,0-.4.837c-.033,2.161-.018,4.322-.018,6.543.135-.029.253-.019.32-.074,3.154-2.572,5.892-5.482,7.415-9.342a13.493,13.493,0,0,0-.823-11.861,26.049,26.049,0,0,0-7.508-8.242c-.437.331-.875.643-1.291.983A23.743,23.743,0,0,0,2.911,16a13.6,13.6,0,0,0,.711,14.187c.161.254.326.506.5.75.269.375.539.765.016,1.121s-.791-.066-1.045-.432C-.645,26.235-1.021,20.64,2.108,14.858a26.513,26.513,0,0,1,7.914-8.648.959.959,0,0,1,1.317.092,29.3,29.3,0,0,1,6.856,7.009c.152.222.3.443.513.746.191-.309.35-.556.5-.808Q22.649,7.421,26.09,1.594c1.224-2.07,3.258-2.066,4.491,0,.322.54.64,1.083.962,1.623.238.4.448.813-.091,1.124-.509.294-.74-.1-.957-.462-.363-.611-.715-1.229-1.088-1.835-.613-1-1.531-1.03-2.117-.044q-3.834,6.453-7.627,12.93a.847.847,0,0,0-.112.656A15.824,15.824,0,0,1,21.239,22.8h.944c5.638,0,11.276.014,16.914-.023a2.319,2.319,0,0,0,1.51-.543c.5-.51.064-1.114-.246-1.637q-3.737-6.319-7.468-12.642c-.125-.212-.325-.423-.339-.644-.016-.256.063-.644.238-.75s.543.022.769.15c.167.094.245.351.356.539q3.8,6.427,7.6,12.851a2.5,2.5,0,0,1,.2,2.774,2.55,2.55,0,0,1-2.455,1.161c-5.693-.021-11.386-.01-17.078-.01H21.2c-.086.435-.161.854-.253,1.269a18.885,18.885,0,0,1-4.588,8.5c-1.412,1.584-3.08,2.939-4.6,4.427a1.862,1.862,0,0,0-.51,1,12.936,12.936,0,0,0-.023,1.8c0,.474.036,1.033-.629,1.02-.6-.011-.589-.53-.585-.984a11.392,11.392,0,0,0-.022-1.8,1.958,1.958,0,0,0-.542-1.064c-1.194-1.123-2.448-2.182-3.66-3.287-.351-.32-.845-.71-.287-1.218.5-.454.819.022,1.156.341,1.043.986,2.1,1.961,3.145,2.94l.21-.167" transform="translate(0 -0.037)" fill="#ffe8b6"/>
        <path id="Trazado_880370" data-name="Trazado 880370" d="M160.049,41.209c0-.982-.015-1.965,0-2.947a2.042,2.042,0,1,1,4.084-.066q.051,3.069,0,6.139a2.042,2.042,0,1,1-4.084-.1c-.017-1.009,0-2.019,0-3.028m1.235.1c0,.927,0,1.855,0,2.782,0,.56.2,1.01.814,1.005s.8-.45.793-1.016c-.01-1.882-.006-3.763,0-5.645,0-.554-.151-1-.8-1s-.8.462-.8,1.007c0,.954,0,1.909,0,2.863" transform="translate(-133.76 -30.221)" fill="#ffe8b6"/>
        <path id="Trazado_880371" data-name="Trazado 880371" d="M147.239,170.3q-2.5,0-4.993,0c-.449,0-.961-.006-.972-.6-.012-.653.519-.653,1-.652q4.993,0,9.986,0c.451,0,.951-.008.968.6.018.677-.528.653-1,.654-1.664.005-3.329,0-4.993,0" transform="translate(-118.073 -141.279)" fill="#ffe8b6"/>
        <path id="Trazado_880372" data-name="Trazado 880372" d="M147.264,207.084h4.994c.449,0,.953-.012.972.6.021.671-.518.664-.992.664q-4.994,0-9.987,0c-.451,0-.96-.013-.976-.605-.018-.654.512-.659,1-.659q2.5,0,4.994,0" transform="translate(-118.073 -173.074)" fill="#ffe8b6"/>
        <path id="Trazado_880373" data-name="Trazado 880373" d="M146.11,188.062c1.283,0,2.565,0,3.848,0,.456,0,.907.123.823.639a1.022,1.022,0,0,1-.778.593q-3.928.068-7.858,0a1.024,1.024,0,0,1-.782-.589c-.088-.516.362-.645.818-.644,1.31,0,2.62,0,3.929,0" transform="translate(-118.137 -157.176)" fill="#ffe8b6"/>
        <path id="Trazado_880374" data-name="Trazado 880374" d="M162.116,107.881a2,2,0,1,1,2.059-1.98,2,2,0,0,1-2.059,1.98m.9-1.785q.008-.171.016-.343c-.289-.213-.593-.608-.864-.587-.287.022-.544.44-.815.686.247.269.466.71.75.757.269.045.606-.325.913-.513" transform="translate(-133.8 -86.826)" fill="#ffe8b6"/>
        <path id="Trazado_880375" data-name="Trazado 880375" d="M44.276,0A5.386,5.386,0,0,1,48.06,1.5c.2.193.144.639.206.968-.335-.018-.8.1-.985-.075a4.539,4.539,0,0,0-6,.019c-.176.169-.651.027-.987.029.062-.312.017-.732.2-.918A5.41,5.41,0,0,1,44.276,0" transform="translate(-33.68)" fill="#ffe8b6"/>
        <path id="Trazado_880376" data-name="Trazado 880376" d="M144.359,226.006h2.21c.446,0,.912.1.818.637a1.018,1.018,0,0,1-.764.6c-1.553.057-3.11.058-4.663,0-.269-.01-.524-.4-.786-.615.271-.206.526-.558.815-.588a22.764,22.764,0,0,1,2.371-.028" transform="translate(-117.989 -188.875)" fill="#ffe8b6"/>
        <path id="Trazado_880377" data-name="Trazado 880377" d="M55.141,17.6a.589.589,0,0,1-.97.487,2.141,2.141,0,0,0-2.909-.01.79.79,0,0,1-.774-.062.823.823,0,0,1-.027-.783c.823-1.257,3.659-1.251,4.521-.013a1.645,1.645,0,0,1,.158.381" transform="translate(-42.102 -13.618)" fill="#ffe8b6"/>
      </g>
    </g>
  </g>
</svg>
