<svg xmlns="http://www.w3.org/2000/svg" xmlns:xlink="http://www.w3.org/1999/xlink" width="176.071" height="85.943" viewBox="0 0 176.071 85.943">
  <defs>
    <clipPath id="clip-path">
      <rect id="Rectángulo_400902" data-name="Rectángulo 400902" width="36.408" height="31.536" fill="#4d812e"/>
    </clipPath>
    <clipPath id="clip-path-2">
      <rect id="Rectángulo_402141" data-name="Rectángulo 402141" width="39.322" height="39.327" fill="#ffe8b6"/>
    </clipPath>
  </defs>
  <g id="Grupo_1100055" data-name="Grupo 1100055" transform="translate(-475 -1871.895)">
    <path id="Rectángulo_401385" data-name="Rectángulo 401385" d="M0,0H22.669a40,40,0,0,1,40,40V176.071a0,0,0,0,1,0,0H0a0,0,0,0,1,0,0V0A0,0,0,0,1,0,0Z" transform="translate(475 1951.57) rotate(-90)" fill="#daf2e4"/>
    <g id="Grupo_1099480" data-name="Grupo 1099480" transform="translate(600.339 1926.302)">
      <g id="Grupo_1098724" data-name="Grupo 1098724" transform="translate(0 0)">
        <g id="Grupo_1098723" data-name="Grupo 1098723" clip-path="url(#clip-path)">
          <path id="Trazado_872910" data-name="Trazado 872910" d="M1.454.71a.719.719,0,0,1-.727.71A.718.718,0,0,1,0,.71.719.719,0,0,1,.727,0a.719.719,0,0,1,.727.71" fill="#4d812e"/>
          <path id="Trazado_872911" data-name="Trazado 872911" d="M30.408.71a.727.727,0,0,1-1.454,0,.727.727,0,0,1,1.454,0" transform="translate(-21.963)" fill="#4d812e"/>
          <path id="Trazado_872912" data-name="Trazado 872912" d="M59.361.71a.727.727,0,0,1-1.454,0,.727.727,0,0,1,1.454,0" transform="translate(-43.925)" fill="#4d812e"/>
          <path id="Trazado_872913" data-name="Trazado 872913" d="M88.314.71a.727.727,0,0,1-1.454,0,.727.727,0,0,1,1.454,0" transform="translate(-65.887)" fill="#4d812e"/>
          <path id="Trazado_872914" data-name="Trazado 872914" d="M117.267.71a.727.727,0,0,1-1.454,0,.727.727,0,0,1,1.454,0" transform="translate(-87.85)" fill="#4d812e"/>
          <path id="Trazado_872915" data-name="Trazado 872915" d="M146.221.71a.727.727,0,0,1-1.454,0,.727.727,0,0,1,1.454,0" transform="translate(-109.813)" fill="#4d812e"/>
          <path id="Trazado_872916" data-name="Trazado 872916" d="M1.454,32.625a.719.719,0,0,1-.727.71.71.71,0,1,1,0-1.42.719.719,0,0,1,.727.71" transform="translate(0 -24.386)" fill="#4d812e"/>
          <path id="Trazado_872917" data-name="Trazado 872917" d="M30.408,32.625a.727.727,0,1,1-.727-.71.719.719,0,0,1,.727.71" transform="translate(-21.963 -24.386)" fill="#4d812e"/>
          <path id="Trazado_872918" data-name="Trazado 872918" d="M59.361,32.625a.727.727,0,1,1-.727-.71.719.719,0,0,1,.727.71" transform="translate(-43.925 -24.386)" fill="#4d812e"/>
          <path id="Trazado_872919" data-name="Trazado 872919" d="M88.314,32.625a.727.727,0,1,1-.727-.71.719.719,0,0,1,.727.71" transform="translate(-65.887 -24.386)" fill="#4d812e"/>
          <path id="Trazado_872920" data-name="Trazado 872920" d="M117.267,32.625a.727.727,0,1,1-.727-.71.719.719,0,0,1,.727.71" transform="translate(-87.85 -24.386)" fill="#4d812e"/>
          <path id="Trazado_872921" data-name="Trazado 872921" d="M146.221,32.625a.727.727,0,1,1-.727-.71.719.719,0,0,1,.727.71" transform="translate(-109.813 -24.386)" fill="#4d812e"/>
          <path id="Trazado_872922" data-name="Trazado 872922" d="M1.454,64.54a.719.719,0,0,1-.727.71.71.71,0,1,1,0-1.42.719.719,0,0,1,.727.71" transform="translate(0 -48.772)" fill="#4d812e"/>
          <path id="Trazado_872923" data-name="Trazado 872923" d="M30.408,64.54a.727.727,0,1,1-.727-.71.719.719,0,0,1,.727.71" transform="translate(-21.963 -48.772)" fill="#4d812e"/>
          <path id="Trazado_872924" data-name="Trazado 872924" d="M59.361,64.54a.727.727,0,1,1-.727-.71.719.719,0,0,1,.727.71" transform="translate(-43.925 -48.772)" fill="#4d812e"/>
          <path id="Trazado_872925" data-name="Trazado 872925" d="M88.314,64.54a.727.727,0,1,1-.727-.71.719.719,0,0,1,.727.71" transform="translate(-65.887 -48.772)" fill="#4d812e"/>
          <path id="Trazado_872926" data-name="Trazado 872926" d="M117.267,64.54a.727.727,0,1,1-.727-.71.719.719,0,0,1,.727.71" transform="translate(-87.85 -48.772)" fill="#4d812e"/>
          <path id="Trazado_872927" data-name="Trazado 872927" d="M146.221,64.54a.727.727,0,1,1-.727-.71.719.719,0,0,1,.727.71" transform="translate(-109.813 -48.772)" fill="#4d812e"/>
          <path id="Trazado_872928" data-name="Trazado 872928" d="M1.454,96.455a.719.719,0,0,1-.727.71.71.71,0,1,1,0-1.42.719.719,0,0,1,.727.71" transform="translate(0 -73.158)" fill="#4d812e"/>
          <path id="Trazado_872929" data-name="Trazado 872929" d="M30.408,96.455a.727.727,0,1,1-.727-.71.719.719,0,0,1,.727.71" transform="translate(-21.963 -73.158)" fill="#4d812e"/>
          <path id="Trazado_872930" data-name="Trazado 872930" d="M59.361,96.455a.727.727,0,1,1-.727-.71.719.719,0,0,1,.727.71" transform="translate(-43.925 -73.158)" fill="#4d812e"/>
          <path id="Trazado_872931" data-name="Trazado 872931" d="M88.314,96.455a.727.727,0,1,1-.727-.71.719.719,0,0,1,.727.71" transform="translate(-65.887 -73.158)" fill="#4d812e"/>
          <path id="Trazado_872932" data-name="Trazado 872932" d="M117.267,96.455a.727.727,0,1,1-.727-.71.719.719,0,0,1,.727.71" transform="translate(-87.85 -73.158)" fill="#4d812e"/>
          <path id="Trazado_872933" data-name="Trazado 872933" d="M146.221,96.455a.727.727,0,1,1-.727-.71.719.719,0,0,1,.727.71" transform="translate(-109.813 -73.158)" fill="#4d812e"/>
          <path id="Trazado_872934" data-name="Trazado 872934" d="M1.454,128.37a.719.719,0,0,1-.727.71.71.71,0,1,1,0-1.42.719.719,0,0,1,.727.71" transform="translate(0 -97.544)" fill="#4d812e"/>
          <path id="Trazado_872935" data-name="Trazado 872935" d="M30.408,128.37a.727.727,0,1,1-.727-.71.719.719,0,0,1,.727.71" transform="translate(-21.963 -97.544)" fill="#4d812e"/>
          <path id="Trazado_872936" data-name="Trazado 872936" d="M59.361,128.37a.727.727,0,1,1-.727-.71.719.719,0,0,1,.727.71" transform="translate(-43.925 -97.544)" fill="#4d812e"/>
          <path id="Trazado_872937" data-name="Trazado 872937" d="M88.314,128.37a.727.727,0,1,1-.727-.71.719.719,0,0,1,.727.71" transform="translate(-65.887 -97.544)" fill="#4d812e"/>
          <path id="Trazado_872938" data-name="Trazado 872938" d="M117.267,128.37a.727.727,0,1,1-.727-.71.719.719,0,0,1,.727.71" transform="translate(-87.85 -97.544)" fill="#4d812e"/>
          <path id="Trazado_872939" data-name="Trazado 872939" d="M146.221,128.37a.727.727,0,1,1-.727-.71.719.719,0,0,1,.727.71" transform="translate(-109.813 -97.544)" fill="#4d812e"/>
        </g>
      </g>
    </g>
    <g id="Grupo_1098742" data-name="Grupo 1098742" transform="translate(525.732 1871.895)">
      <rect id="Rectángulo_400898" data-name="Rectángulo 400898" width="69.048" height="69.048" rx="34.524" transform="translate(4.655 4.655)" fill="#0f6646" opacity="0.859"/>
      <g id="Rectángulo_400907" data-name="Rectángulo 400907" fill="none" stroke="#4d812e" stroke-linecap="round" stroke-width="2" stroke-dasharray="7">
        <rect width="77.582" height="77.582" rx="38.791" stroke="none"/>
        <rect x="1" y="1" width="75.582" height="75.582" rx="37.791" fill="none"/>
      </g>
    </g>
    <g id="Grupo_1099694" data-name="Grupo 1099694" transform="translate(543.375 1890.848)">
      <g id="Grupo_1099693" data-name="Grupo 1099693" clip-path="url(#clip-path-2)">
        <path id="Trazado_880276" data-name="Trazado 880276" d="M9.214,21.51a8.575,8.575,0,0,1-7.118-2.9A8.309,8.309,0,0,1,0,12.987a8.593,8.593,0,0,1,9.213-8.42c0-.682-.007-1.365,0-2.048A2.313,2.313,0,0,1,11.688.007Q21.13-.009,30.571.022A1.7,1.7,0,0,1,31.64.476Q35.284,4.051,38.857,7.7A1.8,1.8,0,0,1,39.3,8.844q.037,13.971.016,27.941a2.316,2.316,0,0,1-2.526,2.536q-12.512.01-25.024,0a2.329,2.329,0,0,1-2.552-2.588q-.009-7.177,0-14.355V21.51M30.1,1.543h-9.76q-4.223,0-8.447,0c-.9,0-1.129.238-1.139,1.134-.005.486.038.977-.011,1.458-.058.569.129.833.693,1.046a8.412,8.412,0,0,1-.01,15.756.91.91,0,0,0-.685,1.052c.021,4.812.012,9.624.013,14.436,0,1.2.158,1.357,1.38,1.357H36.4c1.222,0,1.381-.155,1.381-1.356q0-13.169,0-26.338V9.222c-2.191,0-4.285,0-6.38,0-1.115,0-1.3-.181-1.3-1.284,0-2.1,0-4.192,0-6.395M7.678,6.278c-3.347.087-6.21,3.369-6.133,6.963a6.923,6.923,0,0,0,7.132,6.721c3.393-.085,6.606-3.082,6.524-6.132q-3.1,0-6.208,0c-1.144,0-1.315-.176-1.315-1.344q0-3.1,0-6.208m1.564,5.965h6.01C15,9.118,12.031,6.2,9.242,6.308ZM31.694,2.835V7.622h4.776L31.694,2.835" transform="translate(0 0)" fill="#ffe8b6"/>
        <path id="Trazado_880277" data-name="Trazado 880277" d="M167.008,246.866a3.629,3.629,0,0,0-.828.5c-1.5,1.576-2.963,3.186-4.466,4.759a.868.868,0,0,0-.208,1.07,2.212,2.212,0,0,1-.753,2.538,2.277,2.277,0,0,1-2.657.113,2.407,2.407,0,0,1-1-2.476,1.676,1.676,0,0,0-.235-1.014c-.239-.416-.7-.722-.881-1.152-.574-1.339-1.767-1.169-2.853-1.256-.152-.012-.349.177-.48.316-.7.743-1.413,1.484-2.074,2.264a1.1,1.1,0,0,0-.205.8,2.346,2.346,0,0,1-1.144,2.609,2.288,2.288,0,0,1-3.13-3.058,2.333,2.333,0,0,1,2.582-1.206.94.94,0,0,0,.716-.19q1.138-1.14,2.19-2.365a1.01,1.01,0,0,0,.162-.742,2.357,2.357,0,0,1,.934-2.495,2.262,2.262,0,0,1,2.594.005,2.368,2.368,0,0,1,.927,2.5,1.354,1.354,0,0,0,.2.883,15.516,15.516,0,0,0,1.046,1.323c.939,1.165.939,1.173,2.362,1.047a.88.88,0,0,0,.506-.27c1.58-1.676,3.158-3.355,4.7-5.062a.959.959,0,0,0,.077-.78,2.376,2.376,0,0,1,.81-2.677,2.272,2.272,0,0,1,2.72.011,2.314,2.314,0,0,1,.8,2.608,2.125,2.125,0,0,1-2.412,1.4m1.309-2.125c-.48-.373-.758-.756-1.013-.741a1.06,1.06,0,0,0-.746.646.606.606,0,0,0,.684.781c.3-.031.567-.348,1.074-.686m-13.3,3.03c-.467-.344-.775-.74-1.008-.7-.3.051-.533.454-.8.706.264.25.5.652.8.7.233.039.538-.359,1-.706M149,254.09q0-.159-.008-.318c-.274-.2-.582-.6-.815-.558a1.118,1.118,0,0,0-.743.717c-.041.189.413.672.667.689.287.019.6-.338.9-.531m11.219-.034-.016-.348c-.309-.18-.636-.523-.922-.491a.7.7,0,0,0,.06,1.4c.287.008.585-.36.878-.565" transform="translate(-133.542 -221.967)" fill="#ffe8b6"/>
        <path id="Trazado_880278" data-name="Trazado 880278" d="M262,147.284c-1.816,0-3.632-.005-5.447,0-.588,0-1.152-.084-1.128-.81.022-.67.572-.738,1.126-.737q5.447.01,10.895,0c.588,0,1.152.085,1.128.81-.022.67-.571.74-1.126.737-1.816-.009-3.631,0-5.447,0" transform="translate(-233.889 -133.454)" fill="#ffe8b6"/>
        <path id="Trazado_880279" data-name="Trazado 880279" d="M262.032,183.724c-1.841,0-3.683-.005-5.524,0-.563,0-1.091-.1-1.094-.77s.521-.778,1.086-.777q5.486.009,10.971,0c.563,0,1.091.1,1.094.77s-.52.78-1.086.777c-1.816-.009-3.632,0-5.447,0" transform="translate(-233.882 -166.822)" fill="#ffe8b6"/>
        <path id="Trazado_880280" data-name="Trazado 880280" d="M229.239,56.192c-1.253,0-2.506-.006-3.758,0-.575,0-1.076-.139-1.053-.809.021-.618.51-.739,1.05-.737q3.758.011,7.516,0c.575,0,1.076.14,1.053.809-.021.618-.509.742-1.05.738-1.253-.01-2.505,0-3.758,0" transform="translate(-205.508 -50.041)" fill="#ffe8b6"/>
        <path id="Trazado_880281" data-name="Trazado 880281" d="M229.2,92.637c-1.253,0-2.505-.005-3.758,0-.548,0-1.015-.151-1.016-.771s.463-.776,1.013-.774q3.8.008,7.593,0c.549,0,1.015.152,1.016.771s-.462.778-1.012.775c-1.278-.008-2.557,0-3.835,0" transform="translate(-205.502 -83.415)" fill="#ffe8b6"/>
        <path id="Trazado_880282" data-name="Trazado 880282" d="M220.582,147.268c-.483.33-.807.716-1.04.668-.3-.061-.522-.475-.778-.736.274-.243.529-.641.829-.679.238-.03.532.381.989.747" transform="translate(-200.322 -134.168)" fill="#ffe8b6"/>
        <path id="Trazado_880283" data-name="Trazado 880283" d="M220.582,183.692c-.482.332-.8.72-1.037.673-.3-.06-.524-.472-.781-.733.273-.244.525-.642.826-.683.236-.032.532.378.992.743" transform="translate(-200.322 -167.525)" fill="#ffe8b6"/>
        <path id="Trazado_880284" data-name="Trazado 880284" d="M41.509,152.22a5.426,5.426,0,0,1-5.037-5.056c-.018-.546.111-1.018.724-1.052s.773.42.824.968a3.832,3.832,0,0,0,3.62,3.6c.554.053.994.234.943.846s-.533.743-1.074.7" transform="translate(-33.396 -133.793)" fill="#ffe8b6"/>
      </g>
    </g>
  </g>
</svg>
