<svg xmlns="http://www.w3.org/2000/svg" xmlns:xlink="http://www.w3.org/1999/xlink" width="176.071" height="92.21" viewBox="0 0 176.071 92.21">
  <defs>
    <clipPath id="clip-path">
      <rect id="Rectángulo_400902" data-name="Rectángulo 400902" width="36.408" height="31.536" fill="#4d812e"/>
    </clipPath>
    <clipPath id="clip-path-2">
      <rect id="Rectángulo_402142" data-name="Rectángulo 402142" width="32.492" height="41.589" fill="#ffe8b6"/>
    </clipPath>
  </defs>
  <g id="Grupo_1100055" data-name="Grupo 1100055" transform="translate(-475 -2031.664)">
    <path id="Rectángulo_401384" data-name="Rectángulo 401384" d="M0,0H176.071a0,0,0,0,1,0,0V0a12.534,12.534,0,0,1-12.534,12.534h-151A12.534,12.534,0,0,1,0,0V0A0,0,0,0,1,0,0Z" transform="translate(475 2111.34)" fill="#77af8f"/>
    <path id="Rectángulo_401385" data-name="Rectángulo 401385" d="M0,0H22.669a40,40,0,0,1,40,40V176.071a0,0,0,0,1,0,0H0a0,0,0,0,1,0,0V0A0,0,0,0,1,0,0Z" transform="translate(475 2111.34) rotate(-90)" fill="#daf2e4"/>
    <g id="Grupo_1099480" data-name="Grupo 1099480" transform="translate(600.339 2086.071)">
      <g id="Grupo_1098724" data-name="Grupo 1098724" transform="translate(0 0)">
        <g id="Grupo_1098723" data-name="Grupo 1098723" clip-path="url(#clip-path)">
          <path id="Trazado_872910" data-name="Trazado 872910" d="M1.454.71a.719.719,0,0,1-.727.71A.718.718,0,0,1,0,.71.719.719,0,0,1,.727,0a.719.719,0,0,1,.727.71" fill="#4d812e"/>
          <path id="Trazado_872911" data-name="Trazado 872911" d="M30.408.71a.727.727,0,0,1-1.454,0,.727.727,0,0,1,1.454,0" transform="translate(-21.963)" fill="#4d812e"/>
          <path id="Trazado_872912" data-name="Trazado 872912" d="M59.361.71a.727.727,0,0,1-1.454,0,.727.727,0,0,1,1.454,0" transform="translate(-43.925)" fill="#4d812e"/>
          <path id="Trazado_872913" data-name="Trazado 872913" d="M88.314.71a.727.727,0,0,1-1.454,0,.727.727,0,0,1,1.454,0" transform="translate(-65.887)" fill="#4d812e"/>
          <path id="Trazado_872914" data-name="Trazado 872914" d="M117.267.71a.727.727,0,0,1-1.454,0,.727.727,0,0,1,1.454,0" transform="translate(-87.85)" fill="#4d812e"/>
          <path id="Trazado_872915" data-name="Trazado 872915" d="M146.221.71a.727.727,0,0,1-1.454,0,.727.727,0,0,1,1.454,0" transform="translate(-109.813)" fill="#4d812e"/>
          <path id="Trazado_872916" data-name="Trazado 872916" d="M1.454,32.625a.719.719,0,0,1-.727.71.71.71,0,1,1,0-1.42.719.719,0,0,1,.727.71" transform="translate(0 -24.386)" fill="#4d812e"/>
          <path id="Trazado_872917" data-name="Trazado 872917" d="M30.408,32.625a.727.727,0,1,1-.727-.71.719.719,0,0,1,.727.71" transform="translate(-21.963 -24.386)" fill="#4d812e"/>
          <path id="Trazado_872918" data-name="Trazado 872918" d="M59.361,32.625a.727.727,0,1,1-.727-.71.719.719,0,0,1,.727.71" transform="translate(-43.925 -24.386)" fill="#4d812e"/>
          <path id="Trazado_872919" data-name="Trazado 872919" d="M88.314,32.625a.727.727,0,1,1-.727-.71.719.719,0,0,1,.727.71" transform="translate(-65.887 -24.386)" fill="#4d812e"/>
          <path id="Trazado_872920" data-name="Trazado 872920" d="M117.267,32.625a.727.727,0,1,1-.727-.71.719.719,0,0,1,.727.71" transform="translate(-87.85 -24.386)" fill="#4d812e"/>
          <path id="Trazado_872921" data-name="Trazado 872921" d="M146.221,32.625a.727.727,0,1,1-.727-.71.719.719,0,0,1,.727.71" transform="translate(-109.813 -24.386)" fill="#4d812e"/>
          <path id="Trazado_872922" data-name="Trazado 872922" d="M1.454,64.54a.719.719,0,0,1-.727.71.71.71,0,1,1,0-1.42.719.719,0,0,1,.727.71" transform="translate(0 -48.772)" fill="#4d812e"/>
          <path id="Trazado_872923" data-name="Trazado 872923" d="M30.408,64.54a.727.727,0,1,1-.727-.71.719.719,0,0,1,.727.71" transform="translate(-21.963 -48.772)" fill="#4d812e"/>
          <path id="Trazado_872924" data-name="Trazado 872924" d="M59.361,64.54a.727.727,0,1,1-.727-.71.719.719,0,0,1,.727.71" transform="translate(-43.925 -48.772)" fill="#4d812e"/>
          <path id="Trazado_872925" data-name="Trazado 872925" d="M88.314,64.54a.727.727,0,1,1-.727-.71.719.719,0,0,1,.727.71" transform="translate(-65.887 -48.772)" fill="#4d812e"/>
          <path id="Trazado_872926" data-name="Trazado 872926" d="M117.267,64.54a.727.727,0,1,1-.727-.71.719.719,0,0,1,.727.71" transform="translate(-87.85 -48.772)" fill="#4d812e"/>
          <path id="Trazado_872927" data-name="Trazado 872927" d="M146.221,64.54a.727.727,0,1,1-.727-.71.719.719,0,0,1,.727.71" transform="translate(-109.813 -48.772)" fill="#4d812e"/>
          <path id="Trazado_872928" data-name="Trazado 872928" d="M1.454,96.455a.719.719,0,0,1-.727.71.71.71,0,1,1,0-1.42.719.719,0,0,1,.727.71" transform="translate(0 -73.158)" fill="#4d812e"/>
          <path id="Trazado_872929" data-name="Trazado 872929" d="M30.408,96.455a.727.727,0,1,1-.727-.71.719.719,0,0,1,.727.71" transform="translate(-21.963 -73.158)" fill="#4d812e"/>
          <path id="Trazado_872930" data-name="Trazado 872930" d="M59.361,96.455a.727.727,0,1,1-.727-.71.719.719,0,0,1,.727.71" transform="translate(-43.925 -73.158)" fill="#4d812e"/>
          <path id="Trazado_872931" data-name="Trazado 872931" d="M88.314,96.455a.727.727,0,1,1-.727-.71.719.719,0,0,1,.727.71" transform="translate(-65.887 -73.158)" fill="#4d812e"/>
          <path id="Trazado_872932" data-name="Trazado 872932" d="M117.267,96.455a.727.727,0,1,1-.727-.71.719.719,0,0,1,.727.71" transform="translate(-87.85 -73.158)" fill="#4d812e"/>
          <path id="Trazado_872933" data-name="Trazado 872933" d="M146.221,96.455a.727.727,0,1,1-.727-.71.719.719,0,0,1,.727.71" transform="translate(-109.813 -73.158)" fill="#4d812e"/>
          <path id="Trazado_872934" data-name="Trazado 872934" d="M1.454,128.37a.719.719,0,0,1-.727.71.71.71,0,1,1,0-1.42.719.719,0,0,1,.727.71" transform="translate(0 -97.544)" fill="#4d812e"/>
          <path id="Trazado_872935" data-name="Trazado 872935" d="M30.408,128.37a.727.727,0,1,1-.727-.71.719.719,0,0,1,.727.71" transform="translate(-21.963 -97.544)" fill="#4d812e"/>
          <path id="Trazado_872936" data-name="Trazado 872936" d="M59.361,128.37a.727.727,0,1,1-.727-.71.719.719,0,0,1,.727.71" transform="translate(-43.925 -97.544)" fill="#4d812e"/>
          <path id="Trazado_872937" data-name="Trazado 872937" d="M88.314,128.37a.727.727,0,1,1-.727-.71.719.719,0,0,1,.727.71" transform="translate(-65.887 -97.544)" fill="#4d812e"/>
          <path id="Trazado_872938" data-name="Trazado 872938" d="M117.267,128.37a.727.727,0,1,1-.727-.71.719.719,0,0,1,.727.71" transform="translate(-87.85 -97.544)" fill="#4d812e"/>
          <path id="Trazado_872939" data-name="Trazado 872939" d="M146.221,128.37a.727.727,0,1,1-.727-.71.719.719,0,0,1,.727.71" transform="translate(-109.813 -97.544)" fill="#4d812e"/>
        </g>
      </g>
    </g>
    <g id="Grupo_1098742" data-name="Grupo 1098742" transform="translate(525.732 2031.664)">
      <rect id="Rectángulo_400898" data-name="Rectángulo 400898" width="69.048" height="69.048" rx="34.524" transform="translate(4.655 4.655)" fill="#0f6646" opacity="0.859"/>
      <g id="Rectángulo_400907" data-name="Rectángulo 400907" fill="none" stroke="#4d812e" stroke-linecap="round" stroke-width="2" stroke-dasharray="7">
        <rect width="77.582" height="77.582" rx="38.791" stroke="none"/>
        <rect x="1" y="1" width="75.582" height="75.582" rx="37.791" fill="none"/>
      </g>
    </g>
    <g id="Grupo_1099696" data-name="Grupo 1099696" transform="translate(548.277 2049.661)">
      <g id="Grupo_1099695" data-name="Grupo 1099695" clip-path="url(#clip-path-2)">
        <path id="Trazado_880285" data-name="Trazado 880285" d="M32.492,20.854q0,9.781,0,19.562c0,1.093-.076,1.171-1.141,1.171q-13.6,0-27.192,0A3.9,3.9,0,0,1,0,37.415q0-16.64,0-33.28A3.9,3.9,0,0,1,4.116,0Q17.753,0,31.389,0c1.011,0,1.1.094,1.1,1.128q0,9.862,0,19.724M5.888,33.727H31.121V1.35H5.888Zm-1.394-.156V1.34c-2.069-.119-3.186.91-3.187,2.9q0,14.82,0,29.641v.6l3.188-.916m24,6.068H12.866c-2.949,0-5.9.009-8.848,0a1.952,1.952,0,0,1-2.061-2.1,1.987,1.987,0,0,1,2.2-1.8q8.97-.005,17.94,0c1.975,0,3.951-.005,5.926,0,.475,0,.767-.077.417-.648h-4.2q-10.025,0-20.051-.005a2.633,2.633,0,0,0-2.634,1.53,2.585,2.585,0,0,0,2.527,3.663q9.335.017,18.671,0c1.759,0,3.518-.006,5.276,0,.422,0,.7-.061.473-.649m.052-2.6H4.338c-.162,0-.375-.056-.476.024-.228.18-.52.413-.554.656-.024.172.307.438.531.583.136.088.369.03.558.03q11.73,0,23.46,0c.234,0,.467-.028.692-.042Zm1.4,3.207h1.2V35.126h-1.2Z" transform="translate(0 0)" fill="#ffe8b6"/>
        <path id="Trazado_880286" data-name="Trazado 880286" d="M115.223,60.941a8.447,8.447,0,1,1-8.428-8.487,8.464,8.464,0,0,1,8.428,8.487m-8.442,1.906c2.029,0,4.059-.018,6.088.011.577.008.945-.092.935-.757-.011-.805-.007-1.611,0-2.417,0-.592-.281-.749-.864-.745-3.653.028-7.306.008-10.958.019-.691,0-1.381.077-2.071.118-.082.853-.172,1.706-.239,2.56a5.54,5.54,0,0,0,.09.558c.017.513.254.671.771.664,2.083-.03,4.167-.012,6.25-.012m-6.335-5.263H113.13a7.089,7.089,0,0,0-6.7-3.8,6.967,6.967,0,0,0-5.983,3.8m12.664,6.642H100.439a7.182,7.182,0,0,0,12.671,0" transform="translate(-88.58 -47.253)" fill="#ffe8b6"/>
        <path id="Trazado_880287" data-name="Trazado 880287" d="M107.488,243.576q-3.772,0-7.545,0c-.216,0-.481.064-.637-.037-.22-.142-.5-.41-.494-.622s.285-.472.508-.61c.159-.1.421-.035.637-.035h15.171c.162,0,.368-.06.478.016a6.238,6.238,0,0,1,.692.643c-.232.214-.448.586-.7.613a22.482,22.482,0,0,1-2.349.033h-5.76" transform="translate(-89.016 -218.231)" fill="#ffe8b6"/>
        <path id="Trazado_880288" data-name="Trazado 880288" d="M107.425,262.115q3.813,0,7.626,0c.479,0,1.011-.006,1.033.619.024.687-.531.69-1.042.69q-7.707,0-15.414,0c-.479,0-1.01.005-1.032-.619-.024-.689.532-.69,1.042-.689q3.894.006,7.788,0" transform="translate(-88.819 -236.126)" fill="#ffe8b6"/>
        <path id="Trazado_880289" data-name="Trazado 880289" d="M148.551,283.076c-1.026,0-2.053-.005-3.079,0-.484,0-1-.009-1.017-.635s.482-.675.977-.674q3.2.009,6.4,0c.483,0,1.007.009,1.016.634.009.687-.551.676-1.057.674-1.081,0-2.161,0-3.242,0" transform="translate(-130.132 -253.832)" fill="#ffe8b6"/>
      </g>
    </g>
  </g>
</svg>
