<svg xmlns="http://www.w3.org/2000/svg" xmlns:xlink="http://www.w3.org/1999/xlink" width="176.071" height="92.209" viewBox="0 0 176.071 92.209">
  <defs>
    <clipPath id="clip-path">
      <rect id="Rectángulo_400902" data-name="Rectángulo 400902" width="36.408" height="31.536" fill="#4d812e"/>
    </clipPath>
    <clipPath id="clip-path-2">
      <rect id="Rectángulo_402143" data-name="Rectángulo 402143" width="36.946" height="35.753" fill="#ffe8b6"/>
    </clipPath>
  </defs>
  <g id="Grupo_1100055" data-name="Grupo 1100055" transform="translate(-475 -2232.473)">
    <path id="Rectángulo_401384" data-name="Rectángulo 401384" d="M0,0H176.071a0,0,0,0,1,0,0V0a12.534,12.534,0,0,1-12.534,12.534h-151A12.534,12.534,0,0,1,0,0V0A0,0,0,0,1,0,0Z" transform="translate(475 2312.147)" fill="#77af8f"/>
    <path id="Rectángulo_401385" data-name="Rectángulo 401385" d="M0,0H22.669a40,40,0,0,1,40,40V176.071a0,0,0,0,1,0,0H0a0,0,0,0,1,0,0V0A0,0,0,0,1,0,0Z" transform="translate(475 2312.147) rotate(-90)" fill="#daf2e4"/>
    <g id="Grupo_1099480" data-name="Grupo 1099480" transform="translate(600.339 2286.879)">
      <g id="Grupo_1098724" data-name="Grupo 1098724" transform="translate(0 0)">
        <g id="Grupo_1098723" data-name="Grupo 1098723" clip-path="url(#clip-path)">
          <path id="Trazado_872910" data-name="Trazado 872910" d="M1.454.71a.719.719,0,0,1-.727.71A.718.718,0,0,1,0,.71.719.719,0,0,1,.727,0a.719.719,0,0,1,.727.71" fill="#4d812e"/>
          <path id="Trazado_872911" data-name="Trazado 872911" d="M30.408.71a.727.727,0,0,1-1.454,0,.727.727,0,0,1,1.454,0" transform="translate(-21.963)" fill="#4d812e"/>
          <path id="Trazado_872912" data-name="Trazado 872912" d="M59.361.71a.727.727,0,0,1-1.454,0,.727.727,0,0,1,1.454,0" transform="translate(-43.925)" fill="#4d812e"/>
          <path id="Trazado_872913" data-name="Trazado 872913" d="M88.314.71a.727.727,0,0,1-1.454,0,.727.727,0,0,1,1.454,0" transform="translate(-65.887)" fill="#4d812e"/>
          <path id="Trazado_872914" data-name="Trazado 872914" d="M117.267.71a.727.727,0,0,1-1.454,0,.727.727,0,0,1,1.454,0" transform="translate(-87.85)" fill="#4d812e"/>
          <path id="Trazado_872915" data-name="Trazado 872915" d="M146.221.71a.727.727,0,0,1-1.454,0,.727.727,0,0,1,1.454,0" transform="translate(-109.813)" fill="#4d812e"/>
          <path id="Trazado_872916" data-name="Trazado 872916" d="M1.454,32.625a.719.719,0,0,1-.727.71.71.71,0,1,1,0-1.42.719.719,0,0,1,.727.71" transform="translate(0 -24.386)" fill="#4d812e"/>
          <path id="Trazado_872917" data-name="Trazado 872917" d="M30.408,32.625a.727.727,0,1,1-.727-.71.719.719,0,0,1,.727.71" transform="translate(-21.963 -24.386)" fill="#4d812e"/>
          <path id="Trazado_872918" data-name="Trazado 872918" d="M59.361,32.625a.727.727,0,1,1-.727-.71.719.719,0,0,1,.727.71" transform="translate(-43.925 -24.386)" fill="#4d812e"/>
          <path id="Trazado_872919" data-name="Trazado 872919" d="M88.314,32.625a.727.727,0,1,1-.727-.71.719.719,0,0,1,.727.71" transform="translate(-65.887 -24.386)" fill="#4d812e"/>
          <path id="Trazado_872920" data-name="Trazado 872920" d="M117.267,32.625a.727.727,0,1,1-.727-.71.719.719,0,0,1,.727.71" transform="translate(-87.85 -24.386)" fill="#4d812e"/>
          <path id="Trazado_872921" data-name="Trazado 872921" d="M146.221,32.625a.727.727,0,1,1-.727-.71.719.719,0,0,1,.727.71" transform="translate(-109.813 -24.386)" fill="#4d812e"/>
          <path id="Trazado_872922" data-name="Trazado 872922" d="M1.454,64.54a.719.719,0,0,1-.727.71.71.71,0,1,1,0-1.42.719.719,0,0,1,.727.71" transform="translate(0 -48.772)" fill="#4d812e"/>
          <path id="Trazado_872923" data-name="Trazado 872923" d="M30.408,64.54a.727.727,0,1,1-.727-.71.719.719,0,0,1,.727.71" transform="translate(-21.963 -48.772)" fill="#4d812e"/>
          <path id="Trazado_872924" data-name="Trazado 872924" d="M59.361,64.54a.727.727,0,1,1-.727-.71.719.719,0,0,1,.727.71" transform="translate(-43.925 -48.772)" fill="#4d812e"/>
          <path id="Trazado_872925" data-name="Trazado 872925" d="M88.314,64.54a.727.727,0,1,1-.727-.71.719.719,0,0,1,.727.71" transform="translate(-65.887 -48.772)" fill="#4d812e"/>
          <path id="Trazado_872926" data-name="Trazado 872926" d="M117.267,64.54a.727.727,0,1,1-.727-.71.719.719,0,0,1,.727.71" transform="translate(-87.85 -48.772)" fill="#4d812e"/>
          <path id="Trazado_872927" data-name="Trazado 872927" d="M146.221,64.54a.727.727,0,1,1-.727-.71.719.719,0,0,1,.727.71" transform="translate(-109.813 -48.772)" fill="#4d812e"/>
          <path id="Trazado_872928" data-name="Trazado 872928" d="M1.454,96.455a.719.719,0,0,1-.727.71.71.71,0,1,1,0-1.42.719.719,0,0,1,.727.71" transform="translate(0 -73.158)" fill="#4d812e"/>
          <path id="Trazado_872929" data-name="Trazado 872929" d="M30.408,96.455a.727.727,0,1,1-.727-.71.719.719,0,0,1,.727.71" transform="translate(-21.963 -73.158)" fill="#4d812e"/>
          <path id="Trazado_872930" data-name="Trazado 872930" d="M59.361,96.455a.727.727,0,1,1-.727-.71.719.719,0,0,1,.727.71" transform="translate(-43.925 -73.158)" fill="#4d812e"/>
          <path id="Trazado_872931" data-name="Trazado 872931" d="M88.314,96.455a.727.727,0,1,1-.727-.71.719.719,0,0,1,.727.71" transform="translate(-65.887 -73.158)" fill="#4d812e"/>
          <path id="Trazado_872932" data-name="Trazado 872932" d="M117.267,96.455a.727.727,0,1,1-.727-.71.719.719,0,0,1,.727.71" transform="translate(-87.85 -73.158)" fill="#4d812e"/>
          <path id="Trazado_872933" data-name="Trazado 872933" d="M146.221,96.455a.727.727,0,1,1-.727-.71.719.719,0,0,1,.727.71" transform="translate(-109.813 -73.158)" fill="#4d812e"/>
          <path id="Trazado_872934" data-name="Trazado 872934" d="M1.454,128.37a.719.719,0,0,1-.727.71.71.71,0,1,1,0-1.42.719.719,0,0,1,.727.71" transform="translate(0 -97.544)" fill="#4d812e"/>
          <path id="Trazado_872935" data-name="Trazado 872935" d="M30.408,128.37a.727.727,0,1,1-.727-.71.719.719,0,0,1,.727.71" transform="translate(-21.963 -97.544)" fill="#4d812e"/>
          <path id="Trazado_872936" data-name="Trazado 872936" d="M59.361,128.37a.727.727,0,1,1-.727-.71.719.719,0,0,1,.727.71" transform="translate(-43.925 -97.544)" fill="#4d812e"/>
          <path id="Trazado_872937" data-name="Trazado 872937" d="M88.314,128.37a.727.727,0,1,1-.727-.71.719.719,0,0,1,.727.71" transform="translate(-65.887 -97.544)" fill="#4d812e"/>
          <path id="Trazado_872938" data-name="Trazado 872938" d="M117.267,128.37a.727.727,0,1,1-.727-.71.719.719,0,0,1,.727.71" transform="translate(-87.85 -97.544)" fill="#4d812e"/>
          <path id="Trazado_872939" data-name="Trazado 872939" d="M146.221,128.37a.727.727,0,1,1-.727-.71.719.719,0,0,1,.727.71" transform="translate(-109.813 -97.544)" fill="#4d812e"/>
        </g>
      </g>
    </g>
    <g id="Grupo_1098742" data-name="Grupo 1098742" transform="translate(525.732 2232.473)">
      <rect id="Rectángulo_400898" data-name="Rectángulo 400898" width="69.048" height="69.048" rx="34.524" transform="translate(4.655 4.655)" fill="#0f6646" opacity="0.859"/>
      <g id="Rectángulo_400907" data-name="Rectángulo 400907" fill="none" stroke="#4d812e" stroke-linecap="round" stroke-width="2" stroke-dasharray="7">
        <rect width="77.582" height="77.582" rx="38.791" stroke="none"/>
        <rect x="1" y="1" width="75.582" height="75.582" rx="37.791" fill="none"/>
      </g>
    </g>
    <g id="Grupo_1099698" data-name="Grupo 1099698" transform="translate(546.05 2251.127)">
      <g id="Grupo_1099697" data-name="Grupo 1099697" clip-path="url(#clip-path-2)">
        <path id="Trazado_880290" data-name="Trazado 880290" d="M1.374,209.134q0-.43,0-.86c0-1.065,0-1.076,1.005-1.3q6.278-1.415,12.558-2.822a2.565,2.565,0,0,1,3.017,1.237c.321.5.633,1,1.01,1.592.386-.617.7-1.144,1.04-1.659a2.562,2.562,0,0,1,2.915-1.186q6.209,1.393,12.417,2.795c1.207.271,1.208.266,1.21,1.5,0,.238,0,.477,0,.7a2.722,2.722,0,0,1,.665.285.54.54,0,0,1-.256.945,3.021,3.021,0,0,1-.717.03H1.528c-.408,0-.943.063-.958-.473-.008-.29.4-.591.615-.887l.19.107m33.994-1.006c-4.31-.975-8.565-1.945-12.824-2.893a1.412,1.412,0,0,0-1.582.743c-.469.754-.931,1.513-1.42,2.254-.386.585-.777.584-1.166,0-.476-.721-.916-1.465-1.383-2.192a1.461,1.461,0,0,0-1.83-.753q-3.475.779-6.948,1.566c-1.887.426-3.773.856-5.642,1.279v1.052H35.368Z" transform="translate(-0.487 -174.64)" fill="#ffe8b6"/>
        <path id="Trazado_880291" data-name="Trazado 880291" d="M77.751,42.207c1.543.889,2.086,1.708,1.94,2.969-.586-.019-1.066-.065-1.255-.819A1.523,1.523,0,0,0,77.019,43.3c-.79-.106-.936-.328-.617-1.022a1.41,1.41,0,0,0-.15-1.617,1.385,1.385,0,0,0-1.623-.431c-.592.2-.9-.012-.935-.676a1.086,1.086,0,0,0-1.206-1.142.748.748,0,0,1-.848-.663,1.713,1.713,0,0,0-3.354-.008.747.747,0,0,1-.842.671,1.078,1.078,0,0,0-1.213,1.132c-.036.656-.328.886-.927.688a1.388,1.388,0,0,0-1.625.421,1.42,1.42,0,0,0-.127,1.677c.293.6.109.891-.564.963A1.548,1.548,0,0,0,61.5,44.349c-.194.752-.667.809-1.334.837a2.9,2.9,0,0,1,1.822-2.863,13.429,13.429,0,0,1,.683-2.218,2.162,2.162,0,0,1,1.908-1.114.926.926,0,0,0,.767-.464,9.3,9.3,0,0,1,1.373-1.182q.356-.3.706-.6a11.235,11.235,0,0,1,1.558-1.315.679.679,0,0,0,.408-.71c-.008-1.345-.024-2.691.008-4.035a1.135,1.135,0,0,0-.493-1.023c-1.469-1.173-2.562-2.611-2.361-4.593a8.914,8.914,0,0,1,.87-2.783c.586-1.257,1.312-2.449,2.005-3.653a.79.79,0,0,1,.537-.38.773.773,0,0,1,.547.365c.682,1.183,1.314,2.394,1.992,3.58,1.588,2.778,1.146,5.337-1.348,7.361a1.458,1.458,0,0,0-.617,1.327c.044,1.272.025,2.546.006,3.819-.006.379.041.665.481.721a.341.341,0,0,1,.065.03c.851.315,1.122,1.27,1.747,1.7.676.467,1.5.684,1.88,1.527a.555.555,0,0,0,.342.278c2.135.43,2.666,1.062,2.7,3.247m-7.21-13.642c1.266-1.179,2.112-2.418,1.6-3.971a37.985,37.985,0,0,0-2-4.305l-.3.034a38.7,38.7,0,0,0-1.937,3.728,3.575,3.575,0,0,0,1.478,4.374c0-.875-.047-1.709.027-2.532.024-.264.365-.5.561-.749.19.255.519.5.543.768.073.808.026,1.627.026,2.654" transform="translate(-51.49 -15.621)" fill="#ffe8b6"/>
        <path id="Trazado_880292" data-name="Trazado 880292" d="M4.956,69.446a6.4,6.4,0,0,1,2.479,4.208,9.24,9.24,0,0,1,.059,2.009c-.023.278-.3.715-.524.758-.484.093-.619-.322-.61-.756a2.871,2.871,0,0,0-.03-.313h-5.1a1.265,1.265,0,0,0-.044.23c.006.439-.05.884-.609.862s-.535-.487-.559-.912a6.792,6.792,0,0,1,2.627-6.123A6.4,6.4,0,0,1,.111,65.16a12.958,12.958,0,0,1-.058-2.441c.014-.23.375-.439.577-.658a3.048,3.048,0,0,1,.53.65,2.058,2.058,0,0,1,.018.741H6.365a1.836,1.836,0,0,1,.018-.724,3.322,3.322,0,0,1,.585-.667c.183.213.508.414.528.642.221,2.57-.315,4.876-2.451,6.576-.033.026-.044.079-.09.167M6.285,64.7H1.231c.129,1.1.129,1.1,1.129,1.1H5.233c1,0,1,0,1.052-1.1m.023,9.419C6.192,73.01,6.192,73.01,5.13,73.01H2.4c-1.062,0-1.062,0-1.163,1.109Zm-.819-7.1H2.029c1.627,2.163,1.867,2.067,3.41.135a.735.735,0,0,0,.049-.135m-.056,4.8.183-.24c-.487-.42-.957-.86-1.47-1.246a.676.676,0,0,0-.616-.077c-.542.435-1.034.932-1.544,1.407l.121.155Z" transform="translate(0 -53.116)" fill="#ffe8b6"/>
        <path id="Trazado_880293" data-name="Trazado 880293" d="M208.891,69.4a6.83,6.83,0,0,1,2.647,6.176c-.025.438-.043.878-.6.871-.507-.006-.576-.417-.565-.833a2.168,2.168,0,0,0-.027-.255h-5.079a.448.448,0,0,0-.061.134c-.02.435.016.959-.6.951s-.553-.523-.578-.963a6.758,6.758,0,0,1,2.614-6.06c-.183-.167-.336-.307-.49-.446-1.914-1.726-2.3-3.965-2.087-6.378a.752.752,0,0,1,.554-.494c.191,0,.449.3.543.52a2.381,2.381,0,0,1,.02.825h5.192a1.565,1.565,0,0,1,.015-.628,4.89,4.89,0,0,1,.571-.757c.19.255.526.5.548.767.21,2.575-.375,4.869-2.618,6.57m1.435-4.693H205.24c.138,1.094.138,1.094,1.142,1.094h2.8c1,0,1,0,1.144-1.094m-.008,9.415c-.111-1.11-.111-1.11-1.175-1.11h-2.728c-1.062,0-1.062,0-1.166,1.11Zm-4.18-7.144L206,67.16c.517.475,1.024.961,1.559,1.415a.457.457,0,0,0,.44.008c.541-.465,1.055-.962,1.578-1.448l-.139-.159Zm3.3,4.856.127-.186c-.5-.464-.989-.939-1.5-1.384a.477.477,0,0,0-.441-.065c-.559.474-1.091.983-1.631,1.48l.154.154Z" transform="translate(-174.608 -53.117)" fill="#ffe8b6"/>
        <path id="Trazado_880294" data-name="Trazado 880294" d="M68.333,86.1c0,1.736-.212,1.959-1.946,2.06a4.429,4.429,0,0,1-4.794-3.2c-.468-1.331-.863-2.688-1.275-4.038a.572.572,0,0,1,.74-.774c1.275.323,2.556.631,3.816,1,2.278.675,3.461,2.4,3.46,4.952m-1.988.866c-.718-.657-1.329-1.224-1.949-1.781-.321-.289-.645-.614-.284-1.027s.725-.142,1.046.153c.63.578,1.268,1.148,1.932,1.748a3.143,3.143,0,0,0-1.563-3.324,32.948,32.948,0,0,0-3.747-1.21c.415,1.331.673,2.435,1.1,3.467a3.086,3.086,0,0,0,3.463,1.975" transform="translate(-51.589 -68.565)" fill="#ffe8b6"/>
        <path id="Trazado_880295" data-name="Trazado 880295" d="M140.008,86.533a4.83,4.83,0,0,1,4.237-5.16c.982-.2,1.941-.52,2.92-.741a.989.989,0,0,1,.762.121c.13.111.121.483.058.706-.328,1.15-.7,2.287-1.044,3.433a4.71,4.71,0,0,1-6.094,3.532.819.819,0,0,1-.747-.817c-.018-.359-.06-.716-.092-1.074m2.09.817a2.838,2.838,0,0,0,3.234-1.662,35.219,35.219,0,0,0,1.2-3.487l-.155-.179a28.944,28.944,0,0,0-3.448,1.082,3.065,3.065,0,0,0-1.571,3.489c.546-.627.992-1.157,1.458-1.669.27-.3.6-.569.982-.2.4.388.137.725-.174,1.04-.514.52-1.013,1.055-1.523,1.588" transform="translate(-119.829 -68.988)" fill="#ffe8b6"/>
        <path id="Trazado_880296" data-name="Trazado 880296" d="M46.742.006a2.595,2.595,0,1,1-2.582,2.625A2.6,2.6,0,0,1,46.742.006m1.448,2.561a1.435,1.435,0,1,0-2.87.067,1.435,1.435,0,1,0,2.87-.067" transform="translate(-37.794 -0.005)" fill="#ffe8b6"/>
        <path id="Trazado_880297" data-name="Trazado 880297" d="M181.348,2.627A2.6,2.6,0,1,1,178.768,0a2.6,2.6,0,0,1,2.58,2.627m-2.61,1.4a1.449,1.449,0,0,0,1.451-1.383,1.436,1.436,0,0,0-2.87-.1,1.451,1.451,0,0,0,1.419,1.487" transform="translate(-150.768 0)" fill="#ffe8b6"/>
        <path id="Trazado_880298" data-name="Trazado 880298" d="M72.165,42.043a2.018,2.018,0,1,1,2.035-2,2.028,2.028,0,0,1-2.035,2m.887-2.07a.851.851,0,0,0-.9-.795.846.846,0,0,0,.025,1.692c.538.005.807-.339.876-.9" transform="translate(-60.051 -32.529)" fill="#ffe8b6"/>
        <path id="Trazado_880299" data-name="Trazado 880299" d="M162.2,40.042a2.018,2.018,0,1,1-2-2.039,2.033,2.033,0,0,1,2,2.039m-1.152-.034c-.08-.519-.358-.852-.9-.834a.846.846,0,0,0,.026,1.692c.538.006.807-.338.87-.858" transform="translate(-135.367 -32.525)" fill="#ffe8b6"/>
        <path id="Trazado_880300" data-name="Trazado 880300" d="M102.754,178.3c-.318.129-.739.417-.853.325a11.565,11.565,0,0,1-1.523-1.536c-.067-.078.094-.48.248-.579a.678.678,0,0,1,.634.036,13.918,13.918,0,0,1,1.212,1.189,2.928,2.928,0,0,1,.282.564" transform="translate(-85.897 -151.016)" fill="#ffe8b6"/>
        <path id="Trazado_880301" data-name="Trazado 880301" d="M140.242,178.335c.318.337.654.541.7.8.028.159-.37.415-.6.594a1.929,1.929,0,0,1-.653.365,1.169,1.169,0,0,1-.8,0,.741.741,0,0,1-.035-.72,11.531,11.531,0,0,1,1.389-1.039" transform="translate(-118.774 -152.632)" fill="#ffe8b6"/>
        <path id="Trazado_880302" data-name="Trazado 880302" d="M126.749,161.072a11.367,11.367,0,0,1-.965,1.4.732.732,0,0,1-.727-.014c-.137-.128-.121-.5-.058-.739a2.4,2.4,0,0,1,.437-.863c.167-.208.459-.472.665-.448s.379.373.647.668" transform="translate(-106.943 -137.283)" fill="#ffe8b6"/>
      </g>
    </g>
  </g>
</svg>
