<svg xmlns="http://www.w3.org/2000/svg" xmlns:xlink="http://www.w3.org/1999/xlink" width="176.071" height="92.21" viewBox="0 0 176.071 92.21">
  <defs>
    <clipPath id="clip-path">
      <rect id="Rectángulo_400902" data-name="Rectángulo 400902" width="36.408" height="31.536" fill="#4d812e"/>
    </clipPath>
    <clipPath id="clip-path-2">
      <rect id="Rectángulo_402151" data-name="Rectángulo 402151" width="39.356" height="39.381" fill="#ffe8b6"/>
    </clipPath>
  </defs>
  <g id="Grupo_1100055" data-name="Grupo 1100055" transform="translate(-475 -2378.094)">
    <path id="Rectángulo_401384" data-name="Rectángulo 401384" d="M0,0H176.071a0,0,0,0,1,0,0V0a12.534,12.534,0,0,1-12.534,12.534h-151A12.534,12.534,0,0,1,0,0V0A0,0,0,0,1,0,0Z" transform="translate(475 2457.77)" fill="#77af8f"/>
    <path id="Rectángulo_401385" data-name="Rectángulo 401385" d="M0,0H22.669a40,40,0,0,1,40,40V176.071a0,0,0,0,1,0,0H0a0,0,0,0,1,0,0V0A0,0,0,0,1,0,0Z" transform="translate(475 2457.77) rotate(-90)" fill="#daf2e4"/>
    <g id="Grupo_1099480" data-name="Grupo 1099480" transform="translate(600.339 2432.501)">
      <g id="Grupo_1098724" data-name="Grupo 1098724" transform="translate(0 0)">
        <g id="Grupo_1098723" data-name="Grupo 1098723" clip-path="url(#clip-path)">
          <path id="Trazado_872910" data-name="Trazado 872910" d="M1.454.71a.719.719,0,0,1-.727.71A.718.718,0,0,1,0,.71.719.719,0,0,1,.727,0a.719.719,0,0,1,.727.71" fill="#4d812e"/>
          <path id="Trazado_872911" data-name="Trazado 872911" d="M30.408.71a.727.727,0,0,1-1.454,0,.727.727,0,0,1,1.454,0" transform="translate(-21.963)" fill="#4d812e"/>
          <path id="Trazado_872912" data-name="Trazado 872912" d="M59.361.71a.727.727,0,0,1-1.454,0,.727.727,0,0,1,1.454,0" transform="translate(-43.925)" fill="#4d812e"/>
          <path id="Trazado_872913" data-name="Trazado 872913" d="M88.314.71a.727.727,0,0,1-1.454,0,.727.727,0,0,1,1.454,0" transform="translate(-65.887)" fill="#4d812e"/>
          <path id="Trazado_872914" data-name="Trazado 872914" d="M117.267.71a.727.727,0,0,1-1.454,0,.727.727,0,0,1,1.454,0" transform="translate(-87.85)" fill="#4d812e"/>
          <path id="Trazado_872915" data-name="Trazado 872915" d="M146.221.71a.727.727,0,0,1-1.454,0,.727.727,0,0,1,1.454,0" transform="translate(-109.813)" fill="#4d812e"/>
          <path id="Trazado_872916" data-name="Trazado 872916" d="M1.454,32.625a.719.719,0,0,1-.727.71.71.71,0,1,1,0-1.42.719.719,0,0,1,.727.71" transform="translate(0 -24.386)" fill="#4d812e"/>
          <path id="Trazado_872917" data-name="Trazado 872917" d="M30.408,32.625a.727.727,0,1,1-.727-.71.719.719,0,0,1,.727.71" transform="translate(-21.963 -24.386)" fill="#4d812e"/>
          <path id="Trazado_872918" data-name="Trazado 872918" d="M59.361,32.625a.727.727,0,1,1-.727-.71.719.719,0,0,1,.727.71" transform="translate(-43.925 -24.386)" fill="#4d812e"/>
          <path id="Trazado_872919" data-name="Trazado 872919" d="M88.314,32.625a.727.727,0,1,1-.727-.71.719.719,0,0,1,.727.71" transform="translate(-65.887 -24.386)" fill="#4d812e"/>
          <path id="Trazado_872920" data-name="Trazado 872920" d="M117.267,32.625a.727.727,0,1,1-.727-.71.719.719,0,0,1,.727.71" transform="translate(-87.85 -24.386)" fill="#4d812e"/>
          <path id="Trazado_872921" data-name="Trazado 872921" d="M146.221,32.625a.727.727,0,1,1-.727-.71.719.719,0,0,1,.727.71" transform="translate(-109.813 -24.386)" fill="#4d812e"/>
          <path id="Trazado_872922" data-name="Trazado 872922" d="M1.454,64.54a.719.719,0,0,1-.727.71.71.71,0,1,1,0-1.42.719.719,0,0,1,.727.71" transform="translate(0 -48.772)" fill="#4d812e"/>
          <path id="Trazado_872923" data-name="Trazado 872923" d="M30.408,64.54a.727.727,0,1,1-.727-.71.719.719,0,0,1,.727.71" transform="translate(-21.963 -48.772)" fill="#4d812e"/>
          <path id="Trazado_872924" data-name="Trazado 872924" d="M59.361,64.54a.727.727,0,1,1-.727-.71.719.719,0,0,1,.727.71" transform="translate(-43.925 -48.772)" fill="#4d812e"/>
          <path id="Trazado_872925" data-name="Trazado 872925" d="M88.314,64.54a.727.727,0,1,1-.727-.71.719.719,0,0,1,.727.71" transform="translate(-65.887 -48.772)" fill="#4d812e"/>
          <path id="Trazado_872926" data-name="Trazado 872926" d="M117.267,64.54a.727.727,0,1,1-.727-.71.719.719,0,0,1,.727.71" transform="translate(-87.85 -48.772)" fill="#4d812e"/>
          <path id="Trazado_872927" data-name="Trazado 872927" d="M146.221,64.54a.727.727,0,1,1-.727-.71.719.719,0,0,1,.727.71" transform="translate(-109.813 -48.772)" fill="#4d812e"/>
          <path id="Trazado_872928" data-name="Trazado 872928" d="M1.454,96.455a.719.719,0,0,1-.727.71.71.71,0,1,1,0-1.42.719.719,0,0,1,.727.71" transform="translate(0 -73.158)" fill="#4d812e"/>
          <path id="Trazado_872929" data-name="Trazado 872929" d="M30.408,96.455a.727.727,0,1,1-.727-.71.719.719,0,0,1,.727.71" transform="translate(-21.963 -73.158)" fill="#4d812e"/>
          <path id="Trazado_872930" data-name="Trazado 872930" d="M59.361,96.455a.727.727,0,1,1-.727-.71.719.719,0,0,1,.727.71" transform="translate(-43.925 -73.158)" fill="#4d812e"/>
          <path id="Trazado_872931" data-name="Trazado 872931" d="M88.314,96.455a.727.727,0,1,1-.727-.71.719.719,0,0,1,.727.71" transform="translate(-65.887 -73.158)" fill="#4d812e"/>
          <path id="Trazado_872932" data-name="Trazado 872932" d="M117.267,96.455a.727.727,0,1,1-.727-.71.719.719,0,0,1,.727.71" transform="translate(-87.85 -73.158)" fill="#4d812e"/>
          <path id="Trazado_872933" data-name="Trazado 872933" d="M146.221,96.455a.727.727,0,1,1-.727-.71.719.719,0,0,1,.727.71" transform="translate(-109.813 -73.158)" fill="#4d812e"/>
          <path id="Trazado_872934" data-name="Trazado 872934" d="M1.454,128.37a.719.719,0,0,1-.727.71.71.71,0,1,1,0-1.42.719.719,0,0,1,.727.71" transform="translate(0 -97.544)" fill="#4d812e"/>
          <path id="Trazado_872935" data-name="Trazado 872935" d="M30.408,128.37a.727.727,0,1,1-.727-.71.719.719,0,0,1,.727.71" transform="translate(-21.963 -97.544)" fill="#4d812e"/>
          <path id="Trazado_872936" data-name="Trazado 872936" d="M59.361,128.37a.727.727,0,1,1-.727-.71.719.719,0,0,1,.727.71" transform="translate(-43.925 -97.544)" fill="#4d812e"/>
          <path id="Trazado_872937" data-name="Trazado 872937" d="M88.314,128.37a.727.727,0,1,1-.727-.71.719.719,0,0,1,.727.71" transform="translate(-65.887 -97.544)" fill="#4d812e"/>
          <path id="Trazado_872938" data-name="Trazado 872938" d="M117.267,128.37a.727.727,0,1,1-.727-.71.719.719,0,0,1,.727.71" transform="translate(-87.85 -97.544)" fill="#4d812e"/>
          <path id="Trazado_872939" data-name="Trazado 872939" d="M146.221,128.37a.727.727,0,1,1-.727-.71.719.719,0,0,1,.727.71" transform="translate(-109.813 -97.544)" fill="#4d812e"/>
        </g>
      </g>
    </g>
    <g id="Grupo_1098742" data-name="Grupo 1098742" transform="translate(525.732 2378.094)">
      <rect id="Rectángulo_400898" data-name="Rectángulo 400898" width="69.048" height="69.048" rx="34.524" transform="translate(4.655 4.655)" fill="#0f6646" opacity="0.859"/>
      <g id="Rectángulo_400907" data-name="Rectángulo 400907" fill="none" stroke="#4d812e" stroke-linecap="round" stroke-width="2" stroke-dasharray="7">
        <rect width="77.582" height="77.582" rx="38.791" stroke="none"/>
        <rect x="1" y="1" width="75.582" height="75.582" rx="37.791" fill="none"/>
      </g>
    </g>
    <g id="Grupo_1099700" data-name="Grupo 1099700" transform="translate(544.899 2397.194)">
      <g id="Grupo_1099699" data-name="Grupo 1099699" clip-path="url(#clip-path-2)">
        <path id="Trazado_880303" data-name="Trazado 880303" d="M31.8,34.3a14.067,14.067,0,0,1,1.689.02,1.036,1.036,0,0,1,.742.433,3.511,3.511,0,0,1-2.925,4.624c-.158.01-.317.007-.476.007q-11.151,0-22.3,0a3.189,3.189,0,0,1-3.446-3.472q0-12.977,0-25.953V8.9c-1.327,0-2.612,0-3.9,0C.09,8.9.007,8.815.005,7.726c0-1.482-.011-2.963,0-4.445A3.146,3.146,0,0,1,3.25.01Q15.275-.008,27.3.011a4.4,4.4,0,0,1,4.456,4.5q.029,5.516-.006,11.032a1.549,1.549,0,0,0,.521,1.241c1,.949,1.945,1.946,2.93,2.906a.76.76,0,0,1-.006,1.276c-.463.434-.9.894-1.35,1.343-.377.376-.718.825-1.344.346-.079-.061-.39.18-.684.327l3.513,3.508c1.216,1.216,2.422,2.443,3.653,3.642.483.471.511.873.006,1.333-.41.374-.8.768-1.178,1.178-.467.512-.866.455-1.332-.022-1.331-1.362-2.687-2.7-4.036-4.046-.179-.179-.371-.344-.638-.591ZM6.033,1.279a25.4,25.4,0,0,1,.313,2.79q.032,15.754.014,31.509c0,1.616.655,2.5,1.867,2.524,1.24.023,1.935-.886,1.938-2.533,0-1.212.06-1.274,1.241-1.274H30.485c0-2.258-.065-4.425.028-6.585a2.287,2.287,0,0,0-1.255-2.192c-.1.259-.306.559-.233.664.383.548.079.878-.282,1.23-.493.48-.983.963-1.458,1.46a.731.731,0,0,1-1.215.01q-2.063-2.09-4.152-4.153a.73.73,0,0,1,.03-1.215c.46-.437.926-.873,1.343-1.35.455-.52.916-.79,1.433-.328l3.489-3.494c-.5-.443-.262-.857.182-1.275a17.586,17.586,0,0,1,1.652-1.6,1,1,0,0,0,.443-.978c-.008-3.228,0-6.455-.005-9.683A3.209,3.209,0,0,0,26.939,1.28q-7.857,0-15.715,0H6.033m26.95,34.343H11.576L11.009,38.1h.647q9.554,0,19.108,0c1.626,0,2.342-.793,2.22-2.481M1.3,7.577H5.071c0-1.57.046-3.1-.017-4.618A1.84,1.84,0,0,0,3.172,1.282,1.829,1.829,0,0,0,1.318,2.9C1.246,4.446,1.3,6,1.3,7.577M27.821,24.938,31.2,21.57l-1.923-2.062L25.884,22.9l1.937,2.04m9.864,6.022-6.862-6.892-.411.451,6.843,6.849.43-.408m-8-13.294,3.435,3.447.751-.629L30.42,17.043l-.737.623M26.6,27.5l.929-.729-3.412-3.385L23.2,24.1l3.4,3.4" transform="translate(0 0)" fill="#ffe8b6"/>
        <path id="Trazado_880304" data-name="Trazado 880304" d="M77.883,193.934a5.717,5.717,0,1,1-5.671-5.742,5.731,5.731,0,0,1,5.671,5.742m-5.718-4.467a4.442,4.442,0,1,0,4.443,4.44,4.448,4.448,0,0,0-4.443-4.44" transform="translate(-58.824 -166.596)" fill="#ffe8b6"/>
        <rect id="Rectángulo_402144" data-name="Rectángulo 402144" width="20.891" height="1.178" transform="translate(8.294 3.856)" fill="#ffe8b6"/>
        <rect id="Rectángulo_402145" data-name="Rectángulo 402145" width="20.852" height="1.184" transform="translate(8.321 6.406)" fill="#ffe8b6"/>
        <rect id="Rectángulo_402146" data-name="Rectángulo 402146" width="20.891" height="1.17" transform="translate(8.274 8.954)" fill="#ffe8b6"/>
        <rect id="Rectángulo_402147" data-name="Rectángulo 402147" width="20.891" height="1.179" transform="translate(8.295 11.477)" fill="#ffe8b6"/>
        <rect id="Rectángulo_402148" data-name="Rectángulo 402148" width="20.891" height="1.179" transform="translate(8.295 14.017)" fill="#ffe8b6"/>
        <rect id="Rectángulo_402149" data-name="Rectángulo 402149" width="18.351" height="1.179" transform="translate(8.295 16.557)" fill="#ffe8b6"/>
        <rect id="Rectángulo_402150" data-name="Rectángulo 402150" width="17.047" height="1.177" transform="translate(8.304 19.119)" fill="#ffe8b6"/>
        <path id="Trazado_880305" data-name="Trazado 880305" d="M185.048,263.626c-1.634-.136-3.4.546-4.54-1l-2.993,1.207v-1.45a3.277,3.277,0,0,0,2.587-1.585.76.76,0,0,1,.65-.294.972.972,0,0,1,.515.594c.288,1,.577,1.25,1.608,1.258.661.006,1.323.006,1.984.013a.821.821,0,0,1,.19.063Z" transform="translate(-157.145 -230.596)" fill="#ffe8b6"/>
        <path id="Trazado_880306" data-name="Trazado 880306" d="M91.809,210.342a3.175,3.175,0,1,1-3.209,3.141,3.179,3.179,0,0,1,3.209-3.141m0,1.275a1.9,1.9,0,1,0,1.865,1.953,1.916,1.916,0,0,0-1.865-1.953" transform="translate(-78.433 -186.205)" fill="#ffe8b6"/>
      </g>
    </g>
  </g>
</svg>
