<svg xmlns="http://www.w3.org/2000/svg" xmlns:xlink="http://www.w3.org/1999/xlink" width="176.071" height="92.21" viewBox="0 0 176.071 92.21">
  <defs>
    <clipPath id="clip-path">
      <rect id="Rectángulo_400902" data-name="Rectángulo 400902" width="36.408" height="31.536" fill="#4d812e"/>
    </clipPath>
    <clipPath id="clip-path-2">
      <rect id="Rectángulo_402152" data-name="Rectángulo 402152" width="31.556" height="42.038" fill="#ffe8b6"/>
    </clipPath>
  </defs>
  <g id="Grupo_1100055" data-name="Grupo 1100055" transform="translate(-475 -2529.672)">
    <path id="Rectángulo_401384" data-name="Rectángulo 401384" d="M0,0H176.071a0,0,0,0,1,0,0V0a12.534,12.534,0,0,1-12.534,12.534h-151A12.534,12.534,0,0,1,0,0V0A0,0,0,0,1,0,0Z" transform="translate(475 2609.348)" fill="#77af8f"/>
    <path id="Rectángulo_401385" data-name="Rectángulo 401385" d="M0,0H22.669a40,40,0,0,1,40,40V176.071a0,0,0,0,1,0,0H0a0,0,0,0,1,0,0V0A0,0,0,0,1,0,0Z" transform="translate(475 2609.348) rotate(-90)" fill="#daf2e4"/>
    <g id="Grupo_1099480" data-name="Grupo 1099480" transform="translate(600.339 2584.079)">
      <g id="Grupo_1098724" data-name="Grupo 1098724" transform="translate(0 0)">
        <g id="Grupo_1098723" data-name="Grupo 1098723" clip-path="url(#clip-path)">
          <path id="Trazado_872910" data-name="Trazado 872910" d="M1.454.71a.719.719,0,0,1-.727.71A.718.718,0,0,1,0,.71.719.719,0,0,1,.727,0a.719.719,0,0,1,.727.71" fill="#4d812e"/>
          <path id="Trazado_872911" data-name="Trazado 872911" d="M30.408.71a.727.727,0,0,1-1.454,0,.727.727,0,0,1,1.454,0" transform="translate(-21.963)" fill="#4d812e"/>
          <path id="Trazado_872912" data-name="Trazado 872912" d="M59.361.71a.727.727,0,0,1-1.454,0,.727.727,0,0,1,1.454,0" transform="translate(-43.925)" fill="#4d812e"/>
          <path id="Trazado_872913" data-name="Trazado 872913" d="M88.314.71a.727.727,0,0,1-1.454,0,.727.727,0,0,1,1.454,0" transform="translate(-65.887)" fill="#4d812e"/>
          <path id="Trazado_872914" data-name="Trazado 872914" d="M117.267.71a.727.727,0,0,1-1.454,0,.727.727,0,0,1,1.454,0" transform="translate(-87.85)" fill="#4d812e"/>
          <path id="Trazado_872915" data-name="Trazado 872915" d="M146.221.71a.727.727,0,0,1-1.454,0,.727.727,0,0,1,1.454,0" transform="translate(-109.813)" fill="#4d812e"/>
          <path id="Trazado_872916" data-name="Trazado 872916" d="M1.454,32.625a.719.719,0,0,1-.727.71.71.71,0,1,1,0-1.42.719.719,0,0,1,.727.71" transform="translate(0 -24.386)" fill="#4d812e"/>
          <path id="Trazado_872917" data-name="Trazado 872917" d="M30.408,32.625a.727.727,0,1,1-.727-.71.719.719,0,0,1,.727.71" transform="translate(-21.963 -24.386)" fill="#4d812e"/>
          <path id="Trazado_872918" data-name="Trazado 872918" d="M59.361,32.625a.727.727,0,1,1-.727-.71.719.719,0,0,1,.727.71" transform="translate(-43.925 -24.386)" fill="#4d812e"/>
          <path id="Trazado_872919" data-name="Trazado 872919" d="M88.314,32.625a.727.727,0,1,1-.727-.71.719.719,0,0,1,.727.71" transform="translate(-65.887 -24.386)" fill="#4d812e"/>
          <path id="Trazado_872920" data-name="Trazado 872920" d="M117.267,32.625a.727.727,0,1,1-.727-.71.719.719,0,0,1,.727.71" transform="translate(-87.85 -24.386)" fill="#4d812e"/>
          <path id="Trazado_872921" data-name="Trazado 872921" d="M146.221,32.625a.727.727,0,1,1-.727-.71.719.719,0,0,1,.727.71" transform="translate(-109.813 -24.386)" fill="#4d812e"/>
          <path id="Trazado_872922" data-name="Trazado 872922" d="M1.454,64.54a.719.719,0,0,1-.727.71.71.71,0,1,1,0-1.42.719.719,0,0,1,.727.71" transform="translate(0 -48.772)" fill="#4d812e"/>
          <path id="Trazado_872923" data-name="Trazado 872923" d="M30.408,64.54a.727.727,0,1,1-.727-.71.719.719,0,0,1,.727.71" transform="translate(-21.963 -48.772)" fill="#4d812e"/>
          <path id="Trazado_872924" data-name="Trazado 872924" d="M59.361,64.54a.727.727,0,1,1-.727-.71.719.719,0,0,1,.727.71" transform="translate(-43.925 -48.772)" fill="#4d812e"/>
          <path id="Trazado_872925" data-name="Trazado 872925" d="M88.314,64.54a.727.727,0,1,1-.727-.71.719.719,0,0,1,.727.71" transform="translate(-65.887 -48.772)" fill="#4d812e"/>
          <path id="Trazado_872926" data-name="Trazado 872926" d="M117.267,64.54a.727.727,0,1,1-.727-.71.719.719,0,0,1,.727.71" transform="translate(-87.85 -48.772)" fill="#4d812e"/>
          <path id="Trazado_872927" data-name="Trazado 872927" d="M146.221,64.54a.727.727,0,1,1-.727-.71.719.719,0,0,1,.727.71" transform="translate(-109.813 -48.772)" fill="#4d812e"/>
          <path id="Trazado_872928" data-name="Trazado 872928" d="M1.454,96.455a.719.719,0,0,1-.727.71.71.71,0,1,1,0-1.42.719.719,0,0,1,.727.71" transform="translate(0 -73.158)" fill="#4d812e"/>
          <path id="Trazado_872929" data-name="Trazado 872929" d="M30.408,96.455a.727.727,0,1,1-.727-.71.719.719,0,0,1,.727.71" transform="translate(-21.963 -73.158)" fill="#4d812e"/>
          <path id="Trazado_872930" data-name="Trazado 872930" d="M59.361,96.455a.727.727,0,1,1-.727-.71.719.719,0,0,1,.727.71" transform="translate(-43.925 -73.158)" fill="#4d812e"/>
          <path id="Trazado_872931" data-name="Trazado 872931" d="M88.314,96.455a.727.727,0,1,1-.727-.71.719.719,0,0,1,.727.71" transform="translate(-65.887 -73.158)" fill="#4d812e"/>
          <path id="Trazado_872932" data-name="Trazado 872932" d="M117.267,96.455a.727.727,0,1,1-.727-.71.719.719,0,0,1,.727.71" transform="translate(-87.85 -73.158)" fill="#4d812e"/>
          <path id="Trazado_872933" data-name="Trazado 872933" d="M146.221,96.455a.727.727,0,1,1-.727-.71.719.719,0,0,1,.727.71" transform="translate(-109.813 -73.158)" fill="#4d812e"/>
          <path id="Trazado_872934" data-name="Trazado 872934" d="M1.454,128.37a.719.719,0,0,1-.727.71.71.71,0,1,1,0-1.42.719.719,0,0,1,.727.71" transform="translate(0 -97.544)" fill="#4d812e"/>
          <path id="Trazado_872935" data-name="Trazado 872935" d="M30.408,128.37a.727.727,0,1,1-.727-.71.719.719,0,0,1,.727.71" transform="translate(-21.963 -97.544)" fill="#4d812e"/>
          <path id="Trazado_872936" data-name="Trazado 872936" d="M59.361,128.37a.727.727,0,1,1-.727-.71.719.719,0,0,1,.727.71" transform="translate(-43.925 -97.544)" fill="#4d812e"/>
          <path id="Trazado_872937" data-name="Trazado 872937" d="M88.314,128.37a.727.727,0,1,1-.727-.71.719.719,0,0,1,.727.71" transform="translate(-65.887 -97.544)" fill="#4d812e"/>
          <path id="Trazado_872938" data-name="Trazado 872938" d="M117.267,128.37a.727.727,0,1,1-.727-.71.719.719,0,0,1,.727.71" transform="translate(-87.85 -97.544)" fill="#4d812e"/>
          <path id="Trazado_872939" data-name="Trazado 872939" d="M146.221,128.37a.727.727,0,1,1-.727-.71.719.719,0,0,1,.727.71" transform="translate(-109.813 -97.544)" fill="#4d812e"/>
        </g>
      </g>
    </g>
    <g id="Grupo_1098742" data-name="Grupo 1098742" transform="translate(525.732 2529.672)">
      <rect id="Rectángulo_400898" data-name="Rectángulo 400898" width="69.048" height="69.048" rx="34.524" transform="translate(4.655 4.655)" fill="#0f6646" opacity="0.859"/>
      <g id="Rectángulo_400907" data-name="Rectángulo 400907" fill="none" stroke="#4d812e" stroke-linecap="round" stroke-width="2" stroke-dasharray="7">
        <rect width="77.582" height="77.582" rx="38.791" stroke="none"/>
        <rect x="1" y="1" width="75.582" height="75.582" rx="37.791" fill="none"/>
      </g>
    </g>
    <g id="Grupo_1099702" data-name="Grupo 1099702" transform="translate(548.745 2546.68)">
      <g id="Grupo_1099701" data-name="Grupo 1099701" clip-path="url(#clip-path-2)">
        <path id="Trazado_880307" data-name="Trazado 880307" d="M22.115,37.415a2.075,2.075,0,0,1-2.365,1.348c-2.482-.089-4.969-.028-7.424-.028l-.852,1.958h9.505c.02.451.038.844.06,1.338H20.2q-5.824,0-11.648,0c-2.424,0-4.149-1.019-4.915-3.323a21.07,21.07,0,0,1-.963-5.2c-.274-4.133.574-8.154,1.509-12.157C5.093,17.47,6.02,13.591,6.791,9.683a34.751,34.751,0,0,0,.445-5.3A2.841,2.841,0,0,0,5.011,1.425,2.958,2.958,0,0,0,1.72,2.843a3.033,3.033,0,0,0-.287,1.708A1.494,1.494,0,0,0,2.967,5.877,1.726,1.726,0,0,0,4.552,4.452c.023-.106-.017-.253.042-.319.209-.237.449-.446.677-.666.209.273.576.533.6.82A2.922,2.922,0,0,1,3.96,7a2.747,2.747,0,0,1-3.077-.7A3.327,3.327,0,0,1,.428,2.4,4.241,4.241,0,0,1,4.277.02q9.8-.042,19.6,0a4.284,4.284,0,0,1,4.3,4.6A50.007,50.007,0,0,1,26.531,15.7c-.475,1.963-.969,3.921-1.467,5.931H23.738c.151-.666.315-1.337.455-2.012.831-4.008,1.687-8.011,2.462-12.029A16.549,16.549,0,0,0,26.847,4.4a2.927,2.927,0,0,0-2.96-3.065c-5.359-.021-10.718-.008-16.077-.006a1.77,1.77,0,0,0-.284.056c1.724,2.292,1.152,4.87.719,7.281-.859,4.778-2.011,9.5-3.065,14.247-.9,4.073-1.62,8.169-1.033,12.349a13.575,13.575,0,0,0,1.155,3.8A3.018,3.018,0,0,0,8.3,40.708,2.461,2.461,0,0,0,10.9,38.4c.089-.777.413-1,1.16-1,3.331.03,6.663.013,10.052.013" transform="translate(-0.001 0)" fill="#ffe8b6"/>
        <path id="Trazado_880308" data-name="Trazado 880308" d="M104.846,187.523c1.29.331,1.921,1,1.916,2.025s-.615,1.659-1.9,2.018a1.124,1.124,0,0,0,.533,1.426,2.331,2.331,0,0,1,.6,2.624,1.354,1.354,0,0,1-1.383.823c-1.5-.009-3.008-.02-4.512,0-.785.012-1.5-.061-1.815-.919a2.484,2.484,0,0,1,.648-2.565c.617-.524.617-.524.561-1.447h-.866q-5.127,0-10.255,0c-1.43,0-2.306-.761-2.3-1.982s.878-1.96,2.321-1.961q5.086,0,10.173,0h.884a1.152,1.152,0,0,0-.519-1.48,2.187,2.187,0,0,1-.538-2.676,1.963,1.963,0,0,1,1.316-.734c1.5-.092,3.006-.017,4.51-.041.785-.013,1.5.059,1.815.918a2.3,2.3,0,0,1-.66,2.543,1.178,1.178,0,0,0-.533,1.426m-5.325,1.411c-.178-.021-.283-.045-.388-.045q-5.415,0-10.829,0c-.136,0-.316-.035-.4.035-.192.162-.48.391-.466.573a1.068,1.068,0,0,0,.47.652c.151.105.423.044.641.044q5.087,0,10.173,0h.8Zm3.914-2.294h-2.522v5.814h2.522ZM99.6,184c-.092,1.114.032,1.26,1.063,1.265q1.517.007,3.035,0c1.01-.005,1.153-.181,1.028-1.265Zm-.018,11.062h5.181c.049-1.114-.076-1.251-1.116-1.255q-1.477,0-2.953,0c-1.052,0-1.164.126-1.111,1.255m5.264-6.177v1.262c.8-.424.811-.736,0-1.262" transform="translate(-75.248 -159.654)" fill="#ffe8b6"/>
        <path id="Trazado_880309" data-name="Trazado 880309" d="M181.98,306.628c-1.228,0-2.456-.013-3.684,0-.663.01-.954-.287-.922-.941.017-.354-.009-.71.008-1.064a1.927,1.927,0,0,1,1.927-1.933q2.66-.047,5.321,0a1.943,1.943,0,0,1,1.945,1.923c.12,1.981.091,2.011-1.893,2.011h-2.7m3.223-1.359c.1-1.1-.039-1.263-1.059-1.266q-2.174-.007-4.348,0c-1.02,0-1.153.166-1.032,1.266Z" transform="translate(-155.058 -264.595)" fill="#ffe8b6"/>
        <path id="Trazado_880310" data-name="Trazado 880310" d="M90.615,66.6q-2.993,0-5.987,0c-.491,0-1.005-.017-1-.666s.523-.656,1.011-.656q6.028,0,12.055,0c.5,0,1.01.035,1.006.666s-.52.659-1.015.658c-2.023-.006-4.046,0-6.069,0" transform="translate(-73.107 -57.07)" fill="#ffe8b6"/>
        <path id="Trazado_880311" data-name="Trazado 880311" d="M85.411,92.7q-2.993,0-5.987,0c-.485,0-1.007,0-1.02-.647s.5-.674.992-.674q6.028,0,12.056,0c.492,0,1.012.016,1.024.648s-.5.678-1,.676c-2.023-.007-4.046,0-6.069,0" transform="translate(-68.541 -79.883)" fill="#ffe8b6"/>
        <path id="Trazado_880312" data-name="Trazado 880312" d="M80.14,118.793q-2.993,0-5.987,0c-.5,0-.995-.039-.98-.688.014-.591.482-.634.951-.634q6.069,0,12.137,0c.5,0,1,.056.985.688-.014.57-.479.638-.956.637-2.05-.008-4.1,0-6.151,0" transform="translate(-63.968 -102.694)" fill="#ffe8b6"/>
        <path id="Trazado_880313" data-name="Trazado 880313" d="M75.039,144.889q-3.034,0-6.069,0c-.487,0-1.006,0-1.011-.655s.51-.666,1-.666q6.028,0,12.055,0c.495,0,1.011.025,1.016.656s-.506.67-1,.668c-2-.007-3.991,0-5.987,0" transform="translate(-59.41 -125.507)" fill="#ffe8b6"/>
      </g>
    </g>
  </g>
</svg>
