<svg xmlns="http://www.w3.org/2000/svg" xmlns:xlink="http://www.w3.org/1999/xlink" width="295" height="247" viewBox="0 0 295 247">
  <defs>
    <clipPath id="clip-path">
      <rect id="Rect치ngulo_401370" data-name="Rect치ngulo 401370" width="295" height="247" fill="none"/>
    </clipPath>
  </defs>
  <g id="Grupo_1100060" data-name="Grupo 1100060" transform="translate(-705.033 -10191)">
    <g id="Grupo_1099669" data-name="Grupo 1099669" transform="translate(705.033 10191.005)">
      <rect id="Rect치ngulo_401369" data-name="Rect치ngulo 401369" width="295" height="247" rx="20" transform="translate(0 -0.005)" fill="#002411"/>
      <path id="Trazado_878899" data-name="Trazado 878899" d="M1299.774,0V.025h57.516V0Z" transform="translate(-1168.771 -0.004)" fill="#132a13"/>
      <g id="Grupo_1099445" data-name="Grupo 1099445" transform="translate(0 -0.005)">
        <g id="Grupo_1099444" data-name="Grupo 1099444" clip-path="url(#clip-path)">
          <path id="Trazado_878900" data-name="Trazado 878900" d="M19.382,2165.61a9.719,9.719,0,0,0-5.651,3.2,23.09,23.09,0,0,0-5.379,9.144A75.623,75.623,0,0,1,0,2160.937v3.293a79.6,79.6,0,0,0,8.086,15.38.556.556,0,0,0,.556.242.57.57,0,0,0,.448-.416,22.256,22.256,0,0,1,5.432-9.8,11.513,11.513,0,0,1,2.744-2.135,25.4,25.4,0,0,0-6.417,15.361h1.126a23.71,23.71,0,0,1,7.828-16.225.594.594,0,0,0,.159-.675.565.565,0,0,0-.58-.351" transform="translate(0 -1935.887)" fill="#004322"/>
          <path id="Trazado_878901" data-name="Trazado 878901" d="M188.518,0V.025H131v15.52a75.62,75.62,0,0,0-15.838,9.842c-.619.48-1.243.954-1.867,1.429-1.672,1.272-3.387,2.576-5.019,3.986q-.816.705-1.6,1.448-.466.445-.925.908A59.459,59.459,0,0,0,99.4,40.88a.936.936,0,0,0-.074.953.843.843,0,0,0,.573.447.813.813,0,0,0,.807-.247c2.235-2.519,4.83-5.183,8.166-8.386a65.783,65.783,0,0,1,8.876-7.543,78.1,78.1,0,0,1,8.747-4.876c1.315-.659,2.846-1.4,4.509-2.108V54.837l-3.131,2.543c-.862-3.154-2.684-8.449-5.862-11.858a1.072,1.072,0,0,0-1.64.14,1.108,1.108,0,0,0-.122,1,35.769,35.769,0,0,1,2.1,15.205l-1.963,1.594a61.547,61.547,0,0,1-7.832,2.913.577.577,0,0,1-.305.008.6.6,0,0,1-.441-.7l.08-.487a30.115,30.115,0,0,0-.294-12.556,1.383,1.383,0,0,0-2.689.051c-.044.182-.092.375-.143.58-.1.409-.219.862-.348,1.347-.324,1.213-.73,2.63-1.207,4.093a32.746,32.746,0,0,1-4.15,9.015,2.451,2.451,0,0,1-1.659.979c-1.089.143-2.2.26-3.324.36a98.5,98.5,0,0,1-13.3.257,4.523,4.523,0,0,1-3.158-1.491,4.8,4.8,0,0,1-1.072-1.943c-.292-1.059-.57-2.174-.827-3.316-.4-1.785-.746-3.631-1.02-5.487a67.345,67.345,0,0,1-.7-12.729c1.307-1.172,9.559-8.408,14.285-8.674.541-.03,1.977-.109,1.952-1.107-.038-1.453-4.527-2.466-8.532-2.466a26.54,26.54,0,0,0-5.479.566.3.3,0,0,1-.29-.115.284.284,0,0,1-.045-.253,43.454,43.454,0,0,1,2.367-6.389,40.253,40.253,0,0,1,2.32-4.333,35.366,35.366,0,0,1,5.549-.414,31.163,31.163,0,0,1,14.61,3.353,5.733,5.733,0,0,0,2.408.954h0a.727.727,0,0,0,.765-.634c.222-1.734-9.586-9.2-16.549-11.562a48.872,48.872,0,0,1,11.406-7.92,3.3,3.3,0,0,1,1.971-.326,23.04,23.04,0,0,1,11.585,5.3,1.117,1.117,0,0,0,1.695-.312A1.171,1.171,0,0,0,118,8.87c-.978-1.725-3.176-4.213-8.094-6.269a.165.165,0,0,1-.106-.168.161.161,0,0,1,.113-.158c2.35-.855,4.861-1.612,7.478-2.276H113.1c-1.215.374-2.41.762-3.558,1.18a1.32,1.32,0,0,0-.865,1.223,1.331,1.331,0,0,0,.806,1.275c4.627,1.935,6.659,4.211,7.565,5.774A24.161,24.161,0,0,0,104.9,3.89a4.4,4.4,0,0,0-2.631.432,49.5,49.5,0,0,0-12.4,8.809.594.594,0,0,0-.156.564.572.572,0,0,0,.4.417c6.162,1.719,13.655,7.442,15.977,9.816-.228-.11-.5-.25-.835-.43A32.254,32.254,0,0,0,90.12,20.012a34.2,34.2,0,0,0-5.991.475.561.561,0,0,0-.368.255,41.234,41.234,0,0,0-2.523,4.678,44.58,44.58,0,0,0-2.432,6.563,1.477,1.477,0,0,0,.224,1.277,1.368,1.368,0,0,0,1.412.557,25.435,25.435,0,0,1,5.257-.544,17.805,17.805,0,0,1,7.045,1.2c-.135.021-.308.039-.524.051-5.506.31-14.757,8.766-15.149,9.126a.593.593,0,0,0-.187.408A67.971,67.971,0,0,0,77.5,56.664a15.591,15.591,0,0,0-8.221,3.652,21.234,21.234,0,0,0-7.339,13.994c-.387,3.558-.605,7.054-.647,10.39a.585.585,0,0,0,.293.518.547.547,0,0,0,.58-.026,23.179,23.179,0,0,1,3.267-1.823,7.077,7.077,0,0,1,3.16-.839,15.353,15.353,0,0,0-1.528,1.05,36.646,36.646,0,0,0-5.2,4.441c-.134.148-.264.295-.389.447a.594.594,0,0,0-.135.4,68.582,68.582,0,0,0,3.232,19.278.555.555,0,0,0,1.013.112,22.194,22.194,0,0,1,2.337-3.1l2.3-2.7a7.222,7.222,0,0,1,1.805-1.694,2.477,2.477,0,0,1,.861-.292,41.942,41.942,0,0,0-4.173,6.965,19.031,19.031,0,0,0-3.854,11.54c0,.467.023.927.055,1.385q-1.749,1.2-3.457,2.423l-12.122-3.415a28.467,28.467,0,0,0-3.258-4.606,19.275,19.275,0,0,0-15.036-6.928,28.666,28.666,0,0,0-8.46,1.4c-.13-.544-.264-1.044-.4-1.513a2.377,2.377,0,0,0-2.288-1.725,2.193,2.193,0,0,0-2.221,2.257c0,.033,0,.065,0,.1-3.376-1.9-9.174-4.576-15.081-4.576A18.1,18.1,0,0,0,0,103.971v1.176a16.723,16.723,0,0,1,2.585-.2c5.987,0,11.916,2.9,15.086,4.743,0,.351.019.7.03,1.058.008.288.012.576.024.864.018.436.044.871.069,1.307.015.258.026.517.043.775.032.5.07.993.109,1.488.015.195.028.391.043.585.055.684.113,1.365.17,2.04.168,1.99.343,4.048.428,6.058.21,4.95.315,9.394.32,13.52q0,.884,0,1.75a98.788,98.788,0,0,1-1.338,15.428c-.25,1.528-.537,3.078-.813,4.576-.193,1.039-.384,2.078-.566,3.117-.076.43-.143.861-.2,1.292-.18,1.291-.3,2.58-.415,3.835-.068.738-.136,1.478-.216,2.223a1.071,1.071,0,0,0,.24.83,1.04,1.04,0,0,0,.792.349,1.161,1.161,0,0,0,1.08-.714,48.825,48.825,0,0,0,2.62-7.438c.6-2.5,1-5.118,1.356-7.425.7-4.593,1.339-9.651,2.02-15.917a109.2,109.2,0,0,0,.6-15.718l-.006-.167q-.031-.827-.064-1.662c0-.116-.01-.234-.015-.35q-.027-.656-.058-1.314c-.009-.193-.021-.386-.031-.58-.019-.364-.038-.727-.061-1.092-.014-.224-.032-.448-.047-.672-.023-.334-.046-.668-.072-1-.019-.239-.043-.478-.065-.716-.029-.319-.057-.637-.091-.955-.026-.246-.057-.492-.086-.738-.037-.309-.073-.618-.115-.927-.034-.249-.074-.5-.111-.746-.046-.3-.092-.605-.144-.906-.043-.25-.092-.5-.14-.746-.04-.209-.074-.42-.118-.629,9.271-2.9,16.878-1.137,22.408,5.179a26.156,26.156,0,0,1,2.493,3.376L43.4,117.707a7.8,7.8,0,0,0-1.083-.306l1.079.3-1.079-.3h0c-5.268-1.075-10.669,3.456-12.8,10.375a21.13,21.13,0,0,0-.55,2.221q-.073.382-.132.761c-1.209,7.848,2.2,14.983,7.836,16.133a7.935,7.935,0,0,0,3.369-.05,17.132,17.132,0,0,0-.015,3.543,16.632,16.632,0,0,0,4.152,9.468l.014.015s2.293.643,6.135,1.491a74.466,74.466,0,0,1-6.771,14.516c-.419-.069-.836-.123-1.251-.17-.045-.005-.091-.014-.136-.019-.511-.055-1.019-.092-1.524-.113-.119,0-.235,0-.352-.006-.376-.009-.751-.015-1.123-.006-.18,0-.357.017-.536.026-.215.01-.432.013-.645.031-.046-.193-.1-.382-.147-.573s-.1-.4-.155-.6c-.078-.288-.161-.572-.245-.856-.054-.186-.107-.371-.164-.555-.1-.311-.2-.617-.3-.923-.051-.151-.1-.3-.152-.454q-.239-.679-.5-1.34a1.428,1.428,0,0,0-1.335-.926,1.453,1.453,0,0,0-1.452,1.344q-.071.7-.154,1.439c-.013.114-.028.234-.041.35-.044.38-.089.762-.139,1.157-.021.171-.046.351-.068.525-.045.347-.09.694-.139,1.055-.031.227-.065.465-.1.7-.036.261-.073.522-.112.791-.252.091-.5.2-.75.3-.138.057-.278.107-.415.167-.444.194-.883.4-1.317.631-.041.022-.082.048-.123.07q-.587.314-1.16.669c-.14.087-.278.184-.417.275-.217.142-.435.276-.648.427-.131-.1-.259-.19-.389-.286s-.248-.186-.372-.273c-.2-.139-.391-.27-.585-.4-.115-.077-.231-.157-.345-.232-.211-.135-.421-.261-.631-.386-.1-.057-.192-.119-.288-.174-.3-.174-.609-.339-.913-.492a1.38,1.38,0,0,0-.287-.1,1.45,1.45,0,0,0-.23-.037c-.016,0-.032,0-.049-.006-.037,0-.074-.013-.112-.013a1.735,1.735,0,0,0-1.167.479c-.024.022-.047.045-.07.068-.039.04-.076.082-.111.126-.015.018-.032.033-.046.052-.112-.057-.224-.1-.336-.159-.169-.082-.338-.163-.507-.24q-.317-.145-.632-.276c-.158-.066-.316-.132-.473-.194-.218-.085-.435-.164-.652-.24-.149-.053-.3-.106-.448-.155-.221-.071-.441-.136-.66-.2-.145-.041-.289-.083-.433-.12-.222-.057-.442-.106-.661-.154-.141-.031-.282-.062-.422-.088-.22-.042-.439-.075-.657-.107-.139-.021-.277-.042-.415-.059-.216-.026-.431-.043-.646-.059-.137-.009-.275-.022-.411-.028-.212-.01-.422-.011-.632-.01-.136,0-.273,0-.409,0-.207.006-.411.022-.616.038-.136.01-.272.017-.407.032-.2.022-.4.054-.6.085-.135.021-.271.038-.4.064-.2.037-.389.085-.583.131-.133.032-.268.059-.4.1-.192.052-.38.117-.57.179-.13.043-.261.08-.389.127-.19.069-.376.15-.563.229-.124.052-.25.1-.373.155-.191.088-.378.188-.567.286-.115.06-.231.113-.344.177-.206.115-.406.243-.607.371-.093.058-.186.109-.278.171q-.435.29-.857.62l-.048.043A20.666,20.666,0,0,0,1.2,184.745q-.177.324-.36.676c-.037.072-.076.149-.113.223-.084.165-.17.331-.255.5-.047.1-.095.2-.142.294-.077.159-.154.318-.232.484l-.1.216v2.905a39.463,39.463,0,0,1,2.181-4.73q.269-.493.549-.958a18.535,18.535,0,0,1,4.365-5.146l.049-.043c.06-.047.123-.086.184-.132.2-.15.4-.3.608-.436.11-.073.224-.135.336-.2.161-.1.32-.2.483-.292.124-.068.252-.127.378-.19.154-.078.308-.161.464-.232.132-.059.266-.108.4-.162.155-.063.31-.131.468-.187.136-.048.274-.086.412-.129.158-.049.315-.1.475-.146.14-.037.282-.064.423-.1.161-.036.322-.076.485-.105.142-.026.287-.041.43-.062.166-.024.33-.05.5-.067.143-.014.289-.019.434-.028.171-.011.341-.024.513-.028.145,0,.291,0,.437,0,.175,0,.35,0,.527.012.146.008.292.024.439.037.18.016.359.03.54.052.147.019.295.045.443.069.183.029.367.057.552.093.148.029.3.066.446.1.187.043.374.084.562.134.149.041.3.087.451.132.189.056.378.111.569.175.152.051.305.108.458.164.19.069.381.138.572.214.155.062.311.131.467.2.19.081.381.163.572.251.159.074.32.155.48.234q.2.1.406.2c0,.019.012.037.015.057a1.506,1.506,0,0,0,.066.254c.013.037.023.073.039.109a1.613,1.613,0,0,0,.19.332,64.77,64.77,0,0,0,6.156,6.685c1.407,1.39,2.862,2.828,4.2,4.328q.576.647,1.136,1.306c5.6,6.593,10.057,14.091,14.044,21.254,4.1,7.363,6.916,15.522,8.851,25.683a.759.759,0,0,0,.091.24.717.717,0,0,0,.622.353h0a.771.771,0,0,0,.587-.274.753.753,0,0,0,.171-.429.7.7,0,0,0-.005-.152,96.413,96.413,0,0,0-3.334-15.34l-.525-1.8a97.881,97.881,0,0,0-4.027-11.912,80.6,80.6,0,0,0-6.846-12.241,101.146,101.146,0,0,0-8.548-11.079q-.678-.762-1.357-1.507l-.128-.14q-.654-.715-1.321-1.406l-.2-.2q-.654-.671-1.329-1.312l-.229-.215c-.451-.421-.91-.831-1.381-1.227-.03-.025-.058-.052-.087-.077.117-.079.232-.161.349-.237.159-.1.319-.205.479-.3.248-.151.5-.293.75-.432.157-.087.314-.176.472-.258.276-.142.554-.272.834-.4.138-.063.274-.131.414-.191.407-.174.818-.334,1.232-.477l.036-.013q.5-.172,1.012-.315a18.818,18.818,0,0,1,3.13-.6q.718-.075,1.455-.1a22.4,22.4,0,0,1,4.532.337l.136.027A26.213,26.213,0,0,1,60.6,188.212c2.532,3.659,4.852,7.346,6.91,10.972a34.177,34.177,0,0,0-4.256.134c-2.274.194-5.449.754-6.756,3.364a.6.6,0,0,0,.067.639.554.554,0,0,0,.6.184,6.212,6.212,0,0,1,1.878-.255,19.34,19.34,0,0,1,2.309.186l.113.013a47.323,47.323,0,0,1,8.788,1.665c.169.057.335.114.5.173a92.808,92.808,0,0,1,8.165,23.591,38.024,38.024,0,0,0-3.976-1.633l-4.5-1.644a10.8,10.8,0,0,0-3.655-.862h-.069a4.021,4.021,0,0,0-3.558,1.97h0a.591.591,0,0,0,.227.787.55.55,0,0,0,.686-.124h.019c1.477,0,7.562,3.64,15.907,9.514.057.744.1,1.438.132,2.114a64.94,64.94,0,0,1-.119,7.971h1.122a66.338,66.338,0,0,0,.12-8.026c-.036-.772-.088-1.567-.158-2.43a.587.587,0,0,0-.243-.432c-4.709-3.321-12.586-8.67-15.859-9.7a3.516,3.516,0,0,1,1.792-.486,9.813,9.813,0,0,1,3.28.8l4.5,1.644a29.111,29.111,0,0,1,4.841,2.115.546.546,0,0,0,.279.076h.011a.572.572,0,0,0,.562-.581.6.6,0,0,0-.04-.215,93.293,93.293,0,0,0-8.567-25.184.568.568,0,0,0-.309-.281c-.242-.091-.488-.177-.746-.263a48.142,48.142,0,0,0-9-1.712l-.115-.014a16.88,16.88,0,0,0-3.138-.169c1.013-.907,2.645-1.435,5-1.637a30.665,30.665,0,0,1,5.129-.072l.043,0h.011a.572.572,0,0,0,.562-.581.592.592,0,0,0-.135-.378c-2.191-3.929-4.695-7.935-7.443-11.909a27.42,27.42,0,0,0-16.784-11.429,75.377,75.377,0,0,0,6.709-14.51A176.126,176.126,0,0,0,76.8,165.153H76.8c.24.058,23.718,5.7,24.744,20.409q.027.382.032.773a14.8,14.8,0,0,1-.061,1.594,16.7,16.7,0,0,1-.431,2.518q1.311.425,2.64.8l.043.013q1.318.375,2.648.7l.04.011h0a3.115,3.115,0,0,1-.99.89c-3.845,2.281-13.8-.181-12.732,5.623,1.175,6.374,20.1,21.107,26.62,18.321a3.263,3.263,0,0,0,1.787-1.866l.05.048c.2.19.408.389.63.6.059.053.117.107.178.162.254.233.522.47.809.717l.073.061c.3.255.615.519.95.785l.053.043q.534.427,1.134.871l.033.025a43.384,43.384,0,0,0,5.95,3.687V247h59.267v-.027h.964V140h0V0ZM108.1,32.8c-1.707,1.638-3.222,3.138-4.6,4.55A48.478,48.478,0,0,1,107.44,33.1c1.183-1.128,2.449-2.186,3.735-3.2-1.013.925-2.027,1.891-3.07,2.9M131,17.87c-1.853.771-3.558,1.591-5,2.313q-.937.469-1.838.927c-1.8.92-3.513,1.831-5.172,2.838a77.984,77.984,0,0,1,7.511-4.874q.678-.382,1.371-.747c.515-.272,1.034-.539,1.56-.8s1.041-.493,1.568-.727ZM22.928,123.451l.006.167a108.035,108.035,0,0,1-.592,15.544c-.68,6.248-1.319,11.29-2.013,15.865-.35,2.283-.747,4.871-1.337,7.326a46.991,46.991,0,0,1-2.493,7.1c.068-.655.128-1.307.188-1.957.159-1.727.309-3.357.6-5.03.182-1.037.373-2.072.564-3.106.278-1.5.566-3.061.818-4.6a100.084,100.084,0,0,0,1.354-15.615c.028-4.638-.076-9.652-.317-15.329q-.033-.763-.08-1.531c-.094-1.535-.224-3.075-.352-4.577-.233-2.746-.473-5.586-.486-8.358l0-.233c0-.277,0-.556,0-.832a1.049,1.049,0,0,1,1.1-1.113,1.243,1.243,0,0,1,1.213.9c.182.611.352,1.278.522,2.037a74.263,74.263,0,0,1,1.3,13.343m7.937,59.962.1.095.009.009c1.068,1.086,2.1,2.232,3.141,3.4a100.105,100.105,0,0,1,8.45,10.951,79.42,79.42,0,0,1,6.748,12.062c.618,1.411,1.17,2.866,1.68,4.34.849,2.457,1.58,4.968,2.295,7.428l.342,1.17c-.126-.34-.263-.668-.391-1a72.733,72.733,0,0,0-4.358-9.366q-.8-1.444-1.634-2.9a115.788,115.788,0,0,0-13.694-19.865c-1.361-1.528-2.83-2.978-4.25-4.382a63.8,63.8,0,0,1-6.048-6.561.332.332,0,0,1-.076-.283.456.456,0,0,1,.065-.148c.009-.014.018-.029.028-.042a.67.67,0,0,1,.1-.106.75.75,0,0,1,.084-.057c.017-.01.033-.02.05-.028a.621.621,0,0,1,.147-.054.525.525,0,0,1,.08-.016.429.429,0,0,1,.068,0,.39.39,0,0,1,.152.035q.449.226.9.485a23.013,23.013,0,0,1,2.76,1.891,35.831,35.831,0,0,1,3.257,2.95m5.815-7.641q-.535.079-1.064.187c-.085.017-.171.03-.255.048q-.648.14-1.285.324c-.03.009-.06.014-.09.023.023-.163.043-.317.065-.478.029-.21.058-.421.086-.627.044-.326.085-.646.126-.962.025-.2.051-.4.075-.589.041-.331.079-.653.116-.974.019-.162.039-.328.057-.487q.08-.708.148-1.386a.337.337,0,0,1,.411-.294.3.3,0,0,1,.219.2q.251.632.48,1.285c.048.136.092.275.138.412.1.3.2.6.3.9.053.17.1.344.153.515.082.277.163.556.239.837.05.183.1.368.144.552.041.158.079.319.118.478-.061.008-.119.022-.179.031m71.8-117.337.109-.345c.053-.172.1-.341.156-.511.034-.113.068-.226.1-.337.052-.172.1-.341.149-.509.03-.1.06-.206.089-.307.05-.177.1-.348.146-.519.025-.088.05-.178.074-.264.052-.187.1-.368.149-.547l.052-.192c.054-.2.106-.4.155-.588.009-.035.019-.073.028-.108.117-.451.22-.866.309-1.231a.256.256,0,0,1,.263-.208.25.25,0,0,1,.255.2c.111.4.2.808.287,1.215.018.087.036.173.053.26q.114.592.195,1.187c.009.07.017.138.025.208q.069.546.112,1.088c.005.064.012.129.017.193.029.4.048.786.059,1.174,0,.084,0,.167.006.25.017.789,0,1.555-.034,2.283,0,.074-.007.149-.011.222-.02.351-.044.693-.072,1.023,0,.055-.01.109-.015.164-.027.3-.057.584-.088.86,0,.034-.007.069-.011.1-.25-.485-.514-.961-.784-1.432-.072-.127-.147-.253-.221-.379q-.337-.574-.694-1.132c-.06-.094-.118-.189-.178-.282q-.386-.594-.793-1.17c.039-.122.076-.242.114-.363M78.853,66.847c.061-.319.124-.638.189-.957.047-.232.1-.463.148-.694q.133.514.271,1.015a6.045,6.045,0,0,0,.216.633c.027.067.061.13.09.2.061.138.124.275.195.408.041.076.088.148.132.222.07.117.14.233.218.345.052.076.108.147.164.22s.1.136.149.2l-1.9,22.027v.1c.006.07.011.141.017.212a56.648,56.648,0,0,1-1.042-6.7,59.328,59.328,0,0,1,.15-10.115q.107-1.178.256-2.362c.032-.26.072-.52.107-.78.072-.531.145-1.062.228-1.594.048-.306.1-.611.153-.917.083-.488.168-.976.261-1.464m-7.161,37.5a14.567,14.567,0,0,1,2.473-3.585.553.553,0,0,0,.591-.256.592.592,0,0,0-.172-.8h0a3.069,3.069,0,0,0-3.1.043,8.184,8.184,0,0,0-2.114,1.948l-2.3,2.7c-.612.72-1.239,1.457-1.8,2.252a68.266,68.266,0,0,1-2.8-17.59c.069-.08.14-.159.211-.238a35.866,35.866,0,0,1,5.065-4.312,7.394,7.394,0,0,1,2.629-1.464.572.572,0,0,0,.435-.46.589.589,0,0,0-.241-.592c-1.334-.917-3.124-.838-5.6.322a27.084,27.084,0,0,0-2.532,1.339c.07-2.974.278-6.067.621-9.21a20.052,20.052,0,0,1,6.925-13.219,14.513,14.513,0,0,1,7.68-3.42c.087.558.188,1.111.287,1.665.041.234.077.469.12.7.16.854.332,1.7.518,2.533-.076.318-.15.637-.223.954a76.048,76.048,0,0,0-1.637,10.2q-.066.725-.117,1.427c-.137,1.873-.2,3.63-.187,5.294.009,1.248.061,2.444.154,3.6A71.706,71.706,0,0,0,78.1,93.21l.291,1.372c.459,2.177.942,4.146,1.468,5.978a17.75,17.75,0,0,0-8.169,3.792m36.329,4.386-.027-.016q-.475-.269-.948-.519l-.141-.075q-.49-.258-.974-.5l-.072-.035q-.429-.209-.855-.4l-.243-.11c-.295-.132-.589-.26-.881-.38l-.035-.015-2.8-9.239a10.368,10.368,0,0,1,1-8.271,9.995,9.995,0,0,1,1.967-2.376,15.518,15.518,0,0,1,5.994,2.95c0,.171-.005.337,0,.511a124.16,124.16,0,0,0,1.337,15.732q-.572,1.979-1.242,4-1.039-.665-2.077-1.254m.086-23.216a9.841,9.841,0,0,0-2.036-.372l5.472-4.3a5.151,5.151,0,0,0-.271.49,14.714,14.714,0,0,0-1.12,4.95,14.546,14.546,0,0,0-2.044-.764m1.958,2c-.014.266-.021.543-.031.818a17.032,17.032,0,0,0-3.62-2,9.4,9.4,0,0,1,1.393.295,13.561,13.561,0,0,1,2.258.883m1.005,23.108c.224-.671.444-1.34.653-2.006.148.974.295,1.9.435,2.759l.019.014q-.552-.394-1.108-.767M97.52,82.03l-.03.022c-.608.449-10.263,7.846-5.279,20.839a17.582,17.582,0,0,0-9.239-2.621q-.469,0-.932.024c-.178.009-.35.035-.525.05-.079-.317-.163-.636-.237-.95a60.005,60.005,0,0,1-1.43-8.878l.34-3.941,1.481-17.161c.018.013.039.023.057.036a5.792,5.792,0,0,0,.552.344c.056.03.111.061.167.089a5.512,5.512,0,0,0,.659.288l.047.014a5.511,5.511,0,0,0,.658.179c.061.013.122.026.184.036a5.635,5.635,0,0,0,.73.087q1.191.055,2.367.082c.269.007.531.008.8.013.5.009,1,.016,1.5.018.1,0,.205,0,.306,0,.17,0,.337-.007.507-.008q1.023-.005,2.032-.031c.265-.007.531-.012.795-.021q1.3-.044,2.585-.12c.174-.011.346-.025.52-.037q1.083-.073,2.147-.17c.239-.022.479-.044.717-.067.856-.085,1.705-.178,2.54-.287a3.574,3.574,0,0,0,2.415-1.428c.182-.246.363-.51.543-.788.057-.087.113-.184.169-.274.123-.2.246-.4.368-.607.068-.117.135-.244.2-.365.11-.2.22-.4.329-.608.071-.138.143-.283.213-.426.1-.209.208-.421.311-.64.073-.155.145-.316.217-.476.1-.223.2-.449.3-.682.073-.17.146-.345.218-.52q.147-.358.293-.729c.072-.185.144-.37.216-.561.1-.256.193-.519.289-.786.07-.194.141-.388.21-.588.026-.076.053-.147.08-.223.07.1.143.205.213.31.106.161.21.323.313.486q.291.458.569.928c.1.161.192.321.286.484.206.362.406.729.6,1.1.06.114.123.225.182.34.235.456.457.918.673,1.385l-.047.282a1.794,1.794,0,0,0-.028.325c0,.037.005.072.007.109a1.808,1.808,0,0,0,.022.208c.007.041.018.081.028.122.015.061.032.121.053.18.015.041.033.08.05.119a1.769,1.769,0,0,0,.082.161c.021.038.044.074.069.11a1.74,1.74,0,0,0,.11.144c.028.032.054.065.083.095a1.687,1.687,0,0,0,.141.127c.031.025.059.052.091.075a1.763,1.763,0,0,0,.189.114c.028.014.052.032.08.045l.012.007c.31.8.585,1.613.843,2.429ZM121.4,46.553c3.043,3.412,4.752,8.7,5.51,11.6l-3.35,2.72a37.642,37.642,0,0,0-2.16-14.325m-4.156,19.454-3.778,3.069c-.176-.537-.367-1.068-.565-1.6,1.478-.439,2.924-.936,4.343-1.47m1,9.563q4.462,3.786,8.33,7.666a5.759,5.759,0,0,1-1.032.133h0c-.054,0-.111,0-.165,0-.2,0-.412-.006-.626-.025-.1-.009-.2-.025-.3-.038-.154-.019-.312-.044-.472-.073-2.174-2.1-4.551-4.261-7.187-6.512Zm-5.013,3.944,1.122-.882c.028.258.052.519.076.78a5.025,5.025,0,0,0-1.2.1m2.916.182c-.195-.061-.386-.1-.577-.145q-.078-.874-.183-1.733l.477-.376c2.041,1.739,3.928,3.421,5.684,5.064q-.33-.132-.676-.285c-.089-.039-.176-.074-.266-.116l-.089-.041c-.36-.166-.729-.343-1.115-.542a9.983,9.983,0,0,0-3.255-1.827M131,210.152h0a7.65,7.65,0,0,1-1.565-.389l-.044-.016c-.172-.063-.348-.133-.525-.211l-.02-.007a11.47,11.47,0,0,1-1.152-.591l-.053-.033c-.172-.1-.348-.211-.525-.327l-.1-.066c-.18-.12-.362-.247-.547-.382l-.05-.034c-.4-.3-.818-.634-1.242-1.006l-.141-.125c-.166-.149-.333-.3-.5-.462-.051-.048-.1-.1-.154-.145-.2-.187-.393-.382-.592-.585l-.056-.057c-.222-.227-.446-.466-.672-.714l-.137-.152c-.176-.2-.355-.4-.534-.607-.07-.079-.139-.161-.208-.244-.167-.195-.335-.4-.5-.607l-.2-.245c-.232-.289-.466-.587-.7-.9a11.439,11.439,0,0,0-1.244-.666,12.833,12.833,0,0,1,2.149-4.682c.418-.62.908-1.28,1.473-1.981.086-.107.166-.219.251-.327h.006c2.56.185,5.1.286,7.593.316Zm-2.5-26.062a66.931,66.931,0,0,0,2.5-17.135v17.117h-.026q-1.231.022-2.437.017ZM131,94.364h0v18.479a83.368,83.368,0,0,0-2.936-16.062,48.168,48.168,0,0,0-2.618-6.928,1.709,1.709,0,0,1,.2.024l.076.017.127.029.012,0,.119.039L126.1,90l.149.064.1.042.007,0c.057.027.116.058.175.089l.094.049c.067.037.137.079.206.122l.084.051c.076.048.155.1.234.157l.035.024.044.03c.083.059.17.124.259.191l.066.051c.1.074.193.153.293.235l.007.005.067.055q.15.126.307.267l.023.02.034.03c.106.1.215.2.327.3l.047.045.013.013c.121.115.246.238.374.365l.021.022.022.022c.132.132.267.271.406.417l.064.067q.19.2.39.42l.078.087c.146.161.294.327.448.5l.039.045c.154.177.311.36.472.551l.018.021Zm0-14.249a15.5,15.5,0,0,1-1.086,1.188l-.049.048a9.262,9.262,0,0,1-1.086.91l-.051.035q-.252.174-.511.322l-.06.035c-.122.068-.248.124-.373.182q-3.983-4.034-8.623-7.987l4.68-3.682L131,65.534V80.115h0Z" transform="translate(0 0.001)" fill="#004322"/>
          <path id="Trazado_878902" data-name="Trazado 878902" d="M443.659,0V.025H386.144V54.837L352.661,82.03s-10.453,7.449-5.309,20.86a17.582,17.582,0,0,0-9.239-2.621c-10,0-18.115,8.38-18.115,18.716,0,.467.023.927.055,1.385q-1.749,1.2-3.457,2.423l-18.053-5.086a7.8,7.8,0,0,0-1.083-.306l1.079.3-1.079-.3c-5.814-1.187-11.788,4.452-13.346,12.6s1.891,15.707,7.7,16.894a7.929,7.929,0,0,0,3.369-.051,16.764,16.764,0,0,0,4.151,13.026,174.729,174.729,0,0,0,32.6,5.287c.012,0,28.877,6.854,24.29,25.3,1.769.574,3.561,1.08,5.371,1.53h0a3.114,3.114,0,0,1-.99.89c-3.845,2.281-13.8-.181-12.732,5.623,1.175,6.374,20.1,21.107,26.62,18.321a3.263,3.263,0,0,0,1.787-1.866c.015.016.034.033.05.048.2.19.407.389.63.6l.178.162c.254.233.522.47.809.717l.073.061c.3.255.615.519.95.785.018.015.035.03.053.043q.534.427,1.134.871l.033.025a43.386,43.386,0,0,0,5.95,3.687V247h59.267v-.027h.964V140s0,.009,0,.013,0-.01,0-.015V0ZM358.986,106.688l-2.8-9.239a10.277,10.277,0,0,1,3.4-11.026l7.092-5.579a5.206,5.206,0,0,0-.271.491c-.939,1.923-1.282,5.16-1.269,8.928a146.9,146.9,0,0,0,2.156,21.122c.022.015.042.03.062.045a42.337,42.337,0,0,0-8.376-4.743m27.158,103.466s0,0,0,0a7.65,7.65,0,0,1-1.565-.389l-.044-.016c-.172-.063-.348-.133-.525-.211l-.02-.007a11.471,11.471,0,0,1-1.152-.591l-.053-.033c-.172-.1-.348-.211-.525-.327-.033-.023-.065-.044-.1-.066-.18-.12-.362-.247-.547-.382l-.05-.034c-.4-.3-.818-.634-1.242-1.006l-.141-.125c-.166-.149-.333-.3-.5-.462-.051-.048-.1-.1-.154-.145-.2-.187-.393-.382-.592-.585-.02-.019-.037-.037-.056-.057-.222-.227-.446-.466-.672-.714-.046-.049-.092-.1-.137-.152-.176-.2-.355-.4-.534-.607-.07-.079-.139-.161-.208-.244-.167-.195-.335-.4-.5-.607l-.2-.245c-.232-.289-.466-.587-.7-.9a11.44,11.44,0,0,0-1.244-.666,12.833,12.833,0,0,1,2.149-4.682c.419-.62.908-1.28,1.473-1.981.086-.107.166-.219.251-.327h0c2.561.185,5.1.286,7.6.315Zm0-26.081c-.841.015-1.676.02-2.5.017a66.931,66.931,0,0,0,2.5-17.135c0-.022,0-.046,0-.067Zm0-71.225a83.376,83.376,0,0,0-2.937-16.067,48.169,48.169,0,0,0-2.618-6.928,1.662,1.662,0,0,1,.2.023l.078.018c.046.009.09.019.139.032s.079.026.119.039.076.024.115.039.1.041.149.064.068.028.1.045c.056.027.116.058.176.09l.094.049c.067.037.137.079.206.122l.084.051c.076.048.155.1.234.157l.075.05c.084.06.173.126.263.194l.066.051c.1.074.193.153.293.235l.057.047c.105.088.213.182.324.28l.049.043q.172.154.354.326l.041.039c.125.118.252.243.384.375l.033.035c.136.135.274.277.416.427l.026.028q.218.231.449.483l.016.018c.157.173.317.353.483.543l.007.008q.252.289.517.6h0Zm0-32.733a15.5,15.5,0,0,1-1.086,1.188l-.049.048a9.26,9.26,0,0,1-1.086.91l-.051.035q-.252.174-.511.322l-.06.035a5.726,5.726,0,0,1-1.156.488l-.1.029a5.634,5.634,0,0,1-.579.128l-.03.006a5.649,5.649,0,0,1-.648.063l-.1,0c-.187.005-.379,0-.575-.009-.046,0-.092,0-.137-.008a8.918,8.918,0,0,1-1.457-.246c-.063-.015-.125-.032-.187-.049-.219-.058-.442-.124-.673-.2l-.137-.044c-.275-.092-.557-.2-.848-.314l-.18-.074c-.241-.1-.486-.205-.739-.321L375.513,82c-.314-.147-.633-.3-.966-.474a9.983,9.983,0,0,0-3.255-1.827,5.658,5.658,0,0,0-2.916-.182l17.768-13.979Z" transform="translate(-255.141 0.001)" fill="#8bae38"/>
          <path id="Trazado_878903" data-name="Trazado 878903" d="M443.66,212.7a4.519,4.519,0,0,0-1.94-.441,4.735,4.735,0,0,0-4.655,4.811,4.882,4.882,0,0,0,1.022,3c-1.969,3.193-3.948,8.714-5.754,12.559-2.348,5-2.819-11.278-2.915-17.794a4.826,4.826,0,0,0,2.508-4.264,4.657,4.657,0,1,0-9.309,0,4.819,4.819,0,0,0,2.651,4.337c.163,4.514.184,13.617-2.008,17.721-2.437,4.563-3.987-9.418-5.682-14.443a4.879,4.879,0,0,0,1.376-3.414,4.657,4.657,0,1,0-5.055,4.788c1.5,3.883,5.121,14.716-.566,16.456-5.383,1.648-9.957-7.7-11.745-12a4.9,4.9,0,0,0,.835-2.747,4.657,4.657,0,1,0-4.654,4.809,4.465,4.465,0,0,0,1.382-.217c1.555,2.253,7.705,11.342,8.571,15.314.991,4.555,5.612,8.924,5.612,8.924-3.968,16.054-46.617,9.906-46.617,9.906s-2.81-11.222-9.289-19.053c10.86-2.122,20.6-6.733,26.344-15.555,9.059-13.9-9.677-35.438-24.785-41.639l-2.795-9.239a10.274,10.274,0,0,1,3.4-11.026l30.6-24.071h12.233s4.882,5.744,10.05,5.356c4.586-.345,11.081.427,14.8,2.753v.013a4.658,4.658,0,1,0,4.655-4.81,4.588,4.588,0,0,0-3.614,1.781c-4.476-.8-17.131-3.427-17.947-7.64-.829-4.285,13.032-10.242,18.218-15.473a4.516,4.516,0,0,0,2.35.663,4.812,4.812,0,1,0-4.636-5.2c-4.992,3.7-13.048,9.085-15.932,7.711-3.921-1.871,7.772-8.859,10.26-15.517.146.015.294.024.446.024a4.812,4.812,0,1,0-4.656-4.809,4.894,4.894,0,0,0,.571,2.306c-2.32,2.5-6.6,6.861-9.6,8.489-4.3,2.334-6.862-1.423-2.439-8.6,3.436-5.573,4-9.691,4.082-11.256a4.816,4.816,0,0,0,2.735-4.378,4.657,4.657,0,1,0-9.31,0,4.832,4.832,0,0,0,2.391,4.2c-.522,4.357-2.841,12.418-12.248,20.029l-6.457,16.837L352.662,159.1s-10.452,7.449-5.309,20.86a17.582,17.582,0,0,0-9.239-2.622c-10,0-18.115,8.379-18.115,18.716,0,.467.021.927.055,1.385q-1.75,1.2-3.457,2.423l-18.054-5.086a7.888,7.888,0,0,0-1.083-.305l1.079.3-1.079-.3h0c-5.813-1.186-11.788,4.453-13.346,12.6s1.892,15.707,7.7,16.894a7.939,7.939,0,0,0,3.369-.05,16.757,16.757,0,0,0,4.15,13.025,174.733,174.733,0,0,0,32.6,5.287c.011,0,28.877,6.854,24.29,25.3,29.915,9.705,66.814.871,69.336-1.024,3.637-2.732,9.917-24.268,9.919-24.27h0c-.514-7.247,4.409-16.488,6.711-20.371a4.478,4.478,0,0,0,1.464-.418,4.871,4.871,0,0,0,0-8.735" transform="translate(-255.142 -77.074)" fill="#c8c52d"/>
          <path id="Trazado_878904" data-name="Trazado 878904" d="M1358.82,1347.482a4.765,4.765,0,0,1-.935.831l-.031.021-.012.007a4.473,4.473,0,0,1-.553.313h0c-.085.041-.171.076-.258.11-.048.019-.1.04-.145.057-.074.027-.149.052-.225.075s-.151.044-.228.063c-.059.015-.117.031-.177.043-.142.028-.286.053-.432.069-2.3,3.883-7.226,13.124-6.711,20.372,0,0-.089.305-.247.831-1.191,3.966-6.461,21.027-9.672,23.439-1.7,1.281-19.1,5.721-39.421,5.48v15.248c5.771.766,8.351-6.536,8.351-6.536s.107-.346.289-.85a4.1,4.1,0,0,1-2.526-3.819,3.975,3.975,0,1,1,7.946,0,4.141,4.141,0,0,1-1.578,3.27c.088.594.168,1.277.237,2.073.837,9.816,12.34,1.585,15.883-1.2a4.193,4.193,0,0,1-.445-1.885,3.975,3.975,0,1,1,3.972,4.106c-.06,0-.12-.007-.18-.01a14.476,14.476,0,0,0-3.429,7.339c-1.474,7.13,16.228-1.279,20.079-3.184a3.878,3.878,0,0,1,5.505-.508,4.084,4.084,0,0,1,.6.622c.017.021.032.044.049.067.067.09.131.18.19.276.023.036.044.074.065.111.049.084.1.17.139.258.022.045.043.091.064.136.038.084.072.17.1.257.018.05.037.1.054.151.028.088.053.177.076.267.014.052.028.1.039.156.021.1.036.2.05.3.007.048.016.094.021.142a3.912,3.912,0,0,1-.013.987c-.006.046-.013.091-.021.138a4.078,4.078,0,0,1-.1.45c-.005.021-.009.042-.015.062a4.079,4.079,0,0,1-.18.493c-.012.028-.026.056-.038.083a4.024,4.024,0,0,1-.223.42c-.009.014-.017.03-.026.043a4.088,4.088,0,0,1-.7.84l-.01.009a4,4,0,0,1-.911.624,3.846,3.846,0,0,1-4.316-.6c-3.886.163-10.4.939-15.194,4.1-5.771,3.8,7.388,6.3,13.073,7.171a3.15,3.15,0,0,1,2.739.009.018.018,0,0,1,0,.005,3.374,3.374,0,0,1,1.594,1.629c0,.009.009.019.014.03a3.415,3.415,0,0,1,.162.435s0,.008,0,.011a3.435,3.435,0,0,1,.09.414c.006.036.011.071.016.108a3.457,3.457,0,0,1,.032.45,3.348,3.348,0,0,1-3.291,3.4,3.106,3.106,0,0,1-.835-.125l-.041.125s-.077-.077-.216-.207a3.205,3.205,0,0,1-.465-.217c-.085-.048-.165-.1-.245-.159-.053-.035-.106-.07-.157-.109a3.319,3.319,0,0,1-.3-.263l-.046-.046a3.443,3.443,0,0,1-.3-.345,3.165,3.165,0,0,1-.2-.273c-2.638-2-7.738-5.064-13.621-4.529-14.2,1.754-24.681-1.228-31.825-4.9v25.057h59.267v-.027H1360V1344.288a4.864,4.864,0,0,1-1.113,3.108c-.024.029-.047.058-.071.086" transform="translate(-1168.77 -1204.288)" fill="#20421f"/>
          <path id="Trazado_878905" data-name="Trazado 878905" d="M1357.286,0V.025H1299.77V54.837L1306.228,38c9.407-7.611,11.725-15.673,12.248-20.029a4.832,4.832,0,0,1-2.391-4.2,4.921,4.921,0,0,1,.354-1.838,4.833,4.833,0,0,1,.284-.584c.017-.03.035-.06.053-.089a4.822,4.822,0,0,1,.782-.992l.083-.078a4.655,4.655,0,0,1,1.012-.712c.04-.021.081-.041.122-.061a4.55,4.55,0,0,1,.562-.231l.011,0a4.443,4.443,0,0,1,.6-.145c.05-.009.1-.017.151-.024a4.429,4.429,0,0,1,.636-.051,4.735,4.735,0,0,1,4.655,4.809,4.889,4.889,0,0,1-.763,2.636,4.725,4.725,0,0,1-1.972,1.742c0,.1-.012.2-.021.314,0,.061-.012.129-.018.2s-.009.1-.015.155c-.011.108-.026.224-.042.343,0,.021,0,.04-.007.062-.015.107-.033.223-.051.34a26.946,26.946,0,0,1-3.928,9.848c-4.422,7.174-1.861,10.931,2.439,8.6,2.573-1.4,6.087-4.809,8.5-7.326h0l.063-.067c.138-.144.269-.283.4-.42l.141-.149.237-.254.257-.274h0a4.875,4.875,0,0,1-.533-1.689,4.961,4.961,0,0,1-.038-.617,4.658,4.658,0,1,1,4.656,4.809c-.152,0-.3-.009-.446-.023-.1.269-.221.538-.349.807-.031.064-.063.127-.094.191-.126.251-.26.5-.407.752l-.026.046q-.256.433-.55.864l-.03.044q-.287.421-.6.838c-4.09,5.433-11.428,10.435-8.2,11.974,2.343,1.117,8.095-2.227,12.848-5.5l.014-.009q.5-.344.981-.685l.205-.146q.4-.283.781-.56l.271-.2c.285-.207.564-.412.833-.611a4.718,4.718,0,0,1,4.638-4.421,4.545,4.545,0,0,1,.938.1,4.827,4.827,0,0,1-.938,9.521,4.517,4.517,0,0,1-2.352-.663c-.15.152-.309.3-.472.456-.067.061-.137.123-.205.185-.1.092-.2.182-.307.274-.085.074-.173.148-.261.222s-.186.156-.281.234-.2.164-.3.246l-.263.207c-.115.09-.231.18-.349.27l-.215.161c-.524.393-1.074.788-1.645,1.184h0c-6.153,4.268-14.566,8.665-13.915,12.031.815,4.213,13.471,6.839,17.947,7.64a4.7,4.7,0,0,1,1.531-1.269h0a4.492,4.492,0,0,1,2.084-.511,4.734,4.734,0,0,1,4.655,4.809,4.855,4.855,0,0,1-1.813,3.8,4.536,4.536,0,0,1-2.841,1.006,4.734,4.734,0,0,1-4.656-4.809v-.013c-3.718-2.325-10.213-3.1-14.8-2.753-5.168.388-10.05-5.356-10.05-5.356h-12.233l-4.045,3.182V80.115c1.306-1.569,2.665-3.658,4.368-6.175a60.847,60.847,0,0,1,4.015-5.368,2.464,2.464,0,0,1,1.018-.724,3.394,3.394,0,0,1-.043-.44,3.293,3.293,0,1,1,3.292,3.4c-.028,0-.054-.007-.082-.008-1.093,4.927-14.675,8.844,11.119,21.792a5.026,5.026,0,0,1,1.936,1.252,3.235,3.235,0,0,1,2.533-1.252,3.4,3.4,0,0,1,0,6.8,3.294,3.294,0,0,1-3.05-2.129c-1.43.775-4.125.872-8.128-.665-17.024-6.538,1.075,9.41,1.649,19,.062,0,.119-.018.181-.018a3.4,3.4,0,1,1-3.292,3.4,3.437,3.437,0,0,1,1.019-2.451c-4.1-3.776-13.052-17.806-16.148-21.71-.131-.16-.258-.309-.386-.46v89.709c11.827-.214,25.063-2.44,27.188-11.044,0,0-4.621-4.368-5.612-8.924-.865-3.973-7.016-13.061-8.571-15.315a4.465,4.465,0,0,1-1.382.217,4.812,4.812,0,1,1,4.654-4.809,4.906,4.906,0,0,1-.835,2.747c1.79,4.3,6.362,13.648,11.745,12,5.689-1.74,2.069-12.573.566-16.456a4.8,4.8,0,1,1,5.055-4.788,4.879,4.879,0,0,1-1.376,3.414c1.695,5.025,3.245,19.006,5.682,14.443,2.192-4.1,2.17-13.206,2.008-17.721a4.819,4.819,0,0,1-2.651-4.337,4.657,4.657,0,1,1,9.31,0,4.827,4.827,0,0,1-2.509,4.264c.1,6.516.567,22.792,2.915,17.794.449-.955.908-2.014,1.375-3.113,0-.006,0-.01.007-.016.2-.471.4-.951.605-1.433l.192-.457q.18-.425.361-.853.171-.4.343-.8l.2-.46c.116-.269.233-.534.35-.8.059-.133.118-.266.177-.4q.2-.442.4-.871l.165-.352c.141-.3.282-.592.424-.877l.084-.168c.15-.3.3-.585.451-.864.046-.084.091-.168.137-.249.164-.295.327-.582.49-.848a4.883,4.883,0,0,1-1.022-3,4.776,4.776,0,0,1,3.717-4.712,4.489,4.489,0,0,1,.938-.1,4.356,4.356,0,0,1,.533.033,4.054,4.054,0,0,1,.408.073c.031.007.063.01.095.017a4.736,4.736,0,0,1,1.461.634h0l.022.014a4.636,4.636,0,0,1,.485.373c.05.044.1.094.145.14.094.091.185.183.272.279.059.067.115.136.171.206A4.87,4.87,0,0,1,1360,140V0Z" transform="translate(-1168.768 0.001)" fill="#20421f"/>
          <path id="Trazado_878906" data-name="Trazado 878906" d="M1406.767,0V.025H1354.8c2.623,4.305,7.893,8.238,10.445,11.122.228.258.45.524.677.784a4.658,4.658,0,0,1,4.3-2.972,4.734,4.734,0,0,1,4.655,4.81,4.816,4.816,0,0,1-2.734,4.377,14.061,14.061,0,0,1-.17,1.513c2.512,3.527,4.859,7.227,7.024,11.015.4-.416.768-.81,1.1-1.163a4.9,4.9,0,0,1-.571-2.307,4.658,4.658,0,1,1,4.656,4.809c-.152,0-.3-.009-.446-.023a14.624,14.624,0,0,1-2.071,3.562c1.254,2.392,2.438,4.8,3.552,7.2,1.5-1,2.945-2.034,4.192-2.958a4.663,4.663,0,1,1,4.638,5.2,4.517,4.517,0,0,1-2.352-.663,31.485,31.485,0,0,1-4.3,3.441,114.689,114.689,0,0,1,5.563,18.4,4.491,4.491,0,0,1,2.084-.511,4.812,4.812,0,0,1,0,9.618c-.143,0-.281-.009-.418-.022a234.987,234.987,0,0,1,2.3,32.671c.117,11.007-.237,22.011-.445,33.015-.074,3.858.063,7.687.345,11.5a80.01,80.01,0,0,1,4.379-9.445,4.883,4.883,0,0,1-1.023-3,4.735,4.735,0,0,1,4.655-4.81,4.479,4.479,0,0,1,1.977.463,4.652,4.652,0,0,1,.52.294c.008.006.016.009.023.015a4.527,4.527,0,0,1,.485.374c.048.042.093.09.14.134.1.092.19.186.279.286.058.065.114.133.168.2a4.869,4.869,0,0,1,1.063,3.043V0Z" transform="translate(-1218.248 0.001)" fill="#132a13"/>
          <path id="Trazado_878907" data-name="Trazado 878907" d="M1358.823,1347.479a4.721,4.721,0,0,1-.939.834l-.042.027a4.459,4.459,0,0,1-.553.313h0a4.467,4.467,0,0,1-1.464.417c-2.3,3.883-7.226,13.124-6.711,20.372,0,0-.089.305-.247.831.523,3.623,1.114,7.243,1.721,10.87,1.752,10.47,3.856,21.4,3.288,32.089a4.171,4.171,0,0,1-.784,6.887,33.732,33.732,0,0,1-3.7,10.683,3.4,3.4,0,0,1,1.911,3.077,3.348,3.348,0,0,1-3.291,3.4,3.107,3.107,0,0,1-.835-.125l-.041.125s-.077-.077-.216-.208a3.276,3.276,0,0,1-1.505-1.138c-.408.388-.833.766-1.279,1.123-6.6,5.3-14.616,5.135-22.517,4.473-6.688-.56-16.275-2.4-21.136,3.731a2.822,2.822,0,0,1-.711.648v5.377h59.267v-.027H1360V1344.288a4.867,4.867,0,0,1-1.114,3.11l-.067.082" transform="translate(-1168.771 -1204.288)" fill="#132a13"/>
          <path id="Trazado_878908" data-name="Trazado 878908" d="M295.241,1154.907c-.342.017-.685.034-1.036.044.446-.457.867-.912,1.269-1.365a19.887,19.887,0,0,1,.679-2.47c.658-1.908,2.482-4.326,5.089-7.012a18.3,18.3,0,0,0-3.783-18.157l1.083.305a7.887,7.887,0,0,0-1.083-.305c-5.813-1.186-11.788,4.453-13.346,12.6s1.892,15.707,7.7,16.894a7.94,7.94,0,0,0,3.369-.05c.016-.16.031-.32.053-.481" transform="translate(-255.142 -1008.546)" fill="#db4e29"/>
          <path id="Trazado_878909" data-name="Trazado 878909" d="M707.981,1013.218a14.555,14.555,0,1,1-14.548-15.031,14.8,14.8,0,0,1,14.548,15.031" transform="translate(-610.462 -894.231)" fill="#db4e29"/>
          <path id="Trazado_878910" data-name="Trazado 878910" d="M787.063,1041.629a24,24,0,0,1,0-26.54c8.808,13.372,0,26.54,0,26.54" transform="translate(-704.128 -909.373)" fill="#2d1100"/>
          <path id="Trazado_878911" data-name="Trazado 878911" d="M307.027,1197.2s-9.028-10.055,0-22.029c8.808,11.1,0,22.029,0,22.029" transform="translate(-272.475 -1052.78)" fill="#2d1100"/>
          <path id="Trazado_878912" data-name="Trazado 878912" d="M877.582,1045.352a2.816,2.816,0,1,1-2.815-2.908,2.862,2.862,0,0,1,2.815,2.908" transform="translate(-784.07 -933.879)" fill="#fff6c0"/>
          <path id="Trazado_878913" data-name="Trazado 878913" d="M913.741,1114.472a1.446,1.446,0,1,1-1.445-1.492,1.47,1.47,0,0,1,1.445,1.492" transform="translate(-819.047 -997.069)" fill="#fff6c0"/>
          <path id="Trazado_878914" data-name="Trazado 878914" d="M390.806,1158.376a2.816,2.816,0,1,1-2.815-2.908,2.862,2.862,0,0,1,2.815,2.908" transform="translate(-346.354 -1035.132)" fill="#fff6c0"/>
          <path id="Trazado_878915" data-name="Trazado 878915" d="M426.971,1227.5a1.445,1.445,0,1,1-1.444-1.492,1.469,1.469,0,0,1,1.444,1.492" transform="translate(-381.339 -1098.325)" fill="#fff6c0"/>
          <path id="Trazado_878916" data-name="Trazado 878916" d="M813.5,1230.518a15.673,15.673,0,0,0,1.982-11.969c-7.336-5.836-21.681-15.806-24.679-7.186,5.9,26.386-30.417,34.728-29.135,35.982,19.222,1.188,41.707-1.291,51.832-16.828" transform="translate(-684.871 -1082.189)" fill="#e8e0c3"/>
          <path id="Trazado_878917" data-name="Trazado 878917" d="M438.508,1303.021c.822.072,6.93-15.451,27.378-12.885,18.991,2.384,20.756-4.653,25.943-14.089,0,0,2,18.37-25.943,16.115-18.842-1.858-27.378,10.859-27.378,10.859" transform="translate(-394.311 -1143.153)" fill="#6f8a2e"/>
          <path id="Trazado_878918" data-name="Trazado 878918" d="M550.563,1365.714l6.013,1.9s4.815-3.211-6.013-1.9" transform="translate(-495.072 -1223.202)" fill="#6f8a2e"/>
          <path id="Trazado_878919" data-name="Trazado 878919" d="M458.633,1155.468s3.3,4.363,6.508,5.47,6.3-2.562,6.3-2.562Z" transform="translate(-412.408 -1035.132)" fill="#f0d424"/>
          <path id="Trazado_878920" data-name="Trazado 878920" d="M967.563,1024.308s1.566,7.88,6.363,10.726,22.473,13.1,22.473,13.1-7.324-20.614-28.836-23.822" transform="translate(-870.043 -917.632)" fill="#f0d424"/>
          <path id="Trazado_878921" data-name="Trazado 878921" d="M463.783,1375.772l-3.383,5.475s-5.68.781,3.383-5.475" transform="translate(-412.416 -1232.493)" fill="#6f8a2e"/>
          <path id="Trazado_878922" data-name="Trazado 878922" d="M1185.953,1935.632s2.269,4.049,1.612,13.363c17.015,9.949-1.612-13.363-1.612-13.363" transform="translate(-1066.422 -1734.047)" fill="#708c2e"/>
          <path id="Trazado_878923" data-name="Trazado 878923" d="M1196.686,796.083c.359.452.8,1.044,1.3,1.735-2.353-3.609-5.47-9.157-5.634-13.431-1.935.592-4.267.132-7.646-1.606l6.043,8.331c1.048.057,2.846,1.211,5.94,4.972" transform="translate(-1065.298 -701.258)" fill="#708c2e"/>
        </g>
      </g>
    </g>
  </g>
</svg>
