<svg xmlns="http://www.w3.org/2000/svg" width="176.071" height="92.21" viewBox="0 0 176.071 92.21">
  <g id="Grupo_1100055" data-name="Grupo 1100055" transform="translate(-475 -2831.252)">
    <path id="Rectángulo_401384" data-name="Rectángulo 401384" d="M0,0H176.071a0,0,0,0,1,0,0V0a12.534,12.534,0,0,1-12.534,12.534h-151A12.534,12.534,0,0,1,0,0V0A0,0,0,0,1,0,0Z" transform="translate(475 2910.928)" fill="#77af8f"/>
    <path id="Rectángulo_401385" data-name="Rectángulo 401385" d="M0,0H22.669a40,40,0,0,1,40,40V176.071a0,0,0,0,1,0,0H0a0,0,0,0,1,0,0V0A0,0,0,0,1,0,0Z" transform="translate(475 2910.928) rotate(-90)" fill="#daf2e4"/>
    <g id="Grupo_1098742" data-name="Grupo 1098742" transform="translate(525.732 2831.252)">
      <rect id="Rectángulo_400898" data-name="Rectángulo 400898" width="69.048" height="69.048" rx="34.524" transform="translate(4.655 4.655)" fill="#0f6646" opacity="0.859"/>
      <g id="Rectángulo_400907" data-name="Rectángulo 400907" fill="none" stroke="#4d812e" stroke-linecap="round" stroke-width="2" stroke-dasharray="7">
        <rect width="77.582" height="77.582" rx="38.791" stroke="none"/>
        <rect x="1" y="1" width="75.582" height="75.582" rx="37.791" fill="none"/>
      </g>
    </g>
    <g id="Grupo_1099617" data-name="Grupo 1099617" transform="translate(546.025 2850.344)">
      <path id="Trazado_880238" data-name="Trazado 880238" d="M239.509,642.624c-.073,0-.143,0-.21-.009-2.243-.192-6.94-1.9-9.64-3.308a5.307,5.307,0,0,0-4.393-.211.713.713,0,1,1-.523-1.328,6.728,6.728,0,0,1,5.575.273,33.429,33.429,0,0,0,9.1,3.152c.457.039,2.035-.171,6.811-2.961,2.782-1.626,5.623-3.537,6.751-4.376a2.107,2.107,0,0,0,.609-.739c.16-.621.16-.871,0-1.159a1.392,1.392,0,0,0-1.72-.535l-8.848,4a.714.714,0,1,1-.588-1.3l8.846-4a2.813,2.813,0,0,1,3.555,1.142,2.78,2.78,0,0,1,.136,2.212A3.353,3.353,0,0,1,253.834,635c-1.155.858-4.053,2.81-6.883,4.463a44.992,44.992,0,0,1-4.273,2.244A8.6,8.6,0,0,1,239.509,642.624Z" transform="translate(-218.034 -605.555)" fill="#ffe8b6"/>
      <path id="Trazado_880239" data-name="Trazado 880239" d="M229.61,607.709a2.926,2.926,0,0,1-.981-.171l-4.464-1.59a.714.714,0,1,1,.479-1.344l4.462,1.589a1.448,1.448,0,0,0,1.561-.375c.024-.026.045-.049.062-.071a1.436,1.436,0,0,0,.357-1.192,1.491,1.491,0,0,0-.789-1.026,22.646,22.646,0,0,0-5.643-2.015,40.947,40.947,0,0,0-5.426-.892c-.439-.041-.825-.065-1.034-.065a21.555,21.555,0,0,0-4.466,1.032.714.714,0,1,1-.4-1.371c3.759-1.089,4.59-1.089,4.861-1.089s.671.025,1.164.071a42.5,42.5,0,0,1,5.623.923,23.974,23.974,0,0,1,6.005,2.154,2.925,2.925,0,0,1,1.5,2.016,2.87,2.87,0,0,1-.671,2.373c-.029.033-.062.072-.1.113A2.85,2.85,0,0,1,229.61,607.709Z" transform="translate(-207.07 -576.174)" fill="#ffe8b6"/>
      <path id="Trazado_880240" data-name="Trazado 880240" d="M86.831,582.6a2.182,2.182,0,0,1-2.173-2.042L84.005,570.2a2.178,2.178,0,0,1,2.037-2.311l2.748-.173a2.182,2.182,0,0,1,2.312,2.038l.652,10.351a2.179,2.179,0,0,1-2.037,2.312l-2.747.173C86.923,582.6,86.877,582.6,86.831,582.6Zm2.1-13.456h-.048l-2.747.173a.751.751,0,0,0-.7.8l.652,10.352a.752.752,0,0,0,.8.7L89.625,581a.751.751,0,0,0,.7-.8l-.651-10.352a.753.753,0,0,0-.75-.7Z" transform="translate(-84.001 -546.16)" fill="#ffe8b6"/>
      <path id="Trazado_880241" data-name="Trazado 880241" d="M229.278,99.683a6.619,6.619,0,0,1-4.756-1.945c-3.722-3.653-4.764-12.2-4.807-12.558a.714.714,0,0,1,.779-.793c.363.036,8.923.918,12.645,4.571a6.783,6.783,0,0,1,1.933,6.126,9.781,9.781,0,0,1-1.049,3.117.714.714,0,0,1-.248.252,9.733,9.733,0,0,1-3.095,1.105A8.176,8.176,0,0,1,229.278,99.683Zm-8.011-13.76c.369,2.262,1.556,8.147,4.254,10.8a5.213,5.213,0,0,0,3.766,1.53,8.141,8.141,0,0,0,3.587-.927,8.641,8.641,0,0,0,.794-2.5,5.334,5.334,0,0,0-1.529-4.846C229.441,87.326,223.536,86.249,221.266,85.923Z" transform="translate(-213.658 -84.383)" fill="#ffe8b6"/>
      <path id="Trazado_880242" data-name="Trazado 880242" d="M348.379,221.227a.714.714,0,0,1-.714-.707,13.849,13.849,0,0,0-1.418-5.605c-1.382-1.9-4.158-5.3-7.415-7.046a.714.714,0,1,1,.676-1.257c3.532,1.9,6.482,5.518,7.926,7.508a.722.722,0,0,1,.06.1,15.443,15.443,0,0,1,1.6,6.288.714.714,0,0,1-.707.72Z" transform="translate(-327.109 -201.08)" fill="#ffe8b6"/>
      <path id="Trazado_880243" data-name="Trazado 880243" d="M517.57,181.571h-.1a7.512,7.512,0,0,1-2.705-.586,12.313,12.313,0,0,1-3.421-2.178.714.714,0,0,1,.943-1.07c1.255,1.1,4.5,3.495,7.519,1.828,3.313-1.825,6.039-7.173,7-9.253-2.274-.3-8.25-.847-11.562.978a5.231,5.231,0,0,0-1.949,1.813.714.714,0,0,1-1.211-.755,6.633,6.633,0,0,1,2.471-2.307c4.569-2.517,13.051-1.064,13.412-1a.714.714,0,0,1,.535.972c-.138.337-3.44,8.285-8.008,10.8A5.99,5.99,0,0,1,517.57,181.571Z" transform="translate(-492.066 -164.811)" fill="#ffe8b6"/>
      <path id="Trazado_880244" data-name="Trazado 880244" d="M511.525,270.744a.714.714,0,0,1-.442-1.274,26.921,26.921,0,0,1,9.746-4.844.713.713,0,1,1,.312,1.392,25.685,25.685,0,0,0-9.175,4.572A.71.71,0,0,1,511.525,270.744Z" transform="translate(-491.777 -256.571)" fill="#ffe8b6"/>
      <path id="Trazado_880245" data-name="Trazado 880245" d="M356.855,512.583h-.033a.714.714,0,0,1-.681-.738v-.005a1.878,1.878,0,0,0-.268-.964,3.406,3.406,0,0,1-.446-1.983c0-.045,0-.089,0-.134a2.385,2.385,0,0,0-2.551-2.167,3.047,3.047,0,0,0-.466.036,5.1,5.1,0,0,1-3.532-.769,2.826,2.826,0,0,0-1.528-.433,2.905,2.905,0,0,0-1.242.275,5.05,5.05,0,0,1-3.637.294,2.937,2.937,0,0,0-.847-.124,2.385,2.385,0,0,0-2.551,2.167,1.866,1.866,0,0,0,.143.714.714.714,0,0,1-1.319.546,3.283,3.283,0,0,1-.251-1.261,3.8,3.8,0,0,1,3.978-3.594,4.364,4.364,0,0,1,1.261.184,3.627,3.627,0,0,0,2.611-.216,4.336,4.336,0,0,1,1.855-.413,4.253,4.253,0,0,1,2.3.658,3.671,3.671,0,0,0,2.542.562,4.472,4.472,0,0,1,.688-.054,3.805,3.805,0,0,1,3.978,3.595c0,.079,0,.158-.008.237a1.981,1.981,0,0,0,.254,1.157,3.334,3.334,0,0,1,.464,1.688v.062a.714.714,0,0,1-.713.68Z" transform="translate(-326.338 -485.285)" fill="#ffe8b6"/>
    </g>
  </g>
</svg>
