<svg xmlns="http://www.w3.org/2000/svg" xmlns:xlink="http://www.w3.org/1999/xlink" width="176.071" height="85.942" viewBox="0 0 176.071 85.942">
  <defs>
    <clipPath id="clip-path">
      <rect id="Rectángulo_400902" data-name="Rectángulo 400902" width="36.408" height="31.536" fill="#4d812e"/>
    </clipPath>
    <clipPath id="clip-path-2">
      <rect id="Rectángulo_402159" data-name="Rectángulo 402159" width="40.556" height="40.583" fill="#ffe8b6"/>
    </clipPath>
  </defs>
  <g id="Grupo_1100055" data-name="Grupo 1100055" transform="translate(-475 -2984.342)">
    <path id="Rectángulo_401385" data-name="Rectángulo 401385" d="M0,0H22.669a40,40,0,0,1,40,40V176.071a0,0,0,0,1,0,0H0a0,0,0,0,1,0,0V0A0,0,0,0,1,0,0Z" transform="translate(475 3064.017) rotate(-90)" fill="#daf2e4"/>
    <g id="Grupo_1099480" data-name="Grupo 1099480" transform="translate(600.339 3038.748)">
      <g id="Grupo_1098724" data-name="Grupo 1098724" transform="translate(0 0)">
        <g id="Grupo_1098723" data-name="Grupo 1098723" clip-path="url(#clip-path)">
          <path id="Trazado_872910" data-name="Trazado 872910" d="M1.454.71a.719.719,0,0,1-.727.71A.718.718,0,0,1,0,.71.719.719,0,0,1,.727,0a.719.719,0,0,1,.727.71" fill="#4d812e"/>
          <path id="Trazado_872911" data-name="Trazado 872911" d="M30.408.71a.727.727,0,0,1-1.454,0,.727.727,0,0,1,1.454,0" transform="translate(-21.963)" fill="#4d812e"/>
          <path id="Trazado_872912" data-name="Trazado 872912" d="M59.361.71a.727.727,0,0,1-1.454,0,.727.727,0,0,1,1.454,0" transform="translate(-43.925)" fill="#4d812e"/>
          <path id="Trazado_872913" data-name="Trazado 872913" d="M88.314.71a.727.727,0,0,1-1.454,0,.727.727,0,0,1,1.454,0" transform="translate(-65.887)" fill="#4d812e"/>
          <path id="Trazado_872914" data-name="Trazado 872914" d="M117.267.71a.727.727,0,0,1-1.454,0,.727.727,0,0,1,1.454,0" transform="translate(-87.85)" fill="#4d812e"/>
          <path id="Trazado_872915" data-name="Trazado 872915" d="M146.221.71a.727.727,0,0,1-1.454,0,.727.727,0,0,1,1.454,0" transform="translate(-109.813)" fill="#4d812e"/>
          <path id="Trazado_872916" data-name="Trazado 872916" d="M1.454,32.625a.719.719,0,0,1-.727.71.71.71,0,1,1,0-1.42.719.719,0,0,1,.727.71" transform="translate(0 -24.386)" fill="#4d812e"/>
          <path id="Trazado_872917" data-name="Trazado 872917" d="M30.408,32.625a.727.727,0,1,1-.727-.71.719.719,0,0,1,.727.71" transform="translate(-21.963 -24.386)" fill="#4d812e"/>
          <path id="Trazado_872918" data-name="Trazado 872918" d="M59.361,32.625a.727.727,0,1,1-.727-.71.719.719,0,0,1,.727.71" transform="translate(-43.925 -24.386)" fill="#4d812e"/>
          <path id="Trazado_872919" data-name="Trazado 872919" d="M88.314,32.625a.727.727,0,1,1-.727-.71.719.719,0,0,1,.727.71" transform="translate(-65.887 -24.386)" fill="#4d812e"/>
          <path id="Trazado_872920" data-name="Trazado 872920" d="M117.267,32.625a.727.727,0,1,1-.727-.71.719.719,0,0,1,.727.71" transform="translate(-87.85 -24.386)" fill="#4d812e"/>
          <path id="Trazado_872921" data-name="Trazado 872921" d="M146.221,32.625a.727.727,0,1,1-.727-.71.719.719,0,0,1,.727.71" transform="translate(-109.813 -24.386)" fill="#4d812e"/>
          <path id="Trazado_872922" data-name="Trazado 872922" d="M1.454,64.54a.719.719,0,0,1-.727.71.71.71,0,1,1,0-1.42.719.719,0,0,1,.727.71" transform="translate(0 -48.772)" fill="#4d812e"/>
          <path id="Trazado_872923" data-name="Trazado 872923" d="M30.408,64.54a.727.727,0,1,1-.727-.71.719.719,0,0,1,.727.71" transform="translate(-21.963 -48.772)" fill="#4d812e"/>
          <path id="Trazado_872924" data-name="Trazado 872924" d="M59.361,64.54a.727.727,0,1,1-.727-.71.719.719,0,0,1,.727.71" transform="translate(-43.925 -48.772)" fill="#4d812e"/>
          <path id="Trazado_872925" data-name="Trazado 872925" d="M88.314,64.54a.727.727,0,1,1-.727-.71.719.719,0,0,1,.727.71" transform="translate(-65.887 -48.772)" fill="#4d812e"/>
          <path id="Trazado_872926" data-name="Trazado 872926" d="M117.267,64.54a.727.727,0,1,1-.727-.71.719.719,0,0,1,.727.71" transform="translate(-87.85 -48.772)" fill="#4d812e"/>
          <path id="Trazado_872927" data-name="Trazado 872927" d="M146.221,64.54a.727.727,0,1,1-.727-.71.719.719,0,0,1,.727.71" transform="translate(-109.813 -48.772)" fill="#4d812e"/>
          <path id="Trazado_872928" data-name="Trazado 872928" d="M1.454,96.455a.719.719,0,0,1-.727.71.71.71,0,1,1,0-1.42.719.719,0,0,1,.727.71" transform="translate(0 -73.158)" fill="#4d812e"/>
          <path id="Trazado_872929" data-name="Trazado 872929" d="M30.408,96.455a.727.727,0,1,1-.727-.71.719.719,0,0,1,.727.71" transform="translate(-21.963 -73.158)" fill="#4d812e"/>
          <path id="Trazado_872930" data-name="Trazado 872930" d="M59.361,96.455a.727.727,0,1,1-.727-.71.719.719,0,0,1,.727.71" transform="translate(-43.925 -73.158)" fill="#4d812e"/>
          <path id="Trazado_872931" data-name="Trazado 872931" d="M88.314,96.455a.727.727,0,1,1-.727-.71.719.719,0,0,1,.727.71" transform="translate(-65.887 -73.158)" fill="#4d812e"/>
          <path id="Trazado_872932" data-name="Trazado 872932" d="M117.267,96.455a.727.727,0,1,1-.727-.71.719.719,0,0,1,.727.71" transform="translate(-87.85 -73.158)" fill="#4d812e"/>
          <path id="Trazado_872933" data-name="Trazado 872933" d="M146.221,96.455a.727.727,0,1,1-.727-.71.719.719,0,0,1,.727.71" transform="translate(-109.813 -73.158)" fill="#4d812e"/>
          <path id="Trazado_872934" data-name="Trazado 872934" d="M1.454,128.37a.719.719,0,0,1-.727.71.71.71,0,1,1,0-1.42.719.719,0,0,1,.727.71" transform="translate(0 -97.544)" fill="#4d812e"/>
          <path id="Trazado_872935" data-name="Trazado 872935" d="M30.408,128.37a.727.727,0,1,1-.727-.71.719.719,0,0,1,.727.71" transform="translate(-21.963 -97.544)" fill="#4d812e"/>
          <path id="Trazado_872936" data-name="Trazado 872936" d="M59.361,128.37a.727.727,0,1,1-.727-.71.719.719,0,0,1,.727.71" transform="translate(-43.925 -97.544)" fill="#4d812e"/>
          <path id="Trazado_872937" data-name="Trazado 872937" d="M88.314,128.37a.727.727,0,1,1-.727-.71.719.719,0,0,1,.727.71" transform="translate(-65.887 -97.544)" fill="#4d812e"/>
          <path id="Trazado_872938" data-name="Trazado 872938" d="M117.267,128.37a.727.727,0,1,1-.727-.71.719.719,0,0,1,.727.71" transform="translate(-87.85 -97.544)" fill="#4d812e"/>
          <path id="Trazado_872939" data-name="Trazado 872939" d="M146.221,128.37a.727.727,0,1,1-.727-.71.719.719,0,0,1,.727.71" transform="translate(-109.813 -97.544)" fill="#4d812e"/>
        </g>
      </g>
    </g>
    <g id="Grupo_1098742" data-name="Grupo 1098742" transform="translate(525.732 2984.342)">
      <rect id="Rectángulo_400898" data-name="Rectángulo 400898" width="69.048" height="69.048" rx="34.524" transform="translate(4.655 4.655)" fill="#0f6646" opacity="0.859"/>
      <g id="Rectángulo_400907" data-name="Rectángulo 400907" fill="none" stroke="#4d812e" stroke-linecap="round" stroke-width="2" stroke-dasharray="7">
        <rect width="77.582" height="77.582" rx="38.791" stroke="none"/>
        <rect x="1" y="1" width="75.582" height="75.582" rx="37.791" fill="none"/>
      </g>
    </g>
    <g id="Grupo_1099706" data-name="Grupo 1099706" transform="translate(544.299 3002.841)">
      <g id="Grupo_1099705" data-name="Grupo 1099705" clip-path="url(#clip-path-2)">
        <path id="Trazado_880326" data-name="Trazado 880326" d="M33,7.286l1.473-2.545,3.5,2.02-1.3,2.348,1.066.7-.592,1.151,1.072.639.738-1.087.991.649L35.9,18.191l-1.15-.671,2.683-4.653-1.088-.659-.734,1.076-1.126-.6c-.764,1.338-1.639,2.511-1.512,4.291.345,4.83.454,9.677.657,14.518.012.279.024.558.042.966.853,0,1.684,0,2.516,0a4.069,4.069,0,1,1,.023,8.118q-11.869.007-23.739,0A4.206,4.206,0,0,1,8.1,36.313Q7.554,22.634,6.979,8.958c-.01-.248-.041-.5-.07-.834-.918,0-1.812.007-2.705,0A4.059,4.059,0,1,1,4.175.009q12.038-.016,24.076,0a4.172,4.172,0,0,1,4.2,4.094c.024.7.014,1.411.09,2.11A4.624,4.624,0,0,0,33,7.286M13.531,13.643h15.8l1.733-2.988-1.191-.807c1.547-1.479,1.44-3.3,1.237-5.147-.018-.167-.009-.338-.015-.507a2.708,2.708,0,0,0-2.9-2.83q-10.222-.011-20.445,0c-.2,0-.4.042-.7.075A4.667,4.667,0,0,1,8.139,4.584q.49,13.3,1.037,26.6c.075,1.886.139,3.773.272,5.654a2.63,2.63,0,0,0,2.536,2.383,2.52,2.52,0,0,0,2.65-2.019c-1.019,0-2.033.055-3.035-.029a1.531,1.531,0,0,1-1.043-.615,2.677,2.677,0,0,1,2.479-4.091q9.124-.017,18.248,0h1.023c-.213-4.956-.42-9.779-.627-14.6a1.889,1.889,0,0,0-.6.681c-1.171,2.021-2.446,3.99-3.483,6.078-1.311,2.64-3.39,4.6-5.4,6.644-.185.189-.71.329-.845.215a1.056,1.056,0,0,1-.32-.9c.791-2.449,1.115-5.073,2.643-7.254a1.192,1.192,0,0,0,.079-.357h-9.5V21.643h.978c2.929,0,5.857.007,8.786-.012a1.081,1.081,0,0,0,.789-.283c.5-.733.913-1.523,1.439-2.429H14.229V17.586h.942c3.717,0,7.435,0,11.152-.01.281,0,.695-.052.818-.235.511-.754.934-1.568,1.471-2.5H13.531Zm1.7,25.581h7.018q7.01,0,14.021,0a2.723,2.723,0,0,0,2.594-1.421,2.688,2.688,0,0,0-2.521-3.982q-10.262-.018-20.525,0c-.157,0-.314.017-.5.027,1.213,2.467,1.209,3.269-.092,5.376M32.243,11.242l-8.1,14.039,1.137.683,8.1-14.045-1.136-.677M6.284,2.7a2.558,2.558,0,0,0-2.9-1.246A2.716,2.716,0,0,0,1.362,3.874,2.654,2.654,0,0,0,2.963,6.5a1.1,1.1,0,0,0,1.617-.535,1.272,1.272,0,0,0-.5-1.68,5.268,5.268,0,0,0-.641-.29V2.7Zm29.605,7.583L32.384,8.272l-.659,1.113c.275.168.508.316.746.454.892.518,1.785,1.032,2.735,1.581l.683-1.135M14.765,35.842a2.4,2.4,0,0,0-1.56-1.905,1.259,1.259,0,0,0-1.679,1.349.811.811,0,0,0,.554.531c.859.059,1.724.025,2.686.025M5.946,4.092V6.7H6.9L6.723,4.092ZM34.214,7.7l1.137.671.66-1.132-1.123-.662L34.214,7.7M23.15,28.219l.124.067,1.109-1.225-.795-.426-.438,1.584" transform="translate(0 -0.001)" fill="#ffe8b6"/>
        <rect id="Rectángulo_402154" data-name="Rectángulo 402154" width="15.479" height="1.256" transform="translate(13.553 9.529)" fill="#ffe8b6"/>
        <rect id="Rectángulo_402155" data-name="Rectángulo 402155" width="1.239" height="1.284" transform="translate(10.879 9.53)" fill="#ffe8b6"/>
        <rect id="Rectángulo_402156" data-name="Rectángulo 402156" width="1.285" height="1.25" transform="translate(10.851 13.589)" fill="#ffe8b6"/>
        <rect id="Rectángulo_402157" data-name="Rectángulo 402157" width="1.266" height="1.252" transform="translate(11.526 17.645)" fill="#ffe8b6"/>
        <rect id="Rectángulo_402158" data-name="Rectángulo 402158" width="1.266" height="1.252" transform="translate(11.526 21.703)" fill="#ffe8b6"/>
      </g>
    </g>
  </g>
</svg>
