<svg xmlns="http://www.w3.org/2000/svg" xmlns:xlink="http://www.w3.org/1999/xlink" width="176.071" height="92.21" viewBox="0 0 176.071 92.21">
  <defs>
    <clipPath id="clip-path">
      <rect id="Rectángulo_400902" data-name="Rectángulo 400902" width="36.408" height="31.536" fill="#4d812e"/>
    </clipPath>
    <clipPath id="clip-path-2">
      <rect id="Rectángulo_402160" data-name="Rectángulo 402160" width="37.838" height="43.438" fill="#ffe8b6"/>
    </clipPath>
  </defs>
  <g id="Grupo_1100055" data-name="Grupo 1100055" transform="translate(-475 -3145.031)">
    <path id="Rectángulo_401384" data-name="Rectángulo 401384" d="M0,0H176.071a0,0,0,0,1,0,0V0a12.534,12.534,0,0,1-12.534,12.534h-151A12.534,12.534,0,0,1,0,0V0A0,0,0,0,1,0,0Z" transform="translate(475 3224.707)" fill="#77af8f"/>
    <path id="Rectángulo_401385" data-name="Rectángulo 401385" d="M0,0H22.669a40,40,0,0,1,40,40V176.071a0,0,0,0,1,0,0H0a0,0,0,0,1,0,0V0A0,0,0,0,1,0,0Z" transform="translate(475 3224.707) rotate(-90)" fill="#daf2e4"/>
    <g id="Grupo_1099480" data-name="Grupo 1099480" transform="translate(600.339 3199.438)">
      <g id="Grupo_1098724" data-name="Grupo 1098724" transform="translate(0 0)">
        <g id="Grupo_1098723" data-name="Grupo 1098723" clip-path="url(#clip-path)">
          <path id="Trazado_872910" data-name="Trazado 872910" d="M1.454.71a.719.719,0,0,1-.727.71A.718.718,0,0,1,0,.71.719.719,0,0,1,.727,0a.719.719,0,0,1,.727.71" fill="#4d812e"/>
          <path id="Trazado_872911" data-name="Trazado 872911" d="M30.408.71a.727.727,0,0,1-1.454,0,.727.727,0,0,1,1.454,0" transform="translate(-21.963)" fill="#4d812e"/>
          <path id="Trazado_872912" data-name="Trazado 872912" d="M59.361.71a.727.727,0,0,1-1.454,0,.727.727,0,0,1,1.454,0" transform="translate(-43.925)" fill="#4d812e"/>
          <path id="Trazado_872913" data-name="Trazado 872913" d="M88.314.71a.727.727,0,0,1-1.454,0,.727.727,0,0,1,1.454,0" transform="translate(-65.887)" fill="#4d812e"/>
          <path id="Trazado_872914" data-name="Trazado 872914" d="M117.267.71a.727.727,0,0,1-1.454,0,.727.727,0,0,1,1.454,0" transform="translate(-87.85)" fill="#4d812e"/>
          <path id="Trazado_872915" data-name="Trazado 872915" d="M146.221.71a.727.727,0,0,1-1.454,0,.727.727,0,0,1,1.454,0" transform="translate(-109.813)" fill="#4d812e"/>
          <path id="Trazado_872916" data-name="Trazado 872916" d="M1.454,32.625a.719.719,0,0,1-.727.71.71.71,0,1,1,0-1.42.719.719,0,0,1,.727.71" transform="translate(0 -24.386)" fill="#4d812e"/>
          <path id="Trazado_872917" data-name="Trazado 872917" d="M30.408,32.625a.727.727,0,1,1-.727-.71.719.719,0,0,1,.727.71" transform="translate(-21.963 -24.386)" fill="#4d812e"/>
          <path id="Trazado_872918" data-name="Trazado 872918" d="M59.361,32.625a.727.727,0,1,1-.727-.71.719.719,0,0,1,.727.71" transform="translate(-43.925 -24.386)" fill="#4d812e"/>
          <path id="Trazado_872919" data-name="Trazado 872919" d="M88.314,32.625a.727.727,0,1,1-.727-.71.719.719,0,0,1,.727.71" transform="translate(-65.887 -24.386)" fill="#4d812e"/>
          <path id="Trazado_872920" data-name="Trazado 872920" d="M117.267,32.625a.727.727,0,1,1-.727-.71.719.719,0,0,1,.727.71" transform="translate(-87.85 -24.386)" fill="#4d812e"/>
          <path id="Trazado_872921" data-name="Trazado 872921" d="M146.221,32.625a.727.727,0,1,1-.727-.71.719.719,0,0,1,.727.71" transform="translate(-109.813 -24.386)" fill="#4d812e"/>
          <path id="Trazado_872922" data-name="Trazado 872922" d="M1.454,64.54a.719.719,0,0,1-.727.71.71.71,0,1,1,0-1.42.719.719,0,0,1,.727.71" transform="translate(0 -48.772)" fill="#4d812e"/>
          <path id="Trazado_872923" data-name="Trazado 872923" d="M30.408,64.54a.727.727,0,1,1-.727-.71.719.719,0,0,1,.727.71" transform="translate(-21.963 -48.772)" fill="#4d812e"/>
          <path id="Trazado_872924" data-name="Trazado 872924" d="M59.361,64.54a.727.727,0,1,1-.727-.71.719.719,0,0,1,.727.71" transform="translate(-43.925 -48.772)" fill="#4d812e"/>
          <path id="Trazado_872925" data-name="Trazado 872925" d="M88.314,64.54a.727.727,0,1,1-.727-.71.719.719,0,0,1,.727.71" transform="translate(-65.887 -48.772)" fill="#4d812e"/>
          <path id="Trazado_872926" data-name="Trazado 872926" d="M117.267,64.54a.727.727,0,1,1-.727-.71.719.719,0,0,1,.727.71" transform="translate(-87.85 -48.772)" fill="#4d812e"/>
          <path id="Trazado_872927" data-name="Trazado 872927" d="M146.221,64.54a.727.727,0,1,1-.727-.71.719.719,0,0,1,.727.71" transform="translate(-109.813 -48.772)" fill="#4d812e"/>
          <path id="Trazado_872928" data-name="Trazado 872928" d="M1.454,96.455a.719.719,0,0,1-.727.71.71.71,0,1,1,0-1.42.719.719,0,0,1,.727.71" transform="translate(0 -73.158)" fill="#4d812e"/>
          <path id="Trazado_872929" data-name="Trazado 872929" d="M30.408,96.455a.727.727,0,1,1-.727-.71.719.719,0,0,1,.727.71" transform="translate(-21.963 -73.158)" fill="#4d812e"/>
          <path id="Trazado_872930" data-name="Trazado 872930" d="M59.361,96.455a.727.727,0,1,1-.727-.71.719.719,0,0,1,.727.71" transform="translate(-43.925 -73.158)" fill="#4d812e"/>
          <path id="Trazado_872931" data-name="Trazado 872931" d="M88.314,96.455a.727.727,0,1,1-.727-.71.719.719,0,0,1,.727.71" transform="translate(-65.887 -73.158)" fill="#4d812e"/>
          <path id="Trazado_872932" data-name="Trazado 872932" d="M117.267,96.455a.727.727,0,1,1-.727-.71.719.719,0,0,1,.727.71" transform="translate(-87.85 -73.158)" fill="#4d812e"/>
          <path id="Trazado_872933" data-name="Trazado 872933" d="M146.221,96.455a.727.727,0,1,1-.727-.71.719.719,0,0,1,.727.71" transform="translate(-109.813 -73.158)" fill="#4d812e"/>
          <path id="Trazado_872934" data-name="Trazado 872934" d="M1.454,128.37a.719.719,0,0,1-.727.71.71.71,0,1,1,0-1.42.719.719,0,0,1,.727.71" transform="translate(0 -97.544)" fill="#4d812e"/>
          <path id="Trazado_872935" data-name="Trazado 872935" d="M30.408,128.37a.727.727,0,1,1-.727-.71.719.719,0,0,1,.727.71" transform="translate(-21.963 -97.544)" fill="#4d812e"/>
          <path id="Trazado_872936" data-name="Trazado 872936" d="M59.361,128.37a.727.727,0,1,1-.727-.71.719.719,0,0,1,.727.71" transform="translate(-43.925 -97.544)" fill="#4d812e"/>
          <path id="Trazado_872937" data-name="Trazado 872937" d="M88.314,128.37a.727.727,0,1,1-.727-.71.719.719,0,0,1,.727.71" transform="translate(-65.887 -97.544)" fill="#4d812e"/>
          <path id="Trazado_872938" data-name="Trazado 872938" d="M117.267,128.37a.727.727,0,1,1-.727-.71.719.719,0,0,1,.727.71" transform="translate(-87.85 -97.544)" fill="#4d812e"/>
          <path id="Trazado_872939" data-name="Trazado 872939" d="M146.221,128.37a.727.727,0,1,1-.727-.71.719.719,0,0,1,.727.71" transform="translate(-109.813 -97.544)" fill="#4d812e"/>
        </g>
      </g>
    </g>
    <g id="Grupo_1098742" data-name="Grupo 1098742" transform="translate(525.732 3145.031)">
      <rect id="Rectángulo_400898" data-name="Rectángulo 400898" width="69.048" height="69.048" rx="34.524" transform="translate(4.655 4.655)" fill="#0f6646" opacity="0.859"/>
      <g id="Rectángulo_400907" data-name="Rectángulo 400907" fill="none" stroke="#4d812e" stroke-linecap="round" stroke-width="2" stroke-dasharray="7">
        <rect width="77.582" height="77.582" rx="38.791" stroke="none"/>
        <rect x="1" y="1" width="75.582" height="75.582" rx="37.791" fill="none"/>
      </g>
    </g>
    <g id="Grupo_1099708" data-name="Grupo 1099708" transform="translate(546.935 3162.038)">
      <g id="Grupo_1099707" data-name="Grupo 1099707" clip-path="url(#clip-path-2)">
        <path id="Trazado_880327" data-name="Trazado 880327" d="M4.213,4.2c0-1.111.02-2.126-.007-3.139C4.186.32,4.482,0,5.237,0q13.7.016,27.4,0c.929,0,1.011.529,1.01,1.254-.01,8.461.011,16.923-.032,25.384a1.387,1.387,0,0,0,1.065,1.58c.824.282,1.6.711,2.4,1.041a1.045,1.045,0,0,1,.746,1.209c-.243,2.467-.441,4.938-.7,7.4a1.476,1.476,0,0,1-.473.872c-1.674,1.453-3.389,2.86-5.065,4.311a.962.962,0,0,1-1.517,0c-.161-.163-.361-.287-.468-.172a3.7,3.7,0,0,1-1.255.527c-9.074.031-18.148.018-27.222.033C.3,43.44,0,43.121,0,42.294Q.022,23.825.012,5.356C.012,4.33.145,4.2,1.183,4.2c.961-.005,1.922,0,3.03,0M28.242,41.989a5.406,5.406,0,0,0-.664-1.033c-.821-.744-1.7-1.421-2.517-2.171a1.655,1.655,0,0,1-.526-.933c-.26-2.464-.457-4.935-.7-7.4a1,1,0,0,1,.683-1.16c.94-.395,1.851-.862,2.8-1.221a.971.971,0,0,0,.718-1.094c-.025-4.988-.014-9.977-.017-14.965,0-.251-.031-.5-.051-.8-1.435,0-2.8,0-4.17,0-1.29,0-1.379-.091-1.38-1.4,0-1.387,0-2.775,0-4.155H1.475V41.989Zm3.942-14.881V1.468H5.664V4.2h.981c5.308,0,10.615-.015,15.923.026A2.312,2.312,0,0,1,24,4.811q2.477,2.345,4.824,4.824a2.315,2.315,0,0,1,.584,1.437c.042,4.986.026,9.973.026,14.96v1.186a2.1,2.1,0,0,1,2.749-.111M36.3,31.615c.451-.965-.251-1.334-1.166-1.688-1.275-.493-2.5-1.115-3.759-1.646a1.281,1.281,0,0,0-.885-.067c-1.611.674-3.206,1.388-4.791,2.122a.745.745,0,0,0-.37.567q.243,3.182.574,6.356a1.352,1.352,0,0,0,.453.778c1.3,1.131,2.631,2.216,3.925,3.35.4.353.672.4,1.1.019,1.265-1.121,2.592-2.173,3.85-3.3a1.875,1.875,0,0,0,.569-1.081c.2-1.736.331-3.481.5-5.408M23.907,6.879V9.74h2.878L23.907,6.879" transform="translate(0 0)" fill="#ffe8b6"/>
        <path id="Trazado_880328" data-name="Trazado 880328" d="M28.96,144.17c-1.253,0-2.505.006-3.758,0-.991-.006-1.146-.17-1.153-1.186,0-.7.008-1.4,0-2.1-.009-.607.253-.925.882-.924q4.02.006,8.04,0c.625,0,.9.3.894.914-.009.786-.011,1.573,0,2.359.01.67-.327.943-.97.939-1.311-.009-2.622,0-3.932,0m3.474-2.733H25.519V142.7h6.915Z" transform="translate(-19.836 -115.451)" fill="#ffe8b6"/>
        <path id="Trazado_880329" data-name="Trazado 880329" d="M34.618,93.442q-4.636,0-9.272,0c-.517,0-1.089,0-1.113-.669-.025-.742.575-.742,1.124-.742q9.36,0,18.719,0c.517,0,1.09-.006,1.113.668.025.741-.574.743-1.125.743q-4.723-.006-9.447,0" transform="translate(-19.989 -75.917)" fill="#ffe8b6"/>
        <path id="Trazado_880330" data-name="Trazado 880330" d="M34.623,109.442q-4.636,0-9.272,0c-.552,0-1.149-.007-1.119-.748.027-.673.6-.662,1.118-.662q9.36,0,18.719,0c.552,0,1.149.006,1.119.747-.028.672-.6.664-1.118.663q-4.723-.006-9.447,0" transform="translate(-19.988 -89.115)" fill="#ffe8b6"/>
        <path id="Trazado_880331" data-name="Trazado 880331" d="M33.366,171.947q3.979,0,7.958,0c.546,0,1.152-.012,1.124.737-.025.668-.6.674-1.114.674q-7.958,0-15.916,0c-.058,0-.117,0-.175,0-.524.011-1.029-.155-.923-.74a1.178,1.178,0,0,1,.913-.638c2.71-.051,5.421-.029,8.132-.029" transform="translate(-20.049 -141.832)" fill="#ffe8b6"/>
        <path id="Trazado_880332" data-name="Trazado 880332" d="M33.393,187.954q3.935,0,7.871,0c.513,0,1.093-.018,1.117.659.026.734-.569.752-1.122.752q-7.958,0-15.916,0c-.555,0-1.14-.022-1.118-.757.018-.616.537-.656,1.036-.655q4.066.009,8.133,0" transform="translate(-19.982 -155.038)" fill="#ffe8b6"/>
        <path id="Trazado_880333" data-name="Trazado 880333" d="M33.246,205.372H25.725c-.2,0-.408,0-.612,0-.5,0-.943-.222-.833-.746a1.1,1.1,0,0,1,.838-.631c5.48-.038,10.96-.027,16.44-.029.508,0,.959.214.828.732a1.2,1.2,0,0,1-.921.645c-2.739.051-5.48.029-8.22.03" transform="translate(-20.014 -168.247)" fill="#ffe8b6"/>
        <path id="Trazado_880334" data-name="Trazado 880334" d="M31.54,123.956q3.06,0,6.12,0c.55,0,1.237-.093,1.223.72-.013.73-.648.687-1.183.687q-6.164,0-12.327,0c-.547,0-1.149,0-1.139-.734.009-.681.582-.677,1.1-.676q3.1.007,6.207,0" transform="translate(-19.99 -102.248)" fill="#ffe8b6"/>
        <path id="Trazado_880335" data-name="Trazado 880335" d="M26.9,64.243c-.64,0-1.281-.007-1.921,0-.609.009-.924-.266-.921-.889,0-.815,0-1.63,0-2.445,0-.628.328-.882.932-.878q1.878.014,3.755,0c.609,0,.925.266.922.889,0,.815,0,1.63,0,2.445,0,.627-.329.887-.933.878s-1.223,0-1.834,0m1.345-2.751h-2.72v1.281h2.72Z" transform="translate(-19.844 -49.52)" fill="#ffe8b6"/>
        <path id="Trazado_880336" data-name="Trazado 880336" d="M71.2,77.438c-1.982,0-3.964,0-5.945,0-.54,0-1.062-.07-1.037-.745.023-.613.526-.667,1.029-.667q5.945.008,11.891,0c.54,0,1.063.069,1.037.745-.023.612-.526.669-1.029.668-1.982-.007-3.964,0-5.945,0" transform="translate(-52.972 -62.715)" fill="#ffe8b6"/>
        <path id="Trazado_880337" data-name="Trazado 880337" d="M93.251,139.908c1.281,0,2.565-.044,3.842.03.333.019.869.363.919.632.109.582-.392.746-.917.746q-3.931,0-7.863,0c-.526,0-1.026-.164-.917-.746.051-.269.586-.614.918-.632,1.336-.072,2.678-.03,4.017-.03" transform="translate(-72.837 -115.397)" fill="#ffe8b6"/>
        <path id="Trazado_880338" data-name="Trazado 880338" d="M68.819,59.981c1.194,0,2.391-.047,3.58.03.332.022.864.369.915.64.109.585-.392.739-.919.738-2.388-.006-4.777.023-7.163-.032a1.181,1.181,0,0,1-.913-.642c-.11-.586.391-.741.918-.737,1.194.008,2.388,0,3.582,0" transform="translate(-53.043 -49.466)" fill="#ffe8b6"/>
        <path id="Trazado_880339" data-name="Trazado 880339" d="M92.171,155.9c.961,0,1.926-.052,2.879.03a1.125,1.125,0,0,1,.835.633c.107.523-.333.741-.835.742q-2.969,0-5.938,0c-.5,0-.941-.222-.832-.744a1.123,1.123,0,0,1,.837-.63c1.013-.079,2.035-.03,3.054-.03" transform="translate(-72.807 -128.582)" fill="#ffe8b6"/>
        <path id="Trazado_880340" data-name="Trazado 880340" d="M163.218,187.347l1.912-2.851c.146-.217.245-.524.449-.631a4.434,4.434,0,0,1,1.043-.27c.041.336.236.767.1.992-.853,1.386-1.753,2.746-2.713,4.061a1.088,1.088,0,0,1-1.025.206,9.727,9.727,0,0,1-1.953-1.3c-.215-.181-.209-.624-.3-.947.356-.062.763-.264,1.055-.155a8.051,8.051,0,0,1,1.438.9" transform="translate(-132.579 -151.445)" fill="#ffe8b6"/>
      </g>
    </g>
  </g>
</svg>
